<svg width="17" height="24" viewBox="0 0 17 24" fill="none" xmlns="http://www.w3.org/2000/svg">
<path d="M15.2739 14.5426L12.738 13.5749L12.3913 13.6837L9.30614 16.8538H8.41144L5.13341 13.6837L4.8646 13.5586L3.81451 13.9687L3.17361 14.6633L2.75781 15.9128V18.7657H3.25914V23.4638L3.6062 23.9728H13.9465L14.2936 23.7183V18.7657H16.5023L17.0007 18.4726V17.2211C17.0007 15.8025 16.0121 14.8465 15.2739 14.5426Z" fill="#8CEEA1"/>
<path d="M2.95739 16.2287C2.95739 15.0962 3.58746 14.2589 4.21722 13.8125L2.34407 14.5441C1.60578 14.8479 0.617188 15.804 0.617188 17.2226V18.4741L0.85945 18.7671H2.95739V16.2287Z" fill="#4CE1A1"/>
<path d="M3.17265 19.668H0.617188V23.3945C0.617188 23.7133 0.875622 23.9717 1.19439 23.9717H3.17261V19.668H3.17265Z" fill="#FFA68E"/>
<path d="M14.375 19.668V23.9717H16.4194C16.7382 23.9717 16.9966 23.7133 16.9966 23.3945V19.668H14.375V19.668Z" fill="#FFB1A0"/>
<path d="M13.4214 18.043H12.1263L11.8732 18.1948L11.7344 18.4735V21.4227L11.9368 21.6714L12.1888 21.7733H13.4214C13.7362 21.7733 13.9915 21.5181 13.9915 21.2033V18.6131C13.9915 18.2982 13.7362 18.043 13.4214 18.043Z" fill="#FFF5F5"/>
<path d="M11.8275 21.2032V18.613C11.8275 18.2982 12.0827 18.043 12.3976 18.043H10.8357C10.5208 18.043 10.2656 18.2982 10.2656 18.613V21.2032C10.2656 21.5181 10.5209 21.7733 10.8357 21.7733H12.3976C12.0827 21.7733 11.8275 21.5181 11.8275 21.2032Z" fill="#EEE1DD"/>
<path d="M12.6652 19.5614H12.4743V19.3705C12.4743 19.2785 12.4377 19.1902 12.3726 19.1251C12.3076 19.06 12.2193 19.0234 12.1272 19.0234C12.0352 19.0234 11.9469 19.06 11.8818 19.1251C11.8167 19.1902 11.7802 19.2785 11.7802 19.3705V19.5614H11.5893C11.4972 19.5614 11.4089 19.598 11.3438 19.6631C11.2788 19.7282 11.2422 19.8164 11.2422 19.9085C11.2422 20.0005 11.2788 20.0888 11.3438 20.1539C11.4089 20.219 11.4972 20.2555 11.5893 20.2555H11.7802V20.4465C11.7802 20.5385 11.8167 20.6268 11.8818 20.6919C11.9469 20.757 12.0352 20.7935 12.1272 20.7935C12.2193 20.7935 12.3076 20.757 12.3726 20.6919C12.4377 20.6268 12.4743 20.5385 12.4743 20.4465V20.2555H12.6652C12.7573 20.2555 12.8455 20.219 12.9106 20.1539C12.9757 20.0888 13.0123 20.0005 13.0123 19.9085C13.0123 19.8164 12.9757 19.7282 12.9106 19.6631C12.8455 19.598 12.7573 19.5614 12.6652 19.5614Z" fill="#FF7F87"/>
<path d="M6.74693 18.0781H5.05019C5.00461 18.0781 4.95948 18.0871 4.91737 18.1045C4.87527 18.122 4.83701 18.1476 4.80478 18.1798C4.77255 18.212 4.74699 18.2503 4.72954 18.2924C4.7121 18.3345 4.70312 18.3796 4.70312 18.4252C4.70312 18.4708 4.7121 18.5159 4.72954 18.558C4.74699 18.6001 4.77255 18.6384 4.80478 18.6706C4.83701 18.7028 4.87527 18.7284 4.91737 18.7458C4.95948 18.7633 5.00461 18.7723 5.05019 18.7723H6.74693C6.79251 18.7723 6.83764 18.7633 6.87975 18.7458C6.92185 18.7284 6.96011 18.7028 6.99234 18.6706C7.02457 18.6384 7.05013 18.6001 7.06758 18.558C7.08502 18.5159 7.094 18.4708 7.094 18.4252C7.094 18.3796 7.08502 18.3345 7.06758 18.2924C7.05013 18.2503 7.02457 18.212 6.99234 18.1798C6.96011 18.1476 6.92185 18.122 6.87975 18.1045C6.83764 18.0871 6.79251 18.0781 6.74693 18.0781Z" fill="#FFF5F5"/>
<path d="M0.617188 18.4727H3.25818V19.861H0.617188V18.4727ZM14.2927 18.4727H16.9998V19.861H14.2927V18.4727Z" fill="#3EC2A3"/>
<path d="M11.2876 13.0216L10.8358 13.1884H6.72475L6.29521 12.9961L4.85938 13.5569L8.30505 17.0026C8.43744 17.135 8.617 17.2093 8.80422 17.2093C8.99145 17.2093 9.171 17.135 9.30339 17.0026L12.7328 13.5732L11.2876 13.0216Z" fill="#FFF5F5"/>
<path d="M10.7439 12.8149C10.684 12.7917 10.6324 12.751 10.596 12.698C10.5596 12.645 10.54 12.5823 10.5398 12.518L10.539 11.4685L10.4224 11.293H8.64844V14.9027C8.64844 14.8795 8.80733 15.5071 8.80733 15.5071L11.2908 13.0236L10.7439 12.8149Z" fill="#FFB1A0"/>
<path d="M7.16607 11.293L7.00529 11.4638L7.00534 12.5161C7.00534 12.6476 6.94209 12.7251 6.86931 12.7746L6.29688 12.9981L8.80584 15.5071V11.293H7.16607Z" fill="#FFA68E"/>
<path d="M14.6394 23.9707V16.9447C14.6394 16.8527 14.6029 16.7644 14.5378 16.6993C14.4727 16.6342 14.3844 16.5977 14.2924 16.5977C14.2003 16.5977 14.1121 16.6342 14.047 16.6993C13.9819 16.7644 13.9453 16.8527 13.9453 16.9447V23.9707H14.6394Z" fill="#4CE1A1"/>
<path d="M3.60038 23.9707V16.9447C3.60038 16.8527 3.56381 16.7644 3.49873 16.6993C3.43364 16.6342 3.34536 16.5977 3.25332 16.5977C3.16127 16.5977 3.07299 16.6342 3.0079 16.6993C2.94282 16.7644 2.90625 16.8527 2.90625 16.9447V23.9707H3.60038Z" fill="#3EC2A3"/>
<path d="M3.95312 6.69357V6.89442L4.52094 7.42661H5.68603V6.45252L4.61352 6.125L4.46294 6.22118C4.249 6.32326 4.07119 6.48802 3.95312 6.69357Z" fill="#FFB1A0"/>
<path d="M4.9586 7.27979C4.52717 7.27979 4.15099 7.04444 3.9506 6.69531C3.84972 6.87044 3.79671 7.06902 3.79688 7.27112C3.79688 7.91269 4.31698 8.43284 4.9586 8.43284H5.58395L5.6835 8.3076V7.15455L5.58395 7.27979H4.9586Z" fill="#FFA68E"/>
<path d="M13.1522 7.42665L13.4877 7.05641L13.6093 6.69348C13.4394 6.39763 13.1433 6.18349 12.794 6.125H12.7068L12.4812 6.40271L11.9062 6.47V7.42661H13.1522V7.42665Z" fill="#FFB1A0"/>
<path d="M12.6012 7.27992H11.9759L11.9062 7.12575V8.2788L11.9759 8.43298H12.6012C13.2428 8.43298 13.763 7.91287 13.763 7.2713C13.763 7.06142 13.7067 6.86503 13.6093 6.69531C13.4089 7.04449 13.0327 7.27992 12.6012 7.27992Z" fill="#FFA68E"/>
<path d="M11.4569 5.98116L11.2371 5.125H10.8091L9.40918 6.36295H7.39062V10.1462L8.94258 11.6387L9.32823 11.8083L9.77597 11.8313C11.0468 11.4259 11.9699 10.2343 11.9699 8.83091V6.54767L11.4569 5.98116Z" fill="#FFCEBE"/>
<path d="M7.55266 8.83128V6.57298L7.72754 6.36328H5.75301L5.57812 6.57298V8.83128C5.57812 10.477 6.86765 11.9802 8.8182 11.9802C9.15107 11.9802 9.47185 11.9278 9.77328 11.8317C8.40559 11.4137 7.55266 10.1697 7.55266 8.83128Z" fill="#FFB1A0"/>
<path d="M11.7662 2.42852C11.4653 2.4517 11.1893 2.26254 11.1314 1.96637C11.0338 1.4676 10.7869 0.972656 9.82233 0.972656H8.1207L7.57059 1.13455L6.861 1.72074L6.38281 2.63085V5.97056L6.67588 6.37162L7.1061 6.57359H8.98648C9.83604 6.57359 10.5739 6.09697 10.9483 5.39673C10.9773 5.34246 11.0597 5.36367 11.0597 5.42521C11.0597 6.05681 11.5764 6.57359 12.208 6.57359C12.5391 6.57359 12.81 6.30271 12.81 5.97164V3.42466C12.81 2.82469 12.2865 2.38854 11.7662 2.42852Z" fill="#7B6C79"/>
<path d="M6.54847 5.63724V3.19655C6.54847 1.96835 7.54416 0.972656 8.77236 0.972656H6.4739C5.24565 0.972656 4.25 1.96835 4.25 3.19655V5.63719C4.25 6.15438 4.66925 6.57359 5.18639 6.57359H7.48486C6.96772 6.57363 6.54847 6.15442 6.54847 5.63724Z" fill="#665E68"/>
</svg>
