<svg width="23" height="23" viewBox="0 0 23 23" fill="none" xmlns="http://www.w3.org/2000/svg">
<path d="M22.6211 22.9727H16.1328L14.8438 21.7642V17.8943L16.1328 16.4844H22.6211V22.9727Z" fill="#DB2E44"/>
<path d="M0.617188 15.1953V22.9727H7.10547L8.39453 21.6836V16.4844L7.10547 15.1953H0.617188Z" fill="#4CC0FF"/>
<path d="M7.10938 12.5742H16.1328V22.9727H7.10938V12.5742Z" fill="#FFB739"/>
<path d="M11.6133 12.5742H16.125V22.9727H11.6133V12.5742ZM7.10156 2.90625V2.26172H9.67969L8.39062 0.972656H5.8125V2.90625C5.8125 4.45832 6.929 6.12891 9.38007 6.12891V4.83984C7.69827 4.83984 7.10156 3.7982 7.10156 2.90625Z" fill="#FB992D"/>
<path d="M14.8359 0.972656L13.5469 2.26172H16.125V2.90625C16.125 3.84099 15.5264 4.83984 13.8465 4.83984V6.12891C16.2976 6.12891 17.4141 4.45832 17.4141 2.90625V0.972656H14.8359Z" fill="#F67A21"/>
<path d="M10.9688 8.0625H12.2578V10.6406H10.9688V8.0625Z" fill="#FB992D"/>
<path d="M11.6172 8.0625H12.2617V10.6406H11.6172V8.0625Z" fill="#F67A21"/>
<path d="M8.39062 9.99609H14.8359V11.2852H8.39062V9.99609Z" fill="#FFB739"/>
<path d="M11.6172 9.99609H14.8398V11.2852H11.6172V9.99609Z" fill="#FB992D"/>
<path d="M14.8359 0.972656V5.48438C14.8359 7.2632 13.3921 8.70703 11.6133 8.70703C9.83446 8.70703 8.39062 7.2632 8.39062 5.48438V0.972656H14.8359Z" fill="#FFB739"/>
<path d="M11.6172 8.70703V0.972656H14.8398V5.48438C14.8398 7.2632 13.396 8.70703 11.6172 8.70703Z" fill="#FB992D"/>
<path d="M10.9688 15.1953H12.2578V20.3516H10.9688V15.1953Z" fill="#466289"/>
<path d="M11.6172 15.1953H12.2617V20.3516H11.6172V15.1953Z" fill="#354A67"/>
</svg>
