<svg width="23" height="27" viewBox="0 0 23 27" fill="none" xmlns="http://www.w3.org/2000/svg">
<path d="M19.649 8.74216C19.625 8.18085 19.1623 7.73822 18.6004 7.73873H15.2689C16.8519 5.89497 16.6398 3.11688 14.7959 1.53389C12.9521 -0.0489092 10.174 0.163197 8.59103 2.00713C7.17611 3.65578 7.17611 6.09008 8.59103 7.73822H5.2595C4.69764 7.73785 4.23494 8.1803 4.21098 8.7418L0.939803 25.2635C0.936732 25.2951 0.936732 25.3272 0.939803 25.3588C0.939757 25.9378 1.40919 26.4075 1.98824 26.4075H21.8866C22.4657 26.4075 22.9354 25.9378 22.9354 25.3588C22.9382 25.3271 22.9382 25.2952 22.9354 25.2635L19.649 8.74216ZM8.5359 4.92411C8.5332 3.04815 10.0521 1.52551 11.9279 1.5228C13.8039 1.52028 15.3267 3.03921 15.3292 4.91499C15.3299 5.48363 15.1878 6.04334 14.9161 6.54284C14.6443 7.04234 14.2516 7.46566 13.7738 7.77401H10.0912C9.61586 7.46528 9.22484 7.04314 8.95334 6.54563C8.68183 6.04812 8.53838 5.49088 8.5359 4.92411ZM21.8867 25.4046H1.97829C1.97208 25.4078 1.9652 25.4094 1.95822 25.4094C1.95124 25.4094 1.94437 25.4078 1.93815 25.4046L5.20938 8.92293C5.21245 8.89127 5.21245 8.85924 5.20938 8.82753C5.20935 8.8216 5.2105 8.81573 5.21276 8.81025C5.21502 8.80476 5.21834 8.79978 5.22253 8.79559C5.22672 8.7914 5.2317 8.78808 5.23718 8.78582C5.24266 8.78357 5.24854 8.78242 5.25446 8.78244H18.6055C18.6114 8.78242 18.6173 8.78357 18.6228 8.78582C18.6282 8.78808 18.6332 8.7914 18.6374 8.79559C18.6416 8.79978 18.6449 8.80476 18.6472 8.81025C18.6494 8.81573 18.6506 8.8216 18.6506 8.82753C18.6475 8.85919 18.6475 8.89122 18.6506 8.92293L21.9217 25.4046C21.9105 25.409 21.8979 25.409 21.8867 25.4046Z" fill="#303030" fill-opacity="0.5"/>
</svg>
