<svg width="21" height="21" viewBox="0 0 21 21" fill="none" xmlns="http://www.w3.org/2000/svg">
<path d="M20.4128 2.39616C20.3571 2.12236 20.2221 1.871 20.0245 1.67343C19.827 1.47587 19.5756 1.34084 19.3018 1.2852C19.2487 1.27434 19.1954 1.26418 19.1422 1.25391C14.9294 1.77732 10.609 3.83663 7.09981 7.34587C3.59054 10.8551 1.53122 15.1755 1.00781 19.3883C1.01809 19.4415 1.02828 19.4948 1.0391 19.5479C1.09475 19.8217 1.22978 20.0731 1.42734 20.2706C1.62491 20.4682 1.87627 20.6032 2.15007 20.6589C3.88898 21.0136 5.67704 21.0668 7.43084 20.8193L7.96722 20.1201L9.74461 19.7892L10.819 19.9415C12.7783 19.188 14.6154 18.0217 16.1955 16.4415C17.7756 14.8614 18.942 13.0244 19.6955 11.065L19.5886 10.1097L20.2136 8.07018L20.5732 7.67697C20.8207 5.92313 20.7675 4.13508 20.4128 2.39616Z" fill="#CE775F"/>
<path d="M14.7662 16.9138C10.2356 16.9138 6.3351 14.2164 4.5831 10.3398C2.59391 13.1747 1.39028 16.3102 1.00781 19.3886C1.01809 19.4418 1.02828 19.4951 1.0391 19.5482C1.09475 19.822 1.22978 20.0734 1.42734 20.2709C1.62491 20.4685 1.87627 20.6035 2.15007 20.6592C3.88835 21.0133 5.6744 21.0676 7.43095 20.8195L7.96722 20.1204L9.74461 19.7895L10.819 19.9418H10.8192C12.5968 19.2581 14.2735 18.2343 15.7491 16.8703C15.4223 16.8991 15.0943 16.9136 14.7662 16.9138Z" fill="#C0694E"/>
<path d="M14.0218 1.12539V1.57645L11.8059 2.41749L10.6336 2.00314C8.67427 2.75664 6.83723 3.923 5.25711 5.50312C3.67691 7.08332 2.51055 8.9204 1.75706 10.8798L1.97351 12.5631L1.54193 13.9498L0.879337 14.2678C0.631335 16.0243 0.685595 17.8103 1.03977 19.5485C1.08201 19.7561 1.17005 19.9515 1.29747 20.1207C1.55732 15.7458 3.57453 11.1552 7.24185 7.48786C10.9091 3.82054 15.4998 1.80337 19.8746 1.54348C19.7055 1.41608 19.51 1.32805 19.3025 1.28582C17.5636 0.931084 15.7755 0.877879 14.0218 1.12539Z" fill="#C0694E"/>
<path d="M3.70732 7.30859C2.90179 8.407 2.24594 9.60768 1.75704 10.879L1.97345 12.5622L1.54187 13.949L0.879396 14.2669C0.63133 16.0234 0.685565 17.8095 1.03975 19.5477C1.08199 19.7552 1.17003 19.9507 1.29745 20.1199C1.48879 16.8987 2.63292 13.5606 4.68684 10.5602C4.19535 9.53302 3.86497 8.43631 3.70732 7.30859Z" fill="#B25D46"/>
<path d="M4.15381 11.3693C4.12041 11.3479 4.09154 11.3202 4.06885 11.2877C4.04616 11.2552 4.03009 11.2186 4.02157 11.1799C4.01304 11.1411 4.01223 11.1011 4.01917 11.0621C4.02611 11.0231 4.04066 10.9858 4.06201 10.9524C4.90207 9.63787 5.8985 8.40085 7.02369 7.2757C8.24544 6.05395 9.59583 4.98654 11.0374 4.10312C11.0711 4.08239 11.1087 4.06853 11.1478 4.06232C11.187 4.05611 11.227 4.05767 11.2655 4.06693C11.3041 4.07618 11.3404 4.09293 11.3725 4.11623C11.4045 4.13953 11.4317 4.16893 11.4524 4.20273C11.4731 4.23652 11.487 4.27406 11.4932 4.31321C11.4994 4.35236 11.4978 4.39234 11.4886 4.43088C11.4793 4.46943 11.4626 4.50577 11.4393 4.53784C11.416 4.5699 11.3866 4.59707 11.3528 4.61778C9.95166 5.47643 8.63877 6.51431 7.45054 7.70251C6.35621 8.79683 5.38728 9.9996 4.57069 11.2774C4.54936 11.3108 4.52164 11.3397 4.48914 11.3624C4.45665 11.3851 4.41999 11.4012 4.38128 11.4097C4.34257 11.4182 4.30256 11.419 4.26353 11.4121C4.2245 11.4052 4.18721 11.3906 4.15381 11.3693ZM1.96875 15.3632L7.42675 20.8212C8.45623 20.6839 9.66837 20.3844 10.8149 19.9435L3.28921 12.4178C2.76447 13.3809 2.32392 14.3668 1.96875 15.3632Z" fill="#B5DCFF"/>
<path d="M2.18132 15.5734C2.51653 14.5634 2.9431 13.5628 3.45925 12.5854L1.75276 10.8789L1.75268 10.8791C1.32318 11.996 1.0393 13.117 0.875 14.267L2.18132 15.5734Z" fill="#8BCAFF"/>
<path d="M15.1173 2.21875C14.1208 2.57392 13.135 3.01447 12.1719 3.53921L19.6975 11.0649C20.1175 9.97239 20.4119 8.83574 20.5753 7.67679L15.1173 2.21875Z" fill="#DBEDFF"/>
<path d="M14.021 1.125C13.1051 1.2395 11.8223 1.54532 10.6328 2.00276L12.3393 3.70925C13.3167 3.1931 14.3173 2.76653 15.3273 2.43132L14.021 1.125Z" fill="#B5DCFF"/>
<path d="M5.19948 11.0135L4.13301 9.94703C4.0774 9.89022 4.04645 9.81377 4.04688 9.73428C4.04731 9.65478 4.07907 9.57867 4.13528 9.52246C4.19149 9.46625 4.26761 9.43448 4.3471 9.43405C4.42659 9.43363 4.50304 9.46458 4.55985 9.52018L5.62633 10.5867C5.65436 10.6147 5.6766 10.648 5.69177 10.6846C5.70695 10.7212 5.71476 10.7604 5.71476 10.8001C5.71476 10.8397 5.70695 10.879 5.69177 10.9156C5.6766 10.9522 5.65436 10.9855 5.62633 11.0135C5.5983 11.0415 5.56503 11.0638 5.52841 11.0789C5.49179 11.0941 5.45254 11.1019 5.4129 11.1019C5.37327 11.1019 5.33402 11.0941 5.2974 11.0789C5.26078 11.0638 5.22751 11.0415 5.19948 11.0135ZM10.5749 5.63805L9.50842 4.57157C9.45282 4.51476 9.42187 4.43831 9.4223 4.35882C9.42272 4.27933 9.45449 4.20321 9.5107 4.147C9.56691 4.09079 9.64302 4.05902 9.72252 4.0586C9.80201 4.05817 9.87846 4.08912 9.93527 4.14473L11.0017 5.2112C11.0298 5.23922 11.052 5.27249 11.0672 5.30911C11.0824 5.34573 11.0902 5.38498 11.0902 5.42462C11.0902 5.46426 11.0824 5.50351 11.0672 5.54013C11.052 5.57675 11.0298 5.61002 11.0017 5.63805C10.9737 5.66608 10.9404 5.68832 10.9038 5.70349C10.8672 5.71867 10.828 5.72647 10.7883 5.72647C10.7487 5.72647 10.7094 5.71867 10.6728 5.70349C10.6362 5.68832 10.6029 5.66608 10.5749 5.63805ZM9.58206 6.43701L8.51558 5.37054C8.45998 5.31373 8.42903 5.23728 8.42946 5.15779C8.42988 5.07829 8.46165 5.00218 8.51786 4.94597C8.57407 4.88976 8.65019 4.85799 8.72968 4.85756C8.80917 4.85714 8.88562 4.88809 8.94243 4.94369L10.0089 6.01017C10.0369 6.03819 10.0592 6.07146 10.0744 6.10808C10.0895 6.1447 10.0973 6.18395 10.0973 6.22359C10.0973 6.26323 10.0895 6.30248 10.0744 6.3391C10.0592 6.37572 10.0369 6.40899 10.0089 6.43701C9.98088 6.46504 9.94761 6.48728 9.91099 6.50245C9.87437 6.51762 9.83512 6.52543 9.79548 6.52543C9.75584 6.52543 9.7166 6.51762 9.67998 6.50245C9.64336 6.48728 9.61008 6.46504 9.58206 6.43701ZM8.58918 7.23598L7.52271 6.16951C7.4671 6.1127 7.43615 6.03624 7.43658 5.95675C7.43701 5.87726 7.46877 5.80115 7.52498 5.74494C7.58119 5.68872 7.65731 5.65696 7.7368 5.65653C7.81629 5.65611 7.89274 5.68705 7.94955 5.74266L9.01603 6.80913C9.07163 6.86594 9.10258 6.94239 9.10216 7.02189C9.10173 7.10138 9.06996 7.17749 9.01375 7.2337C8.95754 7.28991 8.88143 7.32168 8.80193 7.32211C8.72244 7.32253 8.64599 7.29158 8.58918 7.23598ZM7.66095 8.09956L6.59448 7.03308C6.53887 6.97627 6.50793 6.89982 6.50835 6.82033C6.50878 6.74084 6.54054 6.66472 6.59676 6.60851C6.65297 6.5523 6.72908 6.52053 6.80857 6.52011C6.88807 6.51968 6.96452 6.55063 7.02133 6.60624L8.0878 7.67271C8.11583 7.70073 8.13807 7.73401 8.15325 7.77063C8.16842 7.80725 8.17623 7.8465 8.17623 7.88613C8.17623 7.92577 8.16842 7.96502 8.15325 8.00164C8.13807 8.03826 8.11583 8.07154 8.0878 8.09956C8.05977 8.12759 8.0265 8.14982 7.98988 8.16499C7.95326 8.18016 7.91401 8.18797 7.87438 8.18797C7.83474 8.18797 7.79549 8.18016 7.75887 8.16499C7.72225 8.14982 7.68898 8.12759 7.66095 8.09956ZM6.79737 9.02779L5.7309 7.96131C5.6753 7.9045 5.64435 7.82805 5.64477 7.74856C5.6452 7.66907 5.67697 7.59295 5.73318 7.53674C5.78939 7.48053 5.8655 7.44876 5.94499 7.44834C6.02449 7.44791 6.10094 7.47886 6.15775 7.53446L7.22422 8.60094C7.25226 8.62896 7.2745 8.66223 7.28967 8.69885C7.30484 8.73547 7.31265 8.77472 7.31265 8.81436C7.31265 8.854 7.30484 8.89325 7.28967 8.92987C7.2745 8.96649 7.25226 8.99976 7.22422 9.02779C7.1962 9.05582 7.16292 9.07805 7.1263 9.09322C7.08968 9.10839 7.05044 9.1162 7.0108 9.1162C6.97116 9.1162 6.93191 9.10839 6.89529 9.09322C6.85867 9.07805 6.8254 9.05582 6.79737 9.02779ZM5.99841 10.0206L4.93193 8.95415C4.87633 8.89734 4.84538 8.82089 4.84581 8.7414C4.84623 8.66191 4.878 8.58579 4.93421 8.52958C4.99042 8.47337 5.06654 8.4416 5.14603 8.44118C5.22552 8.44075 5.30197 8.4717 5.35878 8.5273L6.42526 9.59378C6.45329 9.6218 6.47553 9.65507 6.4907 9.69169C6.50587 9.72831 6.51368 9.76756 6.51368 9.8072C6.51368 9.84684 6.50587 9.88609 6.4907 9.92271C6.47553 9.95933 6.45329 9.9926 6.42526 10.0206C6.39723 10.0487 6.36396 10.0709 6.32734 10.0861C6.29072 10.1012 6.25147 10.1091 6.21183 10.1091C6.17219 10.1091 6.13294 10.1012 6.09632 10.0861C6.0597 10.0709 6.02643 10.0487 5.99841 10.0206Z" fill="#DBEDFF"/>
</svg>
