<svg width="21" height="24" viewBox="0 0 21 24" fill="none" xmlns="http://www.w3.org/2000/svg">
<path d="M17.7389 12.5167V10.3774C17.7389 7.25661 15.6644 4.61148 12.8222 3.74753V2.77895C12.8222 1.66988 11.9199 0.767578 10.8108 0.767578C9.70175 0.767578 8.79945 1.66988 8.79945 2.77895V3.74753C5.95717 4.61148 3.88278 7.25656 3.88278 10.3774V12.5167C3.88278 15.2581 2.83785 17.8575 0.940508 19.8361C0.849534 19.931 0.788441 20.0505 0.764822 20.1797C0.741204 20.309 0.756102 20.4424 0.807665 20.5633C0.859228 20.6842 0.945181 20.7872 1.05484 20.8596C1.1645 20.9321 1.29302 20.9707 1.42444 20.9706H7.52599C7.83744 22.4989 9.19194 23.6525 10.8108 23.6525C12.4297 23.6525 13.7842 22.4989 14.0957 20.9706H20.1972C20.3286 20.9706 20.4571 20.932 20.5668 20.8596C20.6764 20.7872 20.7624 20.6841 20.8139 20.5632C20.8655 20.4424 20.8804 20.309 20.8568 20.1797C20.8332 20.0505 20.7721 19.931 20.6811 19.8361C18.7838 17.8575 17.7389 15.258 17.7389 12.5167ZM10.1404 2.77895C10.1404 2.40926 10.4411 2.10849 10.8108 2.10849C11.1805 2.10849 11.4813 2.40926 11.4813 2.77895V3.48194C11.2606 3.46066 11.037 3.4494 10.8108 3.4494C10.5847 3.4494 10.361 3.46066 10.1404 3.48194V2.77895ZM10.8108 22.3116C9.93677 22.3116 9.19154 21.751 8.91477 20.9706H12.7069C12.4301 21.751 11.6849 22.3116 10.8108 22.3116ZM2.8695 19.6297C4.39639 17.583 5.22369 15.106 5.22369 12.5167V10.3774C5.22369 7.2967 7.73008 4.79031 10.8108 4.79031C13.8916 4.79031 16.398 7.2967 16.398 10.3774V12.5167C16.398 15.106 17.2253 17.583 18.7522 19.6297H2.8695ZM19.5267 10.3774C19.5267 10.7477 19.8269 11.0479 20.1972 11.0479C20.5675 11.0479 20.8677 10.7477 20.8677 10.3774C20.8677 7.69115 19.8216 5.16563 17.9221 3.26614C17.6603 3.00435 17.2358 3.00431 16.9739 3.26614C16.7121 3.52798 16.7121 3.95247 16.9739 4.2143C18.6202 5.86054 19.5267 8.04931 19.5267 10.3774ZM1.42444 11.0479C1.79471 11.0479 2.0949 10.7477 2.0949 10.3774C2.0949 8.04935 3.00153 5.86058 4.64773 4.21435C4.90956 3.95251 4.90956 3.52802 4.64773 3.26619C4.38593 3.00435 3.9614 3.00435 3.69957 3.26619C1.80008 5.16568 0.753987 7.69115 0.753987 10.3774C0.753987 10.7477 1.05417 11.0479 1.42444 11.0479Z" fill="black" stroke="black" stroke-width="0.2"/>
</svg>
