<svg width="21" height="21" viewBox="0 0 21 21" fill="none" xmlns="http://www.w3.org/2000/svg">
<path d="M17.1882 3.90156C15.2995 2.01285 12.7883 0.972656 10.1172 0.972656C7.44605 0.972656 4.93484 2.01285 3.04609 3.90156C1.15734 5.79027 0.117188 8.30152 0.117188 10.9727C0.117188 13.6438 1.15738 16.155 3.04609 18.0437C4.93484 19.9325 7.44609 20.9727 10.1172 20.9727C12.7883 20.9727 15.2995 19.9325 17.1882 18.0437C19.077 16.155 20.1172 13.6438 20.1172 10.9727C20.1172 8.30156 19.077 5.79031 17.1882 3.90156ZM7.14484 5.39656C8.05547 4.90957 9.07023 4.65492 10.1172 4.65492C13.6008 4.65492 16.4348 7.48906 16.4348 10.9727C16.4348 12.0197 16.1802 13.0344 15.6932 13.945L7.14484 5.39656ZM13.0895 16.5487C12.179 17.0356 11.1641 17.2903 10.1172 17.2903C6.63359 17.2903 3.79953 14.4562 3.79953 10.9727C3.79953 9.9257 4.05422 8.9109 4.54105 8.00043L13.0895 16.5487Z" fill="#FF5B5B"/>
<path d="M17.1882 3.90156C15.2995 2.01285 12.7883 0.972656 10.1172 0.972656V4.65492C13.6008 4.65492 16.4348 7.48906 16.4348 10.9727C16.4348 12.0197 16.1802 13.0344 15.6932 13.945L10.1172 8.36891V13.5764L13.0895 16.5487C12.179 17.0357 11.1641 17.2904 10.1172 17.2904V20.9727C12.7883 20.9727 15.2995 19.9325 17.1882 18.0437C19.077 16.155 20.1172 13.6438 20.1172 10.9727C20.1172 8.30156 19.077 5.79031 17.1882 3.90156Z" fill="#FF0059"/>
</svg>
