<svg width="19" height="20" viewBox="0 0 19 20" fill="none" xmlns="http://www.w3.org/2000/svg">
<path d="M18.3952 17.5023L16.7567 7.71428C16.6818 7.26755 16.4509 6.86185 16.1051 6.56936C15.7592 6.27686 15.3208 6.11654 14.8678 6.1169H12.4061C12.7041 5.59781 12.8606 5.00953 12.8598 4.41096C12.8598 2.51516 11.3177 0.972656 9.4215 0.972656C7.5257 0.972656 5.9832 2.51516 5.9832 4.41096C5.9832 5.03137 6.14826 5.61398 6.43692 6.1169H3.97518C3.52212 6.11665 3.08366 6.27712 2.73779 6.56976C2.39192 6.86241 2.16106 7.26825 2.08629 7.7151L0.448249 17.5043C0.402228 17.7791 0.416562 18.0606 0.490256 18.3293C0.563949 18.5979 0.695237 18.8474 0.875002 19.0602C1.05477 19.273 1.2787 19.4442 1.53126 19.5618C1.78382 19.6794 2.05895 19.7406 2.33755 19.7412H16.5071C16.7858 19.7405 17.061 19.6791 17.3136 19.5613C17.5661 19.4435 17.79 19.2721 17.9697 19.0591C18.1494 18.846 18.2805 18.5964 18.354 18.3276C18.4274 18.0587 18.4415 17.7771 18.3952 17.5023ZM9.42191 2.97579C9.80244 2.97633 10.1672 3.12776 10.4363 3.39688C10.7053 3.666 10.8566 4.03083 10.8571 4.41137C10.8566 4.79186 10.7053 5.15666 10.4362 5.42571C10.1672 5.69476 9.80241 5.8461 9.42191 5.84653C8.63033 5.84653 7.98633 5.20254 7.98633 4.41096C7.98633 3.61938 8.63033 2.97579 9.42191 2.97579Z" fill="url(#paint0_linear_337_445)"/>
<defs>
<linearGradient id="paint0_linear_337_445" x1="10.114" y1="19.4667" x2="10.114" y2="1.20927" gradientUnits="userSpaceOnUse">
<stop stop-color="#FEB020"/>
<stop offset="1" stop-color="#FFD891"/>
</linearGradient>
</defs>
</svg>
