<svg width="24" height="23" viewBox="0 0 24 23" fill="none" xmlns="http://www.w3.org/2000/svg">
<path d="M18.8568 17.4795C18.3486 17.4795 17.8518 17.6302 17.4292 17.9126C17.0066 18.1949 16.6772 18.5963 16.4827 19.0658C16.2882 19.5354 16.2373 20.052 16.3365 20.5505C16.4356 21.049 16.6804 21.5069 17.0398 21.8663C17.3991 22.2256 17.857 22.4704 18.3555 22.5695C18.854 22.6687 19.3706 22.6178 19.8402 22.4233C20.3098 22.2288 20.7111 21.8994 20.9934 21.4768C21.2758 21.0543 21.4265 20.5574 21.4265 20.0492C21.4258 19.3679 21.1549 18.7147 20.6731 18.2329C20.1914 17.7511 19.5381 17.4802 18.8568 17.4795ZM18.8568 20.9058C18.6874 20.9058 18.5218 20.8555 18.3809 20.7614C18.2401 20.6673 18.1303 20.5335 18.0654 20.377C18.0006 20.2205 17.9837 20.0482 18.0167 19.8821C18.0498 19.7159 18.1313 19.5633 18.2511 19.4435C18.3709 19.3237 18.5235 19.2421 18.6897 19.2091C18.8559 19.176 19.0281 19.193 19.1846 19.2578C19.3411 19.3227 19.4749 19.4325 19.569 19.5733C19.6631 19.7142 19.7134 19.8798 19.7134 20.0492C19.7132 20.2763 19.6228 20.494 19.4622 20.6546C19.3017 20.8152 19.0839 20.9055 18.8568 20.9058Z" fill="black"/>
<path d="M13.7177 17.479H6.86512C6.63794 17.479 6.42007 17.3888 6.25943 17.2281C6.09879 17.0675 6.00855 16.8496 6.00855 16.6224C6.00855 16.3953 6.09879 16.1774 6.25943 16.0168C6.42007 15.8561 6.63794 15.7659 6.86512 15.7659H20.5702C20.7728 15.7658 20.9689 15.6939 21.1235 15.563C21.2781 15.432 21.3813 15.2505 21.4148 15.0506L23.1279 4.77183C23.1484 4.64911 23.142 4.52339 23.109 4.40342C23.076 4.28345 23.0173 4.1721 22.9369 4.07713C22.8565 3.98215 22.7564 3.90583 22.6436 3.85347C22.5307 3.80111 22.4078 3.77396 22.2833 3.77393H8.57825C8.35108 3.77393 8.13321 3.86417 7.97257 4.02481C7.81193 4.18545 7.72168 4.40332 7.72168 4.6305C7.72168 4.85767 7.81193 5.07554 7.97257 5.23618C8.13321 5.39682 8.35108 5.48706 8.57825 5.48706H21.2726L19.8447 14.0527H9.17185L4.24145 0.903569C4.18021 0.740193 4.07053 0.599415 3.9271 0.500069C3.78367 0.400723 3.61332 0.347547 3.43884 0.347656H1.72571C1.49853 0.347656 1.28066 0.437902 1.12002 0.598539C0.959386 0.759177 0.869141 0.977049 0.869141 1.20422C0.869141 1.4314 0.959386 1.64927 1.12002 1.80991C1.28066 1.97055 1.49853 2.06079 1.72571 2.06079H2.84524L7.34223 14.0527H6.86512C6.24109 14.0484 5.63693 14.2719 5.16611 14.6815C4.69529 15.0911 4.39021 15.6585 4.30818 16.2771C4.22614 16.8958 4.37279 17.5231 4.72059 18.0412C5.06838 18.5593 5.59339 18.9327 6.19699 19.0911C6.03622 19.478 5.97231 19.8982 6.01082 20.3154C6.04932 20.7326 6.18908 21.1341 6.41795 21.485C6.64682 21.8359 6.95789 22.1257 7.32415 22.3291C7.69041 22.5325 8.10078 22.6434 8.51964 22.6523C8.93851 22.6611 9.35319 22.5675 9.7277 22.3798C10.1022 22.192 10.4252 21.9156 10.6687 21.5746C10.9121 21.2337 11.0687 20.8384 11.1248 20.4233C11.1808 20.0081 11.1347 19.5855 10.9903 19.1922H13.7177C13.9448 19.1922 14.1627 19.1019 14.3233 18.9413C14.484 18.7806 14.5742 18.5628 14.5742 18.3356C14.5742 18.1084 14.484 17.8905 14.3233 17.7299C14.1627 17.5693 13.9448 17.479 13.7177 17.479ZM9.43482 20.0487C9.43482 20.2181 9.38458 20.3837 9.29046 20.5246C9.19634 20.6655 9.06256 20.7753 8.90605 20.8401C8.74953 20.9049 8.5773 20.9219 8.41114 20.8888C8.24499 20.8558 8.09236 20.7742 7.97257 20.6544C7.85278 20.5346 7.77119 20.382 7.73814 20.2158C7.70509 20.0497 7.72206 19.8774 7.78689 19.7209C7.85172 19.5644 7.96151 19.4306 8.10237 19.3365C8.24323 19.2424 8.40884 19.1922 8.57825 19.1922C8.80536 19.1924 9.0231 19.2827 9.18369 19.4433C9.34428 19.6039 9.43459 19.8216 9.43482 20.0487Z" fill="black"/>
</svg>
