<svg width="239" height="244" viewBox="0 0 239 244" fill="none" xmlns="http://www.w3.org/2000/svg">
<path d="M209.806 212.028C203.613 218.412 202.314 219.332 198.071 222.165C156.693 249.793 96.8202 243.115 82.1961 240.393C58.602 236.002 47.015 234.452 29.9034 218.992C-8.98026 183.862 -7.08903 110.579 22.6229 65.1828C26.1453 59.8006 55.2937 18.0358 102.697 11.8392C103.856 11.6877 158.772 4.43657 195.825 35.4791C204.268 42.5755 211.6 50.8954 217.58 60.1624C246.521 104.861 246.613 174.089 209.806 212.028Z" fill="#62E5B9" fill-opacity="0.15"/>
<path d="M25.3434 36.6652C24.9004 35.6611 26.024 34.6836 26.966 35.2466C36.5323 40.9636 60.4818 59.1107 64.2609 99.1519C69.0013 149.39 83.1 165.016 98.1704 173.132C98.1704 173.132 79.6251 171.821 64.6992 156.101C28.0522 117.504 33.2191 54.5187 25.3434 36.6652Z" fill="#4CB894"/>
<g style="mix-blend-mode:soft-light">
<path d="M34.7256 50.6284C36.91 55.8588 38.99 61.1295 40.8743 66.4687C42.7862 71.7971 44.5332 77.178 46.1153 82.6116C47.6736 88.0479 49.1297 93.5125 50.3516 99.0309C51.5982 104.544 52.6065 110.104 53.5994 115.689C54.623 121.267 55.6223 126.891 57.2006 132.43C58.7704 137.959 61.0255 143.389 64.2058 148.246C65.0001 149.456 65.8194 150.657 66.7013 151.797C67.5623 152.954 68.475 154.073 69.4072 155.176C75.0363 161.816 82.0513 167.144 89.9593 170.784C90.0886 170.847 90.229 170.884 90.3727 170.893C90.5163 170.902 90.6602 170.882 90.7963 170.835C90.9324 170.788 91.0579 170.715 91.1657 170.62C91.2735 170.525 91.3615 170.409 91.4246 170.28C91.4877 170.151 91.5248 170.01 91.5337 169.867C91.5425 169.723 91.523 169.579 91.4762 169.443C91.4294 169.307 91.3563 169.181 91.261 169.074C91.1657 168.966 91.0501 168.878 90.9208 168.815L90.9172 168.813C89.6684 168.182 88.4284 167.538 87.2214 166.841C86.6122 166.502 86.0193 166.137 85.4197 165.783C84.8343 165.407 84.2342 165.054 83.661 164.66C81.3423 163.125 79.1373 161.426 77.0634 159.574C72.907 155.894 69.2788 151.574 66.2326 146.939C64.7337 144.605 63.4131 142.161 62.2819 139.627C61.1583 137.079 60.206 134.458 59.4317 131.782C57.858 126.415 56.8228 120.857 55.7593 115.287C54.6883 109.718 53.5737 104.129 52.2309 98.5944C51.5671 95.8255 50.8538 93.0696 50.091 90.3267C49.7177 88.9534 49.3178 87.587 48.9206 86.2212C48.5099 84.8587 48.0908 83.499 47.6632 82.1422C45.9372 76.7196 44.046 71.3562 41.9895 66.0521C39.9066 60.7619 37.6842 55.5288 35.2639 50.39C35.2316 50.3197 35.173 50.265 35.1007 50.2377C35.0284 50.2104 34.9482 50.2127 34.8776 50.244C34.8069 50.2754 34.7515 50.3333 34.7233 50.4052C34.695 50.4772 34.6963 50.5573 34.7267 50.6284H34.7256Z" fill="white"/>
</g>
<path d="M71.2539 173.693C71.2468 174.12 71.1348 174.539 70.9276 174.913C70.7204 175.286 70.4245 175.603 70.066 175.835C69.7074 176.068 69.2972 176.208 68.8716 176.245C68.4459 176.281 68.0178 176.212 67.6251 176.044C58.2334 172.051 32.7014 158.361 22.951 124.508C14.7172 95.9209 7.53584 81.2021 3.81212 74.7462C3.02483 73.3811 4.43792 71.8044 5.8821 72.4352C21.8157 79.3944 72.0798 106.681 71.2539 173.693Z" fill="#4CB894"/>
<path d="M68.894 174.531C68.8294 174.615 68.7469 174.685 68.6524 174.734C68.5579 174.783 68.4536 174.811 68.3472 174.815C68.2407 174.819 68.1346 174.8 68.0365 174.758C67.9384 174.717 67.8507 174.654 67.7796 174.574C67.4788 174.237 37.5432 140.381 24.2989 101.15C24.2665 101.06 24.2524 100.964 24.2574 100.868C24.2625 100.772 24.2866 100.678 24.3283 100.592C24.3701 100.505 24.4287 100.428 24.5006 100.364C24.5726 100.301 24.6565 100.252 24.7474 100.222C24.8384 100.191 24.9345 100.179 25.0303 100.185C25.126 100.192 25.2194 100.218 25.3051 100.262C25.3907 100.305 25.4668 100.365 25.529 100.438C25.5911 100.511 25.6381 100.596 25.6671 100.688C38.8147 139.634 68.5582 173.278 68.8569 173.613C68.9685 173.738 69.0332 173.898 69.04 174.065C69.0467 174.232 68.9951 174.397 68.894 174.531Z" fill="#EFEFF4"/>
<path d="M12.3752 220.887C12.3779 221.686 12.6967 222.452 13.2621 223.017C13.8274 223.582 14.5933 223.9 15.3925 223.902H178.556C179.355 223.9 180.121 223.582 180.686 223.017C181.251 222.452 181.57 221.686 181.573 220.887L182.931 127.122C182.931 125.464 180.977 122.227 177.397 122.47L17.9365 118.344C16.9067 118.317 15.8821 118.5 14.9248 118.88C13.9676 119.261 13.0978 119.833 12.3682 120.56C11.6385 121.287 11.0643 122.155 10.6803 123.111C10.2963 124.067 10.1106 125.091 10.1345 126.121L12.3752 220.887Z" fill="#333435"/>
<path d="M15.354 217.995C15.3562 218.752 15.6577 219.476 16.1925 220.011C16.7274 220.546 17.4522 220.848 18.2086 220.85H174.621C175.377 220.848 176.102 220.546 176.637 220.011C177.172 219.476 177.473 218.752 177.475 217.995L178.757 132.874C178.606 127.752 174.115 125.911 171.392 126.019L18.5636 121.919C17.8397 121.9 17.1194 122.029 16.4466 122.297C15.7739 122.564 15.1625 122.966 14.6498 123.478C14.1371 123.989 13.7336 124.599 13.464 125.271C13.1943 125.944 13.0641 126.663 13.0811 127.387L15.354 217.995Z" fill="#A8ABB2"/>
<path d="M175.785 177.557H175.779C175.724 177.556 175.67 177.544 175.619 177.523C175.569 177.501 175.523 177.469 175.485 177.43C175.447 177.391 175.417 177.344 175.396 177.293C175.376 177.242 175.366 177.187 175.367 177.132L175.468 170.229C175.47 170.119 175.514 170.014 175.593 169.937C175.671 169.86 175.776 169.817 175.886 169.817H175.892C175.947 169.818 176.002 169.829 176.052 169.851C176.103 169.873 176.148 169.904 176.186 169.944C176.225 169.983 176.255 170.03 176.275 170.081C176.295 170.132 176.305 170.187 176.304 170.242L176.203 177.145C176.202 177.255 176.157 177.359 176.079 177.436C176 177.514 175.895 177.557 175.785 177.557Z" fill="#C6C9D3"/>
<path d="M176.034 160.64H176.028C175.973 160.64 175.918 160.628 175.868 160.606C175.817 160.584 175.772 160.553 175.733 160.513C175.695 160.474 175.665 160.427 175.645 160.376C175.625 160.325 175.615 160.271 175.615 160.216L176.004 133.776C175.996 132.206 175.52 130.952 174.586 130.058C172.845 128.389 170.08 128.474 169.963 128.48L121.116 127.17C121.061 127.169 121.007 127.156 120.956 127.134C120.906 127.112 120.861 127.08 120.823 127.04C120.785 127 120.756 126.953 120.736 126.902C120.717 126.85 120.707 126.796 120.709 126.741C120.708 126.685 120.718 126.63 120.74 126.579C120.761 126.527 120.793 126.481 120.834 126.443C120.874 126.404 120.922 126.375 120.975 126.356C121.027 126.338 121.083 126.33 121.138 126.334L169.957 127.644C170.26 127.626 173.204 127.575 175.165 129.454C176.268 130.511 176.832 131.967 176.84 133.781L176.452 160.228C176.45 160.338 176.405 160.443 176.327 160.52C176.249 160.597 176.144 160.64 176.034 160.64Z" fill="#C6C9D3"/>
<path d="M171.475 235.257C195.069 223.545 213.27 205.121 215.301 166.568C215.301 166.568 153.892 187.07 171.475 235.257Z" fill="#4CB894"/>
<path d="M173.859 234.305C190.442 235.835 206.352 231.964 220.242 211.894C220.242 211.894 180.394 202.54 173.859 234.305Z" fill="#4CB894"/>
<path d="M175.291 226.608C175.356 226.608 175.419 226.588 175.472 226.55C175.525 226.513 175.565 226.46 175.586 226.399C186.31 195.828 207.103 178.139 207.312 177.964C207.375 177.911 207.415 177.835 207.422 177.752C207.43 177.669 207.404 177.587 207.351 177.524C207.324 177.492 207.292 177.466 207.255 177.447C207.219 177.428 207.179 177.416 207.138 177.413C207.056 177.406 206.973 177.431 206.91 177.485C206.7 177.661 185.779 195.452 174.996 226.192C174.982 226.23 174.976 226.271 174.979 226.312C174.981 226.353 174.991 226.394 175.009 226.431C175.027 226.468 175.052 226.501 175.082 226.528C175.113 226.556 175.149 226.577 175.187 226.59C175.221 226.602 175.256 226.608 175.291 226.608Z" fill="#EFEFF4"/>
<path d="M183.268 229.004C183.313 229.004 183.358 228.994 183.399 228.975C183.44 228.956 183.477 228.928 183.506 228.894C192.866 217.861 213.804 214.301 214.014 214.267C214.055 214.26 214.094 214.245 214.129 214.224C214.164 214.202 214.194 214.174 214.218 214.14C214.242 214.107 214.259 214.069 214.268 214.029C214.278 213.989 214.279 213.948 214.272 213.907C214.266 213.866 214.252 213.827 214.23 213.792C214.209 213.757 214.181 213.726 214.147 213.702C214.114 213.678 214.076 213.661 214.035 213.652C213.995 213.643 213.953 213.642 213.913 213.649C213.7 213.684 192.535 217.283 183.029 228.489C182.99 228.535 182.966 228.59 182.958 228.649C182.95 228.708 182.959 228.769 182.984 228.823C183.009 228.877 183.049 228.923 183.099 228.955C183.149 228.987 183.208 229.004 183.268 229.004Z" fill="#E8E8EF"/>
<path d="M223.145 27.7568L228.657 84.2496C233.154 130.349 205.458 173.978 160.764 191.499C159.642 191.937 158.421 192.056 157.236 191.843C109.997 183.291 74.3916 145.837 69.8942 99.7384L64.3828 43.2456C64.167 41.0753 64.7936 38.9051 66.1329 37.1838C67.4723 35.4625 69.4219 34.3218 71.5787 33.9976C107.346 29.0275 128.611 15.6433 136.888 9.38172C138.099 8.46027 139.543 7.89399 141.057 7.74623C142.572 7.59847 144.098 7.87506 145.464 8.54505C154.796 13.0888 178.247 22.1093 214.3 20.0738C216.478 19.9757 218.611 20.7183 220.257 22.1483C221.904 23.5782 222.937 25.5861 223.145 27.7568Z" fill="#BDBDBE"/>
<path d="M158.557 187.158C158.4 187.174 158.241 187.168 158.085 187.14C135.9 183.124 116.161 172.557 100.999 156.581C85.8595 140.628 76.7466 120.812 74.6455 99.275L69.134 42.7818C69.0331 41.8336 69.3018 40.883 69.8841 40.1279C70.4664 39.3728 71.3174 38.8714 72.2601 38.7279C109.579 33.5412 131.902 19.143 139.767 13.1938C140.274 12.8045 140.88 12.5652 141.517 12.5032C142.153 12.4411 142.795 12.5586 143.368 12.8424C152.233 17.1599 176.921 26.9714 214.566 24.8459C215.514 24.809 216.441 25.1391 217.153 25.7676C217.864 26.3961 218.306 27.2747 218.387 28.2208L223.898 84.714C225.999 106.251 220.888 127.455 209.118 146.033C197.331 164.639 180.006 178.821 159.017 187.049C158.87 187.106 158.715 187.143 158.557 187.158Z" fill="#A5A5A5"/>
<path d="M214.955 31.0404L220.173 84.5241C220.601 88.9047 220.707 93.3109 220.491 97.7071C218.72 133.744 195.45 166.652 160.186 181.946C158.853 182.525 157.372 182.669 155.952 182.359C154.337 182.009 152.738 181.62 151.156 181.194C140.174 178.27 129.752 173.548 120.311 167.22C116.671 164.778 113.196 162.099 109.908 159.199C107.174 156.792 104.575 154.234 102.126 151.538C101.314 150.645 100.519 149.735 99.7387 148.81C94.1772 142.224 89.5451 134.906 85.9717 127.062C81.8447 117.986 79.2413 108.291 78.2661 98.3684L73.1229 45.6498C73.0675 45.0885 73.2265 44.527 73.568 44.078C73.9094 43.6291 74.408 43.3258 74.9637 43.2292C85.271 41.4438 95.41 38.7947 105.273 35.3099C120.341 29.9822 131.988 23.6836 139.005 19.0652C139.921 18.4635 140.971 18.0942 142.062 17.9891C143.154 17.884 144.254 18.0463 145.269 18.4621C149.644 20.2249 154.117 21.7366 158.664 22.9899C162.647 24.106 167.101 25.1682 171.985 26.0923C181.495 27.8699 191.132 28.8769 200.804 29.1035C202.168 29.1385 203.554 29.1553 204.955 29.1587C207.465 29.1659 210.03 29.1211 212.65 29.0243C213.218 29.0039 213.773 29.2011 214.202 29.5757C214.63 29.9503 214.899 30.4741 214.955 31.0404Z" fill="#5B62D9"/>
<path d="M141.518 12.5015L142.053 17.9918C140.964 18.0946 139.917 18.4633 139.004 19.0656C127.81 26.4365 104.827 38.0791 74.9635 43.2296C74.5164 43.3073 74.1041 43.5208 73.7826 43.841L69.5775 40.6096C69.8458 40.1076 70.2282 39.6758 70.694 39.3488C71.1598 39.0218 71.696 38.8089 72.2592 38.7272C109.579 33.5416 131.901 19.1423 139.768 13.1924C140.276 12.8045 140.882 12.5653 141.518 12.5015Z" fill="#BFBFBF"/>
<path d="M141.054 7.74417L141.518 12.5011C140.882 12.5649 140.276 12.8041 139.768 13.192C131.901 19.1419 109.579 33.5412 72.2594 38.7268C71.6961 38.8085 71.16 39.0214 70.6942 39.3484C70.2284 39.6754 69.8459 40.1072 69.5777 40.6092L65.7706 37.6831C66.4232 36.694 67.2777 35.8542 68.2778 35.2187C69.2779 34.5832 70.4011 34.1663 71.5737 33.9955C107.341 29.0254 128.606 15.6416 136.883 9.3796C138.095 8.45904 139.539 7.89289 141.054 7.74417Z" fill="#D8D8D8"/>
<path d="M73.8988 53.6028L70.228 53.9609L73.5613 88.1275L77.2321 87.7694L73.8988 53.6028Z" fill="#BFBFBF"/>
<path d="M70.2281 53.9607L65.4711 54.4248L68.8044 88.5914L73.5613 88.1273L70.2281 53.9607Z" fill="#D8D8D8"/>
<path d="M156.416 182.442L155.24 186.587C134.211 182.203 115.511 171.87 101.001 156.582C98.5298 153.979 96.1993 151.246 94.0196 148.395L97.047 145.462C111.054 163.685 131.771 177.087 155.952 182.359C156.107 182.392 156.262 182.421 156.416 182.442Z" fill="#BFBFBF"/>
<path d="M155.24 186.587L153.932 191.192L153.928 191.193C127.943 185.684 105.705 171.366 90.5678 151.737L94.0195 148.395C96.1992 151.247 98.5298 153.979 101.001 156.582C115.511 171.87 134.211 182.202 155.24 186.587Z" fill="#D8D8D8"/>
<path d="M158.664 22.9899L81.3508 114.523C79.8323 109.243 78.7998 103.836 78.2661 98.3684L75.5663 70.695L105.273 35.3099C120.341 29.9822 131.988 23.6836 139.005 19.0652C139.921 18.4635 140.971 18.0942 142.062 17.9891C143.154 17.884 144.254 18.0463 145.269 18.4621C149.644 20.2249 154.117 21.7366 158.664 22.9899Z" fill="#7C81E1"/>
<path d="M216.832 50.2821L220.173 84.5241C220.601 88.9047 220.707 93.3109 220.491 97.7071L151.156 181.194C140.174 178.27 129.752 173.548 120.311 167.22L216.832 50.2821Z" fill="#7C81E1"/>
<path d="M200.804 29.1038L99.7387 148.81C94.1772 142.224 89.5451 134.907 85.9717 127.062L171.985 26.0927C181.495 27.8702 191.132 28.8772 200.804 29.1038Z" fill="#7C81E1"/>
<path d="M214.955 31.0405L215.168 33.2247L109.909 159.199C107.174 156.792 104.576 154.235 102.126 151.538L204.955 29.1588C207.465 29.1661 210.03 29.1213 212.65 29.0244C213.218 29.0041 213.773 29.2013 214.202 29.5759C214.63 29.9504 214.9 30.4742 214.955 31.0405Z" fill="#7C81E1"/>
</svg>
