<svg width="17" height="17" viewBox="0 0 17 17" fill="none" xmlns="http://www.w3.org/2000/svg">
<path d="M11.3491 10.1209L9.11828 8.4478V5.03961C9.11828 4.69692 8.84128 4.41992 8.49859 4.41992C8.15591 4.41992 7.87891 4.69692 7.87891 5.03961V8.75767C7.87891 8.95286 7.97062 9.13692 8.12678 9.25342L10.6055 11.1125C10.7124 11.193 10.8427 11.2365 10.9767 11.2364C11.1657 11.2364 11.3516 11.1515 11.473 10.9879C11.6788 10.7146 11.623 10.326 11.3491 10.1209Z" fill="#49AAA5"/>
<path d="M8.5 0.708984C4.08853 0.708984 0.5 4.29752 0.5 8.70898C0.5 13.1205 4.08853 16.709 8.5 16.709C12.9115 16.709 16.5 13.1205 16.5 8.70898C16.5 4.29752 12.9115 0.708984 8.5 0.708984ZM8.5 15.4696C4.77266 15.4696 1.73934 12.4363 1.73934 8.70898C1.73934 4.98164 4.77266 1.94833 8.5 1.94833C12.228 1.94833 15.2607 4.98164 15.2607 8.70898C15.2607 12.4363 12.2273 15.4696 8.5 15.4696Z" fill="#49AAA5"/>
</svg>
