<svg width="11" height="11" viewBox="0 0 11 11" fill="none" xmlns="http://www.w3.org/2000/svg">
<path d="M5.11719 0.472656C4.12828 0.472656 3.16158 0.765901 2.33934 1.31531C1.51709 1.86471 0.87623 2.64561 0.497792 3.55924C0.119354 4.47287 0.0203373 5.4782 0.213263 6.44811C0.406189 7.41801 0.882393 8.30893 1.58166 9.00819C2.28092 9.70745 3.17183 10.1837 4.14174 10.3766C5.11164 10.5695 6.11698 10.4705 7.03061 10.0921C7.94424 9.71361 8.72513 9.07275 9.27454 8.25051C9.82394 7.42826 10.1172 6.46156 10.1172 5.47265C10.1156 4.14705 9.58834 2.87619 8.65099 1.93885C7.71365 1.00151 6.44279 0.47422 5.11719 0.472656ZM5.11719 9.56356C4.30808 9.56356 3.51715 9.32364 2.8444 8.87412C2.17166 8.42461 1.64731 7.78569 1.33768 7.03818C1.02805 6.29066 0.947038 5.46812 1.10489 4.67456C1.26273 3.881 1.65236 3.15207 2.22448 2.57995C2.7966 2.00782 3.52553 1.6182 4.31909 1.46035C5.11265 1.3025 5.9352 1.38352 6.68271 1.69315C7.43023 2.00278 8.06914 2.52712 8.51865 3.19987C8.96817 3.87261 9.2081 4.66355 9.2081 5.47265C9.20677 6.55722 8.77534 7.59699 8.00844 8.3639C7.24153 9.13081 6.20176 9.56224 5.11719 9.56356Z" fill="#FD4685"/>
<path d="M5.57315 5.28465V2.74556C5.57315 2.62501 5.52526 2.50939 5.44002 2.42415C5.35478 2.33891 5.23916 2.29102 5.11861 2.29102C4.99805 2.29102 4.88244 2.33891 4.7972 2.42415C4.71195 2.50939 4.66406 2.62501 4.66406 2.74556V5.47283C4.66409 5.59338 4.71199 5.70897 4.79724 5.7942L6.16088 7.15783C6.24661 7.24063 6.36143 7.28645 6.48061 7.28541C6.59979 7.28438 6.71379 7.23657 6.79807 7.1523C6.88235 7.06802 6.93015 6.95401 6.93119 6.83483C6.93222 6.71565 6.88641 6.60083 6.80361 6.51511L5.57315 5.28465Z" fill="#FD4685"/>
</svg>
