<svg width="26" height="21" viewBox="0 0 26 21" fill="none" xmlns="http://www.w3.org/2000/svg">
<path d="M22.0905 5.65575C22.1086 7.88499 20.4095 9.71237 18.3029 9.72995H18.2692C17.2512 9.72898 16.2953 9.31057 15.5732 8.54993C14.857 7.79466 14.4571 6.7889 14.4483 5.71874C14.4298 3.4895 16.1293 1.66211 18.236 1.64453H18.2692C20.3597 1.64697 22.0719 3.43827 22.0905 5.65575ZM25.117 17.3018V18.5546H11.4219V17.3018C11.4219 13.5259 14.4938 10.454 18.2692 10.454C22.0451 10.454 25.117 13.5259 25.117 17.3018Z" fill="#9CFDFF"/>
<path d="M18.2656 9.72995V1.64453C20.3562 1.64697 22.0684 3.43827 22.0869 5.65575C22.105 7.88499 20.406 9.71237 18.2993 9.72995H18.2656ZM25.1135 17.3018V18.5546H18.2656V10.454C22.0415 10.454 25.1135 13.5259 25.1135 17.3018Z" fill="#00F8FE"/>
<path d="M12.6523 5.68646C12.6523 8.28625 10.6574 10.4007 8.2051 10.4007C5.75276 10.4007 3.75741 8.28625 3.75741 5.68646C3.75741 3.08715 5.75276 0.972656 8.2051 0.972656C10.6574 0.972656 12.6523 3.08715 12.6523 5.68646ZM16.2925 19.2024V20.5607H0.117188V19.2024C0.117188 14.743 3.74515 11.1145 8.2051 11.1145C12.6645 11.1145 16.2925 14.743 16.2925 19.2024Z" fill="#006EFF"/>
<path d="M8.20312 10.4007V0.972656C10.6555 0.972656 12.6503 3.08715 12.6503 5.68646C12.6503 8.28625 10.6555 10.4007 8.20312 10.4007ZM16.2905 19.2024V20.5607H8.20312V11.1145C12.6625 11.1145 16.2905 14.743 16.2905 19.2024Z" fill="#005FE4"/>
</svg>
