<svg width="12" height="20" viewBox="0 0 12 20" fill="none" xmlns="http://www.w3.org/2000/svg">
<path d="M11.0115 1.20886C11.1663 1.36628 11.2892 1.55327 11.373 1.75912C11.4569 1.96497 11.5 2.18565 11.5 2.40851C11.5 2.63136 11.4569 2.85204 11.373 3.05789C11.2892 3.26374 11.1663 3.45073 11.0115 3.60815L4.52997 10.2105L11.0115 16.8128C11.3238 17.1309 11.4993 17.5625 11.4993 18.0124C11.4993 18.4624 11.3238 18.8939 11.0115 19.2121C10.6991 19.5302 10.2755 19.709 9.83378 19.709C9.39206 19.709 8.96843 19.5302 8.65608 19.2121L0.988523 11.4016C0.833663 11.2442 0.710803 11.0572 0.626975 10.8513C0.543147 10.6455 0.5 10.4248 0.5 10.202C0.5 9.9791 0.543147 9.75843 0.626975 9.55258C0.710803 9.34672 0.833663 9.15973 0.988523 9.00231L8.65608 1.19184C9.29087 0.545223 10.36 0.545224 11.0115 1.20886Z" fill="white"/>
</svg>
