<svg width="24" height="21" viewBox="0 0 24 21" fill="none" xmlns="http://www.w3.org/2000/svg">
<path d="M19.998 6.75782H1.62081V4.37858C1.62081 3.32983 2.47401 2.47663 3.5228 2.47663H5.05895C5.14955 2.47663 5.23643 2.44064 5.30049 2.37658C5.36455 2.31252 5.40054 2.22564 5.40054 2.13504C5.40054 2.04445 5.36455 1.95757 5.30049 1.89351C5.23643 1.82945 5.14955 1.79346 5.05895 1.79346H3.52276C2.09729 1.79346 0.937635 2.95312 0.937635 4.37853V7.09671C0.937635 7.09761 0.9375 7.09851 0.9375 7.09936C0.9375 7.10022 0.937635 7.10112 0.937635 7.10202V18.3762C0.937635 19.8016 2.09734 20.9612 3.52276 20.9612H5.92469C6.01528 20.9612 6.10216 20.9252 6.16622 20.8612C6.23028 20.7971 6.26627 20.7102 6.26627 20.6196C6.26627 20.5291 6.23028 20.4422 6.16622 20.3781C6.10216 20.314 6.01528 20.2781 5.92469 20.2781H3.52276C2.47401 20.2781 1.62076 19.4249 1.62076 18.3761V7.441H19.9979C20.0885 7.441 20.1754 7.40502 20.2395 7.34096C20.3035 7.27691 20.3395 7.19003 20.3395 7.09943C20.3395 7.00884 20.3035 6.92195 20.2395 6.85789C20.1754 6.79382 20.0886 6.75783 19.998 6.75782Z" fill="#303030" fill-opacity="0.5"/>
<path d="M21.3515 1.79345H19.8149C19.7243 1.79345 19.6375 1.82944 19.5734 1.8935C19.5093 1.95756 19.4733 2.04444 19.4733 2.13504C19.4733 2.22563 19.5093 2.31251 19.5734 2.37657C19.6375 2.44063 19.7243 2.47662 19.8149 2.47662H21.3515C22.4002 2.47662 23.2535 3.32982 23.2535 4.37857V6.75782H21.1357C21.0451 6.75782 20.9583 6.7938 20.8942 6.85786C20.8301 6.92192 20.7941 7.00881 20.7941 7.0994C20.7941 7.19 20.8301 7.27688 20.8942 7.34094C20.9583 7.405 21.0451 7.44099 21.1357 7.44099H23.2534V18.3762C23.2534 19.4249 22.4002 20.2781 21.3515 20.2781H7.06245C6.97186 20.2781 6.88498 20.3141 6.82092 20.3781C6.75686 20.4422 6.72087 20.5291 6.72087 20.6197C6.72087 20.7103 6.75686 20.7972 6.82092 20.8612C6.88498 20.9253 6.97186 20.9613 7.06245 20.9613H21.3515C22.777 20.9613 23.9366 19.8016 23.9366 18.3762V4.37853C23.9366 2.95315 22.777 1.79345 21.3515 1.79345ZM16.2619 1.79345H8.611C8.52041 1.79345 8.43352 1.82944 8.36946 1.8935C8.3054 1.95756 8.26942 2.04444 8.26942 2.13504C8.26942 2.22563 8.3054 2.31251 8.36946 2.37657C8.43352 2.44063 8.52041 2.47662 8.611 2.47662H16.262C16.3526 2.47662 16.4394 2.44062 16.5035 2.37656C16.5676 2.31249 16.6035 2.22561 16.6035 2.13501C16.6035 2.04442 16.5675 1.95754 16.5035 1.89348C16.4394 1.82943 16.3525 1.79344 16.2619 1.79345ZM6.83457 0.472656C6.21927 0.472656 5.71875 0.973221 5.71875 1.58847V3.54689C5.71875 4.16218 6.21927 4.6627 6.83457 4.6627C7.44986 4.6627 7.95038 4.16214 7.95038 3.54689V1.58847C7.95043 0.973221 7.44986 0.472656 6.83457 0.472656ZM7.26725 3.54689C7.26725 3.78547 7.07315 3.97958 6.83457 3.97958C6.59599 3.97958 6.40188 3.78547 6.40188 3.54689V1.58847C6.40188 1.34989 6.59599 1.15578 6.83457 1.15578C7.07315 1.15578 7.26725 1.34989 7.26725 1.58847V3.54689Z" fill="#303030" fill-opacity="0.5"/>
<path d="M18.0392 0.472656C17.424 0.472656 16.9234 0.973221 16.9234 1.58847V3.54689C16.9234 4.16218 17.424 4.6627 18.0392 4.6627C18.6545 4.6627 19.1551 4.16214 19.1551 3.54689V1.58847C19.1551 0.973221 18.6545 0.472656 18.0392 0.472656ZM18.4719 3.54689C18.4719 3.78547 18.2778 3.97957 18.0392 3.97957C17.8006 3.97957 17.6065 3.78547 17.6065 3.54689V1.58847C17.6065 1.34989 17.8006 1.15578 18.0392 1.15578C18.2778 1.15578 18.4719 1.34989 18.4719 1.58847V3.54689ZM11.6101 8.74449C11.2084 8.57459 10.7818 8.48843 10.3424 8.48843C8.5468 8.48843 7.08594 9.94925 7.08594 11.7449C7.08594 13.4471 8.39878 14.8484 10.0651 14.9896C9.9365 15.1404 9.77303 15.3479 9.77303 15.7223C9.77303 16.1143 9.95218 16.3234 10.083 16.476C10.1829 16.5925 10.2285 16.6457 10.2285 16.7851C10.2285 16.9244 10.1829 16.9776 10.083 17.0941C9.95218 17.2467 9.77303 17.4557 9.77303 17.8478C9.77303 17.9384 9.80902 18.0253 9.87308 18.0893C9.93714 18.1534 10.024 18.1894 10.1146 18.1894C10.2052 18.1894 10.2921 18.1534 10.3562 18.0893C10.4202 18.0253 10.4562 17.9384 10.4562 17.8478C10.4562 17.7084 10.5018 17.6552 10.6017 17.5387C10.7325 17.3861 10.9116 17.177 10.9116 16.785C10.9116 16.393 10.7324 16.184 10.6017 16.0314C10.5018 15.9148 10.4562 15.8616 10.4562 15.7223C10.4562 15.583 10.5018 15.5298 10.6017 15.4133C10.7325 15.2608 10.9116 15.0517 10.9116 14.6598C10.9116 14.5692 10.8756 14.4823 10.8116 14.4182C10.7475 14.3542 10.6606 14.3182 10.57 14.3182H10.3423C8.92342 14.3182 7.76907 13.1638 7.76907 11.7449C7.76907 10.326 8.92342 9.17165 10.3423 9.17165C10.6899 9.17165 11.0268 9.23966 11.3439 9.37371C11.4273 9.40899 11.5213 9.40969 11.6053 9.37565C11.6892 9.34161 11.7562 9.27561 11.7915 9.19218C11.8268 9.10875 11.8275 9.01471 11.7935 8.93076C11.7595 8.8468 11.6935 8.7798 11.6101 8.74449Z" fill="#303030" fill-opacity="0.5"/>
<path d="M15.5048 10.0924C14.9981 9.35174 14.3116 8.9439 13.5716 8.9439C12.8317 8.9439 12.1452 9.35179 11.6385 10.0924C11.159 10.7933 10.8949 11.719 10.8949 12.699C10.8949 13.6789 11.159 14.6046 11.6385 15.3055C12.0367 15.8875 12.5461 16.2629 13.105 16.3975C13.0983 16.4054 13.0918 16.413 13.0846 16.4214C12.9537 16.574 12.7746 16.783 12.7746 17.175C12.7746 17.5671 12.9538 17.7761 13.0846 17.9287C13.1844 18.0452 13.23 18.0984 13.23 18.2377C13.23 18.377 13.1844 18.4303 13.0846 18.5468C12.9537 18.6994 12.7746 18.9084 12.7746 19.3005C12.7746 19.3911 12.8106 19.4779 12.8746 19.542C12.9387 19.6061 13.0256 19.6421 13.1162 19.6421C13.2068 19.6421 13.2937 19.6061 13.3577 19.542C13.4218 19.4779 13.4578 19.3911 13.4578 19.3005C13.4578 19.1611 13.5034 19.1079 13.6032 18.9914C13.734 18.8388 13.9132 18.6297 13.9132 18.2377C13.9132 17.8457 13.734 17.6366 13.6032 17.484C13.5034 17.3675 13.4578 17.3143 13.4578 17.1749C13.4578 17.0357 13.5034 16.9824 13.6032 16.866C13.693 16.7613 13.8055 16.63 13.8673 16.4314C14.4931 16.3375 15.0664 15.9464 15.5048 15.3055C15.9843 14.6045 16.2484 13.6788 16.2484 12.6989C16.2484 11.719 15.9843 10.7933 15.5048 10.0924ZM14.9409 14.9198C14.5654 15.4686 14.0791 15.7709 13.5716 15.7709C13.0641 15.7709 12.5778 15.4686 12.2023 14.9198C11.7997 14.3313 11.578 13.5426 11.578 12.6989C11.578 11.8553 11.7997 11.0665 12.2023 10.478C12.5777 9.92921 13.064 9.62693 13.5716 9.62693C14.0791 9.62693 14.5654 9.92917 14.9409 10.478C15.3434 11.0665 15.5651 11.8552 15.5651 12.6989C15.5651 13.5426 15.3435 14.3313 14.9409 14.9198ZM18.7361 8.73155C18.7113 8.69423 18.6793 8.66217 18.642 8.63721C18.6047 8.61225 18.5629 8.59487 18.5189 8.58607C18.475 8.57728 18.4297 8.57723 18.3857 8.58593C18.3417 8.59464 18.2998 8.61193 18.2625 8.63681L17.1694 9.36553C17.1083 9.4062 17.062 9.46544 17.0372 9.53449C17.0125 9.60354 17.0106 9.67872 17.0319 9.74892C17.0532 9.81912 17.0965 9.8806 17.1554 9.92426C17.2144 9.96792 17.2858 9.99144 17.3592 9.99134C17.4243 9.99134 17.4901 9.97274 17.5484 9.93388L18.6414 9.20516C18.6788 9.18028 18.7108 9.1483 18.7358 9.11103C18.7607 9.07377 18.7781 9.03195 18.7869 8.98797C18.7957 8.94399 18.7957 8.89871 18.787 8.85471C18.7783 8.81071 18.761 8.76886 18.7361 8.73155ZM7.347 8.45825C7.29675 8.38288 7.21862 8.33056 7.12979 8.31279C7.04096 8.29502 6.94872 8.31326 6.87334 8.36351L5.78026 9.09223C5.7192 9.13289 5.67286 9.19213 5.64809 9.26118C5.62333 9.33023 5.62145 9.40542 5.64274 9.47562C5.66403 9.54582 5.70736 9.6073 5.76631 9.65096C5.82526 9.69462 5.8967 9.71814 5.97005 9.71804C6.03519 9.71804 6.101 9.69944 6.15922 9.66058L7.2523 8.93186C7.28962 8.90698 7.32167 8.87499 7.34663 8.83773C7.37159 8.80046 7.38896 8.75865 7.39775 8.71467C7.40654 8.67069 7.40659 8.6254 7.39788 8.58141C7.38917 8.53741 7.37188 8.49556 7.347 8.45825ZM19.4972 12.7186L18.6633 11.7035C18.6053 11.6351 18.5227 11.5922 18.4334 11.5841C18.344 11.576 18.2551 11.6034 18.1858 11.6604C18.1165 11.7173 18.0723 11.7992 18.0629 11.8884C18.0535 11.9776 18.0795 12.0669 18.1354 12.1371L18.9692 13.1523C19.0013 13.1914 19.0416 13.2228 19.0873 13.2444C19.133 13.266 19.1829 13.2771 19.2334 13.2771C19.2981 13.277 19.3615 13.2586 19.4161 13.224C19.4708 13.1893 19.5145 13.1399 19.5421 13.0814C19.5697 13.0229 19.5802 12.9577 19.5722 12.8935C19.5643 12.8293 19.5382 12.7686 19.4972 12.7186ZM7.06749 15.4448L6.23356 14.4296C6.20509 14.395 6.17007 14.3663 6.1305 14.3451C6.09093 14.324 6.04759 14.3109 6.00295 14.3065C5.95831 14.3021 5.91325 14.3066 5.87033 14.3196C5.82742 14.3327 5.78749 14.3541 5.75283 14.3825C5.71817 14.411 5.68946 14.446 5.66834 14.4856C5.64722 14.5252 5.63409 14.5685 5.62972 14.6131C5.62535 14.6578 5.62981 14.7028 5.64285 14.7458C5.65589 14.7887 5.67726 14.8286 5.70573 14.8633L6.53966 15.8784C6.57168 15.9175 6.61199 15.9489 6.65767 15.9705C6.70334 15.9921 6.75324 16.0032 6.80376 16.0032C6.86846 16.0031 6.93183 15.9847 6.98648 15.9501C7.04112 15.9154 7.08481 15.866 7.11244 15.8075C7.14008 15.749 7.15052 15.6838 7.14256 15.6196C7.13461 15.5554 7.10857 15.4948 7.06749 15.4448ZM18.0484 15.394L17.9751 14.0823C17.9726 14.0375 17.9613 13.9936 17.9419 13.9532C17.9225 13.9128 17.8952 13.8766 17.8618 13.8466C17.8283 13.8167 17.7893 13.7937 17.747 13.7789C17.7046 13.7641 17.6597 13.7578 17.6149 13.7604C17.5701 13.7629 17.5263 13.7742 17.4859 13.7936C17.4454 13.8131 17.4093 13.8403 17.3794 13.8738C17.3495 13.9072 17.3264 13.9462 17.3116 13.9885C17.2968 14.0309 17.2905 14.0757 17.293 14.1205L17.3663 15.4321C17.3718 15.5222 17.4128 15.6065 17.4803 15.6665C17.5477 15.7265 17.6362 15.7573 17.7263 15.7522C17.8165 15.7472 17.9009 15.7067 17.9613 15.6395C18.0216 15.5724 18.0529 15.4841 18.0484 15.394ZM5.21267 11.9433C5.19757 11.8776 5.16349 11.8178 5.11467 11.7713C5.06584 11.7248 5.00443 11.6936 4.93806 11.6817C4.80078 11.6575 4.65824 11.7229 4.58673 11.8425C4.5118 11.9677 4.52626 12.1306 4.62105 12.2412C4.73209 12.3708 4.92755 12.3955 5.06923 12.3022C5.18437 12.2233 5.2442 12.0804 5.21267 11.9433ZM19.3259 10.2044C19.1912 10.3135 19.1601 10.5149 19.2572 10.6589C19.4272 10.9166 19.8434 10.8183 19.8799 10.5113C19.9155 10.212 19.5601 10.0147 19.3259 10.2044ZM20.0511 15.2872C20.0074 15.1546 19.8837 15.0601 19.744 15.053C19.5985 15.0456 19.461 15.1358 19.4086 15.2713C19.3521 15.4177 19.4058 15.5918 19.5374 15.6784C19.6643 15.7619 19.8348 15.7522 19.9503 15.6529C20.0541 15.5636 20.094 15.4171 20.0511 15.2872ZM4.92171 15.713C4.80482 15.437 4.39837 15.4374 4.28845 15.7196C4.23445 15.8584 4.27856 16.0217 4.39657 16.1132C4.50272 16.1955 4.65052 16.2077 4.76866 16.1439C4.92099 16.0618 4.98748 15.8728 4.92171 15.713Z" fill="#303030" fill-opacity="0.5"/>
</svg>
