<svg width="12" height="6" viewBox="0 0 12 6" fill="none" xmlns="http://www.w3.org/2000/svg">
<path d="M11.084 0.229439C10.929 0.0825295 10.7187 -2.65553e-08 10.4994 -3.61405e-08C10.2801 -4.57257e-08 10.0698 0.0825295 9.9147 0.229439L5.82118 4.10846L1.72766 0.229439C1.57169 0.0866926 1.36279 0.00770567 1.14596 0.00949112C0.92913 0.0112766 0.721714 0.0936914 0.568386 0.238985C0.415058 0.384278 0.328088 0.580825 0.326203 0.786293C0.324319 0.991761 0.407674 1.18971 0.558313 1.33751L5.23651 5.77056C5.39159 5.91747 5.6019 6 5.82118 6C6.04046 6 6.25077 5.91747 6.40585 5.77056L11.084 1.33751C11.2391 1.19055 11.3262 0.991266 11.3262 0.783473C11.3262 0.57568 11.2391 0.376394 11.084 0.229439Z" fill="#787878"/>
</svg>
