<svg width="17" height="17" viewBox="0 0 17 17" fill="none" xmlns="http://www.w3.org/2000/svg">
<path d="M15.8262 13.8631H8.21352C7.98408 12.8187 7.05145 12.0347 5.9392 12.0347C4.82695 12.0347 3.89433 12.8187 3.66489 13.8631H0.826172C0.550047 13.8631 0.326172 14.0869 0.326172 14.3631C0.326172 14.6392 0.550047 14.8631 0.826172 14.8631H3.66514C3.89501 15.9069 4.82892 16.6914 5.9392 16.6914C7.05008 16.6914 7.98355 15.907 8.21333 14.8631H15.8262C16.1023 14.8631 16.3262 14.6392 16.3262 14.3631C16.3262 14.0869 16.1023 13.8631 15.8262 13.8631ZM7.26752 14.3617L7.26748 14.3671C7.2653 15.0973 6.66945 15.6914 5.9392 15.6914C5.20998 15.6914 4.61411 15.0982 4.61095 14.3683L4.61086 14.3609C4.61201 13.6295 5.20745 13.0347 5.9392 13.0347C6.67064 13.0347 7.26589 13.6289 7.26755 14.3599L7.26752 14.3617ZM0.826172 3.50428H3.66514C3.89505 4.54806 4.82892 5.33263 5.9392 5.33263C7.05008 5.33263 7.98355 4.54819 8.21333 3.50428H15.8262C16.1023 3.50428 16.3262 3.28044 16.3262 3.00428C16.3262 2.72813 16.1023 2.50428 15.8262 2.50428H8.21352C7.98408 1.45994 7.05145 0.675907 5.9392 0.675907C4.82695 0.675907 3.89433 1.45994 3.66489 2.50428H0.826172C0.550047 2.50428 0.326172 2.72813 0.326172 3.00428C0.326172 3.28044 0.550047 3.50428 0.826172 3.50428ZM5.9392 1.67591C6.67064 1.67591 7.26589 2.27013 7.26755 3.00116L7.26752 3.00297L7.26748 3.00834C7.2653 3.73856 6.66945 4.33263 5.9392 4.33263C5.20998 4.33263 4.61411 3.73941 4.61095 3.00956L4.61086 3.00222C4.61192 2.27066 5.20739 1.67591 5.9392 1.67591ZM0.826172 9.18366H8.43883C8.66827 10.228 9.60089 11.012 10.7131 11.012C11.8254 11.012 12.758 10.228 12.9875 9.18366H15.8262C16.1023 9.18366 16.3262 8.95978 16.3262 8.68366C16.3262 8.4075 16.1023 8.18366 15.8262 8.18366H12.9872C12.7573 7.13988 11.8234 6.35531 10.7131 6.35531C9.60227 6.35531 8.6688 7.13975 8.43902 8.18366H0.826172C0.550047 8.18366 0.326172 8.4075 0.326172 8.68366C0.326172 8.95978 0.550047 9.18366 0.826172 9.18366ZM9.38483 8.68497L9.38486 8.67959C9.38705 7.94938 9.98289 7.35534 10.7131 7.35534C11.4424 7.35534 12.0382 7.94856 12.0414 8.67841L12.0415 8.68572C12.0404 9.41728 11.4449 10.012 10.7131 10.012C9.9817 10.012 9.38645 9.41781 9.3848 8.68675L9.38483 8.68497Z" fill="#01073D"/>
</svg>
