<svg width="20" height="20" viewBox="0 0 20 20" fill="none" xmlns="http://www.w3.org/2000/svg">
<path d="M18.5234 16.6218H9.48341C9.21095 15.3817 8.10346 14.4506 6.78266 14.4506C5.46187 14.4506 4.35437 15.3816 4.08192 16.6218H0.710938C0.383039 16.6218 0.117188 16.8877 0.117188 17.2156C0.117188 17.5435 0.383039 17.8093 0.710938 17.8093H4.08221C4.35519 19.0488 5.4642 19.9805 6.78266 19.9805C8.10183 19.9805 9.21032 19.049 9.48319 17.8093H18.5234C18.8513 17.8093 19.1172 17.5435 19.1172 17.2156C19.1172 16.8877 18.8513 16.6218 18.5234 16.6218ZM8.36003 17.214L8.36 17.2204C8.3574 18.0875 7.64983 18.7929 6.78266 18.7929C5.91671 18.7929 5.20911 18.0885 5.20537 17.2218L5.20525 17.213C5.20663 16.3444 5.91371 15.6381 6.78266 15.6381C7.65124 15.6381 8.3581 16.3437 8.36007 17.2118L8.36003 17.214ZM0.710938 4.32076H4.08221C4.35523 5.56025 5.4642 6.49192 6.78266 6.49192C8.10183 6.49192 9.21032 5.5604 9.48319 4.32076H18.5234C18.8513 4.32076 19.1172 4.05494 19.1172 3.72701C19.1172 3.39907 18.8513 3.13326 18.5234 3.13326H9.48341C9.21095 1.8931 8.10346 0.962063 6.78266 0.962063C5.46187 0.962063 4.35437 1.8931 4.08192 3.13326H0.710938C0.383039 3.13326 0.117188 3.39907 0.117188 3.72701C0.117188 4.05494 0.383039 4.32076 0.710938 4.32076ZM6.78266 2.14956C7.65124 2.14956 8.3581 2.8552 8.36007 3.7233L8.36003 3.72545L8.36 3.73183C8.3574 4.59897 7.64983 5.30442 6.78266 5.30442C5.91671 5.30442 5.20911 4.59997 5.20537 3.73328L5.20525 3.72456C5.20652 2.85583 5.91364 2.14956 6.78266 2.14956ZM0.710938 11.065H9.75097C10.0234 12.3052 11.1309 13.2362 12.4517 13.2362C13.7725 13.2362 14.88 12.3052 15.1525 11.065H18.5234C18.8513 11.065 19.1172 10.7992 19.1172 10.4713C19.1172 10.1433 18.8513 9.87752 18.5234 9.87752H15.1522C14.8791 8.63803 13.7702 7.70636 12.4517 7.70636C11.1325 7.70636 10.0241 8.63788 9.75119 9.87752H0.710938C0.383039 9.87752 0.117188 10.1433 0.117188 10.4713C0.117188 10.7992 0.383039 11.065 0.710938 11.065ZM10.8743 10.4728L10.8744 10.4664C10.877 9.59931 11.5845 8.89389 12.4517 8.89389C13.3177 8.89389 14.0253 9.59834 14.029 10.465L14.0291 10.4737C14.0278 11.3424 13.3207 12.0487 12.4517 12.0487C11.5831 12.0487 10.8763 11.3431 10.8743 10.4749L10.8743 10.4728Z" fill="#01073D"/>
</svg>
