<svg width="7" height="12" viewBox="0 0 7 12" fill="none" xmlns="http://www.w3.org/2000/svg">
<path d="M0.846627 1.21478C0.699717 1.36986 0.617188 1.58017 0.617188 1.79945C0.617188 2.01874 0.699717 2.22904 0.846627 2.38413L4.72565 6.47765L0.846627 10.5712C0.70388 10.7271 0.624894 10.936 0.626679 11.1529C0.628465 11.3697 0.710879 11.5771 0.856173 11.7304C1.00147 11.8838 1.19801 11.9707 1.40348 11.9726C1.60895 11.9745 1.8069 11.8912 1.95469 11.7405L6.38775 7.06232C6.53466 6.90724 6.61719 6.69693 6.61719 6.47765C6.61719 6.25837 6.53466 6.04806 6.38775 5.89298L1.95469 1.21478C1.80774 1.05975 1.60845 0.972656 1.40066 0.972656C1.19287 0.972656 0.993581 1.05975 0.846627 1.21478Z" fill="#01073D"/>
</svg>
