<svg width="25" height="17" viewBox="0 0 25 17" fill="none" xmlns="http://www.w3.org/2000/svg">
<path d="M4.09801 14.0148C4.07524 14.0148 4.05198 14.0134 4.02824 14.01C2.92438 13.8513 1.85654 13.5018 0.872521 12.977C0.761952 12.9149 0.680101 12.812 0.644503 12.6902C0.608905 12.5685 0.622392 12.4377 0.682074 12.3258C0.741757 12.2139 0.842888 12.1299 0.9638 12.0916C1.08471 12.0534 1.21579 12.0641 1.32894 12.1213C2.21347 12.5937 3.17368 12.908 4.16633 13.0501C4.28712 13.0682 4.39666 13.1311 4.47307 13.2264C4.54947 13.3217 4.58712 13.4423 4.5785 13.5641C4.56987 13.6859 4.5156 13.8 4.42653 13.8836C4.33745 13.9671 4.22014 14.014 4.09801 14.0148ZM21.3607 14.0148C21.2381 14.0148 21.1201 13.9684 21.0304 13.8848C20.9408 13.8013 20.8861 13.6868 20.8774 13.5646C20.8687 13.4423 20.9067 13.3213 20.9837 13.2259C21.0607 13.1306 21.171 13.0679 21.2924 13.0506C22.285 12.9086 23.2453 12.5942 24.1298 12.1218C24.2425 12.0687 24.3713 12.0609 24.4895 12.1002C24.6078 12.1394 24.7064 12.2225 24.7651 12.3325C24.8237 12.4424 24.8378 12.5707 24.8045 12.6907C24.7712 12.8108 24.6931 12.9134 24.5862 12.9775C23.6022 13.5022 22.5343 13.8518 21.4305 14.0105C21.4073 14.0133 21.384 14.0148 21.3607 14.0148ZM16.2926 9.66525C16.2052 9.6655 16.1194 9.64208 16.0443 9.59748C15.9691 9.55287 15.9075 9.48874 15.8659 9.41191C15.8243 9.33508 15.8043 9.24842 15.808 9.16113C15.8117 9.07384 15.839 8.98919 15.887 8.91617C16.2228 8.39907 16.6827 7.97426 17.2248 7.6805C17.7668 7.38674 18.3738 7.23337 18.9904 7.23438C19.1189 7.23438 19.2421 7.28543 19.333 7.37629C19.4239 7.46716 19.4749 7.5904 19.4749 7.71891C19.4749 7.84741 19.4239 7.97065 19.333 8.06152C19.2421 8.15238 19.1189 8.20343 18.9904 8.20343C18.5351 8.20254 18.0869 8.31573 17.6866 8.53266C17.2864 8.74959 16.9469 9.06335 16.6991 9.44527C16.6551 9.51299 16.5948 9.5686 16.5238 9.60703C16.4528 9.64546 16.3733 9.66548 16.2926 9.66525Z" fill="#3C45DA"/>
<path d="M20.0668 8.20285C18.3491 8.20285 16.8984 6.75218 16.8984 5.03502C16.8984 3.31786 18.3491 1.86719 20.0668 1.86719C21.7839 1.86719 23.2346 3.31786 23.2346 5.03502C23.2346 6.75218 21.7839 8.20285 20.0668 8.20285ZM20.0668 2.83624C18.8748 2.83624 17.8675 3.84308 17.8675 5.03502C17.8675 6.22695 18.8748 7.23379 20.0668 7.23379C21.2587 7.23379 22.2655 6.22695 22.2655 5.03502C22.2655 3.84308 21.2587 2.83624 20.0668 2.83624Z" fill="#3C45DA"/>
<path d="M24.3609 11.4236C24.2324 11.4236 24.1092 11.3725 24.0183 11.2817C23.9275 11.1908 23.8764 11.0676 23.8764 10.9391C23.8755 10.2138 23.587 9.5185 23.0742 9.00567C22.5613 8.49283 21.866 8.20432 21.1408 8.20343C21.0123 8.20343 20.889 8.15238 20.7982 8.06151C20.7073 7.97065 20.6562 7.8474 20.6562 7.7189C20.6562 7.5904 20.7073 7.46716 20.7982 7.37629C20.889 7.28542 21.0123 7.23438 21.1408 7.23438C23.1835 7.23438 24.8455 8.89678 24.8455 10.9391C24.8455 11.0676 24.7944 11.1908 24.7035 11.2817C24.6127 11.3725 24.4894 11.4236 24.3609 11.4236Z" fill="#3C45DA"/>
<path d="M21.1411 8.20343H18.9942C18.8657 8.20343 18.7424 8.15238 18.6515 8.06151C18.5607 7.97065 18.5096 7.8474 18.5096 7.7189C18.5096 7.5904 18.5607 7.46716 18.6515 7.37629C18.7424 7.28542 18.8657 7.23438 18.9942 7.23438H21.1411C21.2696 7.23438 21.3928 7.28542 21.4837 7.37629C21.5746 7.46716 21.6256 7.5904 21.6256 7.7189C21.6256 7.8474 21.5746 7.97065 21.4837 8.06151C21.3928 8.15238 21.2696 8.20343 21.1411 8.20343ZM24.3613 13.0341C24.2327 13.0341 24.1095 12.9831 24.0186 12.8922C23.9278 12.8014 23.8767 12.6781 23.8767 12.5496V10.9395C23.8767 10.811 23.9278 10.6878 24.0186 10.5969C24.1095 10.5061 24.2327 10.455 24.3613 10.455C24.4898 10.455 24.613 10.5061 24.7039 10.5969C24.7947 10.6878 24.8458 10.811 24.8458 10.9395V12.5496C24.8458 12.6781 24.7947 12.8014 24.7039 12.8922C24.613 12.9831 24.4898 13.0341 24.3613 13.0341ZM7.00796 13.3917C6.87946 13.3917 6.75622 13.3407 6.66535 13.2498C6.57449 13.1589 6.52344 13.0357 6.52344 12.9072C6.52344 10.2724 8.66698 8.12929 11.3013 8.12929C11.4299 8.12929 11.5531 8.18034 11.644 8.27121C11.7348 8.36207 11.7859 8.48532 11.7859 8.61382C11.7859 8.74232 11.7348 8.86556 11.644 8.95643C11.5531 9.0473 11.4299 9.09834 11.3013 9.09834C9.20093 9.09834 7.49249 10.8068 7.49249 12.9072C7.49249 13.0357 7.44144 13.1589 7.35058 13.2498C7.25971 13.3407 7.13647 13.3917 7.00796 13.3917Z" fill="#3C45DA"/>
<path d="M14.1612 9.09835H11.2987C11.1701 9.09835 11.0469 9.0473 10.956 8.95644C10.8652 8.86557 10.8141 8.74233 10.8141 8.61383C10.8141 8.48532 10.8652 8.36208 10.956 8.27121C11.0469 8.18035 11.1701 8.1293 11.2987 8.1293H14.1612C14.2897 8.1293 14.413 8.18035 14.5038 8.27121C14.5947 8.36208 14.6458 8.48532 14.6458 8.61383C14.6458 8.74233 14.5947 8.86557 14.5038 8.95644C14.413 9.0473 14.2897 9.09835 14.1612 9.09835ZM9.16674 9.66525C9.08602 9.66534 9.00655 9.64527 8.93556 9.60686C8.86457 9.56844 8.8043 9.5129 8.76022 9.44527C8.51234 9.06344 8.17279 8.74976 7.77255 8.53284C7.37232 8.31592 6.92414 8.20268 6.4689 8.20343C6.3404 8.20343 6.21716 8.15238 6.12629 8.06152C6.03542 7.97065 5.98438 7.84741 5.98438 7.71891C5.98438 7.5904 6.03542 7.46716 6.12629 7.37629C6.21716 7.28543 6.3404 7.23438 6.4689 7.23438C7.08547 7.23328 7.6925 7.38661 8.23459 7.68038C8.77668 7.97415 9.23657 8.39901 9.57229 8.91617C9.61992 8.98926 9.64694 9.07385 9.65048 9.16101C9.65403 9.24818 9.63398 9.33469 9.59245 9.4114C9.55091 9.48812 9.48944 9.5522 9.41451 9.59688C9.33958 9.64156 9.25398 9.66518 9.16674 9.66525ZM7.00527 15.5387C6.87677 15.5387 6.75353 15.4876 6.66266 15.3968C6.57179 15.3059 6.52075 15.1826 6.52075 15.0541V12.9072C6.52075 12.7787 6.57179 12.6555 6.66266 12.5646C6.75353 12.4737 6.87677 12.4227 7.00527 12.4227C7.13377 12.4227 7.25702 12.4737 7.34788 12.5646C7.43875 12.6555 7.4898 12.7787 7.4898 12.9072V15.0541C7.4898 15.1826 7.43875 15.3059 7.34788 15.3968C7.25702 15.4876 7.13377 15.5387 7.00527 15.5387Z" fill="#3C45DA"/>
<path d="M12.7346 9.09815C10.5325 9.09815 8.67188 7.23757 8.67188 5.0354C8.67188 2.83324 10.5325 0.972656 12.7346 0.972656C14.9368 0.972656 16.7974 2.83324 16.7974 5.0354C16.7974 7.23757 14.9368 9.09815 12.7346 9.09815ZM12.7346 1.94171C11.0577 1.94171 9.64093 3.35846 9.64093 5.0354C9.64093 6.71235 11.0577 8.1291 12.7346 8.1291C14.4116 8.1291 15.8283 6.71235 15.8283 5.0354C15.8283 3.35846 14.4116 1.94171 12.7346 1.94171Z" fill="#3C45DA"/>
<path d="M18.4576 13.3913C18.3291 13.3913 18.2059 13.3403 18.115 13.2494C18.0241 13.1586 17.9731 13.0353 17.9731 12.9068C17.9731 10.8064 16.2646 9.09796 14.1642 9.09796C14.0357 9.09796 13.9125 9.04691 13.8216 8.95604C13.7307 8.86518 13.6797 8.74194 13.6797 8.61343C13.6797 8.48493 13.7307 8.36169 13.8216 8.27082C13.9125 8.17995 14.0357 8.12891 14.1642 8.12891C16.7991 8.12891 18.9421 10.2724 18.9421 12.9068C18.9421 13.0353 18.8911 13.1586 18.8002 13.2494C18.7093 13.3403 18.5861 13.3913 18.4576 13.3913Z" fill="#3C45DA"/>
<path d="M18.4533 15.5379C18.3248 15.5379 18.2015 15.4868 18.1107 15.3959C18.0198 15.3051 17.9688 15.1818 17.9688 15.0533V12.9064C17.9688 12.7779 18.0198 12.6547 18.1107 12.5638C18.2015 12.4729 18.3248 12.4219 18.4533 12.4219C18.5818 12.4219 18.705 12.4729 18.7959 12.5638C18.8868 12.6547 18.9378 12.7779 18.9378 12.9064V15.0533C18.9378 15.1818 18.8868 15.3051 18.7959 15.3959C18.705 15.4868 18.5818 15.5379 18.4533 15.5379Z" fill="#3C45DA"/>
<path d="M12.7296 16.9723C10.6849 16.9723 8.64071 16.4752 6.77674 15.4814C6.66986 15.4174 6.59168 15.3147 6.55838 15.1947C6.52509 15.0746 6.53922 14.9463 6.59786 14.8364C6.65649 14.7265 6.75514 14.6433 6.8734 14.6041C6.99166 14.5649 7.12046 14.5726 7.23317 14.6257C8.92431 15.5297 10.8123 16.0026 12.7299 16.0026C14.6474 16.0026 16.5354 15.5297 18.2266 14.6257C18.3393 14.5726 18.4681 14.5649 18.5863 14.6041C18.7046 14.6433 18.8032 14.7265 18.8619 14.8364C18.9205 14.9463 18.9347 15.0746 18.9014 15.1947C18.8681 15.3147 18.7899 15.4174 18.683 15.4814C16.851 16.4594 14.8064 16.9715 12.7296 16.9723ZM5.39439 8.20285C3.67723 8.20285 2.22656 6.75218 2.22656 5.03502C2.22656 3.31786 3.67723 1.86719 5.39439 1.86719C7.11155 1.86719 8.56222 3.31786 8.56222 5.03502C8.56222 6.75218 7.11155 8.20285 5.39439 8.20285ZM5.39439 2.83624C4.20246 2.83624 3.19561 3.84308 3.19561 5.03502C3.19561 6.22695 4.20246 7.23379 5.39439 7.23379C6.58632 7.23379 7.59317 6.22695 7.59317 5.03502C7.59317 3.84308 6.58632 2.83624 5.39439 2.83624Z" fill="#3C45DA"/>
<path d="M1.10171 11.4236C0.973209 11.4236 0.849968 11.3725 0.759102 11.2817C0.668236 11.1908 0.617188 11.0676 0.617188 10.9391C0.617188 8.8963 2.2796 7.23438 4.32187 7.23438C4.45038 7.23438 4.57362 7.28542 4.66448 7.37629C4.75535 7.46716 4.8064 7.5904 4.8064 7.7189C4.8064 7.8474 4.75535 7.97065 4.66448 8.06151C4.57362 8.15238 4.45038 8.20343 4.32187 8.20343C3.59653 8.20407 2.90109 8.49249 2.3882 9.00538C1.8753 9.51828 1.58688 10.2137 1.58624 10.9391C1.58624 11.0676 1.53519 11.1908 1.44432 11.2817C1.35346 11.3725 1.23022 11.4236 1.10171 11.4236Z" fill="#3C45DA"/>
<path d="M6.4688 8.20343H4.32187C4.19337 8.20343 4.07013 8.15238 3.97926 8.06151C3.88839 7.97065 3.83735 7.8474 3.83735 7.7189C3.83735 7.5904 3.88839 7.46716 3.97926 7.37629C4.07013 7.28542 4.19337 7.23438 4.32187 7.23438H6.4688C6.59731 7.23438 6.72055 7.28542 6.81142 7.37629C6.90228 7.46716 6.95333 7.5904 6.95333 7.7189C6.95333 7.8474 6.90228 7.97065 6.81142 8.06151C6.72055 8.15238 6.59731 8.20343 6.4688 8.20343ZM1.10171 13.0341C0.973209 13.0341 0.849968 12.9831 0.759102 12.8922C0.668236 12.8014 0.617188 12.6781 0.617188 12.5496V10.9395C0.617188 10.811 0.668236 10.6878 0.759102 10.5969C0.849968 10.5061 0.973209 10.455 1.10171 10.455C1.23022 10.455 1.35346 10.5061 1.44432 10.5969C1.53519 10.6878 1.58624 10.811 1.58624 10.9395V12.5496C1.58624 12.6781 1.53519 12.8014 1.44432 12.8922C1.35346 12.9831 1.23022 13.0341 1.10171 13.0341Z" fill="#3C45DA"/>
</svg>
