<svg width="25" height="25" viewBox="0 0 25 25" fill="none" xmlns="http://www.w3.org/2000/svg">
<path d="M6.5625 17.2766V20.207H4.45312C4.06448 20.207 3.75 20.5215 3.75 20.9102C3.75 21.2988 4.06448 21.6133 4.45312 21.6133H6.5625V23.7695C6.5625 24.1582 6.87698 24.4727 7.26562 24.4727C7.65427 24.4727 7.96875 24.1582 7.96875 23.7695V21.6133H10.0781C10.4668 21.6133 10.7812 21.2988 10.7812 20.9102C10.7812 20.5215 10.4668 20.207 10.0781 20.207H7.96875V17.2794C8.44702 17.218 8.91408 17.121 9.35691 16.9646C8.95331 16.6286 8.58717 16.2505 8.25895 15.8404C7.93212 15.9077 7.5993 15.9415 7.26562 15.9414C4.55198 15.9414 2.34375 13.7332 2.34375 11.0195C2.34375 8.30589 4.55198 6.09766 7.26562 6.09766C10.0701 6.09766 12.1875 8.48973 12.1875 11.0195C12.1875 11.834 11.9696 12.5913 11.6177 13.2687C11.9251 13.6343 12.3009 13.9343 12.7315 14.1506C13.2649 13.2234 13.5938 12.1639 13.5938 11.0195C13.5938 7.75816 10.9116 4.69141 7.26562 4.69141C3.77611 4.69141 0.9375 7.53002 0.9375 11.0195C0.9375 14.2683 3.40711 16.9216 6.5625 17.2766Z" fill="#303030" fill-opacity="0.5"/>
<path d="M24.2344 0.472656H20.0156C19.627 0.472656 19.3125 0.787141 19.3125 1.17578C19.3125 1.56442 19.627 1.87891 20.0156 1.87891H22.537L18.2248 6.09733C17.1421 5.23127 15.7881 4.69141 14.2969 4.69141C13.5604 4.69141 12.8636 4.84211 12.2056 5.07447C12.6092 5.41042 12.9753 5.78852 13.3035 6.19867C13.6304 6.13141 13.9632 6.09756 14.2969 6.09766C17.0105 6.09766 19.2188 8.30589 19.2188 11.0195C19.2188 13.7332 17.0105 15.9414 14.2969 15.9414C11.5114 15.9414 9.375 13.5756 9.375 11.0195C9.375 10.2051 9.59292 9.44772 9.94477 8.77033C9.63741 8.4048 9.26156 8.1048 8.83102 7.88842C8.29758 8.81566 7.96875 9.87517 7.96875 11.0195C7.96875 14.3127 10.723 17.3477 14.2969 17.3477C17.7864 17.3477 20.625 14.509 20.625 11.0195C20.625 9.5283 20.0851 8.17427 19.2191 7.09159L23.5312 2.87317V5.39453C23.5312 5.78317 23.8457 6.09766 24.2344 6.09766C24.623 6.09766 24.9375 5.78317 24.9375 5.39453V1.17578C24.9375 0.791078 24.6222 0.472656 24.2344 0.472656Z" fill="#303030" fill-opacity="0.5"/>
</svg>
