<svg width="26" height="25" viewBox="0 0 26 25" fill="none" xmlns="http://www.w3.org/2000/svg">
<path d="M5.91596 6.25H4.24933C4.02832 6.25 3.81636 6.3378 3.66009 6.49407C3.50381 6.65035 3.41602 6.8623 3.41602 7.08331V8.74994C3.41602 8.97095 3.50381 9.1829 3.66009 9.33918C3.81636 9.49546 4.02832 9.58325 4.24933 9.58325H5.91596C6.13696 9.58325 6.34892 9.49546 6.5052 9.33918C6.66147 9.1829 6.74927 8.97095 6.74927 8.74994V7.08331C6.74927 6.8623 6.66147 6.65035 6.5052 6.49407C6.34892 6.3378 6.13696 6.25 5.91596 6.25ZM4.24933 8.74994V7.08331H5.91596V8.74994H4.24933ZM10.0825 6.25H8.4159C8.19489 6.25 7.98293 6.3378 7.82665 6.49407C7.67038 6.65035 7.58258 6.8623 7.58258 7.08331V8.74994C7.58258 8.97095 7.67038 9.1829 7.82665 9.33918C7.98293 9.49546 8.19489 9.58325 8.4159 9.58325H10.0825C10.3035 9.58325 10.5155 9.49546 10.6718 9.33918C10.828 9.1829 10.9158 8.97095 10.9158 8.74994V7.08331C10.9158 6.8623 10.828 6.65035 10.6718 6.49407C10.5155 6.3378 10.3035 6.25 10.0825 6.25ZM8.4159 8.74994V7.08331H10.0825V8.74994H8.4159ZM12.5825 9.58325H14.2491C14.4701 9.58325 14.6821 9.49546 14.8383 9.33918C14.9946 9.1829 15.0824 8.97095 15.0824 8.74994V7.08331C15.0824 6.8623 14.9946 6.65035 14.8383 6.49407C14.6821 6.3378 14.4701 6.25 14.2491 6.25H12.5825C12.3615 6.25 12.1495 6.3378 11.9932 6.49407C11.8369 6.65035 11.7492 6.8623 11.7492 7.08331V8.74994C11.7492 8.97095 11.8369 9.1829 11.9932 9.33918C12.1495 9.49546 12.3615 9.58325 12.5825 9.58325ZM12.5825 7.08331H14.2491V8.74994H12.5825V7.08331ZM16.749 9.58325H18.4157C18.6367 9.58325 18.8486 9.49546 19.0049 9.33918C19.1612 9.1829 19.249 8.97095 19.249 8.74994V7.08331C19.249 6.8623 19.1612 6.65035 19.0049 6.49407C18.8486 6.3378 18.6367 6.25 18.4157 6.25H16.749C16.528 6.25 16.3161 6.3378 16.1598 6.49407C16.0035 6.65035 15.9157 6.8623 15.9157 7.08331V8.74994C15.9157 8.97095 16.0035 9.1829 16.1598 9.33918C16.3161 9.49546 16.528 9.58325 16.749 9.58325ZM16.749 7.08331H18.4157V8.74994H16.749V7.08331ZM5.91596 10.8332H4.24933C4.02832 10.8332 3.81636 10.921 3.66009 11.0773C3.50381 11.2336 3.41602 11.4455 3.41602 11.6665V13.3332C3.41602 13.5542 3.50381 13.7661 3.66009 13.9224C3.81636 14.0787 4.02832 14.1665 4.24933 14.1665H5.91596C6.13696 14.1665 6.34892 14.0787 6.5052 13.9224C6.66147 13.7661 6.74927 13.5542 6.74927 13.3332V11.6665C6.74927 11.4455 6.66147 11.2336 6.5052 11.0773C6.34892 10.921 6.13696 10.8332 5.91596 10.8332ZM4.24933 13.3332V11.6665H5.91596V13.3332H4.24933ZM10.0825 10.8332H8.4159C8.19489 10.8332 7.98293 10.921 7.82665 11.0773C7.67038 11.2336 7.58258 11.4455 7.58258 11.6665V13.3332C7.58258 13.5542 7.67038 13.7661 7.82665 13.9224C7.98293 14.0787 8.19489 14.1665 8.4159 14.1665H10.0825C10.3035 14.1665 10.5155 14.0787 10.6718 13.9224C10.828 13.7661 10.9158 13.5542 10.9158 13.3332V11.6665C10.9158 11.4455 10.828 11.2336 10.6718 11.0773C10.5155 10.921 10.3035 10.8332 10.0825 10.8332ZM8.4159 13.3332V11.6665H10.0825V13.3332H8.4159ZM12.5825 14.1665H14.2491C14.4701 14.1665 14.6821 14.0787 14.8383 13.9224C14.9946 13.7661 15.0824 13.5542 15.0824 13.3332V11.6665C15.0824 11.4455 14.9946 11.2336 14.8383 11.0773C14.6821 10.921 14.4701 10.8332 14.2491 10.8332H12.5825C12.3615 10.8332 12.1495 10.921 11.9932 11.0773C11.8369 11.2336 11.7492 11.4455 11.7492 11.6665V13.3332C11.7492 13.5542 11.8369 13.7661 11.9932 13.9224C12.1495 14.0787 12.3615 14.1665 12.5825 14.1665ZM12.5825 11.6665H14.2491V13.3332H12.5825V11.6665ZM5.91596 15.4164H4.24933C4.02832 15.4164 3.81636 15.5042 3.66009 15.6605C3.50381 15.8168 3.41602 16.0288 3.41602 16.2498V17.9164C3.41602 18.1374 3.50381 18.3494 3.66009 18.5056C3.81636 18.6619 4.02832 18.7497 4.24933 18.7497H5.91596C6.13696 18.7497 6.34892 18.6619 6.5052 18.5056C6.66147 18.3494 6.74927 18.1374 6.74927 17.9164V16.2498C6.74927 16.0288 6.66147 15.8168 6.5052 15.6605C6.34892 15.5042 6.13696 15.4164 5.91596 15.4164ZM4.24933 17.9164V16.2498H5.91596V17.9164H4.24933ZM10.0825 15.4164H8.4159C8.19489 15.4164 7.98293 15.5042 7.82665 15.6605C7.67038 15.8168 7.58258 16.0288 7.58258 16.2498V17.9164C7.58258 18.1374 7.67038 18.3494 7.82665 18.5056C7.98293 18.6619 8.19489 18.7497 8.4159 18.7497H10.0825C10.3035 18.7497 10.5155 18.6619 10.6718 18.5056C10.828 18.3494 10.9158 18.1374 10.9158 17.9164V16.2498C10.9158 16.0288 10.828 15.8168 10.6718 15.6605C10.5155 15.5042 10.3035 15.4164 10.0825 15.4164ZM8.4159 17.9164V16.2498H10.0825V17.9164H8.4159Z" fill="white"/>
<path d="M22.1661 13.2259V2.9166C22.1661 2.47458 21.9906 2.05067 21.678 1.73811C21.3655 1.42556 20.9415 1.24997 20.4995 1.24997H20.0829C20.0829 0.918458 19.9512 0.600523 19.7168 0.366108C19.4823 0.131693 19.1644 0 18.8329 0C18.5014 0 18.1834 0.131693 17.949 0.366108C17.7146 0.600523 17.5829 0.918458 17.5829 1.24997H15.083C15.083 0.918458 14.9513 0.600523 14.7169 0.366108C14.4825 0.131693 14.1645 0 13.833 0C13.5015 0 13.1836 0.131693 12.9492 0.366108C12.7147 0.600523 12.583 0.918458 12.583 1.24997H10.0831C10.0831 0.918458 9.95141 0.600523 9.717 0.366108C9.48258 0.131693 9.16465 0 8.83313 0C8.50162 0 8.18369 0.131693 7.94927 0.366108C7.71486 0.600523 7.58316 0.918458 7.58316 1.24997H5.08322C5.08322 0.918458 4.95153 0.600523 4.71712 0.366108C4.4827 0.131693 4.16477 0 3.83325 0C3.50174 0 3.18381 0.131693 2.94939 0.366108C2.71498 0.600523 2.58328 0.918458 2.58328 1.24997H2.16663C1.72461 1.24997 1.3007 1.42556 0.988144 1.73811C0.675591 2.05067 0.5 2.47458 0.5 2.9166L0.5 19.5829C0.5 20.0249 0.675591 20.4488 0.988144 20.7613C1.3007 21.0739 1.72461 21.2495 2.16663 21.2495H13.5251C13.924 22.1645 14.5363 22.9705 15.3108 23.6002C16.0853 24.2299 16.9993 24.6649 17.9764 24.8687C18.9535 25.0725 19.9653 25.0393 20.9269 24.7717C21.8885 24.5042 22.772 24.0101 23.5035 23.331C24.2349 22.6518 24.793 21.8072 25.1309 20.8681C25.4689 19.9289 25.5769 18.9224 25.446 17.9329C25.315 16.9434 24.9489 15.9996 24.3783 15.1807C23.8076 14.3618 23.0491 13.6915 22.1661 13.2259ZM18.4162 1.24997C18.4162 1.13947 18.4601 1.03349 18.5383 0.955349C18.6164 0.877211 18.7224 0.833313 18.8329 0.833313C18.9434 0.833313 19.0494 0.877211 19.1275 0.955349C19.2057 1.03349 19.2496 1.13947 19.2496 1.24997V2.08328C19.2496 2.19379 19.2057 2.29977 19.1275 2.3779C19.0494 2.45604 18.9434 2.49994 18.8329 2.49994C18.7224 2.49994 18.6164 2.45604 18.5383 2.3779C18.4601 2.29977 18.4162 2.19379 18.4162 2.08328V1.24997ZM13.4164 1.24997C13.4164 1.13947 13.4603 1.03349 13.5384 0.955349C13.6165 0.877211 13.7225 0.833313 13.833 0.833313C13.9435 0.833313 14.0495 0.877211 14.1276 0.955349C14.2058 1.03349 14.2497 1.13947 14.2497 1.24997V2.08328C14.2497 2.19379 14.2058 2.29977 14.1276 2.3779C14.0495 2.45604 13.9435 2.49994 13.833 2.49994C13.7225 2.49994 13.6165 2.45604 13.5384 2.3779C13.4603 2.29977 13.4164 2.19379 13.4164 2.08328V1.24997ZM8.41648 1.24997C8.41648 1.13947 8.46037 1.03349 8.53851 0.955349C8.61665 0.877211 8.72263 0.833313 8.83313 0.833313C8.94364 0.833313 9.04962 0.877211 9.12776 0.955349C9.20589 1.03349 9.24979 1.13947 9.24979 1.24997V2.08328C9.24979 2.19379 9.20589 2.29977 9.12776 2.3779C9.04962 2.45604 8.94364 2.49994 8.83313 2.49994C8.72263 2.49994 8.61665 2.45604 8.53851 2.3779C8.46037 2.29977 8.41648 2.19379 8.41648 2.08328V1.24997ZM3.4166 1.24997C3.4166 1.13947 3.46049 1.03349 3.53863 0.955349C3.61677 0.877211 3.72275 0.833313 3.83325 0.833313C3.94376 0.833313 4.04974 0.877211 4.12787 0.955349C4.20601 1.03349 4.24991 1.13947 4.24991 1.24997V2.08328C4.24991 2.19379 4.20601 2.29977 4.12787 2.3779C4.04974 2.45604 3.94376 2.49994 3.83325 2.49994C3.72275 2.49994 3.61677 2.45604 3.53863 2.3779C3.46049 2.29977 3.4166 2.19379 3.4166 2.08328V1.24997ZM2.16663 2.08328H2.58328C2.58328 2.4148 2.71498 2.73273 2.94939 2.96715C3.18381 3.20156 3.50174 3.33325 3.83325 3.33325C4.16477 3.33325 4.4827 3.20156 4.71712 2.96715C4.95153 2.73273 5.08322 2.4148 5.08322 2.08328H7.58316C7.58316 2.4148 7.71486 2.73273 7.94927 2.96715C8.18369 3.20156 8.50162 3.33325 8.83313 3.33325C9.16465 3.33325 9.48258 3.20156 9.717 2.96715C9.95141 2.73273 10.0831 2.4148 10.0831 2.08328H12.583C12.583 2.4148 12.7147 2.73273 12.9492 2.96715C13.1836 3.20156 13.5015 3.33325 13.833 3.33325C14.1645 3.33325 14.4825 3.20156 14.7169 2.96715C14.9513 2.73273 15.083 2.4148 15.083 2.08328H17.5829C17.5829 2.4148 17.7146 2.73273 17.949 2.96715C18.1834 3.20156 18.5014 3.33325 18.8329 3.33325C19.1644 3.33325 19.4823 3.20156 19.7168 2.96715C19.9512 2.73273 20.0829 2.4148 20.0829 2.08328H20.4995C20.7205 2.08328 20.9325 2.17108 21.0888 2.32736C21.245 2.48363 21.3328 2.69559 21.3328 2.9166V4.16657H1.33331V2.9166C1.33331 2.69559 1.42111 2.48363 1.57739 2.32736C1.73366 2.17108 1.94562 2.08328 2.16663 2.08328ZM2.16663 20.4162C1.94562 20.4162 1.73366 20.3284 1.57739 20.1721C1.42111 20.0158 1.33331 19.8039 1.33331 19.5829V4.99988H21.3328V12.8643C20.6643 12.6246 19.9597 12.5013 19.2496 12.4997V11.6664C19.2496 11.4454 19.1618 11.2334 19.0055 11.0771C18.8492 10.9209 18.6372 10.8331 18.4162 10.8331H16.7496C16.5286 10.8331 16.3166 10.9209 16.1604 11.0771C16.0041 11.2334 15.9163 11.4454 15.9163 11.6664V13.333C15.9169 13.377 15.921 13.4209 15.9288 13.4643C15.1398 13.9618 14.4713 14.6286 13.9718 15.4163H12.583C12.362 15.4163 12.1501 15.5041 11.9938 15.6604C11.8375 15.8166 11.7497 16.0286 11.7497 16.2496V17.9162C11.7497 18.1372 11.8375 18.3492 11.9938 18.5055C12.1501 18.6618 12.362 18.7496 12.583 18.7496H12.9997C13.0013 19.3131 13.0795 19.8737 13.2322 20.4162H2.16663ZM18.4162 12.5618C17.8418 12.6376 17.2808 12.7935 16.7496 13.0251V11.6664H18.4162V12.5618ZM13.0618 17.9162H12.583V16.2496H13.5251C13.2935 16.7808 13.1376 17.3418 13.0618 17.9162ZM19.2496 24.1661C18.1783 24.1661 17.131 23.8484 16.2403 23.2532C15.3495 22.6581 14.6553 21.8121 14.2453 20.8224C13.8354 19.8326 13.7281 18.7435 13.9371 17.6928C14.1461 16.6421 14.662 15.677 15.4195 14.9195C16.177 14.162 17.1421 13.6461 18.1928 13.4371C19.2435 13.2281 20.3326 13.3354 21.3224 13.7453C22.3121 14.1553 23.1581 14.8495 23.7532 15.7403C24.3484 16.631 24.6661 17.6783 24.6661 18.7496C24.6644 20.1856 24.0932 21.5624 23.0778 22.5778C22.0624 23.5932 20.6856 24.1644 19.2496 24.1661Z" fill="white"/>
<path d="M21.0077 16.4055L17.9661 20.2088L17.462 19.7046C17.3834 19.6287 17.2781 19.5867 17.1689 19.5877C17.0597 19.5886 16.9551 19.6324 16.8779 19.7097C16.8006 19.787 16.7568 19.8915 16.7559 20.0007C16.7549 20.1099 16.7969 20.2152 16.8728 20.2938L17.7061 21.1271C17.7446 21.1658 17.7904 21.1965 17.8408 21.2175C17.8912 21.2384 17.9453 21.2492 17.9999 21.2492H18.0232C18.0817 21.2459 18.1388 21.2304 18.1908 21.2036C18.2429 21.1769 18.2887 21.1394 18.3253 21.0938L21.6585 16.9272C21.7276 16.8409 21.7596 16.7307 21.7474 16.6208C21.7352 16.511 21.6798 16.4104 21.5935 16.3414C21.5072 16.2723 21.397 16.2404 21.2872 16.2525C21.1773 16.2647 21.0768 16.3201 21.0077 16.4064V16.4055Z" fill="white"/>
</svg>
