<svg width="10" height="11" viewBox="0 0 10 11" fill="none" xmlns="http://www.w3.org/2000/svg">
<path d="M5.48419 10.1515C6.79144 9.05465 9.11719 6.81366 9.11719 4.75715C9.11719 3.61928 8.64308 2.52801 7.79917 1.72341C6.95525 0.918815 5.81066 0.466797 4.61719 0.466797C3.42371 0.466797 2.27912 0.918815 1.43521 1.72341C0.591293 2.52801 0.117188 3.61928 0.117188 4.75715C0.117188 6.81366 2.44219 9.05465 3.75019 10.1515C3.98877 10.3546 4.29739 10.4668 4.61719 10.4668C4.93699 10.4668 5.2456 10.3546 5.48419 10.1515ZM3.11719 4.75715C3.11719 4.37786 3.27522 4.0141 3.55653 3.7459C3.83783 3.4777 4.21936 3.32703 4.61719 3.32703C5.01501 3.32703 5.39654 3.4777 5.67785 3.7459C5.95915 4.0141 6.11719 4.37786 6.11719 4.75715C6.11719 5.13644 5.95915 5.50019 5.67785 5.76839C5.39654 6.03659 5.01501 6.18726 4.61719 6.18726C4.21936 6.18726 3.83783 6.03659 3.55653 5.76839C3.27522 5.50019 3.11719 5.13644 3.11719 4.75715Z" fill="#787878"/>
</svg>
