<svg width="24" height="15" viewBox="0 0 24 15" fill="none" xmlns="http://www.w3.org/2000/svg">
<path d="M12 0.5C7.60561 0.5 3.62054 2.90421 0.679963 6.8093C0.440012 7.12923 0.440012 7.5762 0.679963 7.89613C3.62054 11.8059 7.60561 14.2101 12 14.2101C16.3944 14.2101 20.3795 11.8059 23.32 7.90084C23.56 7.5809 23.56 7.13394 23.32 6.814C20.3795 2.90421 16.3944 0.5 12 0.5ZM12.3152 12.1823C9.39818 12.3658 6.98926 9.96159 7.17275 7.03984C7.32331 4.63092 9.27585 2.67838 11.6848 2.52782C14.6018 2.34433 17.0107 4.74854 16.8272 7.6703C16.672 10.0745 14.7194 12.0271 12.3152 12.1823ZM12.1694 9.95218C10.5979 10.051 9.29938 8.75713 9.40288 7.18569C9.48287 5.88713 10.5368 4.83794 11.8353 4.75325C13.4068 4.65444 14.7053 5.9483 14.6018 7.51974C14.5171 8.823 13.4632 9.8722 12.1694 9.95218Z" fill="#303030" fill-opacity="0.5"/>
</svg>
