<svg width="19" height="24" viewBox="0 0 19 24" fill="none" xmlns="http://www.w3.org/2000/svg">
<path d="M9.61719 11.9932C12.6761 11.9932 15.1556 9.52603 15.1556 6.48291C15.1556 3.43978 12.6772 0.972656 9.61719 0.972656C6.55719 0.972656 4.07881 3.43978 4.07881 6.48291C4.07881 9.52603 6.55719 11.9932 9.61719 11.9932ZM12.5017 14.2893H6.73269C3.38694 14.2893 0.617188 17.0444 0.617188 20.3733C0.617188 21.1765 0.963687 21.8662 1.65556 22.2104C2.69394 22.7842 5.00131 23.4727 9.61719 23.4727C14.2331 23.4727 16.5404 22.7842 17.5788 22.2104C17.8938 22.0178 18.1545 21.7479 18.3362 21.4265C18.5179 21.105 18.6146 20.7425 18.6172 20.3733C18.6172 16.9297 15.8486 14.2893 12.5017 14.2893Z" fill="url(#paint0_linear_337_451)"/>
<defs>
<linearGradient id="paint0_linear_337_451" x1="0.61693" y1="12.2217" x2="18.617" y2="12.2217" gradientUnits="userSpaceOnUse">
<stop stop-color="#B08BFF"/>
<stop offset="1" stop-color="#9347DF"/>
</linearGradient>
</defs>
</svg>
