<svg width="23" height="22" viewBox="0 0 23 22" fill="none" xmlns="http://www.w3.org/2000/svg">
<path fill-rule="evenodd" clip-rule="evenodd" d="M11.4273 4.26155C11.9055 3.27588 12.6515 2.44471 13.58 1.86309C14.5084 1.28148 15.5818 0.972903 16.6774 0.972656C19.8974 0.972656 22.5108 3.58604 22.5108 6.8061C22.5108 10.2105 20.7795 13.3325 18.6782 15.8421C15.5912 19.53 11.7318 21.8879 11.7318 21.8879C11.6399 21.9433 11.5346 21.9727 11.4273 21.9727C11.32 21.9727 11.2147 21.9433 11.1228 21.8879C11.1228 21.8879 7.26337 19.53 4.17632 15.8421C2.07511 13.3325 0.34375 10.2105 0.34375 6.8061C0.34375 3.58604 2.95713 0.972656 6.17719 0.972656C7.27276 0.972903 8.34614 1.28148 9.27458 1.86309C10.203 2.44471 10.949 3.27588 11.4273 4.26155ZM16.6774 5.05606C17.1415 5.05606 17.5866 5.24044 17.9148 5.56864C18.243 5.89683 18.4274 6.34196 18.4274 6.8061C18.4274 6.96081 18.4889 7.10918 18.5983 7.21858C18.7077 7.32798 18.856 7.38944 19.0108 7.38944C19.1655 7.38944 19.3138 7.32798 19.4232 7.21858C19.5326 7.10918 19.5941 6.96081 19.5941 6.8061C19.5941 6.03253 19.2868 5.29065 18.7398 4.74366C18.1928 4.19667 17.4509 3.88938 16.6774 3.88938C16.5227 3.88938 16.3743 3.95083 16.2649 4.06023C16.1555 4.16963 16.094 4.31801 16.094 4.47272C16.094 4.62743 16.1555 4.77581 16.2649 4.88521C16.3743 4.9946 16.5227 5.05606 16.6774 5.05606Z" fill="url(#paint0_linear_337_458)"/>
<defs>
<linearGradient id="paint0_linear_337_458" x1="0.34375" y1="11.4729" x2="22.5108" y2="11.4729" gradientUnits="userSpaceOnUse">
<stop stop-color="#FFA68D"/>
<stop offset="1" stop-color="#FD3A84"/>
</linearGradient>
</defs>
</svg>
