<svg width="22" height="22" viewBox="0 0 22 22" fill="none" xmlns="http://www.w3.org/2000/svg">
<path d="M21.4242 10.6755C20.8846 11.969 15.243 12.5108 10.2506 12.2227C5.81515 11.1545 6.18848 6.93332 9.98968 3.73071C10.3906 3.43035 10.7707 3.14525 11.1181 2.88521L11.561 2.98787L11.6272 2.5034C12.3968 1.92643 12.9275 1.52891 13.0361 1.44745C14.0861 0.660487 15.5752 0.873891 16.3621 1.92389L16.6901 2.36169C17.0969 2.90428 17.231 3.59708 17.0867 4.26017C16.7978 5.58973 17.7558 6.85949 19.1061 6.95453C19.7828 7.00247 20.4103 7.32531 20.8171 7.86835L21.1455 8.30615C21.6754 9.01293 21.7517 9.91868 21.4242 10.6755Z" fill="#00D2CF"/>
<path d="M9.98729 3.73047L2.5825 9.28069C1.64304 10.9981 5.67327 11.9586 10.2482 12.2224C9.04889 9.61887 9.02699 6.43192 9.98729 3.73047Z" fill="#1DB9D0"/>
<path d="M12.7014 9.24372L10.9849 6.95325C10.6005 6.44048 9.90274 6.30143 9.35727 6.60265C7.23373 8.17859 7.8369 10.6739 9.7317 10.8278C11.5663 10.7309 13.2071 10.216 12.7014 9.24372Z" fill="#FBE660"/>
<path d="M9.35091 6.60547C9.29906 6.634 9.24925 6.66609 9.20186 6.70153L5.80622 9.24654C4.73801 10.3991 7.38889 10.9539 9.72534 10.8306C9.35329 9.53976 9.21063 8.10159 9.35091 6.60547Z" fill="#FDCD59"/>
<path d="M20.7996 17.2905C21.3125 17.7346 21.621 18.3693 21.621 19.0477V19.5949C21.621 20.9071 20.5574 21.9707 19.2452 21.9707H17.4846L17.1664 21.6631L16.8483 21.9707H9.64514C3.65445 20.3373 5.20291 9.72076 11.6684 9.24219C13.4828 9.2426 15.179 9.24305 16.8483 9.24305L17.1664 9.6571L17.4847 9.24346H19.2453C20.5668 9.24346 21.621 10.3163 21.621 11.6192V12.1665C21.621 12.8448 21.3126 13.4795 20.7997 13.9237C19.7721 14.8133 19.7747 16.4029 20.7996 17.2905Z" fill="#FD6E80"/>
<path d="M11.6644 9.24404C2.03391 9.24101 2.83814 9.23613 2.58183 9.28087H2.58142C1.46522 9.47561 0.617188 10.4492 0.617188 11.621V12.1682C0.617188 12.8466 0.925624 13.4813 1.43852 13.9254C2.46588 14.815 2.46334 16.4048 1.43852 17.2922C0.925624 17.7364 0.617188 18.3711 0.617188 19.0494V19.5967C0.617188 20.9089 1.68076 21.9724 2.99293 21.9724H9.6413C7.84979 18.7437 8.88416 12.2551 11.6644 9.24404Z" fill="#F7475E"/>
<path d="M14.3004 18.7959V12.4256C14.3004 11.7243 13.7323 11.1562 13.0311 11.1562H10.3506C5.43379 11.7926 5.00956 19.1108 8.96974 20.0653H13.0311C13.7324 20.0653 14.3004 19.4972 14.3004 18.7959Z" fill="#7391DD"/>
<path d="M10.3491 11.1562H5.3865C4.68521 11.1562 4.11719 11.7243 4.11719 12.4256V18.7959C4.11719 19.4972 4.68525 20.0652 5.3865 20.0652H8.96826C8.3901 17.2656 9.00887 13.7068 10.3491 11.1562Z" fill="#5D7DD8"/>
<path d="M9.50797 17.408L9.96106 17.646C10.4392 17.8976 10.9983 17.4916 10.9067 16.9592L10.8201 16.4543C10.8023 16.3501 10.8101 16.2432 10.8428 16.1427C10.8755 16.0422 10.932 15.9511 11.0077 15.8773L11.3742 15.5201C11.7611 15.143 11.5477 14.4858 11.0132 14.4082L10.5067 14.3348C10.402 14.3196 10.3027 14.2792 10.2172 14.217C10.1317 14.1549 10.0626 14.0729 10.0158 13.978L9.78929 13.519C9.7194 13.3775 9.61083 13.2776 9.48635 13.2188C8.19711 13.5264 7.42819 16.353 8.75254 17.4862L8.90135 17.408C8.99484 17.3587 9.09894 17.3329 9.20465 17.3329C9.31036 17.3329 9.41447 17.3587 9.50797 17.408Z" fill="#FBE660"/>
<path d="M9.49258 13.2152C9.19107 13.0727 8.79568 13.1725 8.62629 13.5155L8.39976 13.9745C8.35302 14.0693 8.28392 14.1513 8.19841 14.2135C8.11289 14.2756 8.01354 14.3161 7.90893 14.3313L7.40238 14.4046C6.86783 14.4823 6.65446 15.1394 7.04136 15.5166L7.40792 15.8738C7.48354 15.9476 7.54011 16.0386 7.57278 16.1391C7.60544 16.2396 7.61322 16.3466 7.59544 16.4507L7.5089 16.9556C7.41727 17.488 7.9764 17.894 8.45451 17.6424L8.75881 17.4826C8.77846 16.6643 8.87283 15.8012 9.04944 14.9188C9.16798 14.3266 9.31744 13.7567 9.49258 13.2152Z" fill="#FDCD59"/>
<path d="M17.4802 9.2465V10.2011C17.4802 10.2854 17.4466 10.3664 17.387 10.426C17.3273 10.4857 17.2464 10.5192 17.162 10.5193C17.0776 10.5192 16.9967 10.4857 16.937 10.426C16.8773 10.3664 16.8438 10.2854 16.8438 10.2011V9.24609C17.0564 9.2465 17.2685 9.2465 17.4802 9.2465ZM17.1619 12.4283C17.0776 12.4283 16.9966 12.3948 16.9369 12.3351C16.8773 12.2755 16.8438 12.1945 16.8438 12.1101V11.4738C16.8438 11.3894 16.8773 11.3084 16.9369 11.2488C16.9966 11.1891 17.0776 11.1556 17.1619 11.1556C17.2463 11.1556 17.3273 11.1891 17.3869 11.2488C17.4466 11.3084 17.4801 11.3894 17.4801 11.4738V12.1101C17.4801 12.1945 17.4466 12.2754 17.3869 12.3351C17.3273 12.3948 17.2463 12.4283 17.1619 12.4283ZM17.1619 14.3374C17.0776 14.3374 16.9966 14.3039 16.9369 14.2442C16.8773 14.1845 16.8438 14.1036 16.8438 14.0192V13.3828C16.8438 13.2984 16.8773 13.2175 16.9369 13.1578C16.9966 13.0982 17.0776 13.0646 17.1619 13.0646C17.2463 13.0646 17.3273 13.0982 17.3869 13.1578C17.4466 13.2175 17.4801 13.2984 17.4801 13.3828V14.0192C17.4801 14.1036 17.4466 14.1845 17.3869 14.2442C17.3273 14.3039 17.2463 14.3374 17.1619 14.3374ZM17.1619 16.2465C17.0776 16.2465 16.9966 16.2129 16.9369 16.1533C16.8773 16.0936 16.8438 16.0127 16.8438 15.9283V15.2919C16.8438 15.2075 16.8773 15.1266 16.9369 15.0669C16.9966 15.0072 17.0776 14.9737 17.1619 14.9737C17.2463 14.9737 17.3273 15.0072 17.3869 15.0669C17.4466 15.1266 17.4801 15.2075 17.4801 15.2919V15.9283C17.4801 16.0127 17.4466 16.0936 17.3869 16.1533C17.3273 16.2129 17.2463 16.2465 17.1619 16.2465ZM17.1619 18.1555C17.0776 18.1555 16.9966 18.122 16.9369 18.0623C16.8773 18.0027 16.8438 17.9217 16.8438 17.8373V17.201C16.8438 17.1166 16.8773 17.0357 16.9369 16.976C16.9966 16.9163 17.0776 16.8828 17.1619 16.8828C17.2463 16.8828 17.3273 16.9163 17.3869 16.976C17.4466 17.0357 17.4801 17.1166 17.4801 17.201V17.8373C17.4801 17.9217 17.4466 18.0027 17.3869 18.0623C17.3273 18.122 17.2463 18.1555 17.1619 18.1555ZM17.1619 20.0646C17.0776 20.0646 16.9966 20.0311 16.9369 19.9714C16.8773 19.9118 16.8438 19.8308 16.8438 19.7464V19.1101C16.8438 19.0257 16.8773 18.9448 16.9369 18.8851C16.9966 18.8254 17.0776 18.7919 17.1619 18.7919C17.2463 18.7919 17.3273 18.8254 17.3869 18.8851C17.4466 18.9448 17.4801 19.0257 17.4801 19.1101V19.7464C17.4801 19.8308 17.4466 19.9118 17.3869 19.9714C17.3273 20.0311 17.2463 20.0646 17.1619 20.0646ZM17.4802 21.0192V21.9737H16.8438V21.0192C16.8439 20.9348 16.8774 20.8538 16.9371 20.7942C16.9967 20.7345 17.0776 20.701 17.162 20.701C17.2464 20.701 17.3273 20.7346 17.387 20.7942C17.4466 20.8539 17.4801 20.9348 17.4802 21.0192Z" fill="#F7475E"/>
<path d="M12.1354 3.71296C11.9948 3.81817 11.7955 3.79019 11.6899 3.64931L11.1172 2.88572C11.2962 2.75123 11.4664 2.62355 11.6263 2.50391L12.199 3.26753C12.3042 3.40797 12.2758 3.60735 12.1354 3.71296ZM12.8343 5.17689L12.453 4.6678C12.4279 4.63436 12.4097 4.59631 12.3994 4.55583C12.389 4.51534 12.3867 4.47322 12.3927 4.43185C12.3986 4.39049 12.4126 4.3507 12.4339 4.31476C12.4553 4.27882 12.4834 4.24742 12.5169 4.22238C12.5503 4.19732 12.5884 4.1791 12.6289 4.16875C12.6693 4.1584 12.7115 4.15613 12.7528 4.16206C12.7942 4.168 12.834 4.18202 12.8699 4.20333C12.9059 4.22465 12.9373 4.25283 12.9623 4.28628L13.3437 4.79536C13.3936 4.86295 13.4147 4.94751 13.4025 5.03062C13.3902 5.11372 13.3456 5.18862 13.2784 5.23898C13.2112 5.28933 13.1268 5.31107 13.0436 5.29944C12.9604 5.28781 12.8852 5.24375 12.8343 5.17689ZM13.9794 6.7046L13.598 6.19551C13.5725 6.1621 13.5539 6.12398 13.5432 6.08334C13.5325 6.04269 13.53 6.00034 13.5358 5.95872C13.5415 5.91709 13.5555 5.87703 13.5769 5.84083C13.5982 5.80464 13.6265 5.77303 13.6602 5.74784C13.6938 5.72264 13.7321 5.70435 13.7728 5.69404C13.8135 5.68372 13.8559 5.68157 13.8975 5.68771C13.9391 5.69386 13.979 5.70818 14.015 5.72985C14.051 5.75151 14.0824 5.78009 14.1073 5.81394L14.4887 6.32303C14.5384 6.39062 14.5594 6.47511 14.5471 6.55812C14.5348 6.64112 14.4903 6.71592 14.4231 6.76623C14.356 6.81654 14.2717 6.83829 14.1886 6.82675C14.1055 6.81521 14.0303 6.7713 13.9794 6.7046ZM15.1245 8.23242L14.7427 7.72334C14.6372 7.58278 14.6657 7.38332 14.8063 7.27787C14.9469 7.17242 15.1463 7.20092 15.2518 7.34153L15.6336 7.85061C15.6587 7.88404 15.6769 7.92208 15.6873 7.96256C15.6977 8.00304 15.7 8.04516 15.6941 8.08653C15.6881 8.1279 15.6741 8.1677 15.6529 8.20365C15.6316 8.23961 15.6034 8.27101 15.57 8.29608C15.4285 8.40215 15.2292 8.37208 15.1245 8.23242Z" fill="#1DB9D0"/>
</svg>
