<svg width="30" height="30" viewBox="0 0 30 30" fill="none" xmlns="http://www.w3.org/2000/svg">
<path d="M26.9311 8.62317L26.9313 8.62324C27.5296 9.03255 28.0192 9.58157 28.3576 10.2228C28.6959 10.8639 28.8728 11.5778 28.873 12.3028C28.873 12.3028 28.873 12.3029 28.873 12.3029V24.5917C28.873 25.7744 28.4032 26.9087 27.5669 27.745C26.7306 28.5813 25.5963 29.0512 24.4136 29.0512H5.43562C4.2529 29.0512 3.11862 28.5813 2.28231 27.745C1.44601 26.9087 0.976172 25.7744 0.976172 24.5917V12.3029C0.976172 12.3029 0.976172 12.3028 0.976172 12.3028C0.976372 11.5778 1.1533 10.8639 1.49163 10.2228L0.916758 9.91939L1.49163 10.2228C1.82998 9.58157 2.31956 9.03255 2.91794 8.62324L2.91805 8.62317L12.4069 2.12986C12.407 2.12984 12.407 2.12981 12.407 2.12979C13.1486 1.62256 14.0261 1.35117 14.9246 1.35117C15.8231 1.35117 16.7006 1.62256 17.4422 2.12979C17.4422 2.12981 17.4422 2.12984 17.4423 2.12986L26.9311 8.62317ZM19.55 22.8861L19.0903 23.3457L19.55 22.886C19.2912 22.6273 18.9402 22.4819 18.5742 22.4819H11.275C10.909 22.4819 10.558 22.6273 10.2992 22.886L10.7589 23.3457L10.2992 22.8861C10.0405 23.1448 9.89507 23.4958 9.89507 23.8618C9.89507 24.2278 10.0405 24.5788 10.2992 24.8376C10.558 25.0963 10.909 25.2417 11.275 25.2417H18.5742C18.9402 25.2417 19.2912 25.0963 19.55 24.8376C19.8087 24.5788 19.9541 24.2278 19.9541 23.8618C19.9541 23.4958 19.8087 23.1448 19.55 22.8861Z" stroke="#3C45DA" stroke-width="1.3"/>
</svg>
