<svg width="6" height="12" viewBox="0 0 6 12" fill="none" xmlns="http://www.w3.org/2000/svg">
<path d="M0.229439 0.736268C0.0825295 0.891348 0 1.10165 0 1.32094C0 1.54022 0.0825295 1.75053 0.229439 1.90561L4.10846 5.99913L0.229439 10.0927C0.086693 10.2486 0.0077061 10.4575 0.00949156 10.6744C0.011277 10.8912 0.0936919 11.0986 0.238985 11.2519C0.384278 11.4053 0.580825 11.4922 0.786293 11.4941C0.991761 11.496 1.18971 11.4126 1.33751 11.262L5.77056 6.5838C5.91747 6.42872 6 6.21842 6 5.99913C6 5.77985 5.91747 5.56954 5.77056 5.41446L1.33751 0.736268C1.19055 0.581234 0.991266 0.494141 0.783473 0.494141C0.57568 0.494141 0.376394 0.581234 0.229439 0.736268Z" fill="#01073D"/>
</svg>
