<svg width="12" height="20" viewBox="0 0 12 20" fill="none" xmlns="http://www.w3.org/2000/svg">
<path d="M11.1287 1.18347C11.2835 1.34089 11.4064 1.52788 11.4902 1.73373C11.574 1.93958 11.6172 2.16026 11.6172 2.38311C11.6172 2.60597 11.574 2.82665 11.4902 3.0325C11.4064 3.23835 11.2835 3.42534 11.1287 3.58276L4.64716 10.1851L11.1287 16.7874C11.441 17.1056 11.6165 17.5371 11.6165 17.987C11.6165 18.437 11.441 18.8685 11.1287 19.1867C10.8163 19.5049 10.3927 19.6836 9.95097 19.6836C9.50924 19.6836 9.08561 19.5049 8.77327 19.1867L1.10571 11.3762C0.95085 11.2188 0.827991 11.0318 0.744163 10.8259C0.660335 10.6201 0.617188 10.3994 0.617188 10.1766C0.617188 9.95371 0.660335 9.73304 0.744163 9.52719C0.827991 9.32133 0.95085 9.13434 1.10571 8.97692L8.77327 1.16645C9.40806 0.519833 10.4772 0.519833 11.1287 1.18347Z" fill="#303030"/>
</svg>
