<svg width="239" height="257" viewBox="0 0 239 257" fill="none" xmlns="http://www.w3.org/2000/svg">
<path d="M209.806 225.028C203.613 231.412 202.314 232.332 198.071 235.165C156.693 262.793 96.8202 256.115 82.1961 253.393C58.602 249.002 47.015 247.452 29.9034 231.992C-8.98026 196.862 -7.08903 123.579 22.6229 78.1828C26.1453 72.8006 55.2937 31.0358 102.697 24.8392C103.856 24.6877 158.772 17.4366 195.825 48.4791C204.268 55.5755 211.6 63.8954 217.58 73.1624C246.521 117.861 246.613 187.089 209.806 225.028Z" fill="#62E5B9" fill-opacity="0.15"/>
<path d="M25.3434 45.8342C24.9004 44.8301 26.024 43.8526 26.966 44.4156C36.5323 50.1326 60.4818 68.2796 64.2609 108.321C69.0013 158.559 83.1 174.185 98.1704 182.301C98.1704 182.301 79.6251 180.99 64.6992 165.269C28.0522 126.673 33.2191 63.6876 25.3434 45.8342Z" fill="#4CB894"/>
<g style="mix-blend-mode:soft-light">
<path d="M34.7257 59.7973C36.91 65.0278 38.99 70.2984 40.8744 75.6377C42.7863 80.966 44.5333 86.347 46.1154 91.7806C47.6736 97.2168 49.1298 102.681 50.3516 108.2C51.5982 113.713 52.6065 119.272 53.5994 124.858C54.623 130.436 55.6224 136.06 57.2007 141.599C58.7705 147.128 61.0255 152.558 64.2059 157.415C65.0002 158.625 65.8195 159.826 66.7013 160.966C67.5624 162.123 68.4751 163.242 69.4073 164.345C75.0364 170.985 82.0514 176.313 89.9594 179.953C90.0886 180.016 90.2291 180.053 90.3727 180.062C90.5163 180.07 90.6603 180.051 90.7963 180.004C90.9324 179.957 91.0579 179.884 91.1657 179.789C91.2735 179.694 91.3615 179.578 91.4247 179.449C91.4878 179.32 91.5249 179.179 91.5337 179.035C91.5426 178.892 91.523 178.748 91.4763 178.612C91.4295 178.476 91.3564 178.35 91.2611 178.242C91.1658 178.135 91.0502 178.047 90.9209 177.984L90.9172 177.982C89.6685 177.351 88.4285 176.707 87.2214 176.01C86.6122 175.671 86.0194 175.306 85.4198 174.952C84.8344 174.576 84.2343 174.223 83.661 173.829C81.3423 172.294 79.1374 170.595 77.0635 168.743C72.907 165.063 69.2788 160.743 66.2327 156.108C64.7338 153.774 63.4131 151.329 62.282 148.796C61.1583 146.248 60.2061 143.627 59.4317 140.951C57.8581 135.584 56.8229 130.026 55.7594 124.456C54.6884 118.887 53.5738 113.298 52.231 107.763C51.5671 104.994 50.8538 102.239 50.0911 99.4957C49.7178 98.1224 49.3179 96.7559 48.9206 95.3901C48.51 94.0276 48.0909 92.6679 47.6632 91.3111C45.9373 85.8885 44.046 80.5251 41.9895 75.2211C39.9066 69.9308 37.6843 64.6977 35.2639 59.5589C35.2317 59.4887 35.173 59.434 35.1007 59.4067C35.0284 59.3793 34.9483 59.3816 34.8776 59.413C34.807 59.4443 34.7516 59.5022 34.7233 59.5742C34.6951 59.6461 34.6963 59.7263 34.7268 59.7973H34.7257Z" fill="white"/>
</g>
<path d="M71.2539 182.862C71.2468 183.289 71.1348 183.708 70.9276 184.082C70.7204 184.455 70.4245 184.772 70.066 185.004C69.7074 185.237 69.2972 185.377 68.8716 185.413C68.4459 185.45 68.0178 185.381 67.6251 185.213C58.2334 181.22 32.7014 167.53 22.951 133.677C14.7172 105.09 7.53584 90.371 3.81212 83.9152C3.02483 82.5501 4.43792 80.9734 5.8821 81.6042C21.8157 88.5633 72.0798 115.85 71.2539 182.862Z" fill="#4CB894"/>
<path d="M68.8939 183.699C68.8293 183.784 68.7469 183.854 68.6523 183.903C68.5578 183.952 68.4536 183.98 68.3471 183.984C68.2406 183.988 68.1345 183.969 68.0364 183.927C67.9383 183.886 67.8506 183.823 67.7796 183.743C67.4787 183.406 37.5432 149.55 24.2989 110.319C24.2664 110.229 24.2523 110.133 24.2573 110.037C24.2624 109.941 24.2865 109.847 24.3283 109.761C24.37 109.674 24.4286 109.597 24.5006 109.533C24.5725 109.47 24.6564 109.421 24.7474 109.391C24.8383 109.36 24.9345 109.348 25.0302 109.354C25.126 109.361 25.2194 109.387 25.305 109.431C25.3906 109.474 25.4668 109.534 25.5289 109.607C25.5911 109.68 25.638 109.765 25.667 109.857C38.8147 148.803 68.5581 182.447 68.8569 182.782C68.9685 182.907 69.0332 183.067 69.0399 183.234C69.0467 183.401 68.9951 183.566 68.8939 183.699Z" fill="#EFEFF4"/>
<path d="M12.3752 230.056C12.3779 230.855 12.6967 231.621 13.2621 232.186C13.8274 232.75 14.5933 233.069 15.3925 233.071H178.556C179.355 233.069 180.121 232.75 180.686 232.186C181.251 231.621 181.57 230.855 181.573 230.056L182.931 136.291C182.931 134.633 180.977 131.396 177.397 131.639L17.9365 127.513C16.9067 127.486 15.8821 127.669 14.9248 128.049C13.9676 128.43 13.0978 129.002 12.3682 129.729C11.6385 130.456 11.0643 131.324 10.6803 132.28C10.2963 133.236 10.1106 134.26 10.1345 135.29L12.3752 230.056Z" fill="#333435"/>
<path d="M15.354 227.164C15.3562 227.921 15.6577 228.645 16.1926 229.18C16.7275 229.715 17.4523 230.017 18.2087 230.019H174.621C175.377 230.017 176.102 229.715 176.637 229.18C177.172 228.645 177.473 227.921 177.475 227.164L178.757 142.043C178.606 136.921 174.115 135.08 171.393 135.188L18.5636 131.088C17.8397 131.069 17.1195 131.198 16.4467 131.466C15.7739 131.733 15.1626 132.135 14.6499 132.647C14.1371 133.158 13.7337 133.768 13.464 134.44C13.1944 135.112 13.0641 135.832 13.0812 136.556L15.354 227.164Z" fill="#A8ABB2"/>
<path d="M175.785 186.726H175.779C175.724 186.725 175.67 186.713 175.619 186.692C175.569 186.67 175.523 186.638 175.485 186.599C175.447 186.559 175.417 186.513 175.396 186.462C175.376 186.411 175.366 186.356 175.367 186.301L175.468 179.398C175.47 179.288 175.514 179.183 175.593 179.106C175.671 179.029 175.776 178.986 175.886 178.986H175.892C175.947 178.987 176.002 178.998 176.052 179.02C176.103 179.042 176.148 179.073 176.186 179.113C176.225 179.152 176.255 179.199 176.275 179.25C176.295 179.301 176.305 179.356 176.304 179.411L176.203 186.314C176.202 186.423 176.157 186.528 176.079 186.605C176 186.682 175.895 186.726 175.785 186.726Z" fill="#C6C9D3"/>
<path d="M176.034 169.809H176.028C175.973 169.808 175.918 169.797 175.868 169.775C175.817 169.753 175.772 169.722 175.733 169.682C175.695 169.643 175.665 169.596 175.645 169.545C175.625 169.494 175.615 169.44 175.615 169.385L176.004 142.945C175.996 141.375 175.52 140.121 174.586 139.227C172.845 137.558 170.08 137.643 169.963 137.649L121.116 136.339C121.061 136.338 121.007 136.325 120.956 136.303C120.906 136.281 120.861 136.249 120.823 136.209C120.785 136.169 120.756 136.122 120.736 136.071C120.717 136.019 120.707 135.965 120.709 135.91C120.708 135.854 120.718 135.799 120.74 135.748C120.761 135.696 120.793 135.65 120.834 135.612C120.874 135.573 120.922 135.544 120.975 135.525C121.027 135.507 121.083 135.499 121.138 135.503L169.957 136.813C170.26 136.795 173.204 136.744 175.165 138.623C176.268 139.68 176.832 141.136 176.84 142.95L176.452 169.397C176.45 169.507 176.405 169.612 176.327 169.689C176.249 169.766 176.144 169.809 176.034 169.809Z" fill="#C6C9D3"/>
<path d="M171.475 244.426C195.069 232.713 213.27 214.289 215.301 175.737C215.301 175.737 153.892 196.238 171.475 244.426Z" fill="#4CB894"/>
<path d="M173.859 243.473C190.442 245.004 206.352 241.132 220.242 221.063C220.242 221.062 180.394 211.708 173.859 243.473Z" fill="#4CB894"/>
<path d="M175.291 235.776C175.356 235.777 175.419 235.756 175.472 235.719C175.525 235.681 175.565 235.628 175.586 235.567C186.31 204.996 207.103 187.308 207.312 187.133C207.375 187.079 207.415 187.003 207.422 186.92C207.429 186.838 207.404 186.756 207.35 186.692C207.324 186.66 207.292 186.634 207.255 186.616C207.219 186.597 207.179 186.585 207.138 186.581C207.055 186.574 206.973 186.6 206.91 186.653C206.7 186.83 185.779 204.62 174.996 235.36C174.982 235.399 174.976 235.44 174.978 235.481C174.981 235.522 174.991 235.562 175.009 235.599C175.027 235.636 175.052 235.669 175.082 235.697C175.113 235.724 175.148 235.745 175.187 235.759C175.22 235.771 175.256 235.777 175.291 235.776Z" fill="#EFEFF4"/>
<path d="M183.268 238.173C183.313 238.173 183.358 238.163 183.399 238.144C183.44 238.125 183.477 238.097 183.506 238.062C192.866 227.03 213.804 223.47 214.014 223.435C214.055 223.428 214.094 223.414 214.129 223.392C214.164 223.37 214.194 223.342 214.218 223.309C214.242 223.275 214.259 223.238 214.268 223.198C214.278 223.158 214.279 223.116 214.272 223.076C214.266 223.035 214.252 222.996 214.23 222.96C214.209 222.925 214.181 222.895 214.147 222.871C214.114 222.847 214.076 222.83 214.035 222.821C213.995 222.811 213.953 222.811 213.913 222.818C213.7 222.853 192.535 226.452 183.029 237.658C182.99 237.703 182.966 237.759 182.958 237.818C182.95 237.877 182.959 237.937 182.984 237.991C183.009 238.045 183.049 238.091 183.099 238.123C183.149 238.156 183.208 238.173 183.268 238.173Z" fill="#E8E8EF"/>
<path d="M188.778 47.8398L190.638 95.61L177.129 96.1359L175.269 48.3657C174.561 30.2033 160.19 15.9697 143.217 16.6305C126.245 17.2913 113.038 32.5987 113.745 50.7612L115.605 98.5314L102.096 99.0573L100.236 51.2871C99.2232 25.2722 118.255 3.34753 142.663 2.39719C167.071 1.44685 187.765 21.8306 188.778 47.8398Z" fill="#C7C7C7"/>
<path d="M100.731 63.7119L114.262 63.7292L115.617 98.5307L102.108 99.0567L100.731 63.7119Z" fill="#AEAEAE"/>
<path d="M189.402 63.8696L190.637 95.6101L177.128 96.136L175.871 63.8438L189.402 63.8696Z" fill="#AEAEAE"/>
<path d="M206.876 67.7377L83.7484 72.5317L88.0977 184.237L211.225 179.443L206.876 67.7377Z" fill="#5B62D9"/>
<path d="M206.876 67.7378L145.312 70.1348L149.661 181.84L211.225 179.443L206.876 67.7378Z" fill="white" fill-opacity="0.2"/>
<path d="M152.854 129.877L158.96 154.125L137.087 154.977L141.288 130.327C139.223 129.15 137.597 127.331 136.657 125.147C135.717 122.963 135.513 120.532 136.078 118.222C136.642 115.912 137.944 113.849 139.785 112.344C141.627 110.84 143.908 109.976 146.284 109.883C148.66 109.791 151.002 110.475 152.955 111.831C154.908 113.188 156.365 115.144 157.108 117.403C157.85 119.662 157.837 122.101 157.069 124.352C156.302 126.603 154.822 128.542 152.854 129.877Z" fill="#263238"/>
<path opacity="0.63" d="M212.044 130.211L210.687 128.922C210.384 128.634 209.985 128.469 209.567 128.457C209.15 128.445 208.742 128.588 208.423 128.858L137.731 188.711L103.635 156.328C103.32 156.029 102.902 155.862 102.467 155.862C102.032 155.862 101.614 156.029 101.299 156.328L26.6167 227.259C26.2905 227.568 26.1008 227.995 26.0892 228.445C26.0776 228.894 26.2451 229.33 26.5549 229.657C26.8647 229.983 27.2914 230.172 27.7411 230.184C28.1908 230.196 28.6267 230.028 28.9529 229.718L102.467 159.897L136.497 192.218C136.8 192.506 137.199 192.672 137.617 192.684C138.035 192.696 138.442 192.553 138.761 192.283L209.453 132.43L212.044 134.89V130.211Z" fill="white"/>
<path d="M101.483 168.905C106.112 168.905 109.864 165.342 109.864 160.946C109.864 156.55 106.112 152.986 101.483 152.986C96.8549 152.986 93.1028 156.55 93.1028 160.946C93.1028 165.342 96.8549 168.905 101.483 168.905Z" fill="white"/>
<path d="M209.468 138.112C214.096 138.112 217.849 134.548 217.849 130.152C217.849 125.756 214.096 122.193 209.468 122.193C204.839 122.193 201.087 125.756 201.087 130.152C201.087 134.548 204.839 138.112 209.468 138.112Z" fill="white"/>
</svg>
