<svg width="9" height="11" viewBox="0 0 9 11" fill="none" xmlns="http://www.w3.org/2000/svg">
<path d="M5.367 10.1789C6.67425 9.08199 9 6.841 9 4.78449C9 3.64662 8.52589 2.55535 7.68198 1.75076C6.83807 0.946158 5.69347 0.494141 4.5 0.494141C3.30653 0.494141 2.16193 0.946158 1.31802 1.75076C0.474106 2.55535 1.77842e-08 3.64662 0 4.78449C0 6.841 2.325 9.08199 3.633 10.1789C3.87158 10.3819 4.1802 10.4941 4.5 10.4941C4.8198 10.4941 5.12842 10.3819 5.367 10.1789ZM3 4.78449C3 4.4052 3.15804 4.04144 3.43934 3.77325C3.72064 3.50505 4.10218 3.35437 4.5 3.35437C4.89782 3.35437 5.27936 3.50505 5.56066 3.77325C5.84196 4.04144 6 4.4052 6 4.78449C6 5.16378 5.84196 5.52754 5.56066 5.79574C5.27936 6.06394 4.89782 6.21461 4.5 6.21461C4.10218 6.21461 3.72064 6.06394 3.43934 5.79574C3.15804 5.52754 3 5.16378 3 4.78449Z" fill="white" fill-opacity="0.8"/>
</svg>
