<svg width="241" height="233" viewBox="0 0 241 233" fill="none" xmlns="http://www.w3.org/2000/svg">
<path d="M209.806 201.028C203.613 207.412 202.314 208.332 198.071 211.165C156.693 238.793 96.8202 232.115 82.1961 229.393C58.602 225.002 47.015 223.452 29.9034 207.992C-8.98026 172.862 -7.08903 99.5787 22.6229 54.1828C26.1453 48.8006 55.2937 7.03584 102.697 0.839214C103.856 0.687737 158.772 -6.56343 195.825 24.4791C204.268 31.5755 211.6 39.8954 217.58 49.1624C246.521 93.8609 246.613 163.089 209.806 201.028Z" fill="#62E5B9" fill-opacity="0.15"/>
<path d="M25.3434 15.7595C24.9004 14.7554 26.024 13.7779 26.966 14.3409C36.5323 20.0579 60.4818 38.2049 64.2609 78.2461C69.0013 128.484 83.1 144.11 98.1704 152.226C98.1704 152.226 79.6251 150.915 64.6992 135.195C28.0522 96.5981 33.2191 33.6129 25.3434 15.7595Z" fill="#4CB894"/>
<g style="mix-blend-mode:soft-light">
<path d="M34.7257 29.7226C36.91 34.9531 38.99 40.2237 40.8744 45.563C42.7863 50.8913 44.5333 56.2723 46.1154 61.7059C47.6736 67.1421 49.1298 72.6068 50.3516 78.1251C51.5982 83.6379 52.6065 89.1978 53.5994 94.7837C54.623 100.361 55.6224 105.985 57.2007 111.524C58.7705 117.053 61.0255 122.483 64.2059 127.34C65.0002 128.551 65.8195 129.751 66.7013 130.891C67.5624 132.048 68.4751 133.168 69.4073 134.27C75.0364 140.911 82.0514 146.238 89.9594 149.878C90.0886 149.941 90.2291 149.978 90.3727 149.987C90.5163 149.996 90.6603 149.976 90.7963 149.929C90.9324 149.883 91.0579 149.81 91.1657 149.714C91.2735 149.619 91.3615 149.503 91.4247 149.374C91.4878 149.245 91.5249 149.104 91.5337 148.961C91.5426 148.817 91.523 148.673 91.4763 148.537C91.4295 148.401 91.3564 148.276 91.2611 148.168C91.1658 148.06 91.0502 147.972 90.9209 147.909L90.9172 147.907C89.6685 147.277 88.4285 146.633 87.2214 145.936C86.6122 145.597 86.0194 145.231 85.4198 144.878C84.8344 144.501 84.2343 144.148 83.661 143.754C81.3423 142.22 79.1374 140.52 77.0635 138.668C72.907 134.988 69.2788 130.668 66.2327 126.034C64.7338 123.699 63.4131 121.255 62.282 118.722C61.1583 116.173 60.2061 113.552 59.4317 110.877C57.8581 105.51 56.8229 99.9511 55.7594 94.3816C54.6884 88.8124 53.5738 83.2232 52.231 77.6886C51.5671 74.9197 50.8538 72.1638 50.0911 69.421C49.7178 68.0477 49.3179 66.6812 48.9206 65.3154C48.51 63.9529 48.0909 62.5932 47.6632 61.2364C45.9373 55.8138 44.046 50.4504 41.9895 45.1463C39.9066 39.8561 37.6843 34.623 35.2639 29.4842C35.2317 29.414 35.173 29.3593 35.1007 29.332C35.0284 29.3046 34.9483 29.3069 34.8776 29.3383C34.807 29.3696 34.7516 29.4275 34.7233 29.4995C34.6951 29.5714 34.6963 29.6516 34.7268 29.7226H34.7257Z" fill="white"/>
</g>
<path d="M71.2539 152.788C71.2468 153.215 71.1348 153.634 70.9276 154.007C70.7204 154.381 70.4245 154.698 70.066 154.93C69.7074 155.162 69.2972 155.303 68.8716 155.339C68.4459 155.376 68.0178 155.307 67.6251 155.138C58.2334 151.146 32.7014 137.456 22.951 103.603C14.7172 75.0156 7.53584 60.2968 3.81212 53.841C3.02483 52.4758 4.43792 50.8991 5.8821 51.53C21.8157 58.4891 72.0798 85.7756 71.2539 152.788Z" fill="#4CB894"/>
<path d="M68.8939 153.625C68.8293 153.71 68.7469 153.779 68.6523 153.829C68.5578 153.878 68.4536 153.906 68.3471 153.91C68.2406 153.914 68.1345 153.895 68.0364 153.853C67.9383 153.811 67.8506 153.749 67.7796 153.669C67.4787 153.332 37.5432 119.476 24.2989 80.2447C24.2664 80.1543 24.2523 80.0584 24.2573 79.9626C24.2624 79.8667 24.2865 79.7728 24.3283 79.6864C24.37 79.5999 24.4286 79.5227 24.5006 79.4592C24.5725 79.3956 24.6564 79.3471 24.7474 79.3163C24.8383 79.2856 24.9345 79.2733 25.0302 79.2802C25.126 79.287 25.2194 79.3129 25.305 79.3563C25.3906 79.3997 25.4668 79.4597 25.5289 79.5329C25.5911 79.606 25.638 79.6908 25.667 79.7824C38.8147 118.728 68.5581 152.373 68.8569 152.708C68.9685 152.833 69.0332 152.993 69.0399 153.16C69.0467 153.327 68.9951 153.492 68.8939 153.625Z" fill="#EFEFF4"/>
<path d="M12.3752 199.981C12.3779 200.781 12.6967 201.546 13.2621 202.111C13.8274 202.676 14.5933 202.994 15.3925 202.996H178.556C179.355 202.994 180.121 202.676 180.686 202.111C181.251 201.546 181.57 200.781 181.573 199.981L182.931 106.216C182.931 104.558 180.977 101.322 177.397 101.565L17.9365 97.4387C16.9067 97.4115 15.8821 97.5938 14.9248 97.9747C13.9676 98.3556 13.0978 98.927 12.3682 99.6542C11.6385 100.381 11.0643 101.249 10.6803 102.205C10.2963 103.161 10.1106 104.185 10.1345 105.215L12.3752 199.981Z" fill="#333435"/>
<path d="M15.354 197.09C15.3562 197.846 15.6577 198.571 16.1926 199.106C16.7275 199.64 17.4523 199.942 18.2087 199.944H174.621C175.377 199.942 176.102 199.64 176.637 199.106C177.172 198.571 177.473 197.846 177.475 197.09L178.757 111.968C178.606 106.846 174.115 105.005 171.393 105.114L18.5636 101.014C17.8397 100.995 17.1195 101.123 16.4467 101.391C15.7739 101.659 15.1626 102.061 14.6499 102.572C14.1371 103.083 13.7337 103.694 13.464 104.366C13.1944 105.038 13.0641 105.758 13.0812 106.482L15.354 197.09Z" fill="#A8ABB2"/>
<path d="M175.785 156.651H175.779C175.724 156.65 175.67 156.639 175.619 156.617C175.569 156.595 175.523 156.564 175.485 156.524C175.447 156.485 175.417 156.438 175.396 156.387C175.376 156.336 175.366 156.281 175.367 156.226L175.468 149.323C175.47 149.213 175.514 149.109 175.593 149.032C175.671 148.954 175.776 148.911 175.886 148.911H175.892C175.947 148.912 176.002 148.924 176.052 148.945C176.103 148.967 176.148 148.999 176.186 149.038C176.225 149.077 176.255 149.124 176.275 149.175C176.295 149.226 176.305 149.281 176.304 149.336L176.203 156.239C176.202 156.349 176.157 156.454 176.079 156.531C176 156.608 175.895 156.651 175.785 156.651Z" fill="#C6C9D3"/>
<path d="M176.034 139.735H176.028C175.973 139.734 175.918 139.722 175.868 139.7C175.817 139.679 175.772 139.647 175.733 139.608C175.695 139.568 175.665 139.522 175.645 139.471C175.625 139.419 175.615 139.365 175.615 139.31L176.004 112.871C175.996 111.3 175.52 110.046 174.586 109.152C172.845 107.484 170.08 107.569 169.963 107.574L121.116 106.264C121.061 106.263 121.007 106.251 120.956 106.228C120.906 106.206 120.861 106.174 120.823 106.134C120.785 106.094 120.756 106.047 120.736 105.996C120.717 105.945 120.707 105.89 120.709 105.835C120.708 105.779 120.718 105.724 120.74 105.673C120.761 105.622 120.793 105.575 120.834 105.537C120.874 105.499 120.922 105.469 120.975 105.451C121.027 105.432 121.083 105.424 121.138 105.428L169.957 106.738C170.26 106.72 173.204 106.669 175.165 108.548C176.268 109.605 176.832 111.061 176.84 112.875L176.452 139.322C176.45 139.432 176.405 139.537 176.327 139.614C176.249 139.691 176.144 139.734 176.034 139.735Z" fill="#C6C9D3"/>
<path d="M171.475 214.351C195.069 202.639 213.27 184.215 215.301 145.663C215.301 145.663 153.892 166.164 171.475 214.351Z" fill="#4CB894"/>
<path d="M173.859 213.399C190.442 214.929 206.352 211.058 220.242 190.988C220.242 190.988 180.394 181.634 173.859 213.399Z" fill="#4CB894"/>
<path d="M175.291 205.702C175.356 205.702 175.419 205.682 175.472 205.645C175.525 205.607 175.565 205.554 175.586 205.493C186.31 174.922 207.103 157.234 207.312 157.059C207.375 157.005 207.415 156.929 207.422 156.846C207.429 156.764 207.404 156.681 207.35 156.618C207.324 156.586 207.292 156.56 207.255 156.541C207.219 156.522 207.179 156.511 207.138 156.507C207.055 156.5 206.973 156.526 206.91 156.579C206.7 156.755 185.779 174.546 174.996 205.286C174.982 205.325 174.976 205.366 174.978 205.407C174.981 205.448 174.991 205.488 175.009 205.525C175.027 205.562 175.052 205.595 175.082 205.622C175.113 205.65 175.148 205.671 175.187 205.684C175.22 205.696 175.256 205.702 175.291 205.702Z" fill="#EFEFF4"/>
<path d="M183.268 208.098C183.313 208.098 183.358 208.089 183.399 208.07C183.44 208.05 183.477 208.023 183.506 207.988C192.866 196.956 213.804 193.396 214.014 193.361C214.055 193.354 214.094 193.34 214.129 193.318C214.164 193.296 214.194 193.268 214.218 193.234C214.242 193.201 214.259 193.163 214.268 193.123C214.278 193.083 214.279 193.042 214.272 193.001C214.266 192.961 214.252 192.921 214.23 192.886C214.209 192.851 214.181 192.821 214.147 192.797C214.114 192.772 214.076 192.755 214.035 192.746C213.995 192.737 213.953 192.736 213.913 192.744C213.7 192.778 192.535 196.378 183.029 207.583C182.99 207.629 182.966 207.684 182.958 207.744C182.95 207.803 182.959 207.863 182.984 207.917C183.009 207.971 183.049 208.017 183.099 208.049C183.149 208.081 183.208 208.098 183.268 208.098Z" fill="#E8E8EF"/>
<path d="M69.7552 135.641H228.576C234.988 135.641 240.186 130.886 240.186 125.02V30.4101C240.186 24.7738 235.373 20.119 229.222 19.8052L64.2729 11.3943C57.3669 11.0422 51.658 16.2579 52.0339 22.5764L58.1623 125.597C58.4975 131.23 63.5884 135.641 69.7552 135.641Z" fill="#5B62D9"/>
<path d="M145.457 78.5522L58.6406 12.4067C60.4141 11.6371 62.3423 11.2903 64.2728 11.3939L229.222 19.8048C231.911 19.9243 234.484 20.9359 236.535 22.68L171.561 77.9609C164.507 83.9623 152.903 84.2251 145.457 78.5522Z" fill="white" fill-opacity="0.2"/>
<path d="M157.526 75.2743C161.842 75.2743 166.139 73.8616 169.592 71.0724L194.073 51.3006C194.242 51.1715 194.381 51.0079 194.481 50.8207C194.582 50.6334 194.642 50.4269 194.656 50.2149C194.67 50.0028 194.639 49.7902 194.565 49.591C194.491 49.3919 194.375 49.2109 194.225 49.0601C193.905 48.7414 193.479 48.5512 193.027 48.5255C192.576 48.4997 192.131 48.6403 191.776 48.9206L167.295 68.6917C162.095 72.8916 154.528 73.2383 148.894 69.5339L136.209 61.1928C135.83 60.9461 135.375 60.8467 134.929 60.9136C134.482 60.9804 134.076 61.2089 133.787 61.5556C133.227 62.2675 133.405 63.2591 134.183 63.7712L146.869 72.1124C150.037 74.1834 153.741 75.2825 157.526 75.2743Z" fill="#5B62D9"/>
<path d="M202.032 44.3426C202.449 44.3452 202.854 44.2049 203.18 43.9452L206.476 41.2836C206.645 41.1545 206.784 40.9909 206.884 40.8037C206.985 40.6165 207.044 40.41 207.059 40.1979C207.073 39.9859 207.042 39.7732 206.968 39.5741C206.894 39.375 206.778 39.194 206.628 39.0432C206.308 38.7246 205.881 38.5346 205.43 38.5089C204.979 38.4832 204.534 38.6236 204.179 38.9037L200.884 41.5652C200.715 41.6944 200.576 41.858 200.475 42.0452C200.374 42.2325 200.315 42.439 200.301 42.651C200.286 42.863 200.317 43.0757 200.391 43.2748C200.466 43.4739 200.581 43.6549 200.731 43.8057C200.901 43.9777 201.104 44.1139 201.327 44.2062C201.551 44.2984 201.791 44.3448 202.032 44.3426Z" fill="#5B62D9"/>
<path opacity="0.63" d="M212.044 100.137L210.687 98.8476C210.384 98.5597 209.985 98.394 209.567 98.382C209.15 98.3701 208.742 98.5129 208.423 98.7829L137.731 158.636L103.635 126.254C103.32 125.954 102.902 125.787 102.467 125.787C102.032 125.787 101.614 125.954 101.299 126.254L26.6167 197.184C26.2905 197.494 26.1008 197.92 26.0892 198.37C26.0776 198.82 26.2451 199.256 26.5549 199.582C26.8647 199.908 27.2914 200.098 27.7411 200.109C28.1908 200.121 28.6267 199.953 28.9529 199.644L102.467 129.823L136.497 162.144C136.8 162.431 137.199 162.597 137.617 162.609C138.035 162.621 138.442 162.478 138.761 162.208L209.453 102.355L212.044 104.815V100.137Z" fill="white"/>
<path d="M101.483 138.831C106.112 138.831 109.864 135.267 109.864 130.871C109.864 126.475 106.112 122.912 101.483 122.912C96.8549 122.912 93.1028 126.475 93.1028 130.871C93.1028 135.267 96.8549 138.831 101.483 138.831Z" fill="white"/>
<path d="M209.468 108.037C214.096 108.037 217.849 104.474 217.849 100.078C217.849 95.6818 214.096 92.1182 209.468 92.1182C204.839 92.1182 201.087 95.6818 201.087 100.078C201.087 104.474 204.839 108.037 209.468 108.037Z" fill="white"/>
</svg>
