<svg width="97" height="280" viewBox="0 0 97 280" fill="none" xmlns="http://www.w3.org/2000/svg">
<path d="M48.5606 280.001C75.1167 280.001 96.6447 274.945 96.6447 268.708C96.6447 262.472 75.1167 257.416 48.5606 257.416C22.0045 257.416 0.476562 262.472 0.476562 268.708C0.476562 274.945 22.0045 280.001 48.5606 280.001Z" fill="#F2F2F2" fill-opacity="0.2"/>
<path d="M71.4274 113.941C69.7575 114.678 68.9962 115.924 67.3861 116.731C65.7908 117.429 64.1 117.882 62.3701 118.078C51.8648 119.991 41.1005 119.991 30.5952 118.078C28.8651 117.882 27.174 117.428 25.5785 116.731C23.9684 115.924 23.207 114.678 21.5372 113.941C18.7818 120.529 17.9221 127.228 18.2318 134.348C18.387 137.918 18.8146 141.435 18.9939 145.007C19.1056 148.435 19.5554 151.844 20.3366 155.184C20.3803 155.359 22.7109 155.587 22.9848 155.632C23.9043 155.783 24.8242 155.928 25.7446 156.069C27.5834 156.347 29.4259 156.602 31.272 156.834C34.8982 157.372 38.5543 157.683 42.2192 157.767C42.8552 157.767 43.5058 157.868 44.1404 157.925C44.4648 155.736 44.7198 153.539 44.9053 151.332C45.9547 151.429 47.0106 151.429 48.0599 151.332C48.245 153.538 48.5 155.735 48.8249 157.925C49.4587 157.868 50.1101 157.765 50.7454 157.767C54.4103 157.683 58.0664 157.372 61.6925 156.834C63.5382 156.605 65.3806 156.35 67.22 156.069C68.1428 155.929 69.0627 155.783 69.9797 155.632C70.2544 155.587 72.5843 155.359 72.6287 155.184C73.4095 151.844 73.8593 148.435 73.9714 145.007C74.1507 141.437 74.5783 137.919 74.7335 134.348C75.0431 127.228 74.1827 120.529 71.4274 113.941Z" fill="#FF9E7B"/>
<path d="M45.7747 151.29C45.7375 155.2 43.0062 175.332 41.4682 182.274C40.6899 185.942 40.7432 189.738 41.6242 193.383C42.4926 197.177 42.368 202.323 42.8991 207.121C43.3435 211.091 41.3473 221.051 39.4939 229.307C39.0961 231.098 38.6925 232.815 38.3282 234.365C38.2313 234.776 38.1388 235.172 38.0441 235.56V235.568L37.8488 236.384C37.2354 239.006 36.7655 240.936 36.6416 241.646C36.617 241.793 36.5779 241.937 36.525 242.077C35.9065 243.773 33.5497 244.808 31.6839 244.116C31.0514 243.861 30.5004 243.439 30.0897 242.894C29.6791 242.349 29.4242 241.703 29.3525 241.025C28.836 239.075 28.3508 237.178 27.9093 235.343C27.5953 234.031 27.2893 232.747 27.0088 231.495C27.012 231.483 27.012 231.47 27.0088 231.458C20.8926 204.193 21.9541 189.794 23.0018 183.592C23.0394 176.773 22.5655 169.961 21.584 163.213C21.1469 160.262 20.728 157.517 20.3943 155.377C19.9856 152.72 19.7109 151.005 19.7109 151.005C20.0453 150.872 20.3899 150.744 20.7309 150.624C20.7555 150.612 20.7818 150.604 20.8088 150.599C22.9969 149.85 25.2595 149.338 27.5574 149.075C34.1573 148.277 41.0559 149.24 45.7747 151.29Z" fill="#FFC6B1"/>
<path d="M38.3419 234.091C38.3419 234.091 38.3361 234.19 38.3332 234.362C38.312 235.35 38.229 238.73 38.2669 239.263C38.3477 240.22 38.2159 241.448 38.2151 242.418C38.2151 243.176 38.1976 243.938 38.1736 244.7C38.1685 244.927 38.162 245.146 38.1496 245.374C38.1073 246.772 38.0468 248.165 38.0337 249.549C38.0075 251.671 37.9776 253.876 38.7411 255.923C39.2577 257.296 39.834 258.603 40.2172 259.989C40.2762 260.201 40.3352 260.413 40.3782 260.629C40.4059 260.728 40.4256 260.829 40.4452 260.93C40.4838 261.131 40.5181 261.325 40.5501 261.522C40.8292 263.224 40.564 265.128 39.1972 266.351C38.7898 266.653 38.4189 267.001 38.092 267.389C37.2666 268.613 38.4133 270.095 38.8388 271.472C38.8856 271.637 38.9209 271.805 38.9444 271.974C38.9697 272.072 38.9834 272.172 38.9852 272.273C38.9929 272.337 38.9965 272.402 38.9961 272.466C38.9998 272.57 38.9961 272.676 38.9896 272.775C38.9888 272.867 38.9805 272.959 38.9648 273.05C38.8986 273.619 38.7145 274.169 38.4242 274.663C38.406 274.689 38.39 274.722 38.3659 274.758C38.1594 275.087 37.9064 275.385 37.6148 275.643C37.1906 276.036 36.6823 276.327 36.1286 276.494C35.5143 276.693 34.8662 276.766 34.2231 276.708C33.58 276.651 32.9552 276.464 32.386 276.159C32.0149 275.956 31.6829 275.688 31.4054 275.369C29.4922 275.9 27.4042 276.411 25.5719 275.718C25.2222 275.584 24.8966 275.415 24.5374 275.307C24.1289 275.22 23.7152 275.16 23.2989 275.128C22.4699 274.966 21.6666 274.693 20.9107 274.317C20.5055 274.184 20.1413 273.949 19.8528 273.635C19.5644 273.321 19.3615 272.939 19.2634 272.524C19.1906 271.955 18.9254 271.337 19.1753 270.809C19.3276 270.506 19.4798 270.232 19.6299 269.982C20.4485 268.797 21.3301 267.657 22.2709 266.566C22.8282 265.838 24.1651 264.267 24.7749 263.6C25.5537 262.755 26.4294 261.984 27.1747 261.109C28.193 259.973 28.8669 258.57 29.1178 257.065C29.0686 256.841 29.0584 256.609 29.0879 256.381C29.1207 256.104 29.1418 255.785 29.1608 255.428L29.1527 255.399C29.2555 252.638 28.9342 247.711 28.5881 243.426C28.2749 239.503 27.1777 232.637 27.0203 231.493C27.0235 231.481 27.0235 231.468 27.0203 231.456C27.0123 231.398 27.0101 231.361 27.0043 231.34L30.5443 232.191C33.0629 232.803 36.2488 233.567 37.6381 233.916C38.0774 234.021 38.3404 234.083 38.3419 234.091Z" fill="#FFC6B1"/>
<path d="M21.3446 273.691L21.1406 273.96C21.3944 272.824 21.9326 271.771 22.7048 270.9" stroke="#D86A5B" stroke-width="0.94" stroke-miterlimit="10"/>
<path d="M23.7891 274.826C24.0202 273.783 24.5766 272.841 25.378 272.135" stroke="#D86A5B" stroke-width="0.94" stroke-miterlimit="10"/>
<path d="M26.8716 275.854C26.8448 275.305 26.9395 274.756 27.1491 274.248C27.3586 273.739 27.6778 273.283 28.0839 272.912" stroke="#D86A5B" stroke-width="0.94" stroke-miterlimit="10"/>
<path d="M32.5547 274.192C32.7062 274.863 33.74 275.126 34.422 274.807C34.7348 274.635 35.0059 274.396 35.2163 274.107C35.4267 273.819 35.5711 273.487 35.6394 273.137" stroke="#D86A5B" stroke-width="0.94" stroke-miterlimit="10"/>
<g style="mix-blend-mode:multiply" opacity="0.35">
<path d="M39.492 229.304C39.0943 231.095 38.6906 232.812 38.3264 234.362C38.3052 235.35 38.2222 238.73 38.2601 239.262C38.3409 240.22 38.2091 241.448 38.2084 242.418C38.2084 243.176 38.1909 243.937 38.1668 244.7C38.1617 244.927 38.1552 245.146 38.1428 245.373C38.0317 246.762 37.993 248.156 38.0269 249.549C38.0007 251.671 37.9708 253.876 38.7344 255.923C39.2509 257.295 39.8272 258.602 40.2104 259.989C40.2694 260.201 40.3284 260.413 40.3714 260.628C40.3991 260.727 40.4188 260.829 40.4384 260.929C40.477 261.131 40.5113 261.325 40.5433 261.522C40.8224 263.223 40.5572 265.128 39.1904 266.35C38.783 266.652 38.4121 267.001 38.0852 267.389C37.2598 268.612 38.4065 270.094 38.832 271.472C38.8788 271.637 38.9141 271.804 38.9376 271.974C38.963 272.072 38.9767 272.172 38.9784 272.273C38.9861 272.337 38.9897 272.401 38.9893 272.466C38.993 272.57 38.9893 272.676 38.9828 272.775C38.982 272.867 38.9737 272.959 38.958 273.05C38.8918 273.619 38.7077 274.168 38.4174 274.662C38.3992 274.689 38.3832 274.722 38.3592 274.758C38.1515 275.043 37.796 275.346 37.608 275.642C37.1838 276.035 36.6755 276.327 36.1218 276.494C35.5075 276.693 34.8594 276.766 34.2163 276.708C33.5732 276.65 32.9484 276.464 32.3792 276.159C32.3663 276.138 32.3569 276.114 32.3516 276.09C33.4817 276.392 34.6846 276.249 35.7124 275.69C36.1863 275.43 36.596 275.067 36.9112 274.628C37.2264 274.189 37.4391 273.685 37.5337 273.153C37.6024 272.131 37.4276 271.107 37.0237 270.166C36.8121 269.654 36.5617 269.16 36.2748 268.687C36.0176 268.188 35.8887 267.63 35.6293 267.125C35.3471 266.64 35.129 266.12 34.9802 265.579C34.8024 264.632 35.2592 263.694 35.6242 262.788C36.2898 261.123 36.6987 259.366 36.8372 257.577C37.0057 255.112 36.9845 252.638 36.7738 250.177C36.6362 247.918 36.5028 245.644 36.5065 243.377C36.5065 242.94 36.5065 242.503 36.5247 242.074C36.5585 240.385 36.717 238.699 36.999 237.033C37.047 236.782 37.0857 236.523 37.1345 236.275C37.286 235.484 37.4419 234.707 37.6277 233.916C37.7144 233.499 37.8171 233.079 37.9286 232.656C38.0544 232.095 38.2264 231.546 38.4429 231.013C38.721 230.402 39.0734 229.829 39.492 229.304Z" fill="#EAB1A7"/>
</g>
<g style="mix-blend-mode:multiply" opacity="0.35">
<path d="M45.7796 151.289C45.7424 155.199 43.0111 175.331 41.4731 182.273C40.6948 185.941 40.7481 189.737 41.6291 193.382C42.4975 197.176 42.3729 202.322 42.904 207.12C43.3484 211.09 41.3522 221.051 39.4988 229.307C39.101 231.097 38.6974 232.814 38.3331 234.364C38.2362 234.776 38.1437 235.171 38.049 235.56C37.8457 235.59 37.6366 235.598 37.4297 235.613C37.5434 225.292 38.0534 214.982 38.9597 204.682C39.2614 201.057 39.1963 197.411 38.7652 193.799C38.5932 192.301 39.584 187.564 36.3813 189.146C34.0179 190.312 31.9838 192.086 29.3749 192.716C28.4438 191.53 29.0624 189.901 29.812 188.617C30.857 186.828 32.0875 185.153 33.4832 183.621C35.3199 181.6 37.3255 179.33 38.355 176.879C39.4441 174.286 39.6226 171.481 40.231 168.788C41.3799 163.702 41.5205 157.332 33.9531 156.845C32.5594 156.755 20.593 156.618 20.4021 155.374C19.9934 152.717 19.7188 151.002 19.7188 151.002C20.0532 150.869 20.3978 150.741 20.7387 150.621C20.7633 150.609 20.7896 150.601 20.8167 150.597C22.0807 150.222 23.387 149.936 24.6882 149.665C25.6462 149.463 26.6057 149.268 27.5652 149.072C34.1622 148.276 41.0608 149.239 45.7796 151.289Z" fill="#EAB1A7"/>
</g>
<path d="M30.9558 185.111C30.6584 184.697 30.455 184.224 30.3598 183.723C30.2647 183.223 30.2801 182.708 30.405 182.215C30.4182 182.12 30.4552 182.03 30.5126 181.954C30.5699 181.877 30.6457 181.817 30.7329 181.777C30.9069 181.745 31.0868 181.781 31.2341 181.879C32.1191 182.425 32.7973 183.25 33.1619 184.223C33.8175 185.699 34.1184 187.464 33.1677 188.809C32.8904 189.232 32.4661 189.539 31.9765 189.668C31.5864 189.713 31.1912 189.672 30.8193 189.546C30.4474 189.42 30.1081 189.213 29.8258 188.94C28.6323 187.98 27.8213 186.626 27.5394 185.121C27.2574 183.615 27.5232 182.059 28.2886 180.733" stroke="#BF6D43" stroke-width="0.214" stroke-miterlimit="10"/>
<path d="M68.7478 73.9362C68.7478 73.9439 68.7478 73.9439 68.7401 73.9585C68.7325 73.9516 68.7325 73.9439 68.7401 73.9277L68.7478 73.9362Z" fill="#E17865"/>
<path d="M73.2747 109.591C72.7425 111.3 71.9273 112.908 70.8632 114.348C70.5099 114.802 70.1227 115.228 69.7048 115.623C69.2096 116.096 68.676 116.528 68.1093 116.913C66.7808 117.823 65.3565 118.586 63.8619 119.186C58.343 121.391 52.4153 122.387 46.4787 122.107C40.5422 122.387 34.6145 121.391 29.0956 119.186C26.9478 118.363 24.9678 117.156 23.2527 115.623C22.8348 115.228 22.4476 114.802 22.0943 114.348C21.0302 112.908 20.215 111.3 19.6828 109.591C17.0819 102.028 17.5044 94.0071 18.2403 86.1679C18.3058 85.3665 18.386 84.5651 18.4661 83.771C19.3477 74.7589 20.1199 65.6521 20.8995 56.6035C21.1545 53.6653 19.8518 50.2513 22.9438 48.8991C25.2774 48.0041 27.6931 47.3401 30.1564 46.9168C32.3445 46.4228 34.4961 45.7792 36.596 44.9905C37.0264 44.8195 37.4769 44.7044 37.9365 44.6481C38.3155 44.6223 38.6951 44.6873 39.0439 44.8375C39.4171 44.9354 39.8019 44.982 40.1877 44.9759C41.1182 45.0425 42.0447 45.1567 42.9635 45.3183C43.53 45.4594 44.115 45.511 44.6974 45.4713C45.1075 45.4105 45.5214 45.3789 45.936 45.3766L46.4751 45.3985L47.0142 45.3766C47.4288 45.3789 47.8427 45.4105 48.2528 45.4713C48.8352 45.511 49.4202 45.4594 49.9867 45.3183C50.9055 45.1567 51.832 45.0425 52.7625 44.9759C53.1483 44.982 53.5331 44.9354 53.9063 44.8375C54.2551 44.6873 54.6347 44.6223 55.0137 44.6481C55.4733 44.7044 55.9239 44.8195 56.3542 44.9905C58.4422 45.7067 60.5477 46.39 62.6984 46.8949C64.8111 47.3903 68.5712 47.8173 70.3794 49.1418C72.9082 50.993 71.7979 53.6514 72.0551 56.6035C72.6816 63.8526 73.3009 71.1453 73.9785 78.3871C74.146 80.1866 74.316 81.9812 74.4885 83.771C74.5686 84.5651 74.6487 85.3665 74.7143 86.1679C75.4531 94.0049 75.8778 102.026 73.2747 109.591Z" fill="#FFC6B1"/>
<path d="M55.7959 44.9965C55.8885 45.2078 55.7282 45.47 55.4688 45.8219C55.0181 46.4179 54.5077 46.9661 53.9454 47.4582C52.3693 48.8343 50.4603 49.7737 48.4085 50.183C46.2741 50.5876 44.086 50.6229 41.9397 50.2872C39.803 49.8631 37.868 48.7405 36.4392 47.0962C35.9057 46.5953 35.473 45.9971 35.1642 45.3338C35.1475 45.2733 36.4508 44.7167 36.582 44.6256C37.0273 44.3006 37.3671 43.8516 37.5589 43.3347C38.1309 41.8703 37.8314 40.105 37.9065 38.5692L38.1811 32.9776C38.1643 32.2873 38.3038 31.6022 38.5891 30.9734C39.2295 29.8077 40.9722 29.7516 42.1962 29.6999C45.4478 29.5608 48.7048 29.6058 51.9514 29.8347C52.5173 29.8082 53.073 29.991 53.5126 30.3483C53.8166 30.7753 53.9412 31.3044 53.8594 31.8222L53.5681 40.9166C53.4827 41.735 53.5777 42.5621 53.8463 43.3398C53.9876 43.6551 54.1944 43.9367 54.4529 44.166C54.7114 44.3952 55.0158 44.5668 55.3457 44.6694C55.5329 44.7152 55.6945 44.8326 55.7959 44.9965Z" fill="#FFC6B1"/>
<path d="M57.3536 27.8043C57.3536 27.8043 57.1518 28.3143 56.7402 29.1084C55.8492 30.8649 53.9586 34.0049 51.0845 35.8984C49.7609 36.8051 48.2223 37.348 46.6229 37.4728C44.3367 37.5457 41.8414 37.5304 39.3039 35.5057C37.4491 33.8986 35.9588 31.914 34.9326 29.6847C34.7388 29.3204 34.5458 28.9335 34.3607 28.5328C32.2436 27.958 27.8766 24.6715 30.6386 21.7573C30.8515 21.5292 31.1134 21.3523 31.4045 21.2399C31.6956 21.1275 32.0083 21.0825 32.3193 21.1082C32.6185 21.1323 32.908 21.2259 33.1647 21.3814C33.4215 21.537 33.6384 21.7503 33.7983 22.0043C33.8593 20.1288 33.7127 18.2523 33.3611 16.4091C32.8235 13.3936 35.5628 10.7053 39.0751 10.7993L53.6381 11.2364C55.8565 11.3012 57.562 12.955 57.3944 14.8791L56.7978 21.7639C56.7978 21.7639 59.999 18.9881 61.2513 22.0036C62.5037 25.019 59.5801 27.6884 57.3536 27.8043Z" fill="#FFC6B1"/>
<path d="M53.6864 12.1862L53.988 13.2877C53.988 13.295 53.988 13.295 53.9953 13.3023C54.3428 14.2451 54.8906 15.1652 55.3066 16.0788C56.0272 17.6912 56.3349 19.4576 56.202 21.2187C56.2738 21.3578 56.3564 21.491 56.449 21.6172C56.7714 21.4074 57.0784 21.1749 57.3677 20.9215C57.7458 20.63 58.2864 20.6534 58.6186 20.4647L53.6645 11.113C53.6552 11.1706 53.6498 11.2288 53.6485 11.2872C53.6187 11.5871 53.6314 11.8898 53.6864 12.1862Z" fill="#242723"/>
<path d="M32.2665 12.8975C31.3685 13.8934 30.8765 15.1898 30.8874 16.5307C30.8145 17.9681 30.8356 19.823 31.6735 21.1373C31.6833 21.1568 31.6981 21.1734 31.7164 21.1854C31.7435 21.1972 31.7731 21.2017 31.8024 21.1985C32.2818 21.1042 32.7791 21.1833 33.2056 21.4215C33.3888 21.5385 33.5435 21.695 33.6583 21.8796C33.7731 22.0641 33.8453 22.272 33.8693 22.4881C33.9043 21.4251 33.8365 19.595 33.8693 18.5313C33.9117 17.59 34.0878 16.6596 34.3924 15.7679C34.8324 14.752 35.6096 13.919 36.5926 13.4096C36.8491 13.2639 37.0298 13.2865 37.2075 13.0818C37.0694 13.8406 36.9759 14.6069 36.9278 15.3767C36.8979 15.8583 37.1776 17.1981 36.9139 17.5798C38.1649 15.7713 39.9133 14.364 41.9474 13.5284C41.2456 14.4346 40.6846 15.4417 40.2834 16.5154C42.2816 15.5076 44.2465 14.4444 46.1781 13.3258C45.687 14.5844 45.2929 15.8787 44.9993 17.1973C46.3959 16.53 47.7838 15.8561 49.1797 15.1815C51.1366 14.2343 53.2436 13.1372 54.147 11.1657C54.1457 11.2069 54.1483 11.2481 54.155 11.2888C54.155 11.5934 54.1717 11.8906 54.1972 12.1879C54.2631 12.5721 54.3754 12.9468 54.5316 13.304C54.9075 14.2467 55.5013 15.1669 55.953 16.0805C56.7391 17.6971 56.7078 19.5637 56.565 21.3107C56.557 21.4848 56.8979 21.5759 56.8724 21.7478C56.9815 21.7125 57.0877 21.6689 57.1901 21.6174C57.5376 21.4089 57.8701 21.1764 58.1853 20.9217C58.5947 20.6303 59.1805 20.6536 59.5396 20.4649C59.5984 20.438 59.6521 20.4013 59.6985 20.3563C60.0249 20.0445 60.1166 19.1965 60.2252 18.7907C60.5061 17.4788 60.6158 16.1361 60.5516 14.7961C60.6018 12.9886 60.4278 11.1819 60.0336 9.41719C59.6225 7.63788 58.6166 6.05212 57.1821 4.92206C56.882 4.65495 56.518 4.46992 56.1253 4.38491C55.7327 4.29989 55.3247 4.31779 54.9411 4.43685C54.5396 3.226 53.2771 2.52296 52.048 2.16014C47.531 0.833458 41.9613 1.73248 37.5798 0C38.071 1.11974 38.8095 2.1136 39.7399 2.9069C38.5444 2.49382 36.4367 3.03731 35.4 3.76221C34.3633 4.48712 32.6075 5.74168 31.9889 6.84324C30.5923 9.3203 30.8349 11.4906 30.7344 14.332C31.0375 13.7746 31.782 13.3834 32.2665 12.8975Z" fill="#242723"/>
<path d="M53.7701 33.5486C52.2569 35.3354 50.261 36.6483 48.0212 37.3305C47.5856 37.4466 47.1418 37.5294 46.6937 37.5782C44.6388 37.8021 42.5672 37.3455 40.7969 36.2784" stroke="#F27953" stroke-width="1.027" stroke-miterlimit="10"/>
<path d="M46 55.1101C46.264 54.1838 46.7791 53.3487 47.4884 52.6971C48.0194 52.3439 48.6129 52.0949 49.237 51.9635C53.4592 50.8133 57.7675 50.0063 62.1198 49.5505" stroke="#F27953" stroke-width="0.995" stroke-miterlimit="10"/>
<g style="mix-blend-mode:multiply" opacity="0.25">
<path d="M73.2747 109.591C72.7425 111.301 71.9273 112.909 70.8632 114.349C70.5099 114.802 70.1227 115.228 69.7048 115.624C69.2096 116.097 68.676 116.528 68.1093 116.913C64.4738 118.56 60.4931 120.254 56.8212 121.056C48.5151 122.809 39.8984 122.408 31.7912 119.89C28.7262 118.955 25.8398 117.512 23.2527 115.621C22.8348 115.226 22.4476 114.799 22.0943 114.346C21.0302 112.906 20.215 111.298 19.6828 109.588C17.0819 102.026 17.5044 94.0046 18.2403 86.1655C19.2238 84.0454 20.4041 81.9909 20.9796 79.7032C21.2929 78.4283 21.3293 77.0805 21.7664 75.842C22.3128 74.3047 23.3692 74.1663 24.3819 73.1828C25.3825 72.028 26.1629 70.6995 26.6841 69.2632C26.6987 69.2267 26.7133 69.1976 26.7278 69.1685C26.8225 68.9645 26.91 68.7532 26.9974 68.5419C27.2597 67.9372 27.4928 67.318 27.7114 66.6914C28.6239 68.8792 29.4263 71.1114 30.1156 73.3795C32.8003 74.1015 35.4338 75.002 37.9985 76.0751C35.3963 75.6093 32.7651 75.3245 30.1236 75.2227C28.0414 75.1418 27.6691 81.6681 27.42 83.491C26.797 87.6255 27.0988 91.8469 28.3037 95.8508C29.7517 100.54 32.7891 104.579 36.8932 107.271C38.515 108.295 40.9862 109.918 42.3748 108.634C43.4677 107.623 43.4502 103.196 46.5276 104.314C47.3207 104.615 48.0447 105.073 48.6557 105.662C49.13 106.082 49.5125 106.595 49.7794 107.169C50.0463 107.743 50.1918 108.366 50.2067 109C54.4636 109.606 58.3613 106.737 60.7765 103.463C64.4767 98.4451 65.7226 92.0244 65.1281 85.9003C64.9292 83.8494 64.6028 78.5696 62.9789 77.1002C61.6857 75.9294 56.0795 76.6179 54.3376 77.1606C55.7431 76.7183 57.1706 76.3486 58.6142 76.0532C60.1441 75.7399 62.4317 74.9896 62.9126 73.3503C63.1603 72.5343 62.9927 71.427 63.4517 70.7348C63.5974 70.5163 64.6611 69.5546 64.9379 69.6129L65.8777 69.8096C66.1036 70.2613 66.3368 70.7057 66.5845 71.121C67.5436 72.6104 68.8613 73.8354 70.4166 74.6836C71.2405 75.0795 72.0074 75.5843 72.6969 76.1844C73.2713 76.8216 73.7079 77.5707 73.9792 78.3846C74.1467 80.1841 74.3168 81.9787 74.4892 83.7685C74.5693 84.5627 74.6495 85.3641 74.715 86.1655C75.453 94.0053 75.8778 102.027 73.2747 109.591Z" fill="#EFA69E"/>
</g>
<path d="M33.4453 69.3145C33.5006 69.7318 33.633 70.1352 33.8358 70.5042C33.9399 70.6875 34.0923 70.8388 34.2763 70.9416C34.4604 71.0443 34.6691 71.0946 34.8798 71.087C34.9826 71.0756 35.0816 71.0419 35.17 70.9882C35.2583 70.9344 35.3338 70.862 35.3911 70.776C35.4485 70.6899 35.4863 70.5924 35.502 70.4902C35.5176 70.388 35.5106 70.2836 35.4816 70.1843C35.4335 70.0736 35.2295 70.0117 35.2273 70.1326" stroke="#EF7E5B" stroke-miterlimit="10"/>
<path d="M55.9757 70.8613C55.9567 71.2429 55.9767 71.6254 56.0354 72.003C56.1425 72.3672 56.5527 72.6965 56.8937 72.5239C57.0634 72.4125 57.1915 72.248 57.258 72.0561L57.502 71.5345" stroke="#EF7E5B" stroke-miterlimit="10"/>
<path d="M46.2037 108.368C46.0996 108.362 45.9959 108.386 45.9054 108.438C45.8148 108.49 45.7413 108.567 45.6937 108.66C45.6321 108.812 45.6072 108.976 45.6208 109.14L45.6288 109.972C45.6332 110.401 45.8052 111.347 46.3676 111.369C46.7508 111.384 46.7639 110.969 46.8353 110.701C46.9232 110.375 46.9077 110.03 46.7909 109.714C46.7333 109.563 46.6299 109.404 46.4696 109.385C46.3093 109.366 46.1643 109.604 46.2976 109.693" stroke="#C14E42" stroke-width="0.25" stroke-miterlimit="10"/>
<path d="M44.8679 66.8535C44.8679 66.8535 44.1109 76.1257 46.5523 76.6284C44.5422 75.6944 41.7803 72.5253 44.8679 66.8535Z" fill="#EF8362"/>
<path d="M37.2734 57.8703C38.4154 57.9926 39.498 58.4412 40.3917 59.1625C41.2853 59.8838 41.9523 60.8473 42.3128 61.9378C42.6771 62.788 42.9583 63.0306 43.2235 62.9701C43.7473 62.8558 44.2515 58.7956 41.4247 58.0065C40.0853 57.5493 38.64 57.5019 37.2734 57.8703Z" fill="#FFAF97"/>
<g style="mix-blend-mode:multiply" opacity="0.35">
<path d="M60.57 105.234C60.5942 106.383 60.2872 107.513 59.6856 108.492C59.0841 109.47 58.2135 110.254 57.1779 110.751C56.3816 111.22 56.1791 111.53 56.2702 111.785C56.4501 112.29 60.5416 112.273 60.9634 109.369C61.2462 107.982 61.1093 106.543 60.57 105.234Z" fill="#FF7E71"/>
</g>
<g style="mix-blend-mode:multiply" opacity="0.35">
<path d="M33.1938 104.99C33.1697 106.138 33.4767 107.269 34.0783 108.248C34.6798 109.226 35.5504 110.01 36.586 110.507C37.3823 110.977 37.5841 111.286 37.4937 111.542C37.3138 112.047 33.2223 112.029 32.7997 109.125C32.517 107.739 32.6542 106.299 33.1938 104.99Z" fill="#FF7E71"/>
</g>
<path d="M46.2538 59.9131C46.2523 59.636 46.3106 59.3619 46.4248 59.1094C46.5389 58.8569 46.7063 58.6321 46.9153 58.4502C47.5274 58.0911 48.2515 57.9734 48.9458 58.1202C48.45 58.3186 48.0007 58.6178 47.6264 58.9988C46.9416 59.8002 47.0836 60.893 46.6866 61.8066C46.2779 61.5305 46.2342 60.3634 46.2538 59.9131Z" fill="#FFAF97"/>
<path d="M39.7932 78.559C39.109 78.9436 38.3189 79.0969 37.5405 78.9962C36.7092 78.806 36.3974 78.0942 36.1562 77.4298C36.7013 77.7457 37.3103 77.9351 37.9383 77.9842C39.3225 78.0294 40.7068 77.1406 42.1078 76.8535C41.9314 77.4094 40.4015 78.2589 39.7932 78.559Z" fill="#FFAF97"/>
<path d="M49.8231 78.0747C50.5077 78.4583 51.2975 78.6115 52.0758 78.5118C52.9071 78.3209 53.2189 77.6091 53.46 76.9447C52.9147 77.2605 52.3055 77.45 51.6773 77.4991C50.293 77.545 48.9088 76.6555 47.5078 76.3691C47.6848 76.9243 49.2148 77.7745 49.8231 78.0747Z" fill="#FFAF97"/>
<path d="M48.2656 151.289C48.3013 155.199 50.9277 175.331 52.4016 182.272C53.1508 185.943 53.1011 189.732 52.2559 193.381C51.4217 197.176 51.5412 202.321 51.0312 207.12C50.6043 211.089 52.5218 221.05 54.3016 229.306C54.6841 231.097 55.0695 232.813 55.4185 234.364C55.5118 234.775 55.6007 235.171 55.6917 235.559V235.566C55.7558 235.843 55.8199 236.121 55.8797 236.382C56.4691 239.005 56.9208 240.934 57.0395 241.645C57.0627 241.791 57.1003 241.936 57.1517 242.075C57.5233 242.942 58.2103 243.634 59.0734 244.013C59.9366 244.392 60.9115 244.428 61.8006 244.115C62.8366 243.729 63.7203 242.76 64.0379 241.024C64.5341 239.074 64.9996 237.176 65.4222 235.341C65.7238 234.03 66.0181 232.745 66.287 231.494C66.2837 231.482 66.2837 231.469 66.287 231.457C70.0514 213.982 70.5082 202.056 70.0863 194.111C69.5372 184.271 69.9417 174.4 71.2943 164.637C71.3623 164.158 71.4298 163.682 71.4968 163.21C71.9193 160.259 72.3193 157.514 72.6391 155.374C73.0318 152.717 73.2949 151.003 73.2949 151.003C72.9736 150.869 72.6428 150.741 72.3172 150.621C72.2942 150.61 72.2697 150.601 72.2443 150.597C70.1467 149.848 67.9718 149.336 65.7602 149.072C59.4233 148.276 52.7972 149.239 48.2656 151.289Z" fill="#FFC6B1"/>
<path d="M55.4035 234.093C55.4035 234.093 55.4101 234.192 55.4122 234.364C55.4326 235.352 55.512 238.732 55.4756 239.264C55.3984 240.222 55.5244 241.45 55.5259 242.42C55.5259 243.178 55.5419 243.94 55.566 244.702C55.5703 244.929 55.5769 245.148 55.5885 245.376C55.6293 246.774 55.6876 248.167 55.6993 249.551C55.7255 251.673 55.7532 253.878 55.021 255.925C54.5249 257.297 53.9726 258.604 53.6025 259.991C53.5457 260.203 53.4896 260.415 53.4481 260.631C53.4219 260.73 53.4029 260.831 53.384 260.931C53.3468 261.133 53.3111 261.327 53.2827 261.524C53.0153 263.226 53.2696 265.13 54.5824 266.353C54.9754 266.656 55.3316 267.005 55.6439 267.391C56.4366 268.615 55.335 270.097 54.927 271.474C54.8816 271.639 54.8478 271.807 54.8258 271.976C54.8009 272.074 54.7877 272.174 54.7864 272.275C54.7787 272.339 54.7751 272.403 54.7755 272.468C54.7718 272.572 54.7755 272.678 54.782 272.777C54.7826 272.869 54.7906 272.961 54.8061 273.052C54.8686 273.619 55.0451 274.168 55.3248 274.665C55.3423 274.691 55.3576 274.724 55.3809 274.76C55.5776 275.088 55.8205 275.386 56.1022 275.644C56.3178 275.853 56.5583 276.034 56.8183 276.184C57.0433 276.314 57.282 276.419 57.5301 276.496C58.1194 276.695 58.7438 276.768 59.363 276.71C59.9822 276.652 60.5824 276.465 61.1248 276.161C61.4832 275.956 61.8019 275.688 62.066 275.371C63.9034 275.902 65.9091 276.413 67.6686 275.72C68.0044 275.585 68.3177 275.417 68.663 275.309C69.0555 275.222 69.4535 275.162 69.8542 275.13C70.6529 274.967 71.425 274.694 72.1484 274.319C72.5431 274.179 72.8955 273.942 73.1724 273.628C73.4492 273.314 73.6412 272.934 73.7301 272.526C73.8029 271.957 74.055 271.339 73.8146 270.811C73.6689 270.508 73.5232 270.234 73.3775 269.984C72.5932 268.801 71.7464 267.661 70.8407 266.568C70.3059 265.84 69.0193 264.269 68.4365 263.602C67.6883 262.756 66.8475 261.986 66.1321 261.111C65.1481 259.961 64.502 258.562 64.2655 257.067C64.3127 256.842 64.3223 256.611 64.2939 256.383C64.2626 256.106 64.2422 255.786 64.2211 255.429L64.2291 255.401C64.13 252.64 64.4397 247.713 64.7712 243.428C65.072 239.505 66.1262 232.639 66.277 231.495C66.2738 231.483 66.2738 231.47 66.277 231.458C66.2843 231.4 66.2858 231.363 66.2916 231.342L62.8915 232.193C60.4727 232.804 57.4128 233.569 56.0781 233.918C55.6578 234.023 55.4078 234.085 55.4035 234.093Z" fill="#FFC6B1"/>
<path d="M71.7282 273.691L71.9249 273.96C71.6841 272.832 71.1677 271.781 70.4219 270.9" stroke="#D86A5B" stroke-width="0.921" stroke-miterlimit="10"/>
<path d="M69.3857 274.828C69.1686 273.794 68.6352 272.854 67.8594 272.137" stroke="#D86A5B" stroke-width="0.921" stroke-miterlimit="10"/>
<path d="M66.4157 275.857C66.443 275.311 66.353 274.767 66.152 274.259C65.9509 273.751 65.6433 273.293 65.25 272.914" stroke="#D86A5B" stroke-width="0.921" stroke-miterlimit="10"/>
<path d="M60.9623 274.194C60.8166 274.865 59.8243 275.128 59.1693 274.809C58.8653 274.632 58.6032 274.391 58.4014 274.102C58.1995 273.814 58.0626 273.485 58 273.139" stroke="#D86A5B" stroke-width="0.921" stroke-miterlimit="10"/>
<g style="mix-blend-mode:multiply" opacity="0.35">
<path d="M54.2954 229.307C54.6778 231.097 55.0633 232.814 55.4122 234.364C55.4326 235.352 55.512 238.732 55.4756 239.264C55.3984 240.222 55.5244 241.45 55.5259 242.42C55.5259 243.178 55.5419 243.94 55.566 244.702C55.5703 244.929 55.5769 245.148 55.5885 245.375C55.6958 246.764 55.7327 248.158 55.6993 249.551C55.7255 251.673 55.7532 253.878 55.021 255.925C54.5249 257.297 53.9726 258.604 53.6025 259.991C53.5457 260.203 53.4896 260.415 53.4481 260.631C53.4219 260.73 53.4029 260.831 53.384 260.931C53.3468 261.133 53.3111 261.327 53.2827 261.524C53.0153 263.226 53.2696 265.13 54.5824 266.353C54.9754 266.656 55.3316 267.005 55.6439 267.391C56.4366 268.615 55.335 270.097 54.927 271.474C54.8816 271.639 54.8478 271.807 54.8258 271.976C54.8009 272.074 54.7877 272.174 54.7864 272.275C54.7787 272.339 54.7751 272.403 54.7755 272.468C54.7718 272.572 54.7755 272.678 54.7821 272.777C54.7826 272.869 54.7906 272.961 54.8061 273.052C54.8686 273.619 55.0451 274.168 55.3248 274.665C55.3423 274.691 55.3576 274.724 55.3809 274.76C55.5805 275.046 55.9215 275.349 56.1022 275.644C56.3178 275.853 56.5583 276.034 56.8183 276.184C57.0433 276.314 57.282 276.419 57.5301 276.496C58.1194 276.695 58.7438 276.768 59.363 276.71C59.9822 276.652 60.5824 276.465 61.1248 276.161C61.137 276.14 61.1459 276.117 61.151 276.092C60.6131 276.242 60.051 276.283 59.497 276.215C58.943 276.146 58.408 275.969 57.9228 275.692C57.4624 275.424 57.0669 275.058 56.7646 274.619C56.4623 274.181 56.2608 273.681 56.1743 273.155C56.1084 272.135 56.2756 271.114 56.6631 270.168C56.8657 269.658 57.1064 269.163 57.383 268.689C57.6299 268.19 57.7538 267.633 58.0022 267.127C58.2748 266.64 58.4844 266.121 58.6259 265.581C58.6765 264.612 58.463 263.648 58.008 262.791C57.3672 261.12 56.9744 259.364 56.8424 257.579C56.6803 255.114 56.7005 252.641 56.9029 250.179C57.0347 247.92 57.1629 245.646 57.16 243.379C57.16 242.942 57.16 242.505 57.1425 242.077C57.1098 240.387 56.9574 238.703 56.6865 237.035C56.6399 236.784 56.6027 236.525 56.5561 236.277C56.4104 235.486 56.2646 234.709 56.0825 233.918C55.9994 233.501 55.9004 233.081 55.7911 232.659C55.6703 232.099 55.5049 231.549 55.2964 231.015C55.0326 230.407 54.6965 229.834 54.2954 229.307Z" fill="#EAB1A7"/>
</g>
<g style="mix-blend-mode:multiply" opacity="0.35">
<path d="M48.2656 151.289C48.3013 155.199 50.9277 175.331 52.4016 182.273C53.1508 185.943 53.1011 189.732 52.2559 193.382C51.4217 197.176 51.5412 202.322 51.0312 207.12C50.6043 211.09 52.5218 221.05 54.3016 229.306C54.6841 231.097 55.0695 232.814 55.4185 234.364C55.5118 234.775 55.6007 235.171 55.6917 235.559C55.887 235.589 56.0873 235.597 56.2862 235.613C56.1769 225.292 55.6861 214.982 54.8138 204.682C54.5243 201.057 54.5868 197.412 55.0003 193.798C55.1657 192.301 54.2142 187.564 57.2901 189.146C59.5603 190.312 61.5157 192.086 64.0205 192.716C64.9144 191.53 64.3206 189.901 63.6023 188.617C62.6033 186.834 61.4216 185.159 60.0761 183.621C58.3123 181.6 56.386 179.33 55.3966 176.879C54.3504 174.286 54.1793 171.481 53.595 168.787C52.4912 163.701 52.3564 157.332 59.6251 156.844C60.9635 156.755 72.4563 156.618 72.6406 155.373C73.0333 152.716 73.2963 151.002 73.2963 151.002C72.975 150.869 72.6442 150.741 72.3186 150.621C72.2957 150.609 72.2711 150.601 72.2457 150.596C71.0313 150.222 69.7767 149.936 68.5265 149.665C67.6071 149.463 66.6855 149.267 65.7639 149.071C59.4233 148.276 52.7972 149.239 48.2656 151.289Z" fill="#EAB1A7"/>
</g>
<path d="M62.5022 185.111C62.7891 184.692 62.9845 184.218 63.0756 183.719C63.1668 183.22 63.1516 182.707 63.0311 182.215C63.0193 182.121 62.9843 182.032 62.9293 181.956C62.8744 181.88 62.8012 181.818 62.7164 181.777C62.6334 181.761 62.548 181.762 62.4652 181.779C62.3825 181.797 62.3041 181.831 62.2348 181.879C61.3763 182.435 60.7255 183.259 60.3836 184.223C59.7534 185.699 59.4649 187.464 60.3778 188.809C60.6383 189.228 61.0463 189.535 61.5216 189.668C61.8987 189.712 62.281 189.67 62.6391 189.544C62.9972 189.417 63.3217 189.211 63.5877 188.94C64.7414 187.951 65.5184 186.594 65.7873 185.099C66.0563 183.604 65.8007 182.061 65.0638 180.733" stroke="#BF6D43" stroke-width="0.21" stroke-miterlimit="10"/>
<path d="M71.3516 113.655C69.8171 115.721 67.8412 117.42 65.5676 118.628C62.8196 119.946 59.8471 121.455 56.9263 122.258C53.8562 123.103 50.258 123.156 47.091 123.179C40.5764 123.333 34.1208 121.912 28.2726 119.038C25.7519 117.748 23.49 116.005 21.5998 113.896C18.3695 119.766 17.9535 127.812 18.2383 134.349C18.3935 137.919 18.8212 141.436 19.0004 145.008C19.1122 148.437 19.5619 151.845 20.3431 155.185C20.3868 155.36 22.7174 155.588 22.9914 155.633C23.9108 155.784 24.8307 155.929 25.7511 156.07C27.59 156.349 29.4325 156.604 31.2786 156.835C34.9047 157.373 38.5609 157.685 42.2257 157.768C42.8618 157.768 44.4165 158.034 45.051 158.091C45.3752 155.905 45.5938 153.493 45.7796 151.288C46.2976 151.402 45.9588 151.45 46.4892 151.406C47.0156 151.461 47.5474 151.436 48.0665 151.333C48.2515 153.538 48.5066 155.736 48.8315 157.925C49.4653 157.869 50.1166 157.766 50.7519 157.767C54.4168 157.684 58.0729 157.372 61.6991 156.834C63.5447 156.605 65.3872 156.35 67.2265 156.069C68.1494 155.929 69.0693 155.783 69.9863 155.632C70.2609 155.587 72.5908 155.359 72.6353 155.185C73.4161 151.845 73.8658 148.436 73.978 145.008C74.1572 141.438 74.5849 137.92 74.7401 134.348C74.922 130.717 74.7286 127.076 74.163 123.485C73.9321 121.653 73.5172 119.848 72.9245 118.099C72.7191 117.568 71.7093 113.832 71.3516 113.655Z" fill="black"/>
<path d="M37.7109 142.449C37.8766 142.565 38.0282 142.7 38.1626 142.851C40.3423 145.129 42.3329 147.58 44.1149 150.181" stroke="#3F3F3F" stroke-width="0.995" stroke-miterlimit="10"/>
<path d="M73.4297 98.9508C73.5283 98.3289 73.7957 97.746 74.2027 97.2656" stroke="#F27953" stroke-width="0.995" stroke-miterlimit="10"/>
<path d="M22.2673 49.1558L22.8027 48.9707C22.8756 51.4026 22.3488 53.7791 22.2723 56.2008C22.209 58.1948 22.0735 60.1889 21.8425 62.1749C21.5355 65.2789 20.8627 68.3357 19.8383 71.2817C19.7749 71.4559 19.7108 71.6234 19.6394 71.7917C19.0409 73.4377 18.1592 74.9664 17.0341 76.3087C16.994 76.2031 16.9547 76.104 16.9153 75.9983C16.936 76.1328 16.9493 76.2682 16.9554 76.4041C16.9554 76.4114 16.9554 76.4114 16.9656 76.4325C16.986 76.6089 16.9991 76.7808 17.0166 76.9556C13.4511 76.8609 8.92976 77.0627 5.5901 75.6982C0.781694 73.7311 7.08579 61.1921 9.01426 58.0877C12.3736 52.6921 16.7194 51.0733 22.2673 49.1558Z" fill="#FFC6B1"/>
<path d="M13.0623 148.284C13.0623 148.284 11.8799 150.891 11.9775 151.693C12.0751 152.495 12.6434 154.881 13.1891 155.485C13.7348 156.089 16.8318 158.271 17.1611 158.691C17.4904 159.11 17.8168 160.114 17.352 160.255C16.6621 160.463 11.9957 157.769 11.9957 157.769L8.07031 152.899C8.07031 152.899 8.12424 149.693 8.21021 149.485C8.29617 149.276 10.1882 146.571 10.1882 146.571" fill="#FFC6B1"/>
<path opacity="0.25" d="M13.0623 148.284C13.0623 148.284 11.8799 150.891 11.9775 151.693C12.0751 152.495 12.6434 154.881 13.1891 155.485C13.7348 156.089 16.8318 158.271 17.1611 158.691C17.4904 159.11 17.8168 160.114 17.352 160.255C16.6621 160.463 11.9957 157.769 11.9957 157.769L8.07031 152.899C8.07031 152.899 8.12424 149.693 8.21021 149.485C8.29617 149.276 10.1882 146.571 10.1882 146.571" fill="#FF7E71"/>
<path d="M7.03992 144.554C6.49351 147.506 6.07386 151.505 6.48695 152.662C6.90003 153.819 9.97887 157.535 9.97887 157.535C9.97887 157.535 15.0845 160.033 15.7206 160.048C16.3566 160.064 16.3966 158.903 15.502 158.248C14.6073 157.593 12.1725 156.203 11.8971 155.796C11.4042 154.498 11.0357 153.156 10.7963 151.789C10.7519 151.231 12.292 148.995 13.4191 148.969C14.5461 148.942 15.3555 150.364 15.4269 150.953C15.5502 151.81 15.8825 152.623 16.3945 153.321C16.6518 153.54 16.9717 153.672 17.3085 153.698C17.6452 153.724 17.9817 153.643 18.2697 153.467C18.6296 153.074 18.5451 149.776 18.4657 149.122C18.3863 148.467 15.2747 144.488 14.9388 143.59C14.603 142.691 14.9133 135.198 14.9133 135.198L6.46801 135.018C6.46801 135.018 7.58633 141.602 7.03992 144.554Z" fill="#FFC6B1"/>
<path d="M16.8209 63.2638C13.4331 59.6619 6.30939 61.1066 5.39361 65.5791C5.38195 65.6396 5.36956 65.7001 5.3579 65.7613C4.18421 71.8592 -1.11669 91.2815 0.212184 102.198C0.212184 102.198 3.1657 124.696 7.6244 139.528C9.96792 139.596 12.3121 139.418 14.6185 138.997C14.6185 138.997 16.9928 110.69 15.8701 101.463C15.8701 101.463 22.5531 82.2905 21.1258 70.5944C20.83 68.1458 18.93 65.5063 16.8209 63.2638Z" fill="#FFC6B1"/>
<g style="mix-blend-mode:multiply" opacity="0.25">
<path d="M15.5406 147.649C15.4677 146.993 12.4078 142.986 12.08 142.089C11.7682 141.224 12.1259 134.293 12.1529 133.737C12.8479 125.734 14.3042 107.132 13.5203 99.9722C13.5203 99.9722 22.0706 81.642 20.9952 69.916C21.0497 70.1401 21.0918 70.367 21.1213 70.5957C22.5485 82.2918 15.8655 101.464 15.8655 101.464C16.7361 108.618 15.5012 127.231 14.9075 135.239C14.8849 135.797 14.6117 142.728 14.9344 143.59C15.2703 144.489 18.3819 148.472 18.4613 149.122C18.5407 149.773 18.6253 153.075 18.2653 153.467C17.9773 153.644 17.6409 153.725 17.3041 153.698C16.9673 153.672 16.6474 153.54 16.3901 153.321C15.9363 152.722 15.6267 152.026 15.4852 151.287C15.6005 150.078 15.6191 148.861 15.5406 147.649Z" fill="#EFA69E"/>
</g>
<path d="M4.01562 71.7305C4.39569 72.7783 4.95587 73.7517 5.67089 74.6068" stroke="#F27953" stroke-width="1.104" stroke-miterlimit="10"/>
<path d="M7.375 139.972C7.7001 139.312 7.84653 138.578 7.79973 137.844" stroke="#F27953" stroke-width="1.104" stroke-miterlimit="10"/>
<path d="M21.3047 71.8025L23.5574 68.041" stroke="#F27953" stroke-width="1.104" stroke-miterlimit="10"/>
<path d="M70.683 49.1558L70.1475 48.9707C70.0747 51.4026 70.6014 53.7791 70.6786 56.2008C70.7412 58.1948 70.8768 60.1889 71.1077 62.1749C71.4147 65.2789 72.0877 68.3358 73.1127 71.2817C73.1753 71.4559 73.2395 71.6234 73.3109 71.7917C73.9093 73.4377 74.791 74.9664 75.9161 76.3087C75.9562 76.2031 75.9956 76.104 76.0349 75.9983C76.0146 76.1328 76.0012 76.2683 75.9948 76.4041C75.9948 76.4114 75.9948 76.4114 75.9846 76.4325C75.9642 76.6089 75.9511 76.7808 75.9336 76.9556C79.4991 76.8609 84.0205 77.0627 87.3601 75.6982C92.1686 73.7311 85.8644 61.1921 83.936 58.0877C80.5766 52.6921 76.2309 51.0733 70.683 49.1558Z" fill="#FFC6B1"/>
<path d="M79.8802 148.284C79.8802 148.284 81.0627 150.891 80.965 151.693C80.8674 152.495 80.2991 154.881 79.7534 155.485C79.2078 156.089 76.1107 158.271 75.7814 158.691C75.4521 159.11 75.1257 160.114 75.5905 160.255C76.2805 160.463 80.9476 157.769 80.9476 157.769L84.8722 152.899C84.8722 152.899 84.8183 149.693 84.7323 149.485C84.6464 149.276 82.7543 146.571 82.7543 146.571" fill="#FFC6B1"/>
<path opacity="0.25" d="M79.8802 148.284C79.8802 148.284 81.0627 150.891 80.965 151.693C80.8674 152.495 80.2991 154.881 79.7534 155.485C79.2078 156.089 76.1107 158.271 75.7814 158.691C75.4521 159.11 75.1257 160.114 75.5905 160.255C76.2805 160.463 80.9476 157.769 80.9476 157.769L84.8722 152.899C84.8722 152.899 84.8183 149.693 84.7323 149.485C84.6464 149.276 82.7543 146.571 82.7543 146.571" fill="#FF7E71"/>
<path d="M85.9016 144.554C86.448 147.506 86.8677 151.505 86.4546 152.662C86.0415 153.819 82.9626 157.535 82.9626 157.535C82.9626 157.535 77.857 160.033 77.221 160.048C76.5849 160.064 76.5449 158.903 77.4395 158.248C78.3342 157.593 80.769 156.203 81.0444 155.796C81.5372 154.498 81.9058 153.156 82.1452 151.789C82.1896 151.231 80.6495 148.995 79.5224 148.969C78.3954 148.942 77.586 150.364 77.5146 150.953C77.3913 151.81 77.059 152.623 76.5471 153.321C76.2897 153.54 75.9698 153.672 75.633 153.698C75.2963 153.724 74.9598 153.643 74.6718 153.467C74.3119 153.074 74.3964 149.776 74.4758 149.122C74.5552 148.467 77.6668 144.488 78.0027 143.59C78.3385 142.691 78.0282 135.198 78.0282 135.198L86.4735 135.018C86.4735 135.018 85.3552 141.602 85.9016 144.554Z" fill="#FFC6B1"/>
<path d="M76.1221 63.2638C79.5105 59.6619 86.6335 61.1066 87.5493 65.5791C87.561 65.6396 87.5734 65.7001 87.585 65.7613C88.7587 71.8592 94.0596 91.2815 92.7307 102.198C92.7307 102.198 89.7772 124.696 85.3185 139.528C82.975 139.596 80.6308 139.418 78.3245 138.997C78.3245 138.997 75.9501 110.69 77.0728 101.463C77.0728 101.463 70.3899 82.2905 71.8171 70.5944C72.1129 68.1458 74.0129 65.5063 76.1221 63.2638Z" fill="#FFC6B1"/>
<g style="mix-blend-mode:multiply" opacity="0.25">
<path d="M77.3978 147.649C77.4706 146.993 80.5305 142.986 80.8584 142.089C81.1702 141.224 80.8125 134.293 80.7855 133.737C80.0912 125.734 78.6341 107.132 79.418 99.9722C79.418 99.9722 70.8678 81.642 71.9432 69.916C71.889 70.1402 71.847 70.3671 71.8171 70.5957C70.3899 82.2918 77.0729 101.464 77.0729 101.464C76.1986 108.618 77.4334 127.231 78.0309 135.239C78.0534 135.797 78.3267 142.728 78.0039 143.59C77.6681 144.489 74.5564 148.472 74.477 149.122C74.3976 149.773 74.3131 153.075 74.673 153.467C74.9611 153.644 75.2975 153.725 75.6343 153.698C75.971 153.672 76.2909 153.54 76.5483 153.321C77.002 152.722 77.3116 152.026 77.4531 151.287C77.3378 150.078 77.3193 148.861 77.3978 147.649Z" fill="#EFA69E"/>
</g>
<path d="M88.8037 72.3965C88.4242 73.4455 87.864 74.4199 87.1484 75.2757" stroke="#F27953" stroke-width="1.104" stroke-miterlimit="10"/>
<path d="M85.5661 139.972C85.241 139.312 85.0945 138.578 85.1413 137.844" stroke="#F27953" stroke-width="1.104" stroke-miterlimit="10"/>
<path d="M71.6433 71.8005L69.3906 68.0391" stroke="#F27953" stroke-width="1.104" stroke-miterlimit="10"/>
<path d="M45.1362 55.1101C44.8725 54.1837 44.3573 53.3485 43.6477 52.6971C43.1167 52.344 42.5233 52.095 41.8992 51.9635C37.6767 50.8134 33.3682 50.0064 29.0156 49.5505" stroke="#F27953" stroke-width="0.995" stroke-miterlimit="10"/>
<path d="M55.6071 142.814C55.4415 142.93 55.2901 143.065 55.1561 143.216C52.976 145.494 50.9851 147.945 49.2031 150.547" stroke="#3F3F3F" stroke-width="0.995" stroke-miterlimit="10"/>
</svg>
