<svg width="22" height="24" viewBox="0 0 22 24" fill="none" xmlns="http://www.w3.org/2000/svg">
<path d="M10.8023 1.04465L0.821831 5.86284C0.760508 5.89244 0.708776 5.93874 0.672578 5.99641C0.636379 6.05409 0.617181 6.1208 0.617188 6.1889V18.0447C0.617191 18.1128 0.636394 18.1795 0.672591 18.2372C0.708789 18.2949 0.760514 18.3412 0.821831 18.3708L10.8023 23.189C10.9005 23.2364 11.0081 23.261 11.1172 23.261C11.2262 23.261 11.3338 23.2364 11.432 23.189L21.4125 18.3708C21.4738 18.3412 21.5255 18.2949 21.5617 18.2372C21.5979 18.1795 21.6171 18.1128 21.6171 18.0447V6.1889C21.6171 6.1208 21.5979 6.05409 21.5617 5.99642C21.5255 5.93875 21.4738 5.89245 21.4125 5.86284L11.432 1.04465C11.3338 0.997265 11.2262 0.972656 11.1172 0.972656C11.0081 0.972656 10.9005 0.997265 10.8023 1.04465Z" fill="#FFE17D"/>
<path d="M0.677392 5.99219C0.638377 6.05095 0.617446 6.11986 0.617188 6.19039V18.0462C0.617191 18.1143 0.636394 18.181 0.672591 18.2387C0.708789 18.2964 0.760514 18.3427 0.821831 18.3723L10.8023 23.1904C10.9005 23.2378 11.0081 23.2624 11.1172 23.2624V11.0321L0.677392 5.99219Z" fill="#FFC350"/>
<path d="M21.557 5.99219C21.596 6.05095 21.6169 6.11986 21.6172 6.19039V18.0462C21.6172 18.1143 21.598 18.181 21.5618 18.2387C21.5256 18.2964 21.4738 18.3427 21.4125 18.3723L11.432 23.1904C11.3338 23.2378 11.2262 23.2625 11.1172 23.2625V11.0321L21.557 5.99219Z" fill="#FFD164"/>
<path d="M3.6057 17.413C3.55133 17.413 3.49767 17.4007 3.44873 17.377L1.90783 16.6331C1.865 16.6124 1.82666 16.5836 1.795 16.5481C1.76334 16.5126 1.73898 16.4713 1.72332 16.4264C1.70766 16.3815 1.701 16.3339 1.70372 16.2865C1.70644 16.239 1.71849 16.1925 1.73919 16.1497C1.82582 15.9698 2.04291 15.8948 2.22252 15.9811L3.76342 16.7251C3.80625 16.7457 3.84459 16.7746 3.87625 16.81C3.90791 16.8455 3.93227 16.8869 3.94793 16.9318C3.96359 16.9767 3.97025 17.0242 3.96753 17.0717C3.96481 17.1191 3.95276 17.1656 3.93206 17.2084C3.86986 17.3377 3.74044 17.413 3.6057 17.413Z" fill="#FFE17D"/>
<path d="M5.02187 16.491C4.9675 16.491 4.91384 16.4786 4.86489 16.455L1.90786 15.0275C1.7279 14.9406 1.65224 14.7242 1.73922 14.5442C1.82584 14.3646 2.04329 14.2893 2.22255 14.3756L5.17954 15.803C5.3595 15.89 5.43516 16.1064 5.34818 16.2863C5.28602 16.4156 5.1566 16.491 5.02187 16.491Z" fill="#FFF6D8"/>
<path d="M18.0194 7.69396L7.54291 2.63281L4.78125 3.97142L15.2812 9.0404L18.0194 7.69396Z" fill="#FF8087"/>
<path d="M15.2812 9.0378V12.9647C15.2812 13.0982 15.4208 13.1857 15.541 13.1277L17.8148 12.0301C17.8761 12.0005 17.9278 11.9542 17.964 11.8965C18.0002 11.8388 18.0194 11.7721 18.0194 11.704V7.69141L15.2812 9.0378Z" fill="#E6646E"/>
</svg>
