<svg width="301" height="257" viewBox="0 0 301 257" fill="none" xmlns="http://www.w3.org/2000/svg">
<path d="M209.806 225.028C203.613 231.412 202.314 232.332 198.071 235.165C156.693 262.793 96.8202 256.115 82.1961 253.393C58.602 249.002 47.015 247.452 29.9034 231.992C-8.98026 196.862 -7.08903 123.579 22.6229 78.1828C26.1453 72.8006 55.2937 31.0358 102.697 24.8392C103.856 24.6877 158.772 17.4366 195.825 48.4791C204.268 55.5755 211.6 63.8954 217.58 73.1624C246.521 117.861 246.613 187.089 209.806 225.028Z" fill="#62E5B9" fill-opacity="0.15"/>
<path d="M25.3434 39.76C24.9004 38.7559 26.024 37.7784 26.966 38.3413C36.5323 44.0584 60.4818 62.2054 64.2609 102.247C69.0013 152.485 83.1 168.11 98.1704 176.227C98.1704 176.227 79.6251 174.916 64.6992 159.195C28.0522 120.599 33.2191 57.6134 25.3434 39.76Z" fill="#4CB894"/>
<g style="mix-blend-mode:soft-light">
<path d="M34.7257 53.7231C36.91 58.9536 38.99 64.2242 40.8744 69.5635C42.7862 74.8918 44.5332 80.2728 46.1154 85.7064C47.6736 91.1426 49.1298 96.6072 50.3516 102.126C51.5982 107.638 52.6065 113.198 53.5994 118.784C54.623 124.361 55.6224 129.986 57.2006 135.524C58.7705 141.053 61.0255 146.484 64.2059 151.341C65.0001 152.551 65.8194 153.751 66.7013 154.892C67.5624 156.049 68.475 157.168 69.4072 158.271C75.0363 164.911 82.0513 170.239 89.9593 173.878C90.0886 173.942 90.2291 173.979 90.3727 173.987C90.5163 173.996 90.6602 173.977 90.7963 173.93C90.9324 173.883 91.0579 173.81 91.1657 173.715C91.2735 173.619 91.3615 173.504 91.4246 173.375C91.4878 173.245 91.5248 173.105 91.5337 172.961C91.5425 172.818 91.523 172.674 91.4762 172.538C91.4295 172.402 91.3563 172.276 91.261 172.168C91.1658 172.06 91.0502 171.972 90.9209 171.909L90.9172 171.907C89.6685 171.277 88.4285 170.633 87.2214 169.936C86.6122 169.597 86.0193 169.232 85.4197 168.878C84.8344 168.502 84.2343 168.148 83.661 167.754C81.3423 166.22 79.1374 164.521 77.0634 162.669C72.907 158.989 69.2788 154.669 66.2326 150.034C64.7337 147.7 63.4131 145.255 62.282 142.722C61.1583 140.173 60.2061 137.553 59.4317 134.877C57.858 129.51 56.8228 123.952 55.7593 118.382C54.6883 112.813 53.5737 107.224 52.231 101.689C51.5671 98.9202 50.8538 96.1643 50.0911 93.4215C49.7178 92.0482 49.3179 90.6817 48.9206 89.3159C48.51 87.9534 48.0908 86.5937 47.6632 85.2369C45.9372 79.8143 44.046 74.4509 41.9895 69.1468C39.9066 63.8566 37.6842 58.6235 35.2639 53.4847C35.2316 53.4145 35.173 53.3598 35.1007 53.3324C35.0284 53.3051 34.9483 53.3074 34.8776 53.3387C34.807 53.3701 34.7515 53.428 34.7233 53.5C34.695 53.5719 34.6963 53.6521 34.7267 53.7231H34.7257Z" fill="white"/>
</g>
<path d="M71.254 176.788C71.2469 177.215 71.1348 177.634 70.9276 178.007C70.7205 178.381 70.4246 178.698 70.066 178.93C69.7074 179.162 69.2972 179.303 68.8716 179.339C68.4459 179.376 68.0178 179.307 67.6251 179.138C58.2335 175.146 32.7015 161.456 22.951 127.603C14.7172 99.0156 7.53587 84.2968 3.81215 77.841C3.02487 76.4758 4.43795 74.8991 5.88213 75.53C21.8157 82.4891 72.0799 109.776 71.254 176.788Z" fill="#4CB894"/>
<path d="M68.894 177.625C68.8294 177.71 68.7469 177.779 68.6524 177.829C68.5579 177.878 68.4536 177.906 68.3472 177.91C68.2407 177.914 68.1346 177.895 68.0365 177.853C67.9384 177.811 67.8507 177.749 67.7796 177.669C67.4788 177.332 37.5432 143.476 24.2989 104.245C24.2665 104.154 24.2524 104.058 24.2574 103.963C24.2625 103.867 24.2866 103.773 24.3283 103.686C24.3701 103.6 24.4287 103.523 24.5006 103.459C24.5726 103.396 24.6565 103.347 24.7474 103.316C24.8384 103.286 24.9345 103.273 25.0303 103.28C25.126 103.287 25.2194 103.313 25.3051 103.356C25.3907 103.4 25.4668 103.46 25.529 103.533C25.5911 103.606 25.6381 103.691 25.6671 103.782C38.8147 142.728 68.5582 176.373 68.8569 176.708C68.9685 176.833 69.0332 176.993 69.04 177.16C69.0467 177.327 68.9951 177.492 68.894 177.625Z" fill="#EFEFF4"/>
<path d="M12.3752 223.981C12.3779 224.781 12.6967 225.546 13.2621 226.111C13.8274 226.676 14.5933 226.994 15.3925 226.996H178.556C179.355 226.994 180.121 226.676 180.686 226.111C181.251 225.546 181.57 224.781 181.573 223.981L182.931 130.216C182.931 128.558 180.977 125.322 177.397 125.565L17.9365 121.439C16.9067 121.411 15.8821 121.594 14.9248 121.975C13.9676 122.356 13.0978 122.927 12.3682 123.654C11.6385 124.381 11.0643 125.249 10.6803 126.205C10.2963 127.161 10.1106 128.185 10.1345 129.215L12.3752 223.981Z" fill="#333435"/>
<path d="M15.354 221.09C15.3562 221.846 15.6577 222.571 16.1926 223.106C16.7274 223.64 17.4522 223.942 18.2086 223.944H174.621C175.377 223.942 176.102 223.64 176.637 223.106C177.172 222.571 177.473 221.846 177.475 221.09L178.757 135.968C178.606 130.846 174.115 129.005 171.392 129.114L18.5636 125.014C17.8397 124.995 17.1195 125.123 16.4467 125.391C15.7739 125.659 15.1626 126.061 14.6498 126.572C14.1371 127.083 13.7336 127.694 13.464 128.366C13.1943 129.038 13.0641 129.758 13.0812 130.482L15.354 221.09Z" fill="#A8ABB2"/>
<path d="M175.785 180.651H175.779C175.724 180.65 175.67 180.639 175.619 180.617C175.569 180.595 175.523 180.564 175.485 180.524C175.447 180.485 175.417 180.438 175.396 180.387C175.376 180.336 175.366 180.281 175.367 180.226L175.468 173.323C175.47 173.213 175.514 173.109 175.593 173.032C175.671 172.954 175.776 172.911 175.886 172.911H175.892C175.947 172.912 176.002 172.924 176.052 172.945C176.103 172.967 176.148 172.999 176.186 173.038C176.225 173.077 176.255 173.124 176.275 173.175C176.295 173.226 176.305 173.281 176.304 173.336L176.203 180.239C176.202 180.349 176.157 180.454 176.079 180.531C176 180.608 175.895 180.651 175.785 180.651Z" fill="#C6C9D3"/>
<path d="M176.034 163.735H176.027C175.973 163.734 175.918 163.722 175.868 163.7C175.817 163.679 175.772 163.647 175.733 163.608C175.695 163.568 175.665 163.522 175.645 163.471C175.624 163.419 175.614 163.365 175.615 163.31L176.003 136.871C175.996 135.3 175.52 134.046 174.586 133.152C172.845 131.484 170.08 131.569 169.963 131.574L121.116 130.264C121.061 130.263 121.007 130.251 120.956 130.228C120.906 130.206 120.861 130.174 120.823 130.134C120.785 130.094 120.756 130.047 120.736 129.996C120.717 129.945 120.707 129.89 120.709 129.835C120.708 129.779 120.718 129.724 120.74 129.673C120.761 129.622 120.793 129.575 120.834 129.537C120.874 129.499 120.922 129.469 120.974 129.451C121.027 129.432 121.083 129.424 121.138 129.428L169.957 130.738C170.26 130.72 173.204 130.669 175.165 132.548C176.268 133.605 176.832 135.061 176.84 136.875L176.452 163.322C176.45 163.432 176.405 163.537 176.327 163.614C176.249 163.691 176.144 163.734 176.034 163.735Z" fill="#C6C9D3"/>
<path d="M171.475 238.351C195.069 226.639 213.269 208.215 215.301 169.663C215.301 169.663 153.892 190.164 171.475 238.351Z" fill="#4CB894"/>
<path d="M173.858 237.399C190.442 238.929 206.351 235.058 220.242 214.988C220.242 214.988 180.394 205.634 173.858 237.399Z" fill="#4CB894"/>
<path d="M175.291 229.702C175.356 229.702 175.419 229.682 175.472 229.645C175.525 229.607 175.565 229.554 175.586 229.493C186.31 198.922 207.103 181.234 207.311 181.059C207.375 181.005 207.415 180.929 207.422 180.846C207.429 180.764 207.404 180.681 207.35 180.618C207.324 180.586 207.291 180.56 207.255 180.541C207.219 180.522 207.179 180.511 207.138 180.507C207.055 180.5 206.973 180.526 206.909 180.579C206.699 180.755 185.779 198.546 174.995 229.286C174.982 229.325 174.976 229.366 174.978 229.407C174.981 229.448 174.991 229.488 175.009 229.525C175.026 229.562 175.051 229.595 175.082 229.622C175.113 229.65 175.148 229.671 175.187 229.684C175.22 229.696 175.255 229.702 175.291 229.702Z" fill="#EFEFF4"/>
<path d="M183.267 232.098C183.313 232.098 183.358 232.089 183.399 232.07C183.44 232.05 183.477 232.023 183.506 231.988C192.865 220.956 213.804 217.396 214.014 217.361C214.055 217.354 214.094 217.34 214.129 217.318C214.163 217.296 214.194 217.268 214.218 217.234C214.242 217.201 214.259 217.163 214.268 217.123C214.277 217.083 214.279 217.042 214.272 217.001C214.266 216.961 214.252 216.921 214.23 216.886C214.209 216.851 214.181 216.821 214.147 216.797C214.113 216.772 214.075 216.755 214.035 216.746C213.995 216.737 213.953 216.736 213.913 216.744C213.7 216.778 192.535 220.378 183.029 231.583C182.99 231.629 182.966 231.684 182.958 231.744C182.95 231.803 182.959 231.863 182.984 231.917C183.009 231.971 183.049 232.017 183.099 232.049C183.149 232.081 183.208 232.098 183.267 232.098Z" fill="#E8E8EF"/>
<path d="M96.8982 73.0611L64.9914 101.464C59.9293 105.969 56.7332 112.203 56.03 118.943C55.3268 125.683 57.1673 132.442 61.1905 137.895L91.1246 178.481C95.149 183.936 101.064 187.692 107.713 189.015C114.361 190.337 121.264 189.131 127.069 185.632L163.653 163.575C166.893 161.623 169.689 159.017 171.863 155.922C174.037 152.827 175.541 149.313 176.279 145.604C177.017 141.895 176.973 138.072 176.149 134.381C175.325 130.69 173.74 127.212 171.495 124.168L136.884 77.2357C134.638 74.1915 131.782 71.649 128.498 69.7707C125.214 67.8923 121.575 66.7192 117.812 66.3264C114.049 65.9336 110.246 66.3296 106.645 67.4892C103.044 68.6488 99.7246 70.5465 96.8982 73.0611ZM111.682 152.578C109.048 154.521 105.896 155.639 102.626 155.792C99.3558 155.944 96.114 155.122 93.3106 153.432C90.5072 151.741 88.2682 149.257 86.8767 146.294C85.4853 143.33 85.0039 140.021 85.4935 136.784C85.9831 133.547 87.4217 130.528 89.6273 128.109C91.8329 125.69 94.7065 123.979 97.8844 123.193C101.062 122.407 104.402 122.581 107.481 123.694C110.56 124.806 113.24 126.807 115.182 129.442C117.781 132.977 118.871 137.398 118.214 141.736C117.556 146.074 115.205 149.974 111.675 152.58L111.682 152.578Z" fill="#407BFF"/>
<path d="M96.8982 73.0611L64.9914 101.464C59.9293 105.969 56.7332 112.203 56.03 118.943C55.3268 125.683 57.1673 132.442 61.1905 137.895L91.1246 178.481C95.149 183.936 101.064 187.692 107.713 189.015C114.361 190.337 121.264 189.131 127.069 185.632L163.653 163.575C166.893 161.623 169.689 159.017 171.863 155.922C174.037 152.827 175.541 149.313 176.279 145.604C177.017 141.895 176.973 138.072 176.149 134.381C175.325 130.69 173.74 127.212 171.495 124.168L136.884 77.2357C134.638 74.1915 131.782 71.649 128.498 69.7707C125.214 67.8923 121.575 66.7192 117.812 66.3264C114.049 65.9336 110.246 66.3296 106.645 67.4892C103.044 68.6488 99.7246 70.5465 96.8982 73.0611ZM111.682 152.578C109.048 154.521 105.896 155.639 102.626 155.792C99.3558 155.944 96.114 155.122 93.3106 153.432C90.5072 151.741 88.2682 149.257 86.8767 146.294C85.4853 143.33 85.0039 140.021 85.4935 136.784C85.9831 133.547 87.4217 130.528 89.6273 128.109C91.8329 125.69 94.7065 123.979 97.8844 123.193C101.062 122.407 104.402 122.581 107.481 123.694C110.56 124.806 113.24 126.807 115.182 129.442C117.781 132.977 118.871 137.398 118.214 141.736C117.556 146.074 115.205 149.974 111.675 152.58L111.682 152.578Z" fill="#407BFF"/>
<path d="M171.506 124.171L136.886 77.2449C134.643 74.1983 131.789 71.6533 128.507 69.7725C125.224 67.8917 121.585 66.7165 117.823 66.3221C114.06 65.9277 110.257 66.3228 106.655 67.482C103.054 68.6413 99.7343 70.5392 96.9083 73.0545L87.639 81.3095L81.4136 86.8435L65.0075 101.458C59.9435 105.963 56.7449 112.197 56.0388 118.938C55.3328 125.679 57.1703 132.44 61.191 137.897L91.1251 178.483C95.1526 183.936 101.069 187.691 107.718 189.014C114.367 190.337 121.27 189.132 127.078 185.635L163.675 163.575C166.575 161.827 169.122 159.55 171.181 156.862C172.722 154.873 173.971 152.675 174.891 150.334C176.6 146.045 177.186 141.392 176.593 136.813C176.001 132.235 174.25 127.884 171.506 124.171ZM111.665 152.58C109.03 154.519 105.879 155.632 102.611 155.78C99.3434 155.929 96.1049 155.105 93.3051 153.413C90.5053 151.721 88.27 149.237 86.8816 146.275C85.4932 143.312 85.0142 140.005 85.5049 136.771C85.9957 133.537 87.4343 130.52 89.6388 128.104C91.8434 125.687 94.715 123.978 97.8906 123.192C101.066 122.407 104.403 122.581 107.48 123.692C110.557 124.803 113.236 126.801 115.177 129.434C116.467 131.184 117.399 133.171 117.921 135.282C118.443 137.392 118.543 139.585 118.217 141.735C117.891 143.884 117.144 145.948 116.02 147.809C114.896 149.67 113.416 151.291 111.665 152.58Z" fill="#7C81E1"/>
<path d="M98.2048 76.4105L68.2795 103.047C63.5335 107.272 60.5368 113.117 59.8768 119.436C59.2169 125.756 60.9415 132.094 64.7123 137.208L92.7868 175.272C96.5616 180.388 102.11 183.911 108.345 185.151C114.581 186.392 121.055 185.261 126.5 181.979L160.814 161.29C163.851 159.459 166.473 157.015 168.512 154.113C170.551 151.211 171.962 147.916 172.654 144.438C173.347 140.959 173.306 137.375 172.533 133.913C171.761 130.452 170.275 127.19 168.17 124.335L135.707 80.3235C133.601 77.4681 130.922 75.0833 127.842 73.3215C124.762 71.5597 121.349 70.4596 117.82 70.0914C114.29 69.7231 110.723 70.0949 107.346 71.183C103.969 72.271 100.855 74.0514 98.2048 76.4105ZM88.5246 149.076C86.5837 146.441 85.4676 143.289 85.3174 140.02C85.1673 136.751 85.9899 133.51 87.6811 130.708C89.3724 127.906 91.8565 125.669 94.8192 124.278C97.782 122.888 101.091 122.407 104.326 122.897C107.562 123.387 110.581 124.825 112.999 127.029C115.418 129.234 117.129 132.107 117.915 135.283C118.702 138.46 118.529 141.799 117.418 144.878C116.307 147.956 114.309 150.636 111.675 152.579C109.926 153.872 107.939 154.806 105.828 155.33C103.717 155.853 101.523 155.955 99.373 155.63C97.2226 155.305 95.1575 154.558 93.296 153.433C91.4345 152.309 89.813 150.828 88.5246 149.076Z" fill="#407BFF"/>
<path d="M98.2048 76.4105L68.2795 103.047C63.5335 107.272 60.5368 113.117 59.8768 119.436C59.2169 125.756 60.9415 132.094 64.7123 137.208L92.7868 175.272C96.5616 180.388 102.11 183.911 108.345 185.151C114.581 186.392 121.055 185.261 126.5 181.979L160.814 161.29C163.851 159.459 166.473 157.015 168.512 154.113C170.551 151.211 171.962 147.916 172.654 144.438C173.347 140.959 173.306 137.375 172.533 133.913C171.761 130.452 170.275 127.19 168.17 124.335L135.707 80.3235C133.601 77.4681 130.922 75.0833 127.842 73.3215C124.762 71.5597 121.349 70.4596 117.82 70.0914C114.29 69.7231 110.723 70.0949 107.346 71.183C103.969 72.271 100.855 74.0514 98.2048 76.4105ZM88.5246 149.076C86.5837 146.441 85.4676 143.289 85.3174 140.02C85.1673 136.751 85.9899 133.51 87.6811 130.708C89.3724 127.906 91.8565 125.669 94.8192 124.278C97.782 122.888 101.091 122.407 104.326 122.897C107.562 123.387 110.581 124.825 112.999 127.029C115.418 129.234 117.129 132.107 117.915 135.283C118.702 138.46 118.529 141.799 117.418 144.878C116.307 147.956 114.309 150.636 111.675 152.579C109.926 153.872 107.939 154.806 105.828 155.33C103.717 155.853 101.523 155.955 99.373 155.63C97.2226 155.305 95.1575 154.558 93.296 153.433C91.4345 152.309 89.813 150.828 88.5246 149.076Z" fill="#5B62D9"/>
<path d="M265.635 13.9675L265.095 16.1813L264.796 17.4099L263.953 20.9009L266.743 28.5178C266.932 29.0282 266.949 29.5865 266.792 30.1078C266.635 30.629 266.312 31.0847 265.872 31.4055L252.833 41.0145C252.435 41.3057 251.962 41.4749 251.47 41.5013C250.979 41.5278 250.49 41.4104 250.064 41.1634L239.582 34.993L239.554 34.9769L229.065 42.7027L231.924 46.5774L221.436 54.3032L226.133 60.6798L218.409 66.3682C218.101 66.5955 217.748 66.7544 217.374 66.8342C216.999 66.9141 216.612 66.913 216.238 66.8312C215.991 66.778 215.753 66.6909 215.53 66.5722L209.298 63.228L198.81 70.9556L203.518 77.3352L192.49 85.4586L197.217 91.8666C197.401 92.1158 197.534 92.3988 197.608 92.6994C197.682 93 197.697 93.3123 197.65 93.6185C197.604 93.9246 197.497 94.2186 197.337 94.4837C197.177 94.7487 196.966 94.9795 196.717 95.1629L166.509 117.412L141.864 83.9966L251.112 3.5157L253.283 3.98347L260.323 5.50255C261.233 5.69846 262.095 6.07475 262.858 6.60922C263.621 7.14369 264.269 7.8255 264.764 8.61447C265.259 9.40343 265.591 10.2836 265.741 11.2029C265.89 12.1223 265.854 13.0623 265.635 13.9675Z" fill="#7C81E1"/>
<g opacity="0.1">
<path d="M265.635 13.9675L265.095 16.1813L264.796 17.4099L263.953 20.9009L266.743 28.5178C266.932 29.0282 266.949 29.5865 266.792 30.1078C266.635 30.629 266.312 31.0847 265.872 31.4055L252.833 41.0145C252.435 41.3057 251.962 41.4749 251.47 41.5013C250.979 41.5278 250.49 41.4104 250.064 41.1634L239.582 34.993L239.554 34.9769L229.065 42.7027L231.924 46.5774L221.436 54.3032L226.133 60.6798L218.409 66.3682C218.101 66.5955 217.748 66.7544 217.374 66.8342C216.999 66.9141 216.612 66.913 216.238 66.8312C215.991 66.778 215.753 66.6909 215.53 66.5722L209.298 63.228L198.81 70.9556L203.518 77.3352L192.49 85.4586L197.217 91.8666C197.401 92.1158 197.534 92.3988 197.608 92.6994C197.682 93 197.697 93.3123 197.65 93.6185C197.604 93.9246 197.497 94.2186 197.337 94.4837C197.177 94.7487 196.966 94.9795 196.717 95.1629L166.509 117.412L141.864 83.9966L251.112 3.5157L253.283 3.98347L260.323 5.50255C261.233 5.69846 262.095 6.07475 262.858 6.60922C263.621 7.14369 264.269 7.8255 264.764 8.61447C265.259 9.40343 265.591 10.2836 265.741 11.2029C265.89 12.1223 265.854 13.0623 265.635 13.9675Z" fill="#7C81E1"/>
</g>
<path d="M264.014 9.84579L147.215 95.89L140.841 87.3202L252.203 5.28851L259.24 6.80623C261.927 7.38297 263.583 8.1507 264.014 9.84579Z" fill="#407BFF"/>
<path d="M264.014 9.84579L147.215 95.89L140.841 87.3202L252.203 5.28851L259.24 6.80623C261.927 7.38297 263.583 8.1507 264.014 9.84579Z" fill="#5B62D9"/>
<path d="M263.367 17.7315L262.865 20.9038C262.856 20.9562 262.861 21.0101 262.881 21.0596L265.654 28.5938C265.755 28.8638 265.808 29.1491 265.811 29.4372C265.811 29.4858 265.798 29.5336 265.775 29.5765C265.753 29.6194 265.72 29.6563 265.68 29.684L251.505 40.1665C251.467 40.1952 251.424 40.2146 251.377 40.2233C251.331 40.2319 251.283 40.2296 251.238 40.2164C251.056 40.1607 250.881 40.0833 250.717 39.9862L239.214 33.3088C239.162 33.2786 239.102 33.2641 239.042 33.2673C238.981 33.2704 238.923 33.291 238.875 33.3265L227.369 41.8368C227.337 41.8608 227.309 41.8909 227.288 41.9256C227.267 41.9602 227.254 41.9986 227.248 42.0386C227.242 42.0786 227.244 42.1193 227.253 42.1585C227.263 42.1978 227.281 42.2347 227.305 42.2672L229.871 45.7301C229.895 45.7623 229.913 45.7991 229.923 45.8382C229.933 45.8774 229.935 45.9181 229.929 45.9581C229.924 45.9981 229.91 46.0365 229.889 46.0712C229.868 46.1058 229.841 46.136 229.808 46.1599L219.993 53.4187C219.928 53.4675 219.885 53.5401 219.873 53.6207C219.861 53.7013 219.882 53.7833 219.931 53.8486L224.369 59.8419C224.393 59.8744 224.41 59.9113 224.42 59.9505C224.43 59.9897 224.432 60.0305 224.426 60.0705C224.42 60.1104 224.406 60.1488 224.385 60.1835C224.364 60.2181 224.337 60.2483 224.304 60.2722L217.104 65.5972C217.068 65.6248 217.026 65.644 216.982 65.6532C216.937 65.6623 216.891 65.6613 216.847 65.6501C216.65 65.5968 216.459 65.5212 216.279 65.4249L208.944 61.5796C208.892 61.5529 208.834 61.5411 208.776 61.5454C208.719 61.5498 208.663 61.5701 208.616 61.6041L197.185 70.0589C197.119 70.1077 197.076 70.1802 197.064 70.2608C197.052 70.3414 197.072 70.4235 197.12 70.4893L201.667 76.6312C201.716 76.6965 201.737 76.7785 201.725 76.8591C201.713 76.9397 201.67 77.0124 201.605 77.0611L157.712 109.518C157.646 109.566 157.564 109.586 157.483 109.574C157.403 109.562 157.33 109.518 157.281 109.453L149.091 98.4767C149.042 98.4109 149.021 98.3284 149.033 98.2473C149.045 98.1663 149.089 98.0934 149.155 98.0445L263.531 13.4618C263.58 13.4253 263.639 13.4043 263.7 13.4015C263.761 13.3987 263.822 13.4142 263.874 13.446C263.926 13.4779 263.968 13.5247 263.994 13.5803C264.019 13.6359 264.027 13.6979 264.018 13.7583L263.367 17.7315Z" fill="#407BFF"/>
<path d="M263.367 17.7315L262.865 20.9038C262.856 20.9562 262.861 21.0101 262.881 21.0596L265.654 28.5938C265.755 28.8638 265.808 29.1491 265.811 29.4372C265.811 29.4858 265.798 29.5336 265.775 29.5765C265.753 29.6194 265.72 29.6563 265.68 29.684L251.505 40.1665C251.467 40.1952 251.424 40.2146 251.377 40.2233C251.331 40.2319 251.283 40.2296 251.238 40.2164C251.056 40.1607 250.881 40.0833 250.717 39.9862L239.214 33.3088C239.162 33.2786 239.102 33.2641 239.042 33.2673C238.981 33.2704 238.923 33.291 238.875 33.3265L227.369 41.8368C227.337 41.8608 227.309 41.8909 227.288 41.9256C227.267 41.9602 227.254 41.9986 227.248 42.0386C227.242 42.0786 227.244 42.1193 227.253 42.1585C227.263 42.1978 227.281 42.2347 227.305 42.2672L229.871 45.7301C229.895 45.7623 229.913 45.7991 229.923 45.8382C229.933 45.8774 229.935 45.9181 229.929 45.9581C229.924 45.9981 229.91 46.0365 229.889 46.0712C229.868 46.1058 229.841 46.136 229.808 46.1599L219.993 53.4187C219.928 53.4675 219.885 53.5401 219.873 53.6207C219.861 53.7013 219.882 53.7833 219.931 53.8486L224.369 59.8419C224.393 59.8744 224.41 59.9113 224.42 59.9505C224.43 59.9897 224.432 60.0305 224.426 60.0705C224.42 60.1104 224.406 60.1488 224.385 60.1835C224.364 60.2181 224.337 60.2483 224.304 60.2722L217.104 65.5972C217.068 65.6248 217.026 65.644 216.982 65.6532C216.937 65.6623 216.891 65.6613 216.847 65.6501C216.65 65.5968 216.459 65.5212 216.279 65.4249L208.944 61.5796C208.892 61.5529 208.834 61.5411 208.776 61.5454C208.719 61.5498 208.663 61.5701 208.616 61.6041L197.185 70.0589C197.119 70.1077 197.076 70.1802 197.064 70.2608C197.052 70.3414 197.072 70.4235 197.12 70.4893L201.667 76.6312C201.716 76.6965 201.737 76.7785 201.725 76.8591C201.713 76.9397 201.67 77.0124 201.605 77.0611L157.712 109.518C157.646 109.566 157.564 109.586 157.483 109.574C157.403 109.562 157.33 109.518 157.281 109.453L149.091 98.4767C149.042 98.4109 149.021 98.3284 149.033 98.2473C149.045 98.1663 149.089 98.0934 149.155 98.0445L263.531 13.4618C263.58 13.4253 263.639 13.4043 263.7 13.4015C263.761 13.3987 263.822 13.4142 263.874 13.446C263.926 13.4779 263.968 13.5247 263.994 13.5803C264.019 13.6359 264.027 13.6979 264.018 13.7583L263.367 17.7315Z" fill="#5B62D9"/>
<path opacity="0.3" d="M89.9841 122.214C86.6808 124.652 84.1745 128.015 82.7818 131.877C81.3892 135.739 81.1728 139.927 82.16 143.912C83.1472 147.897 85.2937 151.5 88.3282 154.265C91.3626 157.03 95.1488 158.834 99.208 159.448C103.267 160.062 107.417 159.458 111.134 157.714C114.85 155.969 117.966 153.162 120.088 149.648C122.209 146.133 123.241 142.068 123.052 137.967C122.864 133.866 121.464 129.912 119.029 126.607C117.413 124.409 115.378 122.551 113.043 121.14C110.707 119.729 108.116 118.793 105.418 118.385C102.72 117.977 99.9679 118.105 97.3195 118.762C94.6711 119.419 92.1784 120.593 89.9841 122.214ZM111.673 152.572C109.039 154.516 105.887 155.634 102.617 155.786C99.3465 155.938 96.1047 155.117 93.3013 153.426C90.4979 151.736 88.2588 149.252 86.8674 146.288C85.4759 143.325 84.9946 140.016 85.4842 136.779C85.9738 133.542 87.4124 130.523 89.618 128.104C91.8236 125.684 94.6971 123.974 97.8751 123.188C101.053 122.402 104.393 122.576 107.472 123.688C110.551 124.801 113.231 126.801 115.172 129.437C117.774 132.971 118.867 137.393 118.211 141.732C117.556 146.071 115.205 149.972 111.675 152.58L111.673 152.572Z" fill="#7C81E1"/>
<path opacity="0.63" d="M212.044 124.137L210.687 122.848C210.384 122.56 209.985 122.394 209.567 122.382C209.15 122.37 208.742 122.513 208.423 122.783L137.731 182.636L103.635 150.254C103.32 149.954 102.902 149.787 102.467 149.787C102.032 149.787 101.614 149.954 101.299 150.254L26.6168 221.184C26.2906 221.494 26.1009 221.92 26.0893 222.37C26.0777 222.82 26.2453 223.256 26.5551 223.582C26.8649 223.908 27.2915 224.098 27.7412 224.109C28.1909 224.121 28.6268 223.953 28.953 223.644L102.467 153.823L136.497 186.144C136.8 186.431 137.199 186.597 137.617 186.609C138.035 186.621 138.442 186.478 138.761 186.208L209.454 126.355L212.044 128.815V124.137Z" fill="white"/>
<path d="M101.484 162.831C106.112 162.831 109.864 159.267 109.864 154.871C109.864 150.475 106.112 146.912 101.484 146.912C96.8551 146.912 93.1029 150.475 93.1029 154.871C93.1029 159.267 96.8551 162.831 101.484 162.831Z" fill="white"/>
<path d="M209.468 132.037C214.097 132.037 217.849 128.474 217.849 124.078C217.849 119.682 214.097 116.118 209.468 116.118C204.839 116.118 201.087 119.682 201.087 124.078C201.087 128.474 204.839 132.037 209.468 132.037Z" fill="white"/>
</svg>
