<svg width="9" height="16" viewBox="0 0 9 16" fill="none" xmlns="http://www.w3.org/2000/svg">
<path d="M0.805919 1.03916C0.610039 1.25063 0.5 1.53741 0.5 1.83644C0.5 2.13546 0.610039 2.42224 0.805919 2.63371L5.97795 8.21579L0.805919 13.7979C0.615591 14.0106 0.510275 14.2954 0.512655 14.5911C0.515036 14.8868 0.624922 15.1696 0.818647 15.3787C1.01237 15.5878 1.27443 15.7064 1.54839 15.7089C1.82235 15.7115 2.08628 15.5978 2.28334 15.3924L8.19408 9.01307C8.38996 8.8016 8.5 8.51482 8.5 8.21579C8.5 7.91677 8.38996 7.62999 8.19408 7.41851L2.28334 1.03916C2.0874 0.827748 1.82169 0.708984 1.54463 0.708984C1.26757 0.708984 1.00186 0.827748 0.805919 1.03916Z" fill="#01073D"/>
</svg>
