<svg width="28" height="27" viewBox="0 0 28 27" fill="none" xmlns="http://www.w3.org/2000/svg">
<path d="M21.3751 26.709C21.0543 26.709 20.7351 26.6099 20.4603 26.4124L14.0002 21.7491L7.54004 26.4124C7.27239 26.6063 6.95073 26.71 6.62101 26.7089C6.29129 26.7077 5.97036 26.6017 5.70405 26.406C5.43748 26.2115 5.23866 25.9373 5.13586 25.6224C5.03307 25.3075 5.03154 24.9681 5.13149 24.6523L7.54083 16.8251L1.13868 12.2841C0.873351 12.087 0.676303 11.8109 0.575407 11.4949C0.474511 11.1789 0.474874 10.8389 0.576446 10.5232C0.67882 10.2081 0.87696 9.93345 1.14286 9.73794C1.40877 9.54244 1.72899 9.43599 2.05826 9.43365L9.9875 9.42166L12.512 1.78876C12.6162 1.47432 12.816 1.20084 13.0832 1.00705C13.3503 0.813264 13.6713 0.708984 14.0006 0.708984C14.3299 0.708984 14.6508 0.813264 14.918 1.00705C15.1851 1.20084 15.3849 1.47432 15.4891 1.78876L17.9707 9.42166L25.9405 9.43365C26.2701 9.43552 26.5908 9.54192 26.857 9.73771C27.1232 9.93351 27.3213 10.2088 27.4232 10.5244C27.5251 10.8399 27.5256 11.1798 27.4247 11.4957C27.3237 11.8116 27.1264 12.0875 26.8609 12.2841L20.4587 16.8251L22.868 24.6523C22.9682 24.968 22.9669 25.3074 22.8642 25.6223C22.7615 25.9372 22.5628 26.2115 22.2963 26.406C22.0292 26.6033 21.7064 26.7094 21.3751 26.709Z" fill="#FFAC33"/>
</svg>
