<svg width="23" height="25" viewBox="0 0 23 25" fill="none" xmlns="http://www.w3.org/2000/svg">
<path d="M7.36047 5.49591C6.90279 5.49591 6.52326 5.11638 6.52326 4.6587V1.30987C6.52326 0.852191 6.90279 0.472656 7.36047 0.472656C7.81814 0.472656 8.19767 0.852191 8.19767 1.30987V4.6587C8.19767 5.11638 7.81814 5.49591 7.36047 5.49591ZM16.2907 5.49591C15.833 5.49591 15.4535 5.11638 15.4535 4.6587V1.30987C15.4535 0.852191 15.833 0.472656 16.2907 0.472656C16.7484 0.472656 17.1279 0.852191 17.1279 1.30987V4.6587C17.1279 5.11638 16.7484 5.49591 16.2907 5.49591ZM7.9186 15.2634C7.77349 15.2634 7.62837 15.2299 7.49442 15.1741C7.3493 15.1182 7.23767 15.0401 7.12605 14.9396C6.92512 14.7275 6.80233 14.4485 6.80233 14.1471C6.80233 14.002 6.83581 13.8568 6.89163 13.7229C6.94744 13.5889 7.02558 13.4661 7.12605 13.3545C7.23767 13.2541 7.3493 13.1759 7.49442 13.1201C7.89628 12.9527 8.3986 13.042 8.71116 13.3545C8.91209 13.5666 9.03488 13.8568 9.03488 14.1471C9.03488 14.2141 9.02372 14.2922 9.01256 14.3703C9.0014 14.4373 8.97907 14.5043 8.94558 14.5713C8.92326 14.6382 8.88977 14.7052 8.84512 14.7722C8.81163 14.828 8.75581 14.8838 8.71116 14.9396C8.49907 15.1406 8.20884 15.2634 7.9186 15.2634ZM11.8256 15.2634C11.6805 15.2634 11.5353 15.2299 11.4014 15.1741C11.2563 15.1182 11.1447 15.0401 11.033 14.9396C10.8321 14.7275 10.7093 14.4485 10.7093 14.1471C10.7093 14.002 10.7428 13.8568 10.7986 13.7229C10.8544 13.5889 10.9326 13.4661 11.033 13.3545C11.1447 13.2541 11.2563 13.1759 11.4014 13.1201C11.8033 12.9415 12.3056 13.042 12.6181 13.3545C12.8191 13.5666 12.9419 13.8568 12.9419 14.1471C12.9419 14.2141 12.9307 14.2922 12.9195 14.3703C12.9084 14.4373 12.886 14.5043 12.8526 14.5713C12.8302 14.6382 12.7967 14.7052 12.7521 14.7722C12.7186 14.828 12.6628 14.8838 12.6181 14.9396C12.406 15.1406 12.1158 15.2634 11.8256 15.2634ZM15.7326 15.2634C15.5874 15.2634 15.4423 15.2299 15.3084 15.1741C15.1633 15.1182 15.0516 15.0401 14.94 14.9396L14.806 14.7722C14.7638 14.71 14.73 14.6424 14.7056 14.5713C14.6733 14.508 14.6508 14.4403 14.6386 14.3703C14.6274 14.2922 14.6163 14.2141 14.6163 14.1471C14.6163 13.8568 14.7391 13.5666 14.94 13.3545C15.0516 13.2541 15.1633 13.1759 15.3084 13.1201C15.7214 12.9415 16.2126 13.042 16.5251 13.3545C16.726 13.5666 16.8488 13.8568 16.8488 14.1471C16.8488 14.2141 16.8377 14.2922 16.8265 14.3703C16.8153 14.4373 16.793 14.5043 16.7595 14.5713C16.7372 14.6382 16.7037 14.7052 16.6591 14.7722C16.6256 14.828 16.5698 14.8838 16.5251 14.9396C16.313 15.1406 16.0228 15.2634 15.7326 15.2634ZM7.9186 19.1703C7.77349 19.1703 7.62837 19.1368 7.49442 19.081C7.36047 19.0252 7.23767 18.9471 7.12605 18.8466C6.92512 18.6345 6.80233 18.3443 6.80233 18.0541C6.80233 17.9089 6.83581 17.7638 6.89163 17.6299C6.94744 17.4847 7.02558 17.362 7.12605 17.2615C7.53907 16.8485 8.29814 16.8485 8.71116 17.2615C8.91209 17.4736 9.03488 17.7638 9.03488 18.0541C9.03488 18.3443 8.91209 18.6345 8.71116 18.8466C8.49907 19.0475 8.20884 19.1703 7.9186 19.1703ZM11.8256 19.1703C11.5353 19.1703 11.2451 19.0475 11.033 18.8466C10.8321 18.6345 10.7093 18.3443 10.7093 18.0541C10.7093 17.9089 10.7428 17.7638 10.7986 17.6299C10.8544 17.4847 10.9326 17.362 11.033 17.2615C11.446 16.8485 12.2051 16.8485 12.6181 17.2615C12.7186 17.362 12.7967 17.4847 12.8526 17.6299C12.9084 17.7638 12.9419 17.9089 12.9419 18.0541C12.9419 18.3443 12.8191 18.6345 12.6181 18.8466C12.406 19.0475 12.1158 19.1703 11.8256 19.1703ZM15.7326 19.1703C15.4423 19.1703 15.1521 19.0475 14.94 18.8466C14.8367 18.7418 14.7568 18.6162 14.7056 18.4782C14.6498 18.3443 14.6163 18.1992 14.6163 18.0541C14.6163 17.9089 14.6498 17.7638 14.7056 17.6299C14.7614 17.4847 14.8395 17.362 14.94 17.2615C15.1967 17.0047 15.5874 16.882 15.9447 16.9601C16.0228 16.9713 16.0898 16.9936 16.1567 17.0271C16.2237 17.0494 16.2907 17.0829 16.3577 17.1275C16.4135 17.161 16.4693 17.2168 16.5251 17.2615C16.726 17.4736 16.8488 17.7638 16.8488 18.0541C16.8488 18.3443 16.726 18.6345 16.5251 18.8466C16.313 19.0475 16.0228 19.1703 15.7326 19.1703ZM21.314 10.0615H2.33721C1.87953 10.0615 1.5 9.68196 1.5 9.22428C1.5 8.76661 1.87953 8.38707 2.33721 8.38707H21.314C21.7716 8.38707 22.1512 8.76661 22.1512 9.22428C22.1512 9.68196 21.7716 10.0615 21.314 10.0615Z" fill="black"/>
<path d="M16.2863 24.4726H7.3561C3.28169 24.4726 0.9375 22.1284 0.9375 18.0539V8.56558C0.9375 4.49116 3.28169 2.14697 7.3561 2.14697H16.2863C20.3608 2.14697 22.7049 4.49116 22.7049 8.56558V18.0539C22.7049 22.1284 20.3608 24.4726 16.2863 24.4726ZM7.3561 3.82139C4.16355 3.82139 2.61192 5.37302 2.61192 8.56558V18.0539C2.61192 21.2465 4.16355 22.7981 7.3561 22.7981H16.2863C19.4789 22.7981 21.0305 21.2465 21.0305 18.0539V8.56558C21.0305 5.37302 19.4789 3.82139 16.2863 3.82139H7.3561Z" fill="black"/>
</svg>
