<svg width="279" height="373" viewBox="0 0 279 373" fill="none" xmlns="http://www.w3.org/2000/svg">
<circle cx="138.117" cy="209.777" r="138" fill="white" fill-opacity="0.5"/>
<path d="M198.621 185.317C231.964 185.317 258.993 158.288 258.993 124.946C258.993 91.6035 231.964 64.5742 198.621 64.5742C165.279 64.5742 138.25 91.6035 138.25 124.946C138.25 158.288 165.279 185.317 198.621 185.317Z" fill="#FF725E"/>
<g opacity="0.3">
<path d="M198.621 185.317C231.964 185.317 258.993 158.288 258.993 124.946C258.993 91.6035 231.964 64.5742 198.621 64.5742C165.279 64.5742 138.25 91.6035 138.25 124.946C138.25 158.288 165.279 185.317 198.621 185.317Z" fill="black"/>
</g>
<path d="M222.801 173.594C253.351 160.237 267.29 124.644 253.933 94.094C240.576 63.5439 204.983 49.6058 174.433 62.9623C143.883 76.3189 129.945 111.912 143.301 142.462C156.658 173.012 192.251 186.951 222.801 173.594Z" fill="#FF725E"/>
<path d="M227.21 146.871C243.002 131.079 243.002 105.475 227.21 89.6837C211.418 73.8919 185.815 73.8919 170.023 89.6837C154.231 105.475 154.231 131.079 170.023 146.871C185.815 162.662 211.418 162.662 227.21 146.871Z" fill="white"/>
<path d="M198.618 138.069C209.548 138.069 218.409 129.208 218.409 118.279C218.409 107.349 209.548 98.4883 198.618 98.4883C187.689 98.4883 178.828 107.349 178.828 118.279C178.828 129.208 187.689 138.069 198.618 138.069Z" fill="#FF725E"/>
<path d="M240.696 74.0786L239.055 61.197L252.167 47.166L253.11 61.065L240.696 74.0786Z" fill="#455A64"/>
<path d="M268.837 63.8303L255.536 62.748L242.203 75.5744L255.538 76.9998L268.837 63.8303Z" fill="#455A64"/>
<g opacity="0.3">
<path d="M201.258 117.987L247.421 82.7432C245.69 80.2412 243.758 77.8841 241.645 75.6953L201.258 114.849V117.987Z" fill="black"/>
</g>
<path d="M253.642 59.1211L234.848 77.9203L205.031 107.744L198.178 114.6C196.018 116.759 199.397 120.119 201.571 117.959L220.365 99.1552L250.182 69.327L257.035 62.4735C257.481 62.0236 257.729 61.415 257.726 60.7819C257.723 60.1487 257.468 59.5427 257.018 59.0971C256.568 58.6516 255.96 58.4031 255.327 58.4063C254.694 58.4094 254.087 58.664 253.642 59.1139V59.1211Z" fill="#263238"/>
<path d="M162.289 42.8233C164.427 42.9584 166.54 42.2947 168.217 40.9609C169.893 39.627 171.015 37.718 171.364 35.6041C171.713 33.4901 171.265 31.3218 170.106 29.5197C168.947 27.7176 167.16 26.41 165.092 25.8505C166.342 24.4331 167.113 22.658 167.296 20.7774C167.48 18.8967 167.067 17.006 166.115 15.3737C165.163 13.7413 163.721 12.4503 161.994 11.6837C160.267 10.9172 158.342 10.7142 156.493 11.1035C156.322 9.25067 155.673 7.47389 154.61 5.94661C153.547 4.41932 152.106 3.1937 150.428 2.38937C148.75 1.58504 146.893 1.22948 145.036 1.35739C143.18 1.4853 141.388 2.0923 139.837 3.11917C137.658 1.52255 135.009 0.700232 132.309 0.783038C129.61 0.865844 127.016 1.84902 124.939 3.57615C123.112 3.3325 121.255 3.68192 119.641 4.57297C118.028 5.46402 116.743 6.84962 115.976 8.52577C115.209 10.2019 115 12.0801 115.381 13.8837C115.761 15.6873 116.711 17.3211 118.089 18.5446" fill="#263238"/>
<path d="M123.517 12.1919L125.415 12.0981C134.621 11.64 143.662 14.6653 150.739 20.5718C157.816 26.4782 162.41 34.8327 163.605 43.9726C165.912 61.6013 168.234 81.1075 168.589 90.6083C169.323 110.282 149.81 114.316 149.81 114.316L152.646 137.856L142.125 149.267L104.855 138.748L96.3778 53.2885C93.604 32.9612 103.122 14.4036 123.517 12.1919Z" fill="#FFBF9D"/>
<path d="M149.981 114.282C140.849 114.74 131.777 112.567 123.844 108.021C123.844 108.021 130.861 121.809 150.391 119.065L149.981 114.282Z" fill="#FF9A6C"/>
<path d="M154.662 64.9016C154.705 65.633 154.46 66.3521 153.981 66.9063C153.502 67.4605 152.826 67.8061 152.096 67.8695C151.74 67.9157 151.378 67.8901 151.033 67.7944C150.687 67.6987 150.364 67.5347 150.082 67.3122C149.801 67.0896 149.566 66.813 149.394 66.4986C149.221 66.1842 149.112 65.8384 149.075 65.4815C149.032 64.7504 149.276 64.0313 149.755 63.477C150.233 62.9227 150.909 62.5767 151.639 62.5126C151.995 62.4664 152.356 62.492 152.703 62.5877C153.049 62.6835 153.372 62.8475 153.654 63.0701C153.935 63.2927 154.17 63.5694 154.343 63.8839C154.516 64.1985 154.625 64.5445 154.662 64.9016Z" fill="#263238"/>
<path d="M159.863 53.8018C159.533 54.1856 157.33 52.7161 154.307 52.8747C151.287 52.9892 149.147 54.6575 148.801 54.3C148.631 54.1443 148.953 53.4649 149.884 52.7152C151.146 51.7428 152.678 51.1855 154.27 51.12C155.841 51.0358 157.398 51.4542 158.715 52.3145C159.679 52.9826 160.027 53.6329 159.863 53.8018Z" fill="#263238"/>
<path d="M128.85 65.5668C128.892 66.2981 128.647 67.017 128.168 67.571C127.689 68.125 127.013 68.4704 126.283 68.5338C125.927 68.58 125.566 68.5544 125.22 68.4587C124.874 68.363 124.551 68.199 124.27 67.9765C123.988 67.7539 123.754 67.4773 123.581 67.1629C123.408 66.8485 123.3 66.5026 123.263 66.1458C123.22 65.4145 123.464 64.6953 123.943 64.141C124.421 63.5867 125.097 63.2408 125.827 63.1768C126.183 63.1307 126.545 63.1563 126.891 63.2521C127.237 63.348 127.56 63.512 127.842 63.7348C128.124 63.9575 128.358 64.2343 128.531 64.5489C128.704 64.8636 128.812 65.2097 128.85 65.5668Z" fill="#263238"/>
<path d="M130.184 55.8427C129.854 56.2255 127.646 54.758 124.628 54.9166C121.608 55.031 119.467 56.6994 119.121 56.341C118.953 56.1852 119.271 55.5068 120.205 54.7561C121.467 53.7848 122.999 53.2276 124.59 53.1609C126.161 53.077 127.719 53.4957 129.036 54.3564C129.998 55.0235 130.347 55.6701 130.184 55.8427Z" fill="#263238"/>
<path d="M142.27 77.7043C142.246 77.5326 144.109 77.1151 147.132 76.5783C147.9 76.461 148.622 76.2715 148.727 75.7338C148.752 74.9337 148.533 74.1449 148.099 73.4724C147.28 71.6426 146.423 69.7222 145.526 67.711C141.94 59.5042 139.306 52.7407 139.637 52.6037C139.969 52.4667 143.143 58.9994 146.728 67.2071C147.593 69.232 148.419 71.1657 149.207 73.0079C149.738 73.915 149.933 74.9799 149.758 76.0163C149.659 76.2939 149.499 76.5455 149.289 76.7519C149.079 76.9584 148.824 77.1143 148.545 77.208C148.124 77.3452 147.686 77.4281 147.244 77.4547C144.188 77.7663 142.289 77.8751 142.27 77.7043Z" fill="#263238"/>
<path d="M132.232 44.0852C131.872 44.8706 129.242 44.1696 126.049 44.225C122.858 44.2081 120.198 44.9419 119.867 44.1603C119.723 43.7849 120.255 43.0718 121.368 42.4009C122.812 41.5836 124.443 41.1552 126.101 41.1576C127.741 41.1299 129.359 41.5393 130.788 42.3436C131.886 43.0014 132.392 43.7108 132.232 44.0852Z" fill="#263238"/>
<path d="M159.385 41.3406C158.783 42.0584 156.254 41.4692 153.253 41.5846C150.25 41.6127 147.738 42.3212 147.118 41.6324C146.845 41.2974 147.212 40.589 148.287 39.8843C149.779 38.9981 151.479 38.5246 153.214 38.5124C154.939 38.4398 156.652 38.8326 158.173 39.6497C159.262 40.2972 159.65 40.9868 159.385 41.3406Z" fill="#263238"/>
<path d="M161.273 35.0499C161.273 35.0499 155.475 22.9951 149.396 20.4165C142.035 17.2956 139.333 25.3381 132.388 23.7636C125.444 22.189 118.416 19.1929 111.679 24.8361C104.305 31.0123 108.096 34.8998 108.057 43.647C107.895 79.1164 101.933 89.4381 99.2675 72.8661C98.9757 71.0504 93.8383 69.8502 92.7048 62.1765C91.2344 52.23 90.2463 40.1029 92.1258 32.9002C93.7107 26.8254 96.9113 22.524 102.804 17.6634C112.099 9.99244 125.352 9.1789 134.402 9.63775C143.452 10.0966 161.332 19.5917 161.273 35.0499Z" fill="#263238"/>
<path d="M100.496 72.2686C100.436 71.5483 100.23 70.8477 99.8913 70.2092C99.5526 69.5706 99.0879 69.0074 98.5254 68.5534C97.9629 68.0995 97.3142 67.7643 96.6185 67.5681C95.9228 67.3718 95.1946 67.3186 94.4778 67.4117C90.8286 67.9428 86.8519 70.2267 87.4702 77.7926C88.5672 91.2109 101.815 87.3431 101.806 86.9565C101.801 86.6937 101.005 77.8808 100.496 72.2686Z" fill="#FFBF9D"/>
<path d="M98.4717 82.1471C98.4088 82.1086 98.2502 82.3347 97.8702 82.543C97.3339 82.8265 96.7084 82.8904 96.1258 82.7213C94.6648 82.3169 93.2873 80.1643 93.0293 77.7481C92.9011 76.6004 93.0313 75.4385 93.4102 74.3476C93.5015 73.918 93.6958 73.5171 93.9765 73.1794C94.2572 72.8417 94.6158 72.5772 95.0214 72.4089C95.2843 72.3159 95.5715 72.3177 95.8332 72.4142C96.095 72.5107 96.3147 72.6957 96.4542 72.9372C96.6644 73.2976 96.6016 73.5725 96.6747 73.5894C96.7142 73.6204 96.9441 73.3407 96.7902 72.7955C96.6885 72.4692 96.4778 72.1876 96.1934 71.998C95.8013 71.7491 95.3271 71.6645 94.8731 71.7624C94.3311 71.9165 93.8376 72.207 93.4399 72.6062C93.0421 73.0054 92.7534 73.5 92.6014 74.0426C92.1249 75.251 91.9516 76.5577 92.0966 77.8485C92.4034 80.5463 93.9948 82.9634 95.9804 83.366C96.3492 83.4413 96.7303 83.4327 97.0954 83.3409C97.4605 83.2492 97.8003 83.0766 98.0898 82.8358C98.4735 82.4736 98.5195 82.1677 98.4717 82.1471Z" fill="#7C4236"/>
<path d="M99.4684 46.2115C101.273 47.316 103.179 48.4532 105.292 48.5574C107.405 48.6615 109.752 47.3329 110.002 45.2319C110.115 44.2879 109.832 43.2135 110.411 42.46C111.103 41.5611 112.476 41.7638 113.602 41.8276C117.531 42.0481 121.883 37.5047 122.689 33.6528C123.238 34.353 124.032 34.8187 124.911 34.9558C125.791 35.0929 126.689 34.8911 127.425 34.3912C128.626 33.5648 129.674 32.5361 130.522 31.351C131.636 29.9435 133.232 28.6495 135.021 28.8175C136.022 28.9113 136.981 29.4546 137.977 29.3167C139.735 29.0718 140.494 26.9624 140.674 25.1964C140.854 23.4304 140.955 21.3774 142.408 20.3508C143.749 19.3993 145.57 19.8197 147.207 19.9755C148.843 20.1312 150.923 19.648 151.26 18.0387C151.309 17.6092 151.27 17.1742 151.145 16.7602C151.021 16.3462 150.814 15.9617 150.537 15.63C149.363 14.0594 147.695 12.9302 145.8 12.4249C143.906 11.9196 141.897 12.0676 140.097 12.845C139.323 10.6408 137.914 8.71541 136.046 7.31221C134.178 5.909 131.937 5.09097 129.604 4.96152C127.272 4.83207 124.953 5.39701 122.942 6.58493C120.931 7.77285 119.316 9.53042 118.304 11.6355C116.812 10.4112 115.047 9.56516 113.158 9.16915C111.269 8.77313 109.313 8.83887 107.455 9.36079C105.597 9.88271 103.893 10.8454 102.487 12.167C101.081 13.4886 100.014 15.1302 99.3783 16.9521C97.7101 16.601 95.9754 16.7481 94.3903 17.3754C92.8051 18.0027 91.4394 19.0823 90.4631 20.4799C89.4869 21.8774 88.9433 23.5313 88.8999 25.2355C88.8565 26.9397 89.3153 28.6191 90.2192 30.0645C87.8733 31.5659 85.9225 34.0684 86.0107 36.8534C86.0989 39.6384 88.9468 42.2752 91.5957 41.41C91.1011 42.5335 91.0544 43.8036 91.4653 44.9603C91.8762 46.117 92.7136 47.0731 93.8061 47.6328C94.8986 48.1925 96.1638 48.3135 97.3426 47.9712C98.5215 47.6288 99.525 46.849 100.148 45.7912" fill="#263238"/>
<path d="M141.295 16.75C141.313 16.831 141.316 16.9146 141.304 16.9968C141.295 17.1582 141.298 17.404 141.254 17.7184C141.12 18.6384 140.835 19.5299 140.41 20.357C139.736 21.6671 138.77 22.8051 137.587 23.6834C136.028 24.8751 134.121 25.5228 132.159 25.5273L132.372 25.2176C132.838 26.4216 132.807 27.7614 132.287 28.9428C131.744 30.1804 131.025 31.3325 130.151 32.3631C129.734 32.9513 129.255 33.4933 128.723 33.9798C128.11 34.4453 127.392 34.753 126.632 34.876C125.845 35.03 125.032 34.9889 124.264 34.7561C123.497 34.5233 122.798 34.106 122.229 33.5407L122.724 33.3718C122.608 34.7781 122.198 36.1444 121.521 37.3826C120.844 38.6208 119.915 39.7033 118.794 40.5604C117.565 41.5702 116.041 42.1546 114.452 42.226C112.955 42.229 111.468 41.9794 110.054 41.4875L110.406 41.3111C109.79 42.9731 108.767 44.4541 107.431 45.6191C106.822 46.1982 106.091 46.634 105.292 46.8947C104.492 47.1554 103.645 47.2345 102.811 47.126C101.384 46.8918 100.057 46.2453 98.9927 45.2661C97.9285 44.2869 97.174 43.0178 96.822 41.6151L97.1335 41.7418C95.7561 42.5659 94.1355 42.8869 92.5478 42.6501C91.3646 42.4915 90.236 42.0538 89.2552 41.3731C88.6413 40.9453 88.1058 40.4148 87.6722 39.8051C87.52 39.5954 87.3939 39.3679 87.2969 39.1276C87.8607 39.9348 88.5673 40.6322 89.3819 41.1854C90.3489 41.8074 91.4465 42.1979 92.5891 42.3264C94.0944 42.519 95.6202 42.1898 96.9121 41.3937L97.157 41.2389L97.2236 41.5204C97.5728 42.8272 98.2935 44.0046 99.2985 44.91C100.303 45.8154 101.55 46.4098 102.886 46.6212C103.646 46.7125 104.416 46.6326 105.142 46.3872C105.867 46.1419 106.528 45.7374 107.076 45.2034C108.332 44.094 109.291 42.6901 109.87 41.1178L109.963 40.8645L110.221 40.9414C111.574 41.4085 112.996 41.6461 114.427 41.6442C115.896 41.575 117.303 41.0314 118.437 40.095C119.494 39.2873 120.371 38.2674 121.011 37.1009C121.651 35.9344 122.04 34.6469 122.153 33.3211L122.206 32.6812L122.649 33.1504C123.153 33.6473 123.771 34.0142 124.448 34.2195C125.126 34.4248 125.843 34.4624 126.538 34.3289C127.211 34.2242 127.847 33.9569 128.393 33.5501C128.893 33.0928 129.344 32.5846 129.739 32.0337C130.59 31.0477 131.294 29.9445 131.831 28.758C132.318 27.695 132.363 26.4819 131.956 25.3856L131.831 25.0694L132.169 25.0759C134.042 25.0908 135.868 24.4981 137.375 23.3869C138.537 22.5583 139.499 21.4805 140.19 20.2322C140.761 19.1457 141.135 17.9668 141.295 16.75Z" fill="#455A64"/>
<path d="M142.107 88.0687C142.007 87.5713 138.735 88.4262 135.676 86.238C132.617 84.0498 132.059 80.4737 131.595 80.5685C131.378 80.5769 131.164 81.5125 131.511 82.995C131.989 84.9195 133.13 86.614 134.733 87.7806C136.273 88.8974 138.187 89.3721 140.071 89.1046C141.472 88.87 142.186 88.292 142.107 88.0687Z" fill="#263238"/>
<path d="M63.2656 372.778C63.2656 372.778 67.7894 324.047 78.3955 308.783L205.803 313.944L212.045 371.702L63.2656 372.778Z" fill="#263238"/>
<path d="M103.424 124.269C103.424 124.269 105.886 137.294 138.822 145.682C138.822 145.682 153.922 135.875 150.858 122.975L188.918 145.711L197.985 252.841L210.239 328.278C172.512 347.781 119.232 343.159 68.4672 327.784L83.1992 281.19L81.9286 262.18L65.3594 161.522L95.0298 131.851L103.424 124.269Z" fill="#E0E0E0"/>
<path d="M174.089 162.168L162.409 162.946C160.906 163.046 159.769 164.346 159.869 165.849L159.874 165.921C159.974 167.424 161.273 168.561 162.777 168.461L174.456 167.683C175.96 167.583 177.097 166.284 176.997 164.78L176.992 164.708C176.892 163.205 175.592 162.068 174.089 162.168Z" fill="#FF725E"/>
<path d="M105.625 233.718C105.605 233.811 104.218 233.449 101.94 233.342C100.608 233.283 99.2725 233.339 97.9497 233.511C94.7028 233.935 91.5818 235.039 88.7905 236.75C87.6535 237.448 86.5795 238.244 85.5805 239.128C83.8774 240.647 83.0301 241.801 82.9531 241.74C83.1041 241.439 83.2933 241.159 83.5161 240.906C83.7449 240.586 83.9958 240.282 84.2668 239.997C84.6069 239.602 84.9691 239.226 85.3515 238.871C86.3353 237.933 87.4089 237.094 88.5569 236.366C91.3813 234.573 94.5753 233.443 97.899 233.062C99.2495 232.906 100.612 232.884 101.967 232.995C102.487 233.029 103.005 233.092 103.518 233.183C103.907 233.235 104.293 233.313 104.671 233.418C105.001 233.477 105.321 233.578 105.625 233.718Z" fill="#7C4236"/>
<path d="M150.859 122.977C151.588 122.977 176.988 130.09 180.758 131.21C180.956 131.269 190.885 134.726 191.09 134.752C193.417 135.051 207.653 140.437 213.422 153.163C218.628 164.656 226.752 191.643 226.752 191.643L187.772 187.983L189.53 163.733L156.281 133.861L150.859 122.977Z" fill="#E0E0E0"/>
<path d="M187.586 158.311C187.694 158.712 187.762 159.124 187.788 159.539C187.89 160.333 188.002 161.484 188.112 162.91C188.334 165.762 188.5 169.715 188.417 174.082C188.333 178.449 188.009 182.394 187.676 185.234C187.51 186.655 187.353 187.802 187.22 188.591C187.178 189.005 187.094 189.414 186.969 189.811C186.948 189.396 186.968 188.979 187.031 188.568C187.111 187.677 187.211 186.548 187.332 185.202C187.576 182.358 187.841 178.425 187.928 174.073C188.015 169.721 187.901 165.783 187.768 162.932C187.7 161.582 187.643 160.45 187.599 159.554C187.552 159.141 187.547 158.724 187.586 158.311Z" fill="#263238"/>
<path d="M190.649 136.273C190.499 137.101 190.29 137.916 190.021 138.713C188.942 142.609 188.291 146.611 188.081 150.649C188.082 151.49 188.022 152.331 187.901 153.164C187.743 152.332 187.688 151.484 187.735 150.639C187.757 146.553 188.419 142.496 189.695 138.616C189.916 137.799 190.237 137.012 190.649 136.273Z" fill="#263238"/>
<path d="M179.711 172.258L109.325 176.22C108.377 176.274 107.487 176.695 106.844 177.393C106.2 178.091 105.853 179.012 105.876 179.962L108.295 275.954C108.312 276.625 108.463 277.287 108.74 277.898C109.018 278.51 109.415 279.06 109.909 279.515C110.403 279.97 110.983 280.321 111.615 280.548C112.247 280.774 112.919 280.872 113.589 280.833L182.457 276.922C183.766 276.847 184.993 276.263 185.876 275.294C186.759 274.325 187.227 273.049 187.181 271.739L183.753 175.947C183.735 175.438 183.615 174.938 183.401 174.475C183.188 174.013 182.883 173.597 182.507 173.254C182.131 172.91 181.69 172.645 181.21 172.474C180.73 172.303 180.22 172.23 179.711 172.258Z" fill="#263238"/>
<g opacity="0.3">
<path d="M85.8125 277.925C93.1607 281.982 102.155 281.37 110.415 279.87C121.424 277.871 132.142 274.512 142.323 269.871C148.591 267.013 154.754 263.637 161.537 262.433C172.568 260.475 187.857 262.091 198.826 259.813L198.178 251.086L159.417 246.326L85.8125 277.925Z" fill="black"/>
</g>
<path d="M133.684 175.9C133.684 175.9 130.65 171.421 131.879 170.038C132.714 169.1 153.692 167.769 155.08 168.857C155.889 169.49 154.261 174.475 154.261 174.475L133.684 175.9Z" fill="#E0E0E0"/>
<path d="M133.684 175.899C133.819 175.863 133.958 175.841 134.098 175.834L135.259 175.719L139.56 175.353L154.245 174.24L154.037 174.401C154.406 173.258 154.704 172.092 154.93 170.912C155.067 170.339 155.088 169.745 154.992 169.164C154.98 169.093 154.942 169.104 154.933 169.058C154.891 169.031 154.847 169.008 154.801 168.988C154.66 168.945 154.516 168.911 154.37 168.888C154.06 168.835 153.747 168.799 153.432 168.779C149.799 168.647 146.161 168.706 142.533 168.956C139.183 169.156 136.162 169.386 133.657 169.744C133.346 169.794 133.042 169.838 132.751 169.905C132.491 169.945 132.238 170.024 132 170.139C131.868 170.346 131.781 170.58 131.744 170.823C131.707 171.067 131.722 171.316 131.787 171.554C131.975 172.386 132.266 173.191 132.655 173.95C132.965 174.586 133.236 175.066 133.419 175.392C133.523 175.553 133.611 175.722 133.684 175.899C133.548 175.763 133.431 175.61 133.335 175.444C133.028 174.989 132.745 174.519 132.485 174.036C132.056 173.273 131.731 172.455 131.519 171.604C131.436 171.323 131.416 171.028 131.46 170.738C131.504 170.448 131.61 170.172 131.771 169.927C132.046 169.75 132.355 169.633 132.678 169.583C132.978 169.514 133.286 169.458 133.601 169.403C136.125 168.997 139.145 168.732 142.504 168.506C146.152 168.227 149.812 168.156 153.468 168.291C153.8 168.312 154.131 168.35 154.459 168.406C154.631 168.434 154.801 168.475 154.967 168.527C155.068 168.568 155.162 168.622 155.249 168.688C155.332 168.773 155.398 168.873 155.441 168.984C155.579 169.649 155.566 170.336 155.403 170.994C155.171 172.197 154.863 173.383 154.481 174.547L154.433 174.699L154.273 174.708L139.466 175.636L135.192 175.864L134.059 175.907C133.934 175.921 133.808 175.918 133.684 175.899Z" fill="#263238"/>
<path d="M177.832 176.826C177.754 176.849 177.674 176.861 177.593 176.862L176.893 176.919L174.198 177.091L164.283 177.631L131.563 179.226L109.834 180.216L110.039 179.999C110.055 187.311 110.069 193.445 110.079 197.796C110.069 199.92 110.062 201.607 110.056 202.806C110.046 203.357 110.038 203.794 110.033 204.129C110.037 204.281 110.027 204.434 110.002 204.584C109.973 204.434 109.961 204.282 109.963 204.129C109.953 203.795 109.939 203.358 109.921 202.807C109.898 201.609 109.866 199.922 109.827 197.797C109.774 193.447 109.699 187.313 109.609 180.003V179.795L109.817 179.785L131.543 178.743L164.271 177.29L174.194 176.905L176.892 176.825L177.595 176.816C177.674 176.809 177.754 176.812 177.832 176.826Z" fill="#455A64"/>
<path d="M153.15 173.708C152.782 173.805 152.405 173.86 152.024 173.873L148.938 174.142C146.33 174.349 142.726 174.602 138.745 174.855C134.763 175.107 131.154 175.309 128.54 175.433L125.444 175.556C125.065 175.589 124.683 175.584 124.305 175.539C124.672 175.436 125.05 175.378 125.431 175.366C126.159 175.289 127.214 175.194 128.517 175.085C131.124 174.872 134.728 174.615 138.712 174.363C142.696 174.111 146.301 173.912 148.915 173.793L152.011 173.679C152.391 173.646 152.773 173.656 153.15 173.708Z" fill="#263238"/>
<path d="M131.383 174.83L131.846 180.716L156.668 179.451L156.298 173.381L131.383 174.83Z" fill="#E0E0E0"/>
<path d="M131.384 174.83C131.534 174.796 131.687 174.777 131.84 174.773L133.219 174.661L138.425 174.286C142.869 173.98 149.135 173.564 156.286 173.139L156.524 173.125L156.539 173.364C156.657 175.278 156.779 177.262 156.905 179.293L156.914 179.433L156.929 179.68L156.683 179.692C146.44 180.214 137.378 180.636 131.856 180.856L131.714 180.862L131.706 180.725C131.594 178.885 131.505 177.41 131.439 176.335L131.385 175.198C131.372 175.073 131.372 174.947 131.385 174.822C131.416 174.961 131.437 175.101 131.447 175.243L131.574 176.406C131.676 177.458 131.817 178.9 131.992 180.698L131.842 180.566C137.358 180.224 146.416 179.722 156.658 179.201L156.427 179.46L156.418 179.318C156.296 177.287 156.177 175.303 156.062 173.39L156.314 173.614L138.61 174.534L133.341 174.772L131.906 174.823C131.732 174.839 131.558 174.841 131.384 174.83Z" fill="#263238"/>
<path d="M51.4062 205.777C51.4062 205.777 54.4268 228.332 60.8713 245.449C67.3158 262.566 75.7731 277.469 85.2382 278.073C94.7032 278.678 127.328 272.837 141.022 265.185C154.716 257.533 163.98 252.296 163.98 252.296L183.715 238.602L167.201 220.074C167.201 220.074 123.702 233.568 116.452 233.97C112.097 234.214 107.729 233.944 103.437 233.165C103.437 233.165 104.571 215.243 102.556 208.193C100.542 201.143 94.2988 187.854 94.2988 187.854L51.4062 205.777Z" fill="#FFBF9D"/>
<path d="M168.828 215.297C169.81 211.835 171.033 208.447 172.488 205.156C174.662 200.42 175.209 194.985 175.439 192.034C175.669 189.084 175.128 183.105 177.302 181.786C179.476 180.467 184.528 180.003 184.678 187.531C184.828 195.06 182.441 199.1 183.364 202.595C183.913 204.68 184.831 206.65 186.075 208.412L187.703 207.294L189.204 213.551L168.828 215.297Z" fill="#FFBF9D"/>
<path d="M105.031 202.679L120.538 210.331C120.538 210.331 147.322 217.782 158.801 216.373C170.279 214.964 189.21 213.558 189.21 213.558C189.21 213.558 185.856 199.553 187.193 189.377C193.559 184.453 201.616 182.253 209.601 183.258C222.831 184.923 226.519 191.038 226.752 191.645C229.053 197.65 237.944 242.96 223.848 252.425C209.751 261.89 168.255 254.064 158.398 250.613C150.075 247.699 127.159 238.538 119.022 235.271C117.086 234.494 115.039 234.033 112.958 233.904L103.092 233.294L103.141 225.534C103.183 218.748 102.225 211.993 100.298 205.486L98.5 197.925L105.031 202.679Z" fill="#FFBF9D"/>
<path d="M105.027 202.68C105.027 202.68 104.882 202.586 104.603 202.392L103.357 201.506L98.456 197.977L98.5639 197.905C98.9899 199.667 99.4891 201.736 100.059 204.098C100.315 205.287 100.706 206.513 101.051 207.834C101.395 209.155 101.716 210.555 102.005 212.035C102.637 215.269 103.035 218.544 103.196 221.835C103.289 223.618 103.284 225.467 103.271 227.371C103.258 229.275 103.252 231.256 103.242 233.291L103.094 233.136L109.832 233.543L113.369 233.761C114.591 233.861 115.802 234.075 116.985 234.4C118.19 234.755 119.373 235.183 120.526 235.682L124.103 237.108L131.534 240.058L147.464 246.294C150.234 247.36 153.059 248.439 155.947 249.5C157.394 250.026 158.845 250.57 160.342 251.001C161.838 251.433 163.367 251.829 164.913 252.194C171.299 253.664 177.758 254.792 184.265 255.572C191.112 256.455 198.017 256.809 204.919 256.632C208.479 256.53 212.024 256.122 215.513 255.412C217.271 255.027 218.994 254.497 220.664 253.828C222.337 253.157 223.875 252.187 225.201 250.965C226.484 249.672 227.512 248.149 228.231 246.476C228.995 244.796 229.583 243.041 229.987 241.24C230.799 237.579 231.248 233.847 231.329 230.098C231.479 222.839 231.022 215.58 229.961 208.397C229.457 204.859 228.87 201.359 228.135 197.928C227.766 196.212 227.378 194.506 226.888 192.848C226.773 192.44 226.638 192.039 226.482 191.646C226.281 191.283 226.045 190.941 225.777 190.625C225.232 189.973 224.625 189.376 223.965 188.842C221.276 186.775 218.181 185.301 214.882 184.514C211.677 183.646 208.368 183.224 205.048 183.261C201.811 183.338 198.608 183.94 195.563 185.043C192.592 186.08 189.811 187.598 187.331 189.536L187.405 189.398C186.975 193.517 187.001 197.671 187.483 201.784C187.895 205.724 188.535 209.636 189.4 213.5L189.453 213.734L189.217 213.752C181.667 214.322 174.498 214.925 167.768 215.578L158 216.595C154.948 216.779 151.885 216.67 148.853 216.27C143.531 215.616 138.244 214.694 133.014 213.507C128.282 212.467 124.1 211.409 120.503 210.423H120.494H120.485L108.976 204.689L106.017 203.2C105.355 202.863 105.023 202.68 105.023 202.68C105.023 202.68 105.373 202.832 106.044 203.154L109.027 204.598L120.575 210.243L120.557 210.236C124.154 211.2 128.339 212.239 133.07 213.258C137.803 214.256 143.077 215.323 148.888 215.961C151.899 216.35 154.94 216.451 157.97 216.261L167.729 215.22C174.464 214.552 181.633 213.935 189.185 213.352L188.998 213.603C188.121 209.721 187.471 205.791 187.052 201.834C186.561 197.687 186.529 193.499 186.959 189.345L186.969 189.257L187.033 189.207C189.552 187.229 192.38 185.68 195.403 184.621C198.492 183.499 201.743 182.884 205.029 182.802C208.395 182.76 211.751 183.183 215.001 184.061C218.366 184.86 221.523 186.363 224.265 188.471C224.949 189.025 225.578 189.644 226.142 190.32C226.436 190.665 226.693 191.041 226.91 191.439C227.077 191.854 227.221 192.277 227.342 192.707C227.84 194.39 228.231 196.101 228.601 197.824C229.341 201.27 229.93 204.778 230.438 208.326C231.504 215.537 231.964 222.824 231.813 230.111C231.731 233.893 231.277 237.658 230.457 241.35C230.045 243.183 229.446 244.968 228.668 246.677C227.924 248.404 226.861 249.975 225.536 251.308C222.775 253.925 219.112 255.052 215.612 255.876C212.094 256.589 208.521 256.997 204.933 257.096C198.006 257.27 191.076 256.909 184.205 256.017C177.683 255.23 171.207 254.093 164.807 252.612C163.256 252.244 161.723 251.849 160.215 251.407C158.707 250.965 157.24 250.421 155.795 249.892C152.904 248.825 150.079 247.742 147.31 246.671L131.395 240.414L123.968 237.448L120.394 236.012C119.254 235.516 118.085 235.09 116.894 234.735C115.732 234.413 114.543 234.199 113.342 234.098L109.814 233.87L103.076 233.443L102.931 233.435V233.288C102.947 231.253 102.962 229.28 102.978 227.368C102.998 225.458 103.009 223.615 102.922 221.842C102.775 218.563 102.392 215.298 101.777 212.073C101.495 210.597 101.18 209.199 100.847 207.881C100.514 206.562 100.125 205.33 99.8767 204.141C99.324 201.777 98.8389 199.704 98.4251 197.937L98.3828 197.749L98.5339 197.861L103.391 201.442L104.618 202.358C104.89 202.568 105.027 202.68 105.027 202.68Z" fill="#7C4236"/>
<path d="M212.22 230.9C211.807 229.441 211.315 228.005 210.746 226.6C209.293 223.239 206.99 220.314 204.063 218.113C201.137 215.912 197.688 214.511 194.055 214.048C192.547 213.889 191.032 213.815 189.516 213.824C189.913 213.715 190.323 213.656 190.735 213.646C191.856 213.563 192.981 213.583 194.098 213.704C197.82 214.084 201.368 215.474 204.358 217.723C207.348 219.972 209.667 222.995 211.065 226.466C211.491 227.505 211.822 228.581 212.053 229.68C212.157 230.079 212.213 230.488 212.22 230.9Z" fill="#7C4236"/>
<path d="M103.422 124.27C101.944 125.255 74.222 136.838 71.5084 138.225C71.5084 138.225 41.8952 149.441 45.4065 181.013C47.3526 198.507 50.5617 212.804 50.5617 212.804C50.5617 212.804 63.2172 205.166 72.184 201.493C83.6946 196.778 97.6684 194.698 97.6684 194.698L89.7863 166.711L103.422 124.27Z" fill="#E0E0E0"/>
<path d="M89.2096 167.715C89.3382 167.676 91.3894 174.002 93.7897 181.842C96.19 189.682 98.0319 196.075 97.9034 196.114C97.7748 196.153 95.7236 189.827 93.3224 181.985C90.9212 174.144 89.0792 167.754 89.2096 167.715Z" fill="#263238"/>
<path d="M85.1438 158.779C84.3205 157.729 83.4367 156.729 82.4968 155.783L81.7883 155.126L80.9635 154.478C80.4108 154.009 79.7436 153.606 79.0765 153.142C77.5793 152.199 76.004 151.386 74.3679 150.712C71.4084 149.443 68.2471 148.711 65.0314 148.549C63.699 148.543 62.3686 148.651 61.0547 148.872C61.3838 148.717 61.7303 148.601 62.0869 148.528C63.0537 148.306 64.0431 148.197 65.0351 148.203C68.3117 148.265 71.545 148.963 74.5546 150.26C76.2178 150.945 77.8136 151.783 79.3214 152.764C79.9759 153.197 80.6082 153.664 81.2159 154.161L82.037 154.843L82.7379 155.537C83.146 155.926 83.5225 156.347 83.8639 156.796C84.1461 157.115 84.3974 157.461 84.6146 157.828C84.8283 158.123 85.006 158.442 85.1438 158.779Z" fill="#263238"/>
<path d="M56.9853 209.5C56.9121 209.337 56.8586 209.166 56.8258 208.99C56.732 208.599 56.609 208.108 56.4608 207.508C56.1521 206.218 55.7364 204.345 55.2532 202.024C54.2829 197.384 53.0753 190.943 52.0187 183.784C50.9621 176.626 50.2828 170.103 49.9346 165.372C49.7573 163.009 49.6456 161.093 49.6006 159.768C49.5818 159.149 49.5668 158.642 49.5555 158.241C49.5398 158.063 49.5455 157.884 49.5724 157.707C49.6207 157.879 49.6482 158.057 49.6541 158.235C49.6897 158.637 49.7348 159.14 49.7901 159.755C49.9112 161.142 50.0773 163.035 50.279 165.343C50.7144 170.059 51.451 176.562 52.5019 183.713C53.5529 190.864 54.7098 197.303 55.5919 201.957C56.0273 204.234 56.3848 206.1 56.6466 207.468C56.7582 208.076 56.8493 208.573 56.9225 208.97C56.9651 209.143 56.9862 209.321 56.9853 209.5Z" fill="#263238"/>
<path d="M59.9845 207.443C59.9179 207.27 59.8713 207.09 59.8456 206.906C59.7668 206.497 59.6664 205.981 59.5434 205.347C59.2938 203.925 58.9523 201.977 58.5347 199.6C57.7109 194.742 56.6224 188.023 55.5114 180.588C54.4004 173.152 53.4799 166.404 52.9037 161.51C52.6222 159.061 52.3998 157.08 52.2844 155.706L52.1559 154.124C52.13 153.94 52.1259 153.753 52.1437 153.568C52.2016 153.745 52.2384 153.928 52.2535 154.114C52.3116 154.525 52.3839 155.045 52.474 155.684C52.6616 157.114 52.9272 159.074 53.2462 161.465C53.9106 166.345 54.8818 173.08 55.9946 180.514C57.115 187.915 58.1294 194.614 58.8763 199.543C59.23 201.931 59.52 203.887 59.7311 205.315C59.8174 205.954 59.8878 206.475 59.9432 206.888C59.9788 207.071 59.9927 207.257 59.9845 207.443Z" fill="#263238"/>
<g opacity="0.3">
<path d="M97.4453 197.154C102.625 207.085 105.241 218.154 105.053 229.353C114.006 230.208 122.501 233.708 129.458 239.408C125.323 236.562 115.094 233.111 103.084 233.291C103.68 214.663 101.38 209.619 97.4453 197.154Z" fill="#D07F59"/>
</g>
<path d="M150.856 122.787C151.063 123.254 151.211 123.745 151.298 124.248C151.418 124.734 151.573 125.336 151.729 126.053C151.854 126.779 151.995 127.612 152.151 128.549C152.899 133.897 153.286 139.289 153.307 144.689C153.395 151.539 153.146 159.72 152.358 168.804C151.532 178.716 150.117 188.569 148.12 198.312L147.778 199.947L146.806 198.579L143.758 194.285C137.235 185.183 130.92 176.562 125.554 168.448C120.233 160.307 115.6 152.88 112.098 146.397C109.265 141.31 106.891 135.98 105.003 130.472C104.664 129.499 104.422 128.615 104.206 127.852C103.989 127.089 103.822 126.44 103.711 125.908C103.553 125.378 103.458 124.83 103.43 124.277C103.557 124.245 104.111 126.451 105.546 130.283C107.625 135.673 110.121 140.893 113.009 145.897C116.599 152.27 121.318 159.634 126.681 167.702C132.09 175.742 138.425 184.323 144.958 193.437L148.01 197.743L146.697 198.01C148.692 188.325 150.144 178.537 151.048 168.69C151.912 159.652 152.268 151.511 152.311 144.696C152.377 139.332 152.145 133.967 151.614 128.628L151.323 126.129L151.028 124.313C150.908 123.813 150.85 123.301 150.856 122.787Z" fill="#455A64"/>
<path d="M139.405 205.642C139.173 204.351 139.316 203.02 139.816 201.807C140.465 200.126 141.989 198.273 145.549 198.088C147.711 197.914 149.887 198.038 152.016 198.456C152.545 198.581 153.043 198.811 153.481 199.132C153.919 199.453 154.288 199.859 154.565 200.326L159.85 209.157L159.204 212.278L153.027 213.743L149.128 209.036L145.052 209.728C145.052 209.728 140.509 210.695 139.405 205.642Z" fill="#FF725E"/>
<path d="M142.5 198.825C142.494 198.809 142.57 198.77 142.722 198.708C142.941 198.609 143.17 198.535 143.406 198.489C144.288 198.289 145.211 198.384 146.033 198.759C147.24 199.342 148.221 200.307 148.824 201.504C149.545 202.783 150.325 204.17 151.145 205.625L153.974 210.756L153.73 210.655C155.549 210.166 157.072 209.77 158.141 209.507C158.696 209.336 159.267 209.219 159.845 209.16C159.32 209.41 158.772 209.607 158.208 209.749C157.156 210.083 155.65 210.537 153.843 211.063L153.683 211.11L153.598 210.961L150.717 205.859C148.993 203.011 147.955 199.934 145.883 199.068C145.125 198.692 144.272 198.554 143.434 198.673C143.127 198.746 142.815 198.796 142.5 198.825Z" fill="#263238"/>
<path d="M153.185 213.78C153.053 213.752 153.081 213.077 153.248 212.272C153.415 211.467 153.657 210.835 153.789 210.864C153.922 210.893 153.893 211.566 153.726 212.372C153.559 213.178 153.317 213.806 153.185 213.78Z" fill="#263238"/>
<path d="M143.938 209.771C143.938 209.687 144.349 209.677 144.961 209.521C145.552 209.37 146.096 209.073 146.543 208.659C146.991 208.245 147.328 207.725 147.524 207.148L147.67 206.705L147.926 207.066C148.426 207.656 148.829 208.321 149.12 209.037C149.037 209.099 148.397 208.394 147.563 207.34L147.965 207.259C147.838 207.721 147.62 208.153 147.325 208.53C146.764 209.259 145.939 209.737 145.028 209.862C144.341 209.939 143.934 209.825 143.938 209.771Z" fill="#263238"/>
<path d="M146.584 204.228C146.517 204.008 146.472 203.783 146.447 203.555C146.323 202.965 146.035 202.422 145.617 201.989C145.323 201.68 144.941 201.467 144.523 201.38C144.105 201.293 143.67 201.336 143.277 201.502C142.818 201.755 142.433 202.122 142.159 202.567C141.884 203.013 141.729 203.522 141.71 204.045C141.69 204.568 141.806 205.088 142.047 205.552C142.288 206.017 142.644 206.412 143.083 206.698C143.462 206.893 143.893 206.968 144.316 206.912C144.739 206.857 145.136 206.674 145.453 206.388C145.902 205.986 146.23 205.466 146.397 204.886C146.439 204.662 146.502 204.442 146.584 204.23C146.648 204.46 146.648 204.703 146.584 204.933C146.475 205.585 146.161 206.185 145.687 206.646C145.346 206.969 144.925 207.196 144.468 207.303C143.93 207.416 143.37 207.344 142.878 207.099C142.353 206.781 141.922 206.329 141.631 205.789C141.34 205.249 141.198 204.64 141.221 204.027C141.244 203.414 141.431 202.818 141.761 202.301C142.092 201.784 142.555 201.365 143.102 201.087C143.611 200.879 144.175 200.85 144.703 201.003C145.151 201.145 145.553 201.404 145.868 201.753C146.306 202.248 146.575 202.87 146.634 203.529C146.68 203.762 146.663 204.003 146.584 204.228Z" fill="#263238"/>
<path d="M153.86 200.984C153.86 200.97 153.895 200.939 153.984 200.942C154.049 200.949 154.111 200.974 154.163 201.012C154.216 201.051 154.257 201.102 154.284 201.162L154.555 201.602L154.718 201.884C154.769 201.949 154.804 202.026 154.82 202.107C154.837 202.189 154.834 202.273 154.812 202.353C154.778 202.452 154.712 202.537 154.624 202.595C154.546 202.644 154.457 202.676 154.365 202.689L153.943 202.773L153.01 202.952L150.846 203.327C150.758 203.333 150.67 203.319 150.589 203.283C150.509 203.248 150.438 203.194 150.383 203.125C150.322 203.028 150.27 202.925 150.228 202.818L150.004 202.311L149.896 202.062C149.829 201.936 149.811 201.79 149.844 201.651C149.865 201.577 149.901 201.508 149.951 201.449C150 201.39 150.063 201.343 150.133 201.31C150.234 201.273 150.34 201.252 150.447 201.246L152.213 201.047C152.755 200.946 153.309 200.925 153.857 200.987C153.348 201.199 152.81 201.335 152.262 201.389L150.51 201.691C150.287 201.723 150.322 201.725 150.295 201.771C150.264 201.754 150.369 201.947 150.441 202.115L150.672 202.619C150.701 202.681 150.772 202.843 150.766 202.821C150.771 202.828 150.778 202.833 150.786 202.836C150.793 202.839 150.802 202.841 150.81 202.84L152.936 202.505L153.875 202.371L154.301 202.314C154.453 202.299 154.435 202.291 154.481 202.235C154.547 202.179 154.364 201.898 154.307 201.729L154.11 201.251C154.049 200.998 153.857 201.023 153.86 200.984Z" fill="#263238"/>
<path d="M158.451 208.452C157.818 208.85 157.108 209.106 156.367 209.203C155.648 209.449 154.886 209.548 154.128 209.495C154.069 209.373 155.002 209.035 156.211 208.744C156.928 208.488 157.692 208.389 158.451 208.452Z" fill="#263238"/>
</svg>
