<svg width="25" height="25" viewBox="0 0 25 25" fill="none" xmlns="http://www.w3.org/2000/svg">
<path d="M12.6169 0.972656C7.90293 0.972656 3.92916 4.19183 3.15397 8.47939H2.46518C2.22235 8.47886 1.9818 8.5263 1.75736 8.61899C1.53291 8.71167 1.32898 8.84777 1.15728 9.01948C0.985572 9.19118 0.84947 9.39511 0.756787 9.61956C0.664104 9.84401 0.616665 10.0845 0.617192 10.3274V15.6187C0.616665 15.8616 0.664104 16.1021 0.756787 16.3265C0.84947 16.551 0.985572 16.7549 1.15728 16.9266C1.32898 17.0983 1.53291 17.2344 1.75736 17.3271C1.9818 17.4198 2.22235 17.4672 2.46518 17.4667H3.35117C3.59398 17.4672 3.8345 17.4198 4.05892 17.3271C4.28335 17.2344 4.48725 17.0983 4.65894 16.9266C4.83062 16.7549 4.9667 16.5509 5.05938 16.3265C5.15205 16.1021 5.19948 15.8615 5.19895 15.6187V10.0108C5.19895 6.23541 8.45033 3.15444 12.6177 3.15444C16.7853 3.15444 20.0366 6.23541 20.0366 10.011V15.9353C20.0366 19.7107 16.7853 22.7907 12.6177 22.7907C12.3283 22.7907 12.0508 22.9056 11.8462 23.1102C11.6416 23.3148 11.5267 23.5923 11.5267 23.8817C11.5267 24.171 11.6416 24.4485 11.8462 24.6531C12.0508 24.8577 12.3283 24.9726 12.6177 24.9726C17.3318 24.9726 21.3054 21.7541 22.0806 17.4667H22.7692C23.012 17.4672 23.2526 17.4198 23.477 17.3271C23.7015 17.2344 23.9054 17.0983 24.0771 16.9266C24.2488 16.7549 24.3849 16.551 24.4776 16.3265C24.5703 16.1021 24.6177 15.8616 24.6172 15.6187V10.3274C24.6177 10.0845 24.5703 9.84401 24.4776 9.61956C24.3849 9.39511 24.2488 9.19118 24.0771 9.01948C23.9054 8.84777 23.7015 8.71167 23.477 8.61899C23.2526 8.5263 23.012 8.47886 22.7692 8.47939H22.0806C21.3054 4.19183 17.3318 0.972656 12.6177 0.972656H12.6169ZM10.5525 16.8529C9.94711 16.8529 9.43852 17.3611 9.64351 17.9277C10.0833 19.1443 11.2483 20.0139 12.6165 20.0139C13.9849 20.0139 15.1501 19.1443 15.5899 17.9279C15.7947 17.3611 15.2863 16.8529 14.6809 16.8529H10.5525Z" fill="url(#paint0_linear_337_465)"/>
<defs>
<linearGradient id="paint0_linear_337_465" x1="12.6172" y1="24.9726" x2="12.6172" y2="0.972725" gradientUnits="userSpaceOnUse">
<stop stop-color="#00B59C"/>
<stop offset="1" stop-color="#9CFFAC"/>
</linearGradient>
</defs>
</svg>
