<svg width="13" height="15" viewBox="0 0 13 15" fill="none" xmlns="http://www.w3.org/2000/svg">
<path d="M7.656 14.2676C9.399 12.732 12.5 9.59459 12.5 6.71548C12.5 5.12245 11.8679 3.59468 10.7426 2.46824C9.61742 1.34181 8.0913 0.708984 6.5 0.708984C4.9087 0.708984 3.38258 1.34181 2.25736 2.46824C1.13214 3.59468 0.5 5.12245 0.5 6.71548C0.5 9.59459 3.6 12.732 5.344 14.2676C5.66211 14.5519 6.0736 14.709 6.5 14.709C6.9264 14.709 7.33789 14.5519 7.656 14.2676ZM4.5 6.71548C4.5 6.18447 4.71071 5.67521 5.08579 5.29973C5.46086 4.92425 5.96957 4.71331 6.5 4.71331C7.03043 4.71331 7.53914 4.92425 7.91421 5.29973C8.28929 5.67521 8.5 6.18447 8.5 6.71548C8.5 7.24648 8.28929 7.75574 7.91421 8.13122C7.53914 8.5067 7.03043 8.71764 6.5 8.71764C5.96957 8.71764 5.46086 8.5067 5.08579 8.13122C4.71071 7.75574 4.5 7.24648 4.5 6.71548Z" fill="url(#paint0_linear_181_819)"/>
<defs>
<linearGradient id="paint0_linear_181_819" x1="0.5" y1="7.70899" x2="12.5" y2="7.70899" gradientUnits="userSpaceOnUse">
<stop stop-color="#5AC4BF"/>
<stop offset="1" stop-color="#8DF2ED"/>
</linearGradient>
</defs>
</svg>
