<svg width="24" height="23" viewBox="0 0 24 23" fill="none" xmlns="http://www.w3.org/2000/svg">
<path fill-rule="evenodd" clip-rule="evenodd" d="M2.41411 17.9047H8.37034L11.001 22.4617C11.1874 22.7862 11.5096 22.9727 11.8847 22.9727C12.2598 22.9727 12.5821 22.7862 12.7709 22.4617L15.4015 17.9047H21.3577C22.619 17.9047 23.6524 16.8713 23.6524 15.6102V3.26722C23.6524 2.00599 22.619 0.972656 21.3577 0.972656H2.41411C1.15052 0.972656 0.117188 2.00607 0.117188 3.26722V15.6102C0.117188 16.8714 1.1506 17.9047 2.41411 17.9047Z" fill="#005FE4"/>
<path fill-rule="evenodd" clip-rule="evenodd" d="M11.8861 9.38165C13.4167 9.38165 14.664 8.13422 14.664 6.60602C14.664 5.07556 13.4166 3.82812 11.8861 3.82812C10.3579 3.82812 9.1105 5.07556 9.1105 6.60602C9.1105 8.13422 10.3579 9.38165 11.8861 9.38165ZM9.28774 10.6198H14.4869C15.7435 10.6198 16.7723 11.7867 16.7723 13.209V15.048H7V13.209C7 11.7867 8.02878 10.6198 9.28774 10.6198Z" fill="white"/>
</svg>
