<svg width="23" height="23" viewBox="0 0 23 23" fill="none" xmlns="http://www.w3.org/2000/svg">
<path d="M6.58327 14.3948L5.09175 12.9033H1.36295C1.16516 12.9033 0.975473 12.8247 0.835616 12.6848C0.695758 12.545 0.617188 12.3553 0.617188 12.1575V6.93717C0.617188 6.73938 0.695758 6.54969 0.835616 6.40983C0.975473 6.26998 1.16516 6.19141 1.36295 6.19141H5.83751C6.0353 6.19141 6.22499 6.26998 6.36485 6.40983C6.5047 6.54969 6.58327 6.73938 6.58327 6.93717V14.3948Z" fill="#FF8661"/>
<path d="M1.73438 7.68359H2.48014V8.42935H1.73438V7.68359ZM3.2259 7.68359H5.0903V8.42935H3.2259V7.68359ZM1.73438 9.17512H2.48014V9.92088H1.73438V9.17512ZM3.2259 9.17512H5.0903V9.92088H3.2259V9.17512ZM1.73438 10.6666H2.48014V11.4124H1.73438V10.6666ZM3.2259 10.6666H5.0903V11.4124H3.2259V10.6666Z" fill="#FFBAB3"/>
<path d="M16.2753 9.54891C16.1764 9.45001 16.1208 9.31588 16.1208 9.17603C16.1208 9.03617 16.1764 8.90204 16.2753 8.80315C16.4222 8.65624 16.5387 8.48185 16.6182 8.28991C16.6977 8.09797 16.7386 7.89226 16.7386 7.6845C16.7386 7.47675 16.6977 7.27104 16.6182 7.0791C16.5387 6.88716 16.4222 6.71277 16.2753 6.56586C16.1764 6.46697 16.1208 6.33284 16.1208 6.19298C16.1208 6.05313 16.1764 5.919 16.2753 5.8201C16.3935 5.70188 16.4873 5.56154 16.5512 5.40707C16.6152 5.25261 16.6481 5.08706 16.6481 4.91988C16.6481 3.87301 16.2323 2.86902 15.492 2.12877C14.7518 1.38852 13.7478 0.972656 12.7009 0.972656H10.1547C9.10784 0.972656 8.10385 1.38852 7.36361 2.12877C6.62336 2.86902 6.20749 3.87301 6.20749 4.91988C6.20749 5.08706 6.24042 5.25261 6.3044 5.40707C6.36838 5.56154 6.46215 5.70188 6.58037 5.8201C6.67926 5.919 6.73482 6.05313 6.73482 6.19298C6.73482 6.33284 6.67926 6.46697 6.58037 6.56586C6.43347 6.71277 6.31694 6.88716 6.23744 7.0791C6.15793 7.27104 6.11701 7.47675 6.11701 7.6845C6.11701 7.89226 6.15793 8.09797 6.23744 8.28991C6.31694 8.48185 6.43347 8.65624 6.58037 8.80315C6.67926 8.90204 6.73482 9.03617 6.73482 9.17603C6.73482 9.31588 6.67926 9.45001 6.58037 9.54891C6.25463 9.87465 6.03963 10.2946 5.96584 10.7494C5.89205 11.2041 5.96321 11.6705 6.16923 12.0825L7.32595 14.3964H15.5293L16.6864 12.0825C16.8924 11.6705 16.9636 11.2041 16.8898 10.7494C16.816 10.2946 16.601 9.87465 16.2753 9.54891Z" fill="#353535"/>
<path d="M3.59379 17.1495C3.71092 16.5346 3.98101 15.959 4.37914 15.4758C4.77727 14.9927 5.29064 14.6176 5.8719 14.3851L9.5691 12.9062H13.2979L16.9951 14.3851C17.5764 14.6176 18.0897 14.9927 18.4879 15.4759C18.886 15.959 19.1561 16.5346 19.2732 17.1495L20.3826 22.974H2.48438L3.59379 17.1495Z" fill="#5549C1"/>
<path d="M7.46254 18.8325C7.41942 18.8037 7.37073 18.7841 7.31961 18.7751C7.26848 18.7662 7.21605 18.768 7.16567 18.7805C7.11528 18.793 7.06807 18.8158 7.02705 18.8476C6.98603 18.8794 6.9521 18.9195 6.92746 18.9651C6.65947 19.4693 6.51814 20.0311 6.51566 20.602C6.51317 21.173 6.64961 21.7359 6.9132 22.2424C6.94218 22.2968 6.95754 22.3574 6.95794 22.419V22.5978C6.95794 22.6967 6.99723 22.7915 7.06716 22.8615C7.13709 22.9314 7.23193 22.9707 7.33082 22.9707C7.42972 22.9707 7.52456 22.9314 7.59449 22.8615C7.66442 22.7915 7.7037 22.6967 7.7037 22.5978V22.2249C7.70369 22.1573 7.68532 22.091 7.65057 22.0331C7.40736 21.6248 7.27338 21.1608 7.26156 20.6858C7.24974 20.2107 7.36047 19.7407 7.58308 19.3208C7.62723 19.239 7.63935 19.1437 7.61706 19.0534C7.59478 18.9632 7.5397 18.8844 7.46254 18.8325ZM15.4025 18.8325C15.4456 18.8037 15.4943 18.7841 15.5454 18.7751C15.5965 18.7662 15.649 18.768 15.6994 18.7805C15.7497 18.793 15.7969 18.8158 15.838 18.8476C15.879 18.8794 15.9129 18.9195 15.9376 18.9651C16.2055 19.4693 16.3469 20.0311 16.3494 20.602C16.3518 21.173 16.2154 21.7359 15.9518 22.2424C15.9228 22.2968 15.9075 22.3574 15.9071 22.419V22.5978C15.9071 22.6967 15.8678 22.7915 15.7979 22.8615C15.7279 22.9314 15.6331 22.9707 15.5342 22.9707C15.4353 22.9707 15.3405 22.9314 15.2705 22.8615C15.2006 22.7915 15.1613 22.6967 15.1613 22.5978V22.2249C15.1613 22.1573 15.1797 22.091 15.2144 22.0331C15.4577 21.6248 15.5916 21.1608 15.6035 20.6858C15.6153 20.2107 15.5045 19.7407 15.2819 19.3208C15.2378 19.239 15.2257 19.1437 15.248 19.0534C15.2702 18.9632 15.3253 18.8844 15.4025 18.8325Z" fill="#6A59D1"/>
<path d="M9.19531 15.1421L9.76503 15.4269C10.2661 15.6775 10.6875 16.0626 10.9821 16.5392C11.2766 17.0157 11.4326 17.5649 11.4326 18.1251C11.4326 17.5649 11.5886 17.0157 11.8831 16.5392C12.1777 16.0626 12.5991 15.6775 13.1002 15.4269L13.6699 15.1421L11.4326 14.0234L9.19531 15.1421Z" fill="#FFA799"/>
<path d="M14.7856 17.0079V13.5029L13.2941 12.9062L11.4297 14.0249L14.7856 17.0079Z" fill="#F47A5D"/>
<path d="M14.7891 11.4141H22.2467V22.9734H14.7891V11.4141Z" fill="#EABFAC"/>
<path d="M8.07812 17.0079L11.434 14.0249L9.56965 12.9062L8.07812 13.5029V17.0079Z" fill="#F47A5D"/>
<path d="M9.5625 10.293V12.9031L11.4269 14.0218L13.2913 12.9031V10.293H9.5625Z" fill="#EFC8B4"/>
<path d="M13.6517 5.29507C13.3424 5.2332 13.0641 5.06608 12.8641 4.82213C12.6641 4.57818 12.5548 4.27248 12.5548 3.95703L11.8455 4.90275C11.7184 5.07222 11.5536 5.20976 11.3642 5.3045C11.1747 5.39923 10.9658 5.44855 10.7539 5.44855H8.45313V7.85643C8.45312 8.48885 8.61398 9.11089 8.92056 9.66404C9.22714 10.2172 9.66937 10.6833 10.2057 11.0185L11.0409 11.5405C11.1594 11.6146 11.2964 11.6538 11.4362 11.6538C11.5759 11.6538 11.7129 11.6146 11.8314 11.5405L12.6667 11.0185C13.203 10.6833 13.6452 10.2172 13.9518 9.66404C14.2584 9.11089 14.4192 8.48885 14.4192 7.85643V5.44855L13.6517 5.29507Z" fill="#FCDCC8"/>
<path d="M9.9375 6.56641H10.6833V7.31217H9.9375V6.56641ZM12.1748 6.56641H12.9205V7.31217H12.1748V6.56641ZM10.7489 8.2268L11.495 7.10825L12.1155 7.52215L11.3694 8.64069L10.7489 8.2268ZM11.429 10.0973C11.1123 10.0976 10.7999 10.0242 10.5165 9.88294L10.85 9.21596C11.0299 9.30537 11.2281 9.35189 11.429 9.35189C11.6299 9.35189 11.8281 9.30537 12.008 9.21596L12.3416 9.88294C12.0581 10.0242 11.7457 10.0976 11.429 10.0973Z" fill="#EABFAC"/>
<path d="M16.0156 13.759L17.1341 12.6406L17.6614 13.1679L16.5429 14.2863L16.0156 13.759ZM18.1469 12.9037H20.7571V13.6495H18.1469V12.9037Z" fill="#FCDFD0"/>
<path d="M12.1875 19.9081L12.5602 18.043L13.2918 18.1891L12.9191 20.0543L12.1875 19.9081Z" fill="#F47A5D"/>
<path d="M16.0156 15.6225L17.1341 14.5041L17.6614 15.0313L16.5429 16.1498L16.0156 15.6225ZM18.1471 14.3945H20.7573V15.1403H18.1471V14.3945Z" fill="#FCDFD0"/>
<path d="M19.6279 11.7863H17.3906V11.0405C17.3906 10.7438 17.5085 10.4593 17.7183 10.2495C17.9281 10.0397 18.2126 9.92188 18.5093 9.92188C18.8059 9.92188 19.0905 10.0397 19.3003 10.2495C19.5101 10.4593 19.6279 10.7438 19.6279 11.0405V11.7863Z" fill="#575757"/>
<path d="M13.8192 19.2422C13.571 19.2422 13.3329 19.3408 13.1573 19.5163L12.6857 19.9879L12.2142 19.5163C12.1272 19.4294 12.024 19.3605 11.9105 19.3134C11.7969 19.2664 11.6752 19.2422 11.5522 19.2422C11.3435 19.2422 11.1407 19.312 10.9761 19.4405C10.8116 19.5689 10.6947 19.7487 10.6441 19.9513C10.5821 20.1993 10.5695 20.4572 10.6071 20.7101C10.6448 20.963 10.7319 21.206 10.8634 21.4253L11.3455 22.2288C11.4131 22.3415 11.5087 22.4347 11.623 22.4994C11.7373 22.5641 11.8665 22.5981 11.9978 22.5981C12.0977 22.5981 12.1966 22.5784 12.2889 22.5402C12.3812 22.502 12.4651 22.446 12.5357 22.3753L12.6858 22.2252L12.8359 22.3753C12.9065 22.446 12.9904 22.502 13.0826 22.5402C13.1749 22.5784 13.2739 22.5981 13.3737 22.5981C13.5051 22.5981 13.6342 22.5641 13.7485 22.4994C13.8628 22.4347 13.9584 22.3415 14.026 22.2288L14.5081 21.4253C14.7738 20.9825 14.8527 20.4522 14.7275 19.9513C14.6769 19.7487 14.56 19.5689 14.3954 19.4404C14.2308 19.3119 14.028 19.2422 13.8192 19.2422Z" fill="#FF9A83"/>
<path d="M19.255 21.1094H17.3906V21.8551H18.5093V22.9738H19.255V21.1094Z" fill="#F47A5D"/>
<path d="M22.0733 18.125C21.2292 18.125 20.4197 18.4603 19.8228 19.0572C19.2259 19.6541 18.8906 20.4636 18.8906 21.3077V21.4809H19.0638C19.9079 21.4809 20.7175 21.1456 21.3143 20.5487C21.9112 19.9518 22.2465 19.1423 22.2465 18.2982V18.125H22.0733Z" fill="#FF8661"/>
<path d="M20.3828 18.6097C20.4096 18.9655 20.5631 19.2999 20.8154 19.5522C21.0677 19.8045 21.4021 19.958 21.7579 19.9847C22.0743 19.4791 22.2423 18.8947 22.2426 18.2982V18.125H22.0694C21.4729 18.1253 20.8885 18.2932 20.3828 18.6097Z" fill="#F47A5D"/>
<path d="M15.9143 21.4748L17.4059 19.9832L18.2293 19.7087C18.4234 19.644 18.5999 19.535 18.7446 19.3903L19.8296 18.3052C19.952 18.1828 20.0492 18.0375 20.1154 17.8775C20.1817 17.7176 20.2158 17.5461 20.2158 17.373C20.2158 17.1999 20.1817 17.0285 20.1154 16.8685C20.0492 16.7086 19.952 16.5632 19.8296 16.4408C19.7072 16.3184 19.5619 16.2213 19.4019 16.155C19.242 16.0888 19.0705 16.0547 18.8974 16.0547C18.7243 16.0547 18.5529 16.0888 18.3929 16.155C18.233 16.2213 18.0876 16.3184 17.9652 16.4408L16.8801 17.5259C16.7354 17.6706 16.6264 17.847 16.5617 18.0412L16.2872 18.8646L14.7957 20.3561H14.3173C14.1461 20.3561 13.982 20.4241 13.8609 20.5451C13.7934 20.6126 13.7417 20.6943 13.7096 20.7842C13.6774 20.8741 13.6656 20.9701 13.675 21.0651C13.6844 21.1601 13.7148 21.2519 13.764 21.3338C13.8131 21.4156 13.8798 21.4856 13.9593 21.5386L14.4229 21.8476L14.7319 22.3112C14.7849 22.3906 14.8548 22.4573 14.9367 22.5065C15.0185 22.5556 15.1103 22.586 15.2053 22.5954C15.3004 22.6048 15.3963 22.593 15.4862 22.5609C15.5761 22.5287 15.6578 22.477 15.7253 22.4095C15.8463 22.2885 15.9143 22.1243 15.9143 21.9532V21.4748Z" fill="#FF8661"/>
<path d="M17.4059 19.9819L16.2873 18.8633L14.7957 20.3548H14.3173C14.1788 20.3548 14.0439 20.3994 13.9327 20.4819C13.8214 20.5645 13.7397 20.6806 13.6996 20.8132C13.6594 20.9458 13.663 21.0878 13.7098 21.2182C13.7565 21.3486 13.844 21.4605 13.9593 21.5373L14.4229 21.8463L14.7319 22.3099C14.8087 22.4252 14.9206 22.5126 15.051 22.5594C15.1814 22.6062 15.3234 22.6098 15.456 22.5696C15.5885 22.5295 15.7047 22.4478 15.7872 22.3365C15.8698 22.2253 15.9144 22.0904 15.9144 21.9519V21.4734L17.4059 19.9819Z" fill="#F47A5D"/>
</svg>
