<svg width="21" height="23" viewBox="0 0 21 23" fill="none" xmlns="http://www.w3.org/2000/svg">
<path d="M13.5891 14.1317C13.1251 14.0385 12.7913 13.5003 12.7913 13.027V10.918H8.39581V13.027C8.39581 13.5002 8.06199 14.0384 7.59802 14.1317L7.0625 14.2829V17.8359H14.1246V14.2829L13.5891 14.1317Z" fill="#FFC084"/>
<path d="M11.25 10.9181V14.0795C11.25 14.5257 11.5612 15.0309 11.9839 15.1653C12.0096 15.1734 12.0212 15.1789 12.0478 15.1842L14.128 15.8336V14.2829L13.5925 14.1317C13.1285 14.0385 12.7947 13.5003 12.7947 13.027V10.918H11.25V10.9181Z" fill="#F7B076"/>
<path d="M20.5677 19.2917C20.5677 17.4216 19.3361 15.775 17.5422 15.2468L13.496 13.9852C13.4343 13.966 13.3686 13.9636 13.3057 13.9782C13.2427 13.9928 13.1848 14.0239 13.1379 14.0684L10.5925 16.4806L8.04705 14.0684C8.00015 14.024 7.94225 13.9928 7.87931 13.9782C7.81638 13.9636 7.75068 13.966 7.689 13.9853L3.64282 15.2469C1.84892 15.775 0.617188 17.4217 0.617188 19.2917V22.1381C0.617188 22.5989 0.990756 22.9725 1.45159 22.9725H19.7334C20.1943 22.9725 20.5678 22.5989 20.5678 22.1381V19.2917H20.5677Z" fill="#F9C861"/>
<path d="M20.2953 17.7868C20.1358 17.37 19.9113 16.9812 19.6302 16.6347C19.384 16.3311 19.0967 16.0632 18.7767 15.8387C18.4973 15.6428 18.1951 15.4816 17.8767 15.3587C17.7685 15.3169 17.6585 15.2795 17.5471 15.2468L13.501 13.9852C13.4393 13.966 13.3736 13.9636 13.3106 13.9782C13.2477 13.9928 13.1898 14.0239 13.1429 14.0684L11.9844 15.1663L15.5851 16.2889C17.379 16.8171 18.6107 17.8631 18.6107 19.7331V22.9725H19.7384C20.1992 22.9725 20.5728 22.5989 20.5728 22.1381V19.2917C20.573 18.7773 20.479 18.2673 20.2953 17.7868Z" fill="#F3A656"/>
<path d="M15.0041 6.31494H14.7227V5.19436C14.7227 4.07881 14.2647 2.99789 13.4194 2.27001C12.7566 1.69934 11.825 1.20125 10.5944 1.1875C9.36375 1.20125 8.43215 1.69934 7.7694 2.27001C6.92408 2.99789 6.46612 4.07881 6.46612 5.19436V6.31494H6.18468C5.77205 6.31494 5.4375 6.64945 5.4375 7.06212V7.89008C5.4375 8.30271 5.77201 8.63726 6.18468 8.63726H6.46728C6.49057 9.72161 6.94625 10.7654 7.76945 11.4742C8.43219 12.0448 9.36379 12.5429 10.5944 12.5567C11.825 12.5429 12.7566 12.0448 13.4194 11.4742C14.2426 10.7653 14.6983 9.72161 14.7215 8.63726H15.0041C15.4168 8.63726 15.7513 8.30275 15.7513 7.89008V7.06212C15.7513 6.64945 15.4168 6.31494 15.0041 6.31494Z" fill="#FFC084"/>
<path d="M15.0028 6.31494H14.7214V5.19436C14.7214 4.07881 14.2634 2.99789 13.4181 2.27001C12.7553 1.69934 11.8237 1.20125 10.5931 1.1875C10.3364 1.18999 10.0805 1.21484 9.82812 1.26175C10.6885 1.42262 11.3704 1.82417 11.8881 2.27001C12.7334 2.99789 13.1914 4.07881 13.1914 5.19436V5.98442L13.1903 8.63726C13.167 9.72161 12.7114 10.7654 11.8882 11.4742C11.3704 11.92 10.6885 12.3216 9.82817 12.4824C10.0805 12.5293 10.3365 12.5542 10.5931 12.5566C11.8238 12.5429 12.7554 12.0448 13.4181 11.4741C14.2413 10.7653 14.697 9.72157 14.7203 8.63722H15.0029C15.4155 8.63722 15.7501 8.30271 15.7501 7.89004V7.06207C15.75 6.64945 15.4155 6.31494 15.0028 6.31494Z" fill="#F7B076"/>
<path d="M13.7835 1.64366L11.1953 1.0501C10.7367 0.944933 10.2601 0.946903 9.80239 1.05585L7.37445 1.63378C6.45875 1.85176 5.8125 2.66988 5.8125 3.61119V6.35345H15.3617V3.6249C15.3617 2.67731 14.707 1.85546 13.7835 1.64366Z" fill="#FF4F6D"/>
<path d="M13.7933 1.64366L11.2051 1.0501C10.7465 0.944933 10.2699 0.946903 9.81222 1.05585L9.75 1.07068L12.2485 1.64366C13.1721 1.85546 13.8269 2.67731 13.8269 3.6249V6.35349H15.3716V3.6249C15.3716 2.67731 14.7169 1.85546 13.7933 1.64366Z" fill="#F93A5A"/>
<path d="M14.2253 7.50626C11.8162 6.76621 9.35805 6.76626 6.94897 7.50626C6.53128 7.63456 6.09076 7.38818 5.97728 6.96623C5.92238 6.76204 5.86745 6.55785 5.8125 6.35367C8.96068 5.17384 12.2134 5.17371 15.3617 6.35367C15.3068 6.55786 15.2519 6.76205 15.197 6.96623C15.0835 7.38814 14.643 7.63456 14.2253 7.50626Z" fill="#2C5871"/>
<path d="M17.7371 19.1211C17.6935 19.1211 17.6502 19.1297 17.6099 19.1464C17.5695 19.1631 17.5328 19.1876 17.502 19.2185C17.4711 19.2494 17.4466 19.2861 17.4299 19.3264C17.4132 19.3668 17.4046 19.41 17.4046 19.4537V22.9709H18.0698V19.4537C18.0698 19.3655 18.0347 19.2809 17.9723 19.2185C17.91 19.1561 17.8254 19.1211 17.7371 19.1211ZM3.45758 19.1211C3.4139 19.1211 3.37065 19.1297 3.3303 19.1464C3.28994 19.1631 3.25328 19.1876 3.22239 19.2185C3.19151 19.2494 3.16701 19.2861 3.1503 19.3264C3.13359 19.3668 3.12499 19.41 3.125 19.4537V22.9709H3.7902V19.4537C3.7902 19.41 3.7816 19.3668 3.76489 19.3264C3.74817 19.2861 3.72367 19.2494 3.69279 19.2185C3.6619 19.1876 3.62523 19.1631 3.58487 19.1464C3.54451 19.1297 3.50126 19.1211 3.45758 19.1211Z" fill="#ED864A"/>
<path d="M10.5667 19.0647C10.5022 19.0647 10.4392 19.046 10.3851 19.0108C10.3311 18.9756 10.2885 18.9255 10.2625 18.8665L9.26838 16.6154C9.23443 16.5349 9.23345 16.4444 9.26565 16.3633C9.29784 16.2821 9.36064 16.2169 9.44049 16.1817C9.52034 16.1464 9.61085 16.1439 9.6925 16.1748C9.77415 16.2057 9.84039 16.2674 9.87694 16.3467L10.5667 17.9088L11.2566 16.3467C11.2742 16.3067 11.2996 16.2706 11.3311 16.2405C11.3627 16.2103 11.4 16.1867 11.4407 16.1709C11.4814 16.1551 11.5248 16.1475 11.5685 16.1485C11.6122 16.1495 11.6552 16.1591 11.6952 16.1768C11.7351 16.1944 11.7712 16.2197 11.8014 16.2513C11.8315 16.2829 11.8552 16.3201 11.871 16.3609C11.8868 16.4016 11.8943 16.445 11.8933 16.4887C11.8923 16.5324 11.8827 16.5754 11.8651 16.6154L10.8709 18.8665C10.8449 18.9255 10.8023 18.9756 10.7483 19.0108C10.6943 19.046 10.6312 19.0647 10.5667 19.0647Z" fill="#2C5871"/>
<path d="M8.04414 14.0683L10.5896 16.4806L9.01974 17.0154C8.83167 17.0794 8.62882 17.0862 8.43689 17.0349C8.24496 16.9835 8.07261 16.8763 7.94166 16.7269L6 14.511L7.68609 13.9852C7.74777 13.966 7.81346 13.9635 7.8764 13.9782C7.93934 13.9928 7.99724 14.0239 8.04414 14.0683ZM13.135 14.0683L10.5896 16.4806L12.1594 17.0154C12.3474 17.0794 12.5503 17.0862 12.7422 17.0349C12.9342 16.9835 13.1065 16.8763 13.2375 16.7269L15.1791 14.511L13.493 13.9852C13.4313 13.966 13.3657 13.9635 13.3027 13.9782C13.2398 13.9928 13.1819 14.0239 13.135 14.0683Z" fill="#ED864A"/>
<path d="M11.6456 19.7017C11.6456 19.1247 11.1833 18.6556 10.6089 18.6447C10.0163 18.6335 9.53125 19.1328 9.53125 19.7255V21.7565C9.53125 21.7968 9.54724 21.8354 9.57571 21.8638C9.60418 21.8923 9.6428 21.9083 9.68306 21.9083H10.5163C10.5566 21.9083 10.5952 21.8923 10.6237 21.8638C10.6522 21.8354 10.6682 21.7968 10.6682 21.7565V20.7555C11.2147 20.7147 11.6456 20.2587 11.6456 19.7017Z" fill="#FF4F6D"/>
</svg>
