<svg width="23" height="23" viewBox="0 0 23 23" fill="none" xmlns="http://www.w3.org/2000/svg">
<path d="M3.45385 21.8556H3.45409H6.85877C7.02468 21.8556 7.1838 21.7897 7.30112 21.6724C7.41844 21.555 7.48435 21.3959 7.48435 21.23C7.48435 21.0641 7.41844 20.905 7.30112 20.7876C7.1838 20.6703 7.02468 20.6044 6.85877 20.6044H3.45409C2.86063 20.6044 2.37734 20.1211 2.37734 19.5277V16.123C2.37734 15.9571 2.31143 15.7979 2.19411 15.6806C2.07679 15.5633 1.91767 15.4974 1.75176 15.4974C1.58584 15.4974 1.42672 15.5633 1.3094 15.6806C1.19208 15.7979 1.12617 15.9571 1.12617 16.123L1.12617 19.5277L1.12617 19.5279C1.12691 20.145 1.37239 20.7366 1.80875 21.173C2.24512 21.6094 2.83674 21.8548 3.45385 21.8556ZM20.8863 7.20249C21.0036 7.31981 21.1627 7.38572 21.3286 7.38572C21.4945 7.38572 21.6537 7.31981 21.771 7.20249C21.8883 7.08517 21.9542 6.92605 21.9542 6.76013V3.35546C21.9542 2.07119 20.9096 1.02754 19.6263 1.02754H16.2216C16.0557 1.02754 15.8966 1.09345 15.7793 1.21077C15.6619 1.32809 15.596 1.48721 15.596 1.65312C15.596 1.81904 15.6619 1.97816 15.7793 2.09548C15.8966 2.2128 16.0557 2.27871 16.2216 2.27871H19.6263C20.2198 2.27871 20.703 2.762 20.703 3.35546V6.76013C20.703 6.92605 20.769 7.08517 20.8863 7.20249ZM16.2216 21.8556H19.6263C20.9096 21.8556 21.9542 20.8119 21.9542 19.5277V16.123C21.9542 15.9571 21.8883 15.798 21.771 15.6806C21.6537 15.5633 21.4945 15.4974 21.3286 15.4974C21.1627 15.4974 21.0036 15.5633 20.8863 15.6806C20.769 15.7979 20.703 15.9571 20.703 16.123V19.5277C20.703 20.1211 20.2198 20.6044 19.6263 20.6044H16.2216C16.0557 20.6044 15.8966 20.6703 15.7793 20.7876C15.6619 20.905 15.596 21.0641 15.596 21.23C15.596 21.3959 15.6619 21.555 15.7793 21.6723C15.8966 21.7897 16.0557 21.8556 16.2216 21.8556ZM1.3094 7.20249C1.42672 7.31981 1.58584 7.38572 1.75176 7.38572C1.91767 7.38572 2.07679 7.31981 2.19411 7.20249C2.31143 7.08517 2.37734 6.92605 2.37734 6.76013V3.35546C2.37734 2.762 2.86063 2.27871 3.45409 2.27871H6.85877C7.02468 2.27871 7.1838 2.2128 7.30112 2.09548C7.41844 1.97816 7.48435 1.81904 7.48435 1.65312C7.48435 1.48721 7.41844 1.32809 7.30112 1.21077C7.1838 1.09345 7.02468 1.02754 6.85877 1.02754H3.45409C2.17078 1.02754 1.12617 2.07119 1.12617 3.35546V6.76013C1.12617 6.92605 1.19208 7.08517 1.3094 7.20249ZM6.85877 17.5997H16.2216C17.036 17.5997 17.6984 16.9374 17.6984 16.123V13.5695C17.6984 13.4036 17.6325 13.2444 17.5151 13.1271C17.3978 13.0098 17.2387 12.9439 17.0728 12.9439C16.9069 12.9439 16.7478 13.0098 16.6304 13.1271C16.5131 13.2444 16.4472 13.4036 16.4472 13.5695V16.123C16.4472 16.1828 16.4234 16.2402 16.3811 16.2825C16.3388 16.3248 16.2814 16.3486 16.2216 16.3486H6.85877C6.79894 16.3486 6.74156 16.3248 6.69925 16.2825C6.65695 16.2402 6.63318 16.1828 6.63318 16.123V13.5695C6.63318 13.4036 6.56727 13.2444 6.44995 13.1271C6.33263 13.0098 6.17351 12.9439 6.0076 12.9439C5.84168 12.9439 5.68256 13.0098 5.56524 13.1271C5.44792 13.2444 5.38201 13.4036 5.38201 13.5695V16.123C5.38201 16.9374 6.04439 17.5997 6.85877 17.5997ZM16.6304 10.6072C16.7478 10.7245 16.9069 10.7904 17.0728 10.7904C17.2387 10.7904 17.3978 10.7245 17.5151 10.6072C17.6325 10.4898 17.6984 10.3307 17.6984 10.1648V6.76013C17.6984 5.94576 17.036 5.28338 16.2216 5.28338H6.85877C6.04439 5.28338 5.38201 5.94576 5.38201 6.76013V10.1648C5.38201 10.3307 5.44792 10.4898 5.56524 10.6072C5.68256 10.7245 5.84168 10.7904 6.0076 10.7904C6.17351 10.7904 6.33263 10.7245 6.44995 10.6072C6.56727 10.4898 6.63318 10.3307 6.63318 10.1648V6.76013C6.63318 6.7003 6.65695 6.64293 6.69925 6.60062C6.74156 6.55832 6.79894 6.53455 6.85877 6.53455H16.2216C16.2814 6.53455 16.3388 6.55832 16.3811 6.60062C16.4234 6.64293 16.4472 6.7003 16.4472 6.76013V10.1648C16.4472 10.3307 16.5131 10.4898 16.6304 10.6072Z" fill="black" stroke="black" stroke-width="0.4"/>
<path d="M4.30449 14.1947H18.7744C18.9403 14.1947 19.0994 14.1288 19.2167 14.0115C19.334 13.8942 19.3999 13.7351 19.3999 13.5691C19.3999 13.4032 19.334 13.2441 19.2167 13.1268C19.0994 13.0095 18.9403 12.9436 18.7744 12.9436H4.30449C4.13858 12.9436 3.97946 13.0095 3.86214 13.1268C3.74482 13.2441 3.67891 13.4032 3.67891 13.5691C3.67891 13.7351 3.74482 13.8942 3.86214 14.0115C3.97946 14.1288 4.13858 14.1947 4.30449 14.1947Z" fill="black" stroke="black" stroke-width="0.4"/>
</svg>
