<svg width="14" height="14" viewBox="0 0 14 14" fill="none" xmlns="http://www.w3.org/2000/svg">
<path d="M13.7393 13.0163L10.7746 10.0521C11.6863 9.01849 12.1884 7.68709 12.1862 6.30887C12.1862 4.78843 11.5942 3.35906 10.5193 2.28409C9.44429 1.20912 8.01491 0.617188 6.49484 0.617188C4.97477 0.617188 3.54501 1.20912 2.46965 2.28371C1.39429 3.3583 0.802734 4.78805 0.802734 6.30849C0.802734 7.82893 1.39467 9.25792 2.46965 10.3329C3.54463 11.4079 4.97401 12.0002 6.49446 12.0002C7.88704 12.0002 9.19993 11.4982 10.2377 10.5883L13.202 13.5525C13.2371 13.5879 13.2789 13.6159 13.325 13.6351C13.371 13.6542 13.4204 13.6641 13.4702 13.6641C13.5201 13.6641 13.5695 13.6542 13.6155 13.6351C13.6616 13.6159 13.7034 13.5879 13.7385 13.5525C13.8096 13.4813 13.8496 13.3848 13.8496 13.2842C13.8496 13.1836 13.8096 13.0871 13.7385 13.016L13.7393 13.0163ZM3.00619 9.79674C2.07465 8.86482 1.56163 7.62631 1.56163 6.30887C1.56163 4.99144 2.07465 3.75255 3.00619 2.82063C3.93812 1.88909 5.17664 1.37608 6.49446 1.37608C7.81228 1.37608 9.05081 1.88909 9.98273 2.82063C10.9143 3.75255 11.4277 4.99106 11.4277 6.30887C11.4277 7.62669 10.9143 8.86482 9.98273 9.79674C9.05081 10.7283 7.81229 11.2417 6.49484 11.2417C5.1774 11.2417 3.93774 10.7283 3.00619 9.79674Z" fill="#787878"/>
</svg>
