<svg width="12" height="7" viewBox="0 0 12 7" fill="none" xmlns="http://www.w3.org/2000/svg">
<path d="M1.2269 0.739125C1.31804 0.654655 1.4263 0.587641 1.54548 0.541916C1.66465 0.496192 1.79241 0.472656 1.92143 0.472656C2.05046 0.472656 2.17821 0.496192 2.29739 0.541916C2.41657 0.587641 2.52483 0.654655 2.61597 0.739125L6.43836 4.27449L10.2608 0.739125C10.445 0.568755 10.6948 0.473042 10.9553 0.473043C11.2158 0.473043 11.4656 0.568755 11.6498 0.739125C11.834 0.909495 11.9375 1.14057 11.9375 1.38151C11.9375 1.62244 11.834 1.85352 11.6498 2.02389L7.12796 6.20619C7.03682 6.29066 6.92857 6.35767 6.80939 6.4034C6.69021 6.44912 6.56246 6.47266 6.43343 6.47266C6.30441 6.47266 6.17665 6.44912 6.05747 6.4034C5.9383 6.35767 5.83004 6.29066 5.7389 6.20619L1.21705 2.02388C0.842691 1.67764 0.842691 1.09448 1.2269 0.739125Z" fill="white"/>
</svg>
