<svg width="17" height="17" viewBox="0 0 17 17" fill="none" xmlns="http://www.w3.org/2000/svg">
<path d="M11.4702 10.3846L9.23938 8.71147V5.30328C9.23938 4.96059 8.96237 4.68359 8.61969 4.68359C8.277 4.68359 8 4.96059 8 5.30328V9.02134C8 9.21653 8.09172 9.40059 8.24787 9.51709L10.7266 11.3761C10.8335 11.4567 10.9638 11.5002 11.0978 11.5001C11.2868 11.5001 11.4727 11.4152 11.5941 11.2516C11.7999 10.9783 11.7441 10.5897 11.4702 10.3846Z" fill="#49AAA5"/>
<path d="M8.61719 0.972656C4.20572 0.972656 0.617188 4.56119 0.617188 8.97266C0.617188 13.3841 4.20572 16.9727 8.61719 16.9727C13.0287 16.9727 16.6172 13.3841 16.6172 8.97266C16.6172 4.56119 13.0287 0.972656 8.61719 0.972656ZM8.61719 15.7333C4.88984 15.7333 1.85653 12.7 1.85653 8.97266C1.85653 5.24531 4.88984 2.212 8.61719 2.212C12.3452 2.212 15.3778 5.24531 15.3778 8.97266C15.3778 12.7 12.3445 15.7333 8.61719 15.7333Z" fill="#49AAA5"/>
</svg>
