<svg width="21" height="22" viewBox="0 0 21 22" fill="none" xmlns="http://www.w3.org/2000/svg">
<path d="M16.6133 14.5898C15.3975 14.5898 14.3262 15.1879 13.6533 16.0974L7.83553 13.1184C7.93212 12.7891 8 12.4479 8 12.0879C8 11.5996 7.89988 11.1353 7.72692 10.7083L13.8155 7.04445C14.4931 7.83966 15.489 8.35547 16.6133 8.35547C18.6488 8.35547 20.3047 6.69963 20.3047 4.66406C20.3047 2.6285 18.6488 0.972656 16.6133 0.972656C14.5777 0.972656 12.9219 2.6285 12.9219 4.66406C12.9219 5.13316 13.0185 5.57814 13.1787 5.99125L7.07202 9.66584C6.39502 8.89425 5.41343 8.39648 4.30859 8.39648C2.27303 8.39648 0.617188 10.0523 0.617188 12.0879C0.617188 14.1235 2.27303 15.7793 4.30859 15.7793C5.54439 15.7793 6.63381 15.1637 7.30417 14.2287L13.1028 17.198C12.996 17.5428 12.9219 17.9019 12.9219 18.2812C12.9219 20.3168 14.5777 21.9727 16.6133 21.9727C18.6488 21.9727 20.3047 20.3168 20.3047 18.2812C20.3047 16.2457 18.6488 14.5898 16.6133 14.5898Z" fill="white"/>
</svg>
