<svg width="24" height="24" viewBox="0 0 24 24" fill="none" xmlns="http://www.w3.org/2000/svg">
<path d="M23.1251 3.91621L20.4858 2.66166C20.4571 2.64809 20.4258 2.6426 20.3948 2.6457C20.3637 2.6488 20.3339 2.66038 20.3078 2.67941C20.2818 2.69845 20.2604 2.72434 20.2456 2.75477C20.2308 2.78521 20.223 2.81924 20.223 2.85382V5.36291C20.223 5.39749 20.2308 5.43152 20.2456 5.46195C20.2604 5.49239 20.2818 5.51828 20.3078 5.53731C20.3339 5.55635 20.3637 5.56793 20.3948 5.57103C20.4258 5.57413 20.4571 5.56864 20.4858 5.55506L23.1251 4.30052C23.1591 4.28446 23.188 4.25769 23.2084 4.22352C23.2288 4.18936 23.2396 4.14931 23.2396 4.10836C23.2396 4.06741 23.2288 4.02737 23.2084 3.9932C23.188 3.95904 23.1591 3.93226 23.1251 3.91621ZM6.53496 3.91621L3.89562 2.66166C3.83736 2.63364 3.77044 2.64034 3.71765 2.67923C3.66486 2.71812 3.63281 2.78377 3.63281 2.85382V5.36291C3.63286 5.39749 3.64064 5.43152 3.65544 5.46195C3.67025 5.49239 3.69162 5.51828 3.71766 5.53731C3.74369 5.55635 3.77357 5.56793 3.80462 5.57103C3.83568 5.57413 3.86694 5.56864 3.89562 5.55506L6.53496 4.30052C6.56893 4.28446 6.59789 4.25769 6.61824 4.22352C6.6386 4.18936 6.64945 4.14931 6.64945 4.10836C6.64945 4.06741 6.6386 4.02737 6.61824 3.9932C6.59789 3.95904 6.56893 3.93226 6.53496 3.91621Z" fill="#EF5350"/>
<path d="M12.1172 15.1914C5.66852 15.1914 0.617188 17.1203 0.617188 19.5823C0.617188 22.0444 5.66852 23.9732 12.1172 23.9732C18.5659 23.9732 23.6172 22.0444 23.6172 19.5823C23.6172 17.1203 18.5659 15.1914 12.1172 15.1914Z" fill="#43A047"/>
<path d="M12.1172 6.82812C5.66852 6.82812 0.617188 8.75699 0.617188 11.219C0.617188 13.6811 5.66852 15.6099 12.1172 15.6099C18.5659 15.6099 23.6172 13.6811 23.6172 11.219C23.6172 8.75699 18.5659 6.82812 12.1172 6.82812Z" fill="#FFCA28"/>
<path d="M23.4426 11.0085C23.3951 11.0043 23.348 11.0204 23.3108 11.0534C23.2736 11.0863 23.2491 11.1337 23.2422 11.186L23.187 11.5937C22.6176 13.6116 17.7631 15.1896 12.1172 15.1896C6.47125 15.1896 1.61656 13.6112 1.0474 11.5939L0.992163 11.186C0.985125 11.1338 0.960554 11.0865 0.923378 11.0535C0.886203 11.0206 0.839173 11.0045 0.791723 11.0084C0.744273 11.0123 0.699913 11.036 0.667542 11.0747C0.635171 11.1133 0.617183 11.1641 0.617188 11.2169C0.617188 11.3735 0.637925 11.5312 0.678458 11.6857L1.74871 19.5987C1.79113 20.7084 5.71998 22.7169 12.1172 22.7169C18.5144 22.7169 22.4432 20.7084 22.4857 19.5987L23.5559 11.6857C23.5966 11.531 23.6172 11.3735 23.6172 11.2169C23.6172 11.1642 23.5992 11.1133 23.5668 11.0747C23.5344 11.036 23.4901 11.0124 23.4426 11.0085Z" fill="#FFB300"/>
<path d="M12.3032 6.83022V13.6236C12.3032 13.7386 12.2184 13.8327 12.1147 13.8327C12.011 13.8327 11.9262 13.7386 11.9262 13.6236V6.83022C11.9884 6.82812 12.0525 6.82813 12.1147 6.82813C12.1769 6.82813 12.241 6.82812 12.3032 6.83022ZM20.9716 8.38794L15.774 14.1526C15.7363 14.1923 15.6891 14.2132 15.6401 14.2132C15.5911 14.2132 15.544 14.1923 15.5063 14.1526C15.4327 14.071 15.4327 13.9372 15.5063 13.8557L20.587 8.22067C20.719 8.27503 20.8472 8.3294 20.9716 8.38794ZM8.72314 14.1526C8.68543 14.1923 8.6383 14.2132 8.58929 14.2132C8.54027 14.2132 8.49314 14.1923 8.45543 14.1526L3.25781 8.38794C3.38224 8.3294 3.51044 8.27503 3.6424 8.22067L8.72314 13.8557C8.79666 13.9372 8.79666 14.071 8.72314 14.1526Z" fill="#FFB300"/>
<path d="M3.82134 8.49908C3.77134 8.49908 3.72339 8.47705 3.68803 8.43784C3.65267 8.39862 3.63281 8.34544 3.63281 8.28999V2.85362C3.63281 2.79817 3.65267 2.74498 3.68803 2.70577C3.72339 2.66656 3.77134 2.64453 3.82134 2.64453C3.87134 2.64453 3.91929 2.66656 3.95464 2.70577C3.99 2.74498 4.00986 2.79817 4.00986 2.85362V8.28999C4.00986 8.34544 3.99 8.39862 3.95464 8.43784C3.91929 8.47705 3.87134 8.49908 3.82134 8.49908ZM20.4115 8.49908C20.3615 8.49908 20.3135 8.47705 20.2782 8.43784C20.2428 8.39862 20.223 8.34544 20.223 8.28999V2.85362C20.223 2.79817 20.2428 2.74498 20.2782 2.70577C20.3135 2.66656 20.3615 2.64453 20.4115 2.64453C20.4615 2.64453 20.5095 2.66656 20.5448 2.70577C20.5802 2.74498 20.6 2.79817 20.6 2.85362V8.28999C20.6 8.34544 20.5802 8.39862 20.5448 8.43784C20.5095 8.47705 20.4615 8.49908 20.4115 8.49908ZM10.2312 7.30308C10.1812 7.30308 10.1332 7.28105 10.0979 7.24184C10.0625 7.20262 10.0426 7.14944 10.0426 7.09399V5.36271C10.0426 5.30726 10.0625 5.25408 10.0979 5.21486C10.1332 5.17565 10.1812 5.15362 10.2312 5.15362C10.2812 5.15362 10.3291 5.17565 10.3645 5.21486C10.3998 5.25408 10.4197 5.30726 10.4197 5.36271V7.09399C10.4197 7.14944 10.3998 7.20262 10.3645 7.24184C10.3291 7.28105 10.2812 7.30308 10.2312 7.30308ZM14.0017 7.30308C13.9517 7.30308 13.9037 7.28105 13.8684 7.24184C13.833 7.20262 13.8131 7.14944 13.8131 7.09399V5.36271C13.8131 5.30726 13.833 5.25408 13.8684 5.21486C13.9037 5.17565 13.9517 5.15362 14.0017 5.15362C14.0517 5.15362 14.0996 5.17565 14.135 5.21486C14.1703 5.25408 14.1902 5.30726 14.1902 5.36271V7.09399C14.1902 7.14944 14.1703 7.20262 14.135 7.24184C14.0996 7.28105 14.0517 7.30308 14.0017 7.30308Z" fill="#607D8B"/>
<path d="M19.8206 14.1131C17.8635 13.2046 15.0555 12.6836 12.1164 12.6836C9.17727 12.6836 6.3692 13.2046 4.41212 14.1131L3.92969 14.3371L4.43003 14.5062C6.53887 15.2186 9.26852 15.6109 12.1164 15.6109C14.9642 15.6109 17.6939 15.2186 19.8027 14.5062L20.303 14.3371L19.8206 14.1131Z" fill="#66BB6A"/>
<path d="M12.1172 15.6099C5.66852 15.6099 0.617188 13.6811 0.617188 11.219C0.617188 8.75699 5.66852 6.82812 12.1172 6.82812C18.5659 6.82812 23.6172 8.75699 23.6172 11.219C23.6172 13.6811 18.5659 15.6099 12.1172 15.6099ZM12.1172 7.24631C6.08798 7.24631 0.994237 9.06561 0.994237 11.219C0.994237 13.3725 6.08798 15.1918 12.1172 15.1918C18.1464 15.1918 23.2401 13.3725 23.2401 11.219C23.2401 9.06561 18.1464 7.24631 12.1172 7.24631Z" fill="#FFB300"/>
<path d="M10.9815 17.6796H10.9751C10.2038 17.6504 9.43822 17.5924 8.69958 17.5069C8.64993 17.5011 8.60438 17.4737 8.57293 17.4307C8.54147 17.3877 8.52668 17.3326 8.5318 17.2776C8.53412 17.2501 8.54135 17.2235 8.55306 17.1992C8.56478 17.175 8.58074 17.1535 8.60001 17.1362C8.61929 17.1188 8.64149 17.1059 8.66532 17.0982C8.68916 17.0905 8.71413 17.0881 8.7388 17.0913C9.46876 17.1755 10.2255 17.233 10.9879 17.2617C11.0379 17.2626 11.0855 17.2855 11.1203 17.3254C11.155 17.3653 11.1741 17.4189 11.1732 17.4743C11.1724 17.5298 11.1517 17.5826 11.1157 17.6211C11.0798 17.6597 11.0315 17.6806 10.9815 17.6796ZM17.7682 17.136C17.7212 17.136 17.6759 17.1165 17.6412 17.0814C17.6065 17.0462 17.5849 16.998 17.5806 16.9461C17.5763 16.8942 17.5896 16.8424 17.6179 16.8009C17.6462 16.7593 17.6875 16.7309 17.7337 16.7214C18.5485 16.5524 19.3013 16.3421 19.9715 16.0968C19.995 16.088 20.0198 16.0845 20.0446 16.0865C20.0693 16.0884 20.0935 16.0958 20.1156 16.1081C20.1378 16.1205 20.1575 16.1376 20.1737 16.1585C20.1899 16.1794 20.2021 16.2036 20.2098 16.2298C20.2175 16.2559 20.2206 16.2834 20.2187 16.3108C20.2169 16.3382 20.2102 16.3649 20.1991 16.3894C20.1879 16.414 20.1725 16.4358 20.1537 16.4537C20.135 16.4716 20.1132 16.4853 20.0897 16.4939C19.4034 16.7448 18.6343 16.9599 17.8031 17.1324C17.7916 17.1349 17.7799 17.136 17.7682 17.136ZM13.2438 17.6796C13.1947 17.6791 13.1477 17.6573 13.1128 17.6189C13.0779 17.5806 13.0579 17.5286 13.0571 17.4741C13.0563 17.4196 13.0746 17.3669 13.1083 17.3273C13.142 17.2876 13.1883 17.264 13.2374 17.2617C13.9998 17.233 14.7565 17.1755 15.4865 17.0913C15.5111 17.0882 15.5361 17.0906 15.5599 17.0983C15.5837 17.106 15.6059 17.1189 15.6252 17.1362C15.6444 17.1535 15.6604 17.1749 15.6722 17.1992C15.6839 17.2234 15.6912 17.25 15.6937 17.2773C15.6988 17.3325 15.684 17.3877 15.6525 17.4307C15.621 17.4738 15.5754 17.5012 15.5257 17.5069C14.787 17.5927 14.0214 17.6506 13.2502 17.6794L13.2438 17.6796ZM6.45708 17.136C6.44538 17.136 6.43371 17.1348 6.42221 17.1324C5.59081 16.9599 4.82163 16.745 4.1354 16.4939C4.08793 16.4765 4.04863 16.4389 4.02615 16.3894C4.00366 16.3399 3.99983 16.2825 4.0155 16.2298C4.02316 16.2036 4.03541 16.1794 4.05155 16.1586C4.0677 16.1377 4.08741 16.1206 4.10955 16.1082C4.13169 16.0959 4.15582 16.0885 4.18055 16.0865C4.20528 16.0846 4.23011 16.0881 4.25361 16.0968C4.924 16.3421 5.67697 16.5524 6.49158 16.7214C6.5376 16.7312 6.57868 16.7596 6.60683 16.8012C6.63498 16.8427 6.64819 16.8944 6.64389 16.9461C6.63959 16.9979 6.61808 17.046 6.58355 17.0811C6.54902 17.1163 6.50394 17.1357 6.45708 17.136ZM17.7682 20.0842C17.7212 20.0841 17.6759 20.0647 17.6412 20.0295C17.6065 19.9944 17.5849 19.9462 17.5806 19.8943C17.5763 19.8424 17.5896 19.7906 17.6179 19.749C17.6462 19.7075 17.6875 19.6791 17.7337 19.6696C18.5485 19.5004 19.3013 19.2903 19.9715 19.045C19.9952 19.0353 20.0205 19.031 20.0457 19.0324C20.071 19.0338 20.0957 19.0407 20.1185 19.0529C20.1413 19.0651 20.1616 19.0823 20.1783 19.1033C20.195 19.1244 20.2076 19.149 20.2156 19.1756C20.2235 19.2023 20.2265 19.2304 20.2244 19.2584C20.2224 19.2863 20.2153 19.3135 20.2035 19.3384C20.1918 19.3632 20.1756 19.3852 20.1561 19.4029C20.1365 19.4207 20.1139 19.434 20.0897 19.4419C19.4034 19.693 18.6343 19.9081 17.8031 20.0806C17.7916 20.083 17.7799 20.0842 17.7682 20.0842ZM6.45708 20.0842C6.44538 20.0842 6.43371 20.083 6.42221 20.0806C5.59081 19.9081 4.82163 19.693 4.1354 19.4419C4.11114 19.434 4.08856 19.4207 4.069 19.4029C4.04945 19.3852 4.03332 19.3632 4.02157 19.3384C4.00982 19.3135 4.0027 19.2863 4.00063 19.2584C3.99856 19.2304 4.00158 19.2023 4.00951 19.1756C4.01745 19.149 4.03013 19.1244 4.04681 19.1033C4.06348 19.0823 4.08381 19.0651 4.10659 19.0529C4.12936 19.0407 4.15411 19.0338 4.17937 19.0324C4.20463 19.031 4.22988 19.0353 4.25361 19.045C4.924 19.2903 5.67697 19.5004 6.49158 19.6696C6.5374 19.6796 6.57823 19.7081 6.60619 19.7496C6.63415 19.791 6.64725 19.8426 6.64296 19.8941C6.63867 19.9457 6.61729 19.9937 6.58296 20.0288C6.54863 20.0639 6.50378 20.0836 6.45708 20.0842Z" fill="#607D8B"/>
<path d="M14.5735 19.1622V22.6143C13.8609 22.6749 13.1049 22.7105 12.3112 22.7147C12.249 22.7168 12.1868 22.7168 12.1227 22.7168C12.0586 22.7168 11.9964 22.7168 11.9342 22.7147C11.1405 22.7105 10.3845 22.6749 9.67188 22.6143V19.1622C9.67188 19.0472 9.75671 18.9531 9.8604 18.9531H14.385C14.4887 18.9531 14.5735 19.0472 14.5735 19.1622Z" fill="#42A5F5"/>
<path d="M12.3067 18.9531V22.7147C12.2445 22.7168 12.1823 22.7168 12.1182 22.7168C12.0541 22.7168 11.9919 22.7168 11.9297 22.7147V18.9531H12.3067Z" fill="#1E88E5"/>
<path d="M2.08939 15.2517C2.05168 15.3103 1.99324 15.3416 1.93291 15.3416C1.8952 15.3416 1.85939 15.3291 1.82734 15.304C1.53324 15.0803 1.27684 14.8315 1.06381 14.5638L0.9375 13.625C1.1675 14.1268 1.54455 14.5826 2.03848 14.959C2.12521 15.0259 2.14783 15.1555 2.08939 15.2517ZM23.289 13.625L23.1627 14.5638C22.9496 14.8315 22.6932 15.0803 22.3991 15.304C22.3671 15.3291 22.3313 15.3416 22.2936 15.3416C22.2332 15.3416 22.1748 15.3103 22.1371 15.2517C22.0786 15.1555 22.1013 15.0259 22.188 14.959C22.6819 14.5826 23.059 14.1268 23.289 13.625Z" fill="#607D8B"/>
<path d="M15.5067 0.972656H8.71977C8.66977 0.972656 8.62182 0.994685 8.58647 1.0339C8.55111 1.07311 8.53125 1.12629 8.53125 1.18175V5.36357C8.53125 5.41902 8.55111 5.4722 8.58647 5.51142C8.62182 5.55063 8.66977 5.57266 8.71977 5.57266H15.5067C15.5567 5.57266 15.6046 5.55063 15.64 5.51142C15.6753 5.4722 15.6952 5.41902 15.6952 5.36357V1.18175C15.6952 1.12629 15.6753 1.07311 15.64 1.0339C15.6046 0.994685 15.5567 0.972656 15.5067 0.972656Z" fill="#66BB6A"/>
<path d="M10.2317 2.22678H9.47759C9.42759 2.22678 9.37964 2.20475 9.34428 2.16553C9.30892 2.12632 9.28906 2.07314 9.28906 2.01768C9.28906 1.96223 9.30892 1.90905 9.34428 1.86984C9.37964 1.83062 9.42759 1.80859 9.47759 1.80859H10.2317C10.2817 1.80859 10.3296 1.83062 10.365 1.86984C10.4003 1.90905 10.4202 1.96223 10.4202 2.01768C10.4202 2.07314 10.4003 2.12632 10.365 2.16553C10.3296 2.20475 10.2817 2.22678 10.2317 2.22678ZM12.871 2.22678H11.3628C11.3128 2.22678 11.2649 2.20475 11.2295 2.16553C11.1942 2.12632 11.1743 2.07314 11.1743 2.01768C11.1743 1.96223 11.1942 1.90905 11.2295 1.86984C11.2649 1.83062 11.3128 1.80859 11.3628 1.80859H12.871C12.921 1.80859 12.969 1.83062 13.0043 1.86984C13.0397 1.90905 13.0596 1.96223 13.0596 2.01768C13.0596 2.07314 13.0397 2.12632 13.0043 2.16553C12.969 2.20475 12.921 2.22678 12.871 2.22678Z" fill="#A5D6A7"/>
</svg>
