<svg width="179" height="229" viewBox="0 0 179 229" fill="none" xmlns="http://www.w3.org/2000/svg">
<circle cx="89.9375" cy="116.473" r="89" fill="white" fill-opacity="0.55"/>
<path d="M53.6746 228.384C53.6746 228.384 50.6419 223.004 54.9641 200.73C57.4435 187.95 68.428 171.473 68.428 171.473C68.428 171.473 121.016 172.781 121.063 173.619C121.11 174.456 137.155 190.756 139.483 207.711C141.81 224.667 141.36 228.384 141.36 228.384H53.6746Z" fill="#263238"/>
<path d="M95.2027 208.648C95.1189 208.652 94.7222 201.943 94.3169 193.664C93.9115 185.384 93.6506 178.667 93.7344 178.663C93.8183 178.659 94.2144 185.367 94.6197 193.648C95.0251 201.93 95.286 208.645 95.2027 208.648Z" fill="#455A64"/>
<path d="M99.9298 180.77C98.9752 180.721 98.0345 181.697 97.7684 182.493C97.5648 183.101 97.5784 183.761 97.8069 184.36C98.0354 184.96 98.4646 185.461 99.0214 185.78C99.5783 186.098 100.228 186.213 100.861 186.106C101.493 185.999 102.069 185.676 102.49 185.192C102.91 184.708 103.15 184.093 103.169 183.451C103.187 182.81 102.982 182.183 102.589 181.676C102.197 181.168 101.64 180.813 101.015 180.67C100.39 180.527 99.7344 180.605 99.1604 180.892" fill="#455A64"/>
<path d="M81.9976 79.7045L85.4532 70.9646L106.061 69.8784L114.478 70.9635L115.404 73.3852L121.115 174.456C121.115 174.456 101.154 178.484 91.1732 177.083C81.1927 175.682 69.4609 171.13 69.4609 171.13V113.651L81.9976 79.7045Z" fill="#5AC4BF"/>
<path d="M113.011 83.8088C112.971 83.8753 112.923 83.9365 112.868 83.9911L112.421 84.4908C112.024 84.923 111.431 85.5473 110.661 86.3155C108.537 88.4213 106.284 90.3925 103.914 92.2178L103.816 92.2941L103.732 92.2009C101.504 89.7578 99.4374 87.1722 97.5456 84.4605L96.9358 83.5741L97.1828 83.5793L92.2321 90.2481C92.0386 90.5133 91.8072 90.7488 91.5455 90.947C91.2738 91.1572 90.9299 91.2511 90.5891 91.2079C90.2703 91.1426 89.9801 90.9785 89.7597 90.7391C89.5584 90.5277 89.369 90.3052 89.1925 90.0728L87.2373 87.6266C86.0648 86.1455 85.1126 84.941 84.4317 84.0808L83.6827 83.1104C83.5908 83.0014 83.5087 82.8845 83.4375 82.761C83.544 82.856 83.6415 82.9607 83.7287 83.0738L84.5208 84.0097L87.4003 87.4961L89.3841 89.9207C89.7376 90.3442 90.0952 90.8619 90.6293 90.9516C91.1634 91.0413 91.6503 90.5696 92.0143 90.0856L96.9416 83.4046L97.0674 83.2339L97.1886 83.4086L97.7966 84.2916C99.682 86.9924 101.732 89.5745 103.935 92.0233L103.752 92.007C106.124 90.1987 108.393 88.2605 110.551 86.2014C111.337 85.4512 111.948 84.8461 112.362 84.4331L112.839 83.9625C112.89 83.9045 112.947 83.8528 113.011 83.8088Z" fill="#263238"/>
<g opacity="0.3">
<path d="M89.4688 90.219C89.4688 90.219 92.0809 93.4375 92.8154 92.6291C93.5498 91.8207 97.4165 85.8281 97.8825 85.5818C98.3484 85.3354 103.024 93.7357 104.859 93.1463C106.695 92.5569 113.24 86.0163 113.24 86.0163L113.368 83.4402L103.834 92.1183L97.0624 83.4984L91.3674 90.9092C91.3674 90.9092 90.1607 91.8481 89.4688 90.219Z" fill="black"/>
</g>
<path d="M73.087 21.5969C73.087 21.5969 67.6967 41.7489 67.2325 56.0113L67.0781 60.7627C67.0781 60.7627 78.9718 70.6389 88.9488 71.2464L97.3107 50.6868L73.087 21.5969Z" fill="#263238"/>
<path d="M125.928 33.959C123.657 24.1288 122.783 12.6877 114.606 6.27806C108.541 1.52255 101.629 0.195787 93.9272 0.518451C90.1351 0.67687 85.8531 2.42706 82.5501 4.29665C78.0218 6.85932 76.1033 12.0592 73.918 16.7821C69.5405 26.2448 70.095 39.0576 73.0601 42.6191L112.601 63.4996C120.496 59.3906 125.443 57.754 126.705 47.2296C127.216 42.7944 126.953 38.3042 125.928 33.959Z" fill="#263238"/>
<path d="M114.177 14.0902L89.2929 6.74759C81.2764 5.57924 75.5348 15.2807 74.7072 23.3392C73.7887 32.2916 73.0182 43.2581 73.8202 49.9968C75.4288 63.5463 85.6818 65.664 85.6818 65.664C85.6865 65.6186 85.6102 71.1016 85.6102 71.1016L96.9436 83.145L114.267 71.571L118.227 19.0583C118.297 17.8735 117.919 16.7058 117.169 15.786C116.419 14.8661 115.352 14.261 114.177 14.0902Z" fill="#FFBF9D"/>
<path d="M79.2676 35.6004C79.2463 36.0501 79.4012 36.4903 79.6995 36.8275C79.9977 37.1646 80.4157 37.3722 80.8646 37.406C81.0836 37.432 81.3056 37.414 81.5176 37.3529C81.7295 37.2918 81.9271 37.1889 82.0987 37.0503C82.2703 36.9117 82.4123 36.7401 82.5166 36.5457C82.6208 36.3513 82.6851 36.1381 82.7056 35.9184C82.7277 35.4687 82.5734 35.0281 82.2756 34.6903C81.9778 34.3526 81.5599 34.1444 81.1109 34.11C80.8916 34.0839 80.6692 34.1019 80.4569 34.1631C80.2446 34.2243 80.0466 34.3274 79.8748 34.4664C79.703 34.6053 79.5608 34.7772 79.4565 34.972C79.3522 35.1667 79.2879 35.3804 79.2676 35.6004Z" fill="#263238"/>
<path d="M76.3525 31.4584C76.5581 31.6914 77.9046 30.7758 79.7626 30.8533C81.6199 30.9046 82.9461 31.9145 83.1569 31.6949C83.26 31.5982 83.0573 31.183 82.4807 30.7275C81.6987 30.1383 80.7535 29.8057 79.7748 29.7752C78.8084 29.7335 77.8538 30.0007 77.0496 30.5382C76.4631 30.9541 76.2511 31.3548 76.3525 31.4584Z" fill="#263238"/>
<path d="M95.5957 35.6002C95.5743 36.0498 95.7291 36.49 96.0272 36.8272C96.3254 37.1644 96.7433 37.3719 97.1921 37.4057C97.4112 37.4318 97.6332 37.4138 97.8451 37.3527C98.0571 37.2917 98.2547 37.1889 98.4263 37.0503C98.5979 36.9117 98.74 36.7403 98.8444 36.5459C98.9487 36.3516 99.0131 36.1384 99.0338 35.9188C99.0559 35.4689 98.9015 35.0281 98.6036 34.6902C98.3057 34.3524 97.8877 34.1441 97.4385 34.1098C97.2191 34.0836 96.9968 34.1017 96.7845 34.1629C96.5722 34.2241 96.3744 34.3272 96.2026 34.4661C96.0308 34.6051 95.8887 34.777 95.7844 34.9718C95.6802 35.1665 95.616 35.3802 95.5957 35.6002Z" fill="#263238"/>
<path d="M94.6342 31.6774C94.8398 31.9103 96.1882 30.9954 98.0449 31.0734C99.9017 31.1241 101.228 32.134 101.439 31.9144C101.541 31.8177 101.341 31.4031 100.763 30.947C99.9807 30.3574 99.0354 30.0245 98.0566 29.9942C97.0902 29.9528 96.1358 30.22 95.3314 30.7571C94.7426 31.173 94.5317 31.5731 94.6342 31.6774Z" fill="#263238"/>
<path d="M87.3999 43.7264C87.4121 43.6209 86.2653 43.3769 84.4027 43.0624C83.9304 42.9948 83.4848 42.883 83.4178 42.5563C83.3965 42.0646 83.5262 41.5783 83.7894 41.1625C84.281 40.0315 84.7962 38.8453 85.3352 37.6039C87.4867 32.5368 89.0627 28.3614 88.8589 28.2769C88.655 28.1925 86.7441 32.231 84.5926 37.2987C84.0742 38.5486 83.5786 39.7426 83.1057 40.8806C82.7843 41.4413 82.671 42.0974 82.7859 42.7333C82.8482 42.9033 82.9484 43.0569 83.0789 43.1825C83.2093 43.308 83.3667 43.4022 83.539 43.4579C83.799 43.5395 84.0682 43.5879 84.3404 43.6017C86.2199 43.777 87.3888 43.8318 87.3999 43.7264Z" fill="#263238"/>
<path d="M85.627 65.6663C91.9639 66.0124 98.2726 64.5927 103.85 61.5654C103.85 61.5654 99.0216 70.8126 85.5938 69.0205L85.627 65.6663Z" fill="#FF9A6C"/>
<path d="M93.4331 47.8552C93.2043 47.473 92.8842 47.1535 92.5017 46.9252C92.1191 46.6969 91.6859 46.567 91.2409 46.5471C90.6176 46.4762 89.9868 46.5739 89.4142 46.8301C88.8416 47.0862 88.3483 47.4913 87.9857 48.0032C87.724 48.4815 87.6515 49.0406 87.7824 49.5699C87.889 49.8413 87.8034 49.7068 88.0032 49.8984C88.6718 50.6403 89.5115 51.2078 90.4493 51.5513C90.9564 51.6994 91.4963 51.6914 91.9989 51.5286C92.5014 51.3657 92.9433 51.0554 93.2671 50.6381C93.5467 50.2338 93.71 49.7605 93.7393 49.2699C93.7686 48.7792 93.6627 48.2899 93.4331 47.8552Z" fill="#FF9A6C"/>
<path d="M93.1517 45.307C92.8506 45.2761 92.7557 47.2925 90.9653 48.646C89.1749 49.9996 87.038 49.681 87.0094 49.9623C86.9757 50.0875 87.4707 50.3758 88.377 50.4411C89.5574 50.5111 90.7247 50.1626 91.6735 49.4568C92.5841 48.7782 93.1952 47.7721 93.3777 46.6512C93.493 45.812 93.2903 45.3017 93.1517 45.307Z" fill="#263238"/>
<path d="M93.9187 24.875C94.0521 25.3957 95.9234 25.3374 98.0697 25.8104C100.225 26.2402 101.914 27.0457 102.247 26.6223C102.397 26.419 102.137 25.9158 101.476 25.3596C100.589 24.6705 99.5567 24.1926 98.4574 23.962C97.358 23.7314 96.2206 23.7542 95.1313 24.0287C94.3031 24.2722 93.8634 24.6286 93.9187 24.875Z" fill="#263238"/>
<path d="M76.5105 26.4563C76.9322 26.8215 78.2863 26.1831 79.9864 25.9164C81.6755 25.5966 83.1729 25.7416 83.442 25.2571C83.5584 25.0241 83.2672 24.6379 82.5811 24.3333C81.6503 23.9664 80.6345 23.8707 79.6515 24.0573C78.6667 24.2095 77.7457 24.6397 76.9969 25.2972C76.4569 25.8162 76.3212 26.2746 76.5105 26.4563Z" fill="#263238"/>
<path d="M89.2041 5.29614C89.1808 5.39341 89.1628 5.49126 89.1406 5.58736L89.1872 5.60716C89.193 5.50407 89.1983 5.4004 89.2041 5.29614Z" fill="#263238"/>
<path d="M108.873 70.4713C108.57 70.5557 108.252 70.5757 107.941 70.5301C107.63 70.4845 107.332 70.3743 107.066 70.2066C106.8 70.0388 106.572 69.8172 106.397 69.5561C106.221 69.2949 106.103 69 106.048 68.6902C105.621 65.9776 105.598 63.2165 105.981 60.4972C106.418 56.7581 108.954 52.8436 109.27 49.0922C109.872 41.9336 109.241 37.9212 108.441 31.9106C105.072 31.4953 101.928 29.4708 99.683 26.8546C96.9817 23.7054 95.3486 19.8031 93.758 15.9719C93.8623 19.757 95.143 23.4155 97.422 26.4393C96.6645 26.5552 95.8904 26.4922 95.1617 26.2554C94.4329 26.0185 93.7697 25.6144 93.2251 25.0753C92.1455 23.9865 91.3064 22.6833 90.762 21.2499C89.3039 17.8377 88.4941 14.1838 88.374 10.475C87.871 15.7842 88.4703 21.1401 90.1341 26.2069C89.1918 25.9157 88.1813 26.1772 87.2051 26.3182C86.229 26.4591 85.1084 26.4346 84.42 25.7264C84.0006 25.2123 83.7359 24.5896 83.657 23.9308C82.7265 19.4207 82.5752 14.7846 83.2097 10.2234C81.934 12.648 80.9 15.1923 80.1228 17.8194C79.3451 20.4624 79.3249 23.2706 80.0646 25.9244C79.8407 26.1436 79.5393 26.2654 79.2261 26.2634C78.9128 26.2615 78.613 26.1359 78.3919 25.914C77.9665 25.4482 77.7087 24.8538 77.6592 24.2249C77.3045 21.9628 77.704 19.6575 78.103 17.4024C76.7564 19.7903 76.3097 22.5592 75.5648 25.1964C74.8198 27.8336 73.634 30.539 71.3422 32.0417C70.9549 28.5982 71.0681 25.1169 71.6782 21.7059C72.1314 18.8829 73.471 16.082 74.7069 13.5036C76.0195 10.6407 77.8746 8.0594 80.1694 5.90239C84.1381 2.42647 85.7962 3.92214 88.3304 5.24774L88.6297 5.37355C88.6385 5.31123 88.6414 5.24891 88.6507 5.18659L88.7672 4.64726C95.4039 3.16344 102.317 3.48685 108.786 5.5838C113.562 7.14062 114.002 17.4263 115.167 12.5385C115.872 9.58157 119.706 12.2811 119.753 12.3638C125.387 22.5266 131.359 38.6469 131.634 64.1193L108.873 70.4713Z" fill="#263238"/>
<g opacity="0.3">
<path d="M75.6925 136.897C72.0814 160.578 68.4704 184.259 64.8594 207.94L65.6998 215.639C66.6503 216.722 68.5432 216.362 69.5094 215.293C70.4757 214.223 70.7587 212.721 70.9975 211.3C75.1252 186.737 77.3506 161.749 75.6925 136.897Z" fill="black"/>
</g>
<path d="M75.3597 77.0515L63.1387 79.4394C60.5232 79.974 58.1001 81.2037 56.1244 82.9991C54.1487 84.7945 52.6935 87.0892 51.9118 89.6418C51.5294 90.901 51.2526 92.1899 51.0842 93.4951C50.0131 101.754 44.9658 124.086 44.9658 124.086C44.9658 124.086 33.7064 129.44 33.2177 134.028C32.7291 138.617 37.1124 146.946 37.1124 146.946C37.1124 146.946 41.9809 159.723 48.4301 162.392C55.5112 165.323 60.4409 156.503 60.4409 156.503C60.4898 157.307 60.5166 157.758 60.5166 157.758L41.9809 199.681C46.6951 208.099 55.5514 217.957 64.5528 220.099C64.5528 220.099 74.9951 154.929 75.5816 140.696C76.1681 126.463 85.3128 71.1416 85.3128 71.1416L75.3597 77.0515Z" fill="#3C45DA"/>
<path d="M32.4614 86.6452C32.4614 86.6452 30.5015 85.8636 29.9569 87.499C29.6028 88.5608 28.8818 91.3605 28.4193 93.1946C28.2853 93.7268 28.2687 94.2819 28.3706 94.8213C28.4725 95.3606 28.6904 95.8714 29.0093 96.3181L30.4992 98.4055C29.9791 99.725 29.8963 101.176 30.2627 102.547C30.2627 102.547 27.9627 104.89 28.2568 106.938C28.2568 106.938 25.3092 108.809 26.0599 111.934C26.8107 115.058 35.5389 124.51 35.5389 124.51L41.1185 126.263L48.2975 120.815C48.2975 120.815 49.9202 112.071 49.6289 108.311C49.2795 103.792 47.5875 103.346 47.5875 103.346L40.0783 96.2762L37.3992 92.4654C37.3992 92.4654 34.879 92.8626 35.335 96.1201L33.0834 94.5248L32.4829 91.8398C32.4829 91.8398 34.1556 88.4728 32.4614 86.6452Z" fill="#FFBF9D"/>
<path d="M26.3203 71.169C26.7769 71.427 35.5168 96.8266 35.5168 96.8266L37.638 97.8825L28.2278 70.6099L26.3203 71.169Z" fill="#263238"/>
<path d="M34.5193 101.708C34.6142 101.746 34.7037 101.796 34.7855 101.857L35.5182 102.33L38.2037 104.077C38.7745 104.439 39.3995 104.834 40.0821 105.242C40.424 105.443 40.781 105.646 41.1508 105.842C41.5167 106.049 41.9152 106.192 42.3291 106.265C42.5277 106.295 42.7308 106.272 42.9173 106.197C43.0966 106.108 43.2382 105.957 43.3169 105.773C43.4841 105.346 43.5685 104.892 43.5656 104.434C43.5843 104.203 43.5783 103.971 43.5475 103.742C43.4771 103.521 43.373 103.312 43.2388 103.122C42.9475 102.716 42.6175 102.339 42.2534 101.996C40.8288 100.69 39.2982 99.5042 37.6772 98.4515C36.3811 97.5526 35.0168 96.7564 33.5968 96.0699C33.329 95.962 33.0354 95.935 32.7525 95.9924C32.4695 96.0497 32.2096 96.1889 32.005 96.3926C31.6627 96.6894 31.3625 97.0315 31.1127 97.4095C30.6922 98.0327 30.5227 98.4183 30.5 98.4078C30.5192 98.307 30.5538 98.2098 30.6025 98.1195C30.7226 97.8528 30.8599 97.5942 31.0137 97.3454C31.2534 96.9437 31.5505 96.5792 31.8955 96.2633C32.1159 96.0583 32.3794 95.9053 32.6666 95.8154C32.9983 95.7134 33.3554 95.7326 33.6742 95.8696C35.1234 96.5342 36.5139 97.32 37.831 98.2185C39.4767 99.2675 41.0273 100.459 42.4648 101.779C42.8437 102.136 43.1867 102.529 43.4887 102.952C43.6425 103.171 43.7605 103.413 43.8381 103.669C43.8767 103.926 43.8849 104.187 43.8626 104.446C43.8627 104.945 43.7657 105.44 43.5772 105.902C43.4677 106.145 43.2762 106.342 43.0361 106.457C42.801 106.553 42.5443 106.583 42.2935 106.543C41.8475 106.462 41.4189 106.304 41.0268 106.077C40.6505 105.873 40.2935 105.664 39.9528 105.456C39.2707 105.04 38.6511 104.632 38.089 104.257C36.9626 103.503 36.0668 102.871 35.4535 102.427L34.7546 101.907C34.6674 101.852 34.5882 101.785 34.5193 101.708Z" fill="#FF9A6C"/>
<path d="M30.5625 106.383C30.729 106.329 30.9005 106.291 31.0745 106.271L32.5369 106.028L32.5655 106.023L32.5917 106.042L34.9214 107.731L34.9284 107.736L34.9365 107.745C35.8923 108.749 37.0333 109.93 38.3524 111.167C38.6838 111.474 39.0257 111.786 39.3886 112.084C39.722 112.403 40.1212 112.646 40.5581 112.795C40.7757 112.845 41.0035 112.827 41.2107 112.744C41.4179 112.661 41.5947 112.516 41.7171 112.329C42.0059 111.931 42.1949 111.47 42.2681 110.984C42.2852 110.748 42.2238 110.512 42.0934 110.314C41.9735 110.085 41.8409 109.862 41.6961 109.648C41.4084 109.217 41.098 108.807 40.7852 108.41C40.1574 107.617 39.5126 106.88 38.8865 106.191C37.7893 104.96 36.6105 103.805 35.3582 102.732C34.8913 102.319 34.3336 102.022 33.7303 101.864C33.2727 101.755 32.7955 101.76 32.3401 101.877C31.9499 101.988 31.5774 102.153 31.2335 102.368C31.227 102.361 31.3033 102.279 31.4763 102.159C31.7317 101.986 32.0117 101.853 32.3069 101.764C32.7789 101.62 33.2798 101.597 33.7629 101.698C34.3991 101.845 34.9908 102.142 35.4887 102.565C36.7709 103.621 37.9742 104.769 39.0892 106.001C39.7246 106.689 40.3775 107.426 41.0147 108.225C41.3327 108.624 41.6484 109.04 41.9466 109.48C42.0981 109.704 42.2369 109.936 42.3625 110.176C42.5246 110.43 42.597 110.732 42.568 111.033C42.4871 111.569 42.2768 112.078 41.9553 112.515C41.7871 112.736 41.5671 112.912 41.3147 113.027C41.0545 113.135 40.7662 113.154 40.494 113.082C40.0121 112.923 39.5721 112.657 39.2063 112.305C38.8376 111.999 38.4957 111.682 38.1637 111.37C36.8445 110.113 35.7176 108.917 34.7787 107.892L34.7938 107.905L32.5078 106.158L32.5626 106.171L31.0902 106.346C30.916 106.376 30.7392 106.388 30.5625 106.383Z" fill="#FF9A6C"/>
<path d="M39.7308 112.349C39.7112 112.522 39.6651 112.691 39.5939 112.85C39.5323 113.049 39.458 113.245 39.3714 113.435C39.296 113.563 39.1949 113.673 39.0746 113.758C38.9542 113.844 38.8173 113.904 38.6725 113.933C37.959 114.039 37.2317 114.004 36.5315 113.831C35.7009 113.567 34.9029 113.209 34.1529 112.765C33.1989 112.237 32.3252 111.699 31.5768 111.212L31.7457 111.193L31.578 111.359L31.5943 111.339C31.42 111.549 31.1823 111.696 30.9169 111.76C30.7018 111.826 30.4814 111.874 30.2582 111.903C29.9014 111.95 29.5418 111.972 29.1819 111.97C28.8674 112.002 28.5498 111.966 28.25 111.866C28.3305 111.852 28.4123 111.847 28.494 111.85L29.1761 111.815C29.5275 111.791 29.8774 111.749 30.2244 111.689C30.4335 111.652 30.6393 111.599 30.84 111.53C31.0479 111.475 31.2342 111.358 31.3741 111.194L31.3811 111.183L31.3904 111.174L31.5535 111.003L31.6281 110.926L31.723 110.984C32.4767 111.45 33.3538 111.974 34.2997 112.498C35.0273 112.929 35.797 113.284 36.5967 113.558C37.2574 113.733 37.9439 113.79 38.6242 113.724C38.7451 113.706 38.861 113.663 38.9647 113.599C39.0684 113.534 39.1577 113.448 39.227 113.348C39.3376 113.161 39.4087 112.957 39.4821 112.812C39.5425 112.647 39.6262 112.491 39.7308 112.349Z" fill="#FF9A6C"/>
<path d="M48.5481 118.495L36.0469 124.646L36.6048 136.353C36.6048 136.353 45.5497 137.533 53.4905 127.424L48.5481 118.495Z" fill="#FFBF9D"/>
<path d="M41.9766 199.684C41.9976 199.611 42.0243 199.539 42.0564 199.47C42.1193 199.32 42.2055 199.114 42.3155 198.85C42.5549 198.295 42.898 197.495 43.3412 196.467C44.2509 194.384 45.5637 191.376 47.2004 187.628L60.376 157.7L60.3632 157.764C60.2653 154.553 60.1483 151.208 59.9852 147.795C59.6299 140.095 59.2059 132.763 58.9263 126.089C58.6351 119.415 58.4738 113.401 58.419 108.349C58.3643 103.297 58.3957 99.2094 58.4406 96.3846L58.5157 93.1329C58.5274 92.7712 58.5367 92.4922 58.5431 92.2872C58.5512 92.0968 58.5629 91.9995 58.5629 91.9995C58.5629 91.9995 58.5716 92.0974 58.574 92.2907C58.574 92.494 58.574 92.7753 58.5769 93.137C58.5728 93.8941 58.5664 94.9874 58.5582 96.3887C58.5501 99.2129 58.5431 103.3 58.6334 108.349C58.7236 113.398 58.9007 119.408 59.2053 126.08C59.5385 132.751 59.9042 140.085 60.2886 147.784C60.4511 151.199 60.567 154.545 60.6614 157.759V157.793L60.648 157.824C55.3584 169.735 50.71 180.205 47.378 187.71L43.4355 196.509L42.3633 198.872L42.0791 199.482C42.0505 199.552 42.0162 199.62 41.9766 199.684Z" fill="#263238"/>
<path d="M74.9166 133.647C74.8937 133.599 74.8773 133.548 74.8676 133.495L74.7546 133.041C74.6568 132.618 74.5217 132.033 74.3469 131.289C74.0301 129.761 73.5787 127.545 73.1646 124.783C72.7505 122.02 72.3364 118.719 72.0155 115.041C71.6946 111.363 71.4331 107.313 71.2356 103.059C71.164 101.47 71.0947 99.9094 71.0259 98.3858C70.9929 97.6252 70.9599 96.874 70.9269 96.1324C70.9087 95.7612 70.8906 95.3923 70.8728 95.0258L70.8565 94.4754V94.1964C70.8565 94.1492 70.8617 94.1003 70.8675 94.0479C70.8717 94.0129 70.8801 93.9784 70.8926 93.9454C70.9016 93.9243 70.9138 93.9046 70.9287 93.8872C70.9495 93.866 70.9756 93.8508 71.0043 93.8433C71.033 93.8357 71.0632 93.8359 71.0918 93.8441C71.2001 93.8971 71.1669 93.9023 71.1972 93.9332L70.9893 93.8877L74.2602 91.6046L74.2811 91.8417L70.7283 90.1765L70.6328 90.1317L70.659 90.0315C71.1931 88.0093 71.8355 86.216 72.3958 84.6266C72.9561 83.0371 73.4849 81.6708 73.92 80.5467C74.3551 79.4226 74.7098 78.5466 74.9573 77.9526C75.0767 77.6713 75.1722 77.4476 75.245 77.2764C75.274 77.1971 75.3112 77.1212 75.3563 77.0498C75.3392 77.1325 75.3141 77.2132 75.2811 77.2909L75.0284 77.9805C74.7954 78.6055 74.4692 79.4861 74.0563 80.5979C73.6416 81.729 73.139 83.1024 72.5892 84.6947C72.0394 86.2871 71.4203 88.0868 70.9042 90.0927L70.8349 89.9476L74.3994 91.5924L74.6154 91.6926L74.4203 91.8294L71.1587 94.1254L70.9502 94.0799C70.9502 94.0986 71.0527 94.0042 71.0463 94.0036C71.0463 93.9786 71.0463 94.0077 71.0568 94.0036C71.0718 94.0212 71.0924 94.0331 71.1151 94.0374L71.1611 94.0561V94.0613L71.157 94.084L71.1488 94.2057V94.4696L71.1663 95.0118C71.1853 95.3764 71.2047 95.7437 71.2246 96.1138C71.2583 96.8558 71.2929 97.6079 71.3282 98.3701C71.3975 99.8931 71.4686 101.453 71.5408 103.041C71.74 107.293 71.9881 111.34 72.298 115.015C72.6078 118.689 72.9899 121.987 73.3807 124.748C73.7715 127.509 74.1856 129.728 74.4669 131.263C74.6149 132.01 74.7313 132.603 74.8164 133.025L74.9002 133.485C74.9128 133.538 74.9183 133.593 74.9166 133.647Z" fill="#263238"/>
<path d="M59.0241 128.392C58.9705 128.397 58.9501 127.868 58.6624 127.085C58.3012 126.063 57.63 125.179 56.7426 124.557C55.8552 123.934 54.7957 123.604 53.7118 123.613C52.8789 123.609 52.3722 123.77 52.3594 123.718C52.7754 123.502 53.2381 123.393 53.7065 123.399C54.8482 123.331 55.979 123.652 56.9151 124.309C57.8513 124.966 58.5377 125.92 58.8628 127.017C59.0281 127.455 59.0835 127.927 59.0241 128.392Z" fill="#263238"/>
<path d="M54.6578 125.509C54.5367 125.808 54.391 126.096 54.2222 126.371C54.0484 126.708 53.8515 127.032 53.6328 127.342C53.3634 127.765 53.0706 128.174 52.7556 128.565L52.2064 129.248C52.013 129.481 51.7847 129.704 51.5657 129.947C51.0868 130.456 50.5813 130.941 50.0514 131.397C47.6069 133.494 44.7121 135 41.5917 135.797C40.9136 135.969 40.227 136.105 39.5346 136.205C39.209 136.247 38.8939 136.307 38.5928 136.331L37.7191 136.389C37.2182 136.422 36.7157 136.427 36.2141 136.405C35.8353 136.406 35.4568 136.381 35.0813 136.331C34.7592 136.311 34.4394 136.264 34.125 136.192C34.1308 136.118 35.5001 136.332 37.7052 136.175L38.5683 136.098C38.8677 136.07 39.1758 136.005 39.4961 135.957C40.1409 135.874 40.8112 135.695 41.5212 135.528C44.5896 134.711 47.4405 133.228 49.8715 131.185C50.4149 130.7 50.9466 130.253 51.3858 129.773C51.6088 129.54 51.8389 129.324 52.0346 129.095L52.5925 128.432C53.9834 126.715 54.5949 125.471 54.6578 125.509Z" fill="#263238"/>
<path d="M41.0444 112.85C41.1376 112.85 41.0945 114.05 41.4975 115.442C41.8854 116.84 42.55 117.835 42.4719 117.888C41.8842 117.202 41.4522 116.396 41.2057 115.527C40.9593 114.658 40.9042 113.745 41.0444 112.853V112.85Z" fill="#FF9A6C"/>
<path d="M41.4339 106.267C41.5149 106.297 41.3966 106.791 41.3174 107.405C41.2382 108.019 41.2178 108.525 41.1316 108.533C41.0454 108.541 40.9278 108.017 41.0152 107.365C41.1025 106.713 41.3594 106.236 41.4339 106.267Z" fill="#FF9A6C"/>
<path d="M132.296 164.885L144.16 85.0435L122.261 77.0159C122.261 77.0159 117.131 72.2982 114.398 69.8521L113.436 82.2001C113.436 82.2001 110.473 132.684 115.135 158.108C119.796 183.532 119.138 182.672 122.55 199.209C125.034 211.248 125.441 221.76 129.182 222.819C132.922 223.879 145.855 204.93 145.855 204.93L132.296 164.885Z" fill="#3C45DA"/>
<path d="M144.156 85.0435C144.156 85.0435 150.792 88.3004 151.786 97.5726C152.659 105.729 154.097 155.798 153.921 159.839C153.745 163.881 150.258 175.29 144.003 175.688C134.131 176.314 131.414 168.698 131.414 168.698L134.066 143.122L144.156 85.0435Z" fill="#3C45DA"/>
<path d="M119.047 130.944C119.046 130.894 119.051 130.843 119.063 130.794C119.084 130.677 119.111 130.534 119.143 130.357C119.223 129.95 119.334 129.394 119.474 128.687C119.74 127.231 120.141 125.135 120.512 122.514C121.294 117.286 121.959 110.01 122.343 101.954C122.432 100.056 122.518 98.2004 122.605 96.4059C122.643 95.5078 122.682 94.626 122.721 93.7606C122.744 93.3284 122.767 92.9013 122.789 92.4792C122.797 92.2684 122.805 92.0593 122.813 91.8514V91.545C122.813 91.4955 122.81 91.4448 122.805 91.4011C122.805 91.3813 122.798 91.3546 122.798 91.3546C122.798 91.3546 122.798 91.3546 122.807 91.3703C122.816 91.386 122.807 91.3732 122.827 91.3912C122.839 91.4021 122.853 91.4104 122.868 91.4155C122.884 91.4206 122.9 91.4225 122.916 91.4209C122.951 91.4297 123.006 91.3802 122.998 91.386L123.004 91.3778L122.802 91.4215L119.54 89.1239L119.355 88.9928L119.56 88.8979L123.126 87.256L123.062 87.3894C122.745 85.9561 122.503 84.5072 122.337 83.0486C122.171 81.7643 122.01 80.6606 121.833 79.7643C121.701 79.0748 121.533 78.3928 121.328 77.7211L121.158 77.1969C121.135 77.1383 121.118 77.0771 121.109 77.0146C121.143 77.0677 121.17 77.1248 121.19 77.1847C121.237 77.3012 121.313 77.4689 121.393 77.6978C121.625 78.3646 121.815 79.0455 121.961 79.7363C122.158 80.6327 122.338 81.7399 122.522 83.0218C122.705 84.3037 122.899 85.765 123.288 87.3317L123.311 87.4249L123.224 87.4657L119.671 89.1338L119.691 88.9084L122.964 91.1891L122.761 91.2334L122.791 91.1932C122.82 91.1608 122.86 91.1401 122.904 91.135C122.943 91.135 122.981 91.1483 123.011 91.1728C123.023 91.1831 123.034 91.1953 123.042 91.2089C123.053 91.2246 123.061 91.2419 123.066 91.2602C123.077 91.2946 123.083 91.3302 123.086 91.3662C123.093 91.4244 123.095 91.4792 123.097 91.5334V91.8531C123.09 92.064 123.082 92.2754 123.075 92.4885C123.054 92.9114 123.033 93.3385 123.011 93.7699C122.975 94.6342 122.937 95.5154 122.899 96.4135C122.817 98.2091 122.73 100.065 122.643 101.964C122.362 108.852 121.721 115.721 120.721 122.542C120.323 125.159 119.888 127.26 119.586 128.706C119.423 129.409 119.295 129.963 119.199 130.365L119.091 130.795C119.083 130.847 119.068 130.897 119.047 130.944Z" fill="#263238"/>
<g opacity="0.3">
<path d="M86.8388 172.099C86.8388 172.099 85.3443 174.042 88.6327 174.639C91.9211 175.237 129.18 172.484 129.18 172.484L136.26 176.597L135.336 173.623L129.43 167.324L86.8388 172.099Z" fill="black"/>
</g>
<path d="M131.608 110.133L84.7022 112.527C84.1696 112.554 83.666 112.778 83.2882 113.154C82.9105 113.53 82.6853 114.033 82.6561 114.566L79.5424 170.205C79.5255 170.508 79.5726 170.811 79.6806 171.094C79.7887 171.378 79.9553 171.636 80.1697 171.851C80.384 172.065 80.6412 172.233 80.9245 172.341C81.2078 172.45 81.5108 172.498 81.8139 172.482L127.327 170.102C127.849 170.074 128.343 169.859 128.718 169.494C129.093 169.13 129.323 168.643 129.365 168.122L133.871 112.469C133.897 112.162 133.856 111.853 133.753 111.563C133.649 111.273 133.485 111.008 133.27 110.787C133.056 110.566 132.797 110.393 132.51 110.28C132.223 110.167 131.916 110.117 131.608 110.133Z" fill="#263238"/>
<path d="M141.457 97.9397C141.446 98.1081 141.421 98.2752 141.382 98.4394C141.314 98.7889 141.222 99.2624 141.107 99.86C140.859 101.121 140.509 102.897 140.08 105.078C139.223 109.487 138.103 115.589 137.032 122.356C135.961 129.123 135.147 135.277 134.602 139.735C134.338 141.943 134.123 143.739 133.97 145.015C133.896 145.618 133.838 146.096 133.795 146.451C133.781 146.619 133.754 146.785 133.713 146.949C133.707 146.781 133.714 146.612 133.735 146.445C133.764 146.088 133.804 145.608 133.855 145.003C133.964 143.752 134.146 141.943 134.392 139.71C134.882 135.243 135.665 129.084 136.734 122.309C137.803 115.534 138.961 109.437 139.872 105.037C140.327 102.837 140.712 101.06 140.994 99.8355L141.324 98.4266C141.356 98.2611 141.4 98.0983 141.457 97.9397Z" fill="#263238"/>
<path d="M132.569 146.569C132.569 146.569 135.27 146.724 137.659 150.724L142.231 153.633C142.231 153.633 146.23 159.918 142.231 165.788C138.231 171.658 133.4 166.671 133.4 166.671C133.4 166.671 128.57 169.065 127.219 168.647C125.868 168.23 116.714 163.307 115.375 162.176C114.978 161.84 112.031 158.457 112.031 158.457C112.031 158.457 107.947 157.58 107.48 156.646C107.013 155.711 106.978 153.565 109.732 153.773C109.732 153.773 107.052 152.965 106.741 151.615C106.429 150.264 106.765 148.502 111.492 149.177C116.219 149.853 125.332 152.385 126.388 152.127C126.497 152.064 126.587 151.971 126.645 151.86C126.704 151.748 126.729 151.621 126.718 151.496C126.707 151.37 126.661 151.25 126.583 151.15C126.506 151.05 126.402 150.974 126.284 150.931C125.945 150.773 115.23 146.607 113.502 146.133C111.642 145.623 111.376 141.478 115.22 142.464C119.064 143.451 131.582 146.464 131.582 146.464L132.569 146.569Z" fill="#FFBF9D"/>
<path d="M125.499 162.477C124.825 162.319 124.161 162.118 123.513 161.874C122.296 161.477 120.613 160.938 118.737 160.391C116.862 159.844 115.153 159.395 113.913 159.076C113.235 158.933 112.568 158.746 111.914 158.517C112.101 158.511 112.289 158.53 112.471 158.576C112.825 158.634 113.335 158.732 113.962 158.867C115.218 159.133 116.941 159.552 118.822 160.099C120.703 160.647 122.381 161.221 123.582 161.672C124.183 161.897 124.666 162.088 124.995 162.23C125.174 162.288 125.344 162.371 125.499 162.477Z" fill="#FF9A6C"/>
<path d="M127.037 157.508C126.803 157.518 126.569 157.503 126.338 157.461C125.889 157.412 125.241 157.326 124.442 157.207C122.844 156.97 120.644 156.586 118.233 156.07C115.823 155.554 113.658 155.002 112.103 154.564C111.325 154.345 110.699 154.156 110.269 154.019C110.041 153.962 109.819 153.88 109.609 153.774C109.844 153.792 110.076 153.836 110.3 153.905L112.157 154.356C113.724 154.741 115.891 155.258 118.297 155.774C120.703 156.29 122.891 156.706 124.478 156.997L126.356 157.346C126.589 157.374 126.817 157.429 127.037 157.508Z" fill="#FF9A6C"/>
<path d="M140.045 156.436C140.074 156.598 140.076 156.765 140.053 156.928C140.031 157.375 139.972 157.819 139.878 158.256C139.26 161.185 137.555 163.772 135.107 165.495C134.742 165.755 134.358 165.985 133.956 166.182C133.815 166.268 133.662 166.331 133.501 166.368C133.475 166.32 134.094 165.998 134.98 165.32C137.299 163.544 138.952 161.037 139.669 158.205C139.938 157.127 139.99 156.431 140.045 156.436Z" fill="#FF9A6C"/>
<path d="M141.565 167.322C141.521 167.284 142.151 166.675 142.86 165.483C143.794 163.934 144.314 162.172 144.37 160.364C144.427 158.557 144.017 156.765 143.182 155.162C142.548 153.927 141.959 153.281 142.004 153.245C142.167 153.369 142.311 153.517 142.431 153.683C142.787 154.112 143.102 154.573 143.371 155.061C144.281 156.68 144.732 158.517 144.674 160.374C144.616 162.23 144.052 164.036 143.043 165.595C142.743 166.065 142.4 166.506 142.018 166.912C141.888 167.07 141.735 167.208 141.565 167.322Z" fill="#263238"/>
<path d="M152.119 147.351C152.084 147.402 151.354 146.838 150.032 146.193C149.257 145.819 148.452 145.511 147.626 145.273C145.597 144.69 143.47 144.531 141.378 144.807C140.525 144.92 139.683 145.105 138.862 145.359C137.458 145.801 136.653 146.25 136.625 146.194C136.795 146.06 136.98 145.947 137.177 145.858C137.397 145.732 137.625 145.621 137.859 145.526C138.164 145.386 138.476 145.262 138.795 145.156C139.621 144.867 140.473 144.657 141.339 144.53C143.47 144.218 145.644 144.38 147.705 145.006C148.543 145.26 149.354 145.594 150.129 146.002C150.427 146.154 150.718 146.323 150.998 146.507C151.216 146.636 151.425 146.779 151.624 146.937C151.805 147.054 151.972 147.193 152.119 147.351Z" fill="#263238"/>
<g opacity="0.3">
<path d="M121.462 78.0264C121.462 78.0264 125.416 87.2479 124.867 88.0161C124.319 88.7844 122.232 89.3336 122.232 89.3336C122.232 89.3336 125.638 90.8054 125.635 92.1129C125.631 94.7152 121.983 110.13 121.983 110.13L122.883 91.3057L119.617 89.0144L123.177 87.3592L121.462 78.0264Z" fill="black"/>
</g>
<path d="M131.419 112.114C131.419 112.114 131.33 112.129 131.155 112.144L130.382 112.202L127.409 112.398L116.468 113.061L100.239 114.006L90.6552 114.553L88.1409 114.695L86.8683 114.768C86.661 114.781 86.4291 114.789 86.2404 114.807C86.0548 114.834 85.8806 114.912 85.7381 115.034C85.5956 115.156 85.4909 115.316 85.4361 115.495C85.3936 115.695 85.371 115.899 85.3685 116.103C85.339 116.535 85.3097 116.969 85.2806 117.403C85.222 118.273 85.1637 119.148 85.1059 120.029C84.1356 134.115 83.2573 146.866 82.6201 156.111C82.2881 160.716 82.019 164.447 81.8321 167.043C81.7336 168.322 81.6573 169.321 81.6026 170.014C81.574 170.343 81.5513 170.596 81.535 170.786C81.5181 170.961 81.5018 171.048 81.5018 171.048C81.5018 171.048 81.4977 170.958 81.5018 170.784C81.5111 170.596 81.5234 170.339 81.5391 170.01C81.5799 169.315 81.6375 168.315 81.7138 167.035C81.8781 164.438 82.1139 160.704 82.4057 156.096C83.0196 146.849 83.867 134.097 84.803 120.008C84.8624 119.127 84.9207 118.252 84.9777 117.382C85.0076 116.948 85.037 116.514 85.0657 116.082C85.0693 115.855 85.0964 115.628 85.1466 115.406C85.2185 115.172 85.3556 114.963 85.5419 114.804C85.7282 114.645 85.9559 114.542 86.1985 114.508C86.4361 114.485 86.6324 114.481 86.8508 114.467L88.1234 114.395L90.6377 114.256L100.223 113.726L116.455 112.846L127.405 112.28L130.381 112.141L131.156 112.112C131.327 112.108 131.419 112.114 131.419 112.114Z" fill="#455A64"/>
</svg>
