<svg width="8" height="9" viewBox="0 0 8 9" fill="none" xmlns="http://www.w3.org/2000/svg">
<path d="M5.42456 5.20011L4.30914 4.36355V2.65945C4.30914 2.48811 4.17064 2.34961 3.9993 2.34961C3.82795 2.34961 3.68945 2.48811 3.68945 2.65945V4.51848C3.68945 4.61608 3.73531 4.70811 3.81339 4.76636L5.05273 5.69588C5.10622 5.73615 5.17137 5.75791 5.23833 5.75784C5.33283 5.75784 5.42578 5.71539 5.48652 5.63359C5.58941 5.49694 5.56152 5.30267 5.42456 5.20011Z" fill="white"/>
<path d="M4 0.494141C1.79427 0.494141 0 2.28841 0 4.49414C0 6.69988 1.79427 8.49414 4 8.49414C6.20573 8.49414 8 6.69988 8 4.49414C8 2.28841 6.20573 0.494141 4 0.494141ZM4 7.87447C2.13633 7.87447 0.619672 6.35781 0.619672 4.49414C0.619672 2.63047 2.13633 1.11381 4 1.11381C5.86398 1.11381 7.38033 2.63047 7.38033 4.49414C7.38033 6.35781 5.86367 7.87447 4 7.87447Z" fill="white"/>
</svg>
