<svg width="11" height="19" viewBox="0 0 11 19" fill="none" xmlns="http://www.w3.org/2000/svg">
<path d="M10.5115 0.499874C10.6663 0.657298 10.7892 0.844287 10.873 1.05014C10.9569 1.25599 11 1.47666 11 1.69952C11 1.92238 10.9569 2.14305 10.873 2.3489C10.7892 2.55475 10.6663 2.74174 10.5115 2.89917L4.02997 9.50148L10.5115 16.1038C10.8238 16.422 10.9993 16.8535 10.9993 17.3034C10.9993 17.7534 10.8238 18.1849 10.5115 18.5031C10.1991 18.8213 9.7755 19 9.33378 19C8.89206 19 8.46843 18.8213 8.15608 18.5031L0.488523 10.6926C0.333663 10.5352 0.210803 10.3482 0.126975 10.1424C0.0431473 9.9365 0 9.71583 0 9.49297C0 9.27011 0.0431473 9.04944 0.126975 8.84359C0.210803 8.63774 0.333663 8.45075 0.488523 8.29333L8.15608 0.482857C8.79087 -0.163761 9.85998 -0.163761 10.5115 0.499874Z" fill="#303030"/>
</svg>
