<svg width="20" height="29" viewBox="0 0 20 29" fill="none" xmlns="http://www.w3.org/2000/svg">
<path d="M14.9404 28.4727C14.8029 28.4727 14.671 28.418 14.5737 28.3208C14.4765 28.2235 14.4219 28.0917 14.4219 27.9541V0.991175C14.4219 0.853655 14.4765 0.721768 14.5737 0.624527C14.671 0.527286 14.8029 0.472656 14.9404 0.472656C15.0779 0.472656 15.2098 0.527286 15.307 0.624527C15.4043 0.721768 15.4589 0.853655 15.4589 0.991175V27.9541C15.4589 28.0917 15.4043 28.2235 15.307 28.3208C15.2098 28.418 15.0779 28.4727 14.9404 28.4727Z" fill="#303030" fill-opacity="0.5"/>
<path d="M17.0101 6.00369H14.9361C14.7985 6.00369 14.6666 5.94906 14.5694 5.85182C14.4722 5.75458 14.4175 5.62269 14.4175 5.48517C14.4175 5.34765 14.4722 5.21577 14.5694 5.11853C14.6666 5.02129 14.7985 4.96666 14.9361 4.96666H17.0101C17.1476 4.96666 17.2795 5.02129 17.3768 5.11853C17.474 5.21577 17.5286 5.34765 17.5286 5.48517C17.5286 5.62269 17.474 5.75458 17.3768 5.85182C17.2795 5.94906 17.1476 6.00369 17.0101 6.00369ZM17.0101 3.75643H14.9361C14.7985 3.75643 14.6666 3.7018 14.5694 3.60456C14.4722 3.50732 14.4175 3.37544 14.4175 3.23792C14.4175 3.1004 14.4722 2.96851 14.5694 2.87127C14.6666 2.77403 14.7985 2.7194 14.9361 2.7194H17.0101C17.1476 2.7194 17.2795 2.77403 17.3768 2.87127C17.474 2.96851 17.5286 3.1004 17.5286 3.23792C17.5286 3.37544 17.474 3.50732 17.3768 3.60456C17.2795 3.7018 17.1476 3.75643 17.0101 3.75643ZM17.0101 12.7444H14.9361C14.7985 12.7444 14.6666 12.6898 14.5694 12.5926C14.4722 12.4953 14.4175 12.3634 14.4175 12.2259C14.4175 12.0884 14.4722 11.9565 14.5694 11.8593C14.6666 11.762 14.7985 11.7074 14.9361 11.7074H17.0101C17.1476 11.7074 17.2795 11.762 17.3768 11.8593C17.474 11.9565 17.5286 12.0884 17.5286 12.2259C17.5286 12.3634 17.474 12.4953 17.3768 12.5926C17.2795 12.6898 17.1476 12.7444 17.0101 12.7444ZM17.0101 10.4972H14.9361C14.7985 10.4972 14.6666 10.4425 14.5694 10.3453C14.4722 10.2481 14.4175 10.1162 14.4175 9.97866C14.4175 9.84114 14.4722 9.70925 14.5694 9.61201C14.6666 9.51477 14.7985 9.46014 14.9361 9.46014H17.0101C17.1476 9.46014 17.2795 9.51477 17.3768 9.61201C17.474 9.70925 17.5286 9.84114 17.5286 9.97866C17.5286 10.1162 17.474 10.2481 17.3768 10.3453C17.2795 10.4425 17.1476 10.4972 17.0101 10.4972ZM17.0101 19.4852H14.9361C14.7985 19.4852 14.6666 19.4305 14.5694 19.3333C14.4722 19.2361 14.4175 19.1042 14.4175 18.9667C14.4175 18.8291 14.4722 18.6972 14.5694 18.6C14.6666 18.5028 14.7985 18.4481 14.9361 18.4481H17.0101C17.1476 18.4481 17.2795 18.5028 17.3768 18.6C17.474 18.6972 17.5286 18.8291 17.5286 18.9667C17.5286 19.1042 17.474 19.2361 17.3768 19.3333C17.2795 19.4305 17.1476 19.4852 17.0101 19.4852ZM17.0101 17.2379H14.9361C14.7985 17.2379 14.6666 17.1833 14.5694 17.086C14.4722 16.9888 14.4175 16.8569 14.4175 16.7194C14.4175 16.5819 14.4722 16.45 14.5694 16.3527C14.6666 16.2555 14.7985 16.2009 14.9361 16.2009H17.0101C17.1476 16.2009 17.2795 16.2555 17.3768 16.3527C17.474 16.45 17.5286 16.5819 17.5286 16.7194C17.5286 16.8569 17.474 16.9888 17.3768 17.086C17.2795 17.1833 17.1476 17.2379 17.0101 17.2379ZM17.0101 26.2259H14.9361C14.7985 26.2259 14.6666 26.1713 14.5694 26.074C14.4722 25.9768 14.4175 25.8449 14.4175 25.7074C14.4175 25.5699 14.4722 25.438 14.5694 25.3407C14.6666 25.2435 14.7985 25.1889 14.9361 25.1889H17.0101C17.1476 25.1889 17.2795 25.2435 17.3768 25.3407C17.474 25.438 17.5286 25.5699 17.5286 25.7074C17.5286 25.8449 17.474 25.9768 17.3768 26.074C17.2795 26.1713 17.1476 26.2259 17.0101 26.2259ZM17.0101 23.9787H14.9361C14.7985 23.9787 14.6666 23.924 14.5694 23.8268C14.4722 23.7295 14.4175 23.5977 14.4175 23.4601C14.4175 23.3226 14.4722 23.1907 14.5694 23.0935C14.6666 22.9962 14.7985 22.9416 14.9361 22.9416H17.0101C17.1476 22.9416 17.2795 22.9962 17.3768 23.0935C17.474 23.1907 17.5286 23.3226 17.5286 23.4601C17.5286 23.5977 17.474 23.7295 17.3768 23.8268C17.2795 23.924 17.1476 23.9787 17.0101 23.9787ZM19.0842 21.7319H14.9361C14.7985 21.7319 14.6666 21.6773 14.5694 21.58C14.4722 21.4828 14.4175 21.3509 14.4175 21.2134C14.4175 21.0759 14.4722 20.944 14.5694 20.8467C14.6666 20.7495 14.7985 20.6949 14.9361 20.6949H19.0842C19.2217 20.6949 19.3536 20.7495 19.4508 20.8467C19.5481 20.944 19.6027 21.0759 19.6027 21.2134C19.6027 21.3509 19.5481 21.4828 19.4508 21.58C19.3536 21.6773 19.2217 21.7319 19.0842 21.7319ZM19.0842 8.25043H14.9361C14.7985 8.25043 14.6666 8.1958 14.5694 8.09856C14.4722 8.00132 14.4175 7.86943 14.4175 7.73192C14.4175 7.5944 14.4722 7.46251 14.5694 7.36527C14.6666 7.26803 14.7985 7.2134 14.9361 7.2134H19.0842C19.2217 7.2134 19.3536 7.26803 19.4508 7.36527C19.5481 7.46251 19.6027 7.5944 19.6027 7.73192C19.6027 7.86943 19.5481 8.00132 19.4508 8.09856C19.3536 8.1958 19.2217 8.25043 19.0842 8.25043ZM19.0842 14.9912H14.9361C14.7985 14.9912 14.6666 14.9365 14.5694 14.8393C14.4722 14.7421 14.4175 14.6102 14.4175 14.4727C14.4175 14.3351 14.4722 14.2032 14.5694 14.106C14.6666 14.0088 14.7985 13.9541 14.9361 13.9541H19.0842C19.2217 13.9541 19.3536 14.0088 19.4508 14.106C19.5481 14.2032 19.6027 14.3351 19.6027 14.4727C19.6027 14.6102 19.5481 14.7421 19.4508 14.8393C19.3536 14.9365 19.2217 14.9912 19.0842 14.9912ZM19.0842 1.50969H14.9361C14.7985 1.50969 14.6666 1.45506 14.5694 1.35782C14.4722 1.26058 14.4175 1.12869 14.4175 0.991175C14.4175 0.853655 14.4722 0.721768 14.5694 0.624527C14.6666 0.527286 14.7985 0.472656 14.9361 0.472656H19.0842C19.2217 0.472656 19.3536 0.527286 19.4508 0.624527C19.5481 0.721768 19.6027 0.853655 19.6027 0.991175C19.6027 1.12869 19.5481 1.26058 19.4508 1.35782C19.3536 1.45506 19.2217 1.50969 19.0842 1.50969ZM19.0842 28.4727H14.9361C14.7985 28.4727 14.6666 28.418 14.5694 28.3208C14.4722 28.2235 14.4175 28.0917 14.4175 27.9541C14.4175 27.8166 14.4722 27.6847 14.5694 27.5875C14.6666 27.4902 14.7985 27.4356 14.9361 27.4356H19.0842C19.2217 27.4356 19.3536 27.4902 19.4508 27.5875C19.5481 27.6847 19.6027 27.8166 19.6027 27.9541C19.6027 28.0917 19.5481 28.2235 19.4508 28.3208C19.3536 28.418 19.2217 28.4727 19.0842 28.4727ZM11.8249 12.9171C11.6874 12.9171 11.5555 12.8625 11.4583 12.7652C11.3611 12.668 11.3064 12.5361 11.3064 12.3986C11.3064 10.969 10.1434 9.80599 8.71383 9.80599C8.57631 9.80599 8.44442 9.75136 8.34718 9.65412C8.24994 9.55688 8.19531 9.42499 8.19531 9.28747C8.19531 9.14995 8.24994 9.01806 8.34718 8.92082C8.44442 8.82358 8.57631 8.76895 8.71383 8.76895C10.7153 8.76895 12.3435 10.3976 12.3435 12.3986C12.3435 12.5361 12.2888 12.668 12.1916 12.7652C12.0943 12.8625 11.9625 12.9171 11.8249 12.9171Z" fill="#303030" fill-opacity="0.5"/>
<path d="M11.8247 18.9382C11.6871 18.9382 11.5552 18.8836 11.458 18.7864C11.3608 18.6891 11.3061 18.5572 11.3061 18.4197V12.3987C11.3061 12.2612 11.3608 12.1293 11.458 12.032C11.5552 11.9348 11.6871 11.8802 11.8247 11.8802C11.9622 11.8802 12.0941 11.9348 12.1913 12.032C12.2885 12.1293 12.3432 12.2612 12.3432 12.3987V18.4197C12.3432 18.5572 12.2885 18.6891 12.1913 18.7864C12.0941 18.8836 11.9622 18.9382 11.8247 18.9382ZM8.71354 9.80608H4.56539C4.42787 9.80608 4.29599 9.75145 4.19875 9.65421C4.1015 9.55697 4.04688 9.42508 4.04688 9.28756C4.04688 9.15004 4.1015 9.01815 4.19875 8.92091C4.29599 8.82367 4.42787 8.76904 4.56539 8.76904H8.71354C8.85106 8.76904 8.98295 8.82367 9.08019 8.92091C9.17743 9.01815 9.23206 9.15004 9.23206 9.28756C9.23206 9.42508 9.17743 9.55697 9.08019 9.65421C8.98295 9.75145 8.85106 9.80608 8.71354 9.80608Z" fill="#303030" fill-opacity="0.5"/>
<path d="M1.45602 12.9172C1.3185 12.9172 1.18661 12.8626 1.08937 12.7653C0.99213 12.6681 0.9375 12.5362 0.9375 12.3987C0.9375 10.3977 2.56565 8.76904 4.56713 8.76904C4.70465 8.76904 4.83654 8.82367 4.93378 8.92091C5.03102 9.01815 5.08565 9.15004 5.08565 9.28756C5.08565 9.42508 5.03102 9.55697 4.93378 9.65421C4.83654 9.75145 4.70465 9.80608 4.56713 9.80608C3.13757 9.80608 1.97454 10.9691 1.97454 12.3987C1.97454 12.5362 1.91991 12.6681 1.82267 12.7653C1.72543 12.8626 1.59354 12.9172 1.45602 12.9172Z" fill="#303030" fill-opacity="0.5"/>
<path d="M1.45602 18.9382C1.3185 18.9382 1.18661 18.8836 1.08937 18.7863C0.99213 18.6891 0.9375 18.5572 0.9375 18.4197V12.3986C0.9375 12.2611 0.99213 12.1292 1.08937 12.032C1.18661 11.9348 1.3185 11.8801 1.45602 11.8801C1.59354 11.8801 1.72543 11.9348 1.82267 12.032C1.91991 12.1292 1.97454 12.2611 1.97454 12.3986V18.4197C1.97454 18.5572 1.91991 18.6891 1.82267 18.7863C1.72543 18.8836 1.59354 18.9382 1.45602 18.9382ZM10.7894 19.9415C10.0162 19.9415 9.2338 19.4189 9.2338 18.4197C9.2338 18.2822 9.28843 18.1503 9.38567 18.053C9.48291 17.9558 9.61479 17.9012 9.75231 17.9012C9.88983 17.9012 10.0217 17.9558 10.119 18.053C10.2162 18.1503 10.2708 18.2822 10.2708 18.4197C10.2708 18.8812 10.7028 18.9045 10.7894 18.9045C10.8759 18.9045 11.3079 18.8812 11.3079 18.4197C11.3079 18.2822 11.3625 18.1503 11.4597 18.053C11.557 17.9558 11.6889 17.9012 11.8264 17.9012C11.9639 17.9012 12.0958 17.9558 12.193 18.053C12.2903 18.1503 12.3449 18.2822 12.3449 18.4197C12.3449 19.4189 11.5625 19.9415 10.7894 19.9415Z" fill="#303030" fill-opacity="0.5"/>
<path d="M2.49306 19.9415C1.71994 19.9415 0.9375 19.4188 0.9375 18.4196C0.9375 18.2821 0.99213 18.1502 1.08937 18.053C1.18661 17.9558 1.3185 17.9011 1.45602 17.9011C1.59354 17.9011 1.72543 17.9558 1.82267 18.053C1.91991 18.1502 1.97454 18.2821 1.97454 18.4196C1.97454 18.8811 2.40646 18.9045 2.49306 18.9045C2.57965 18.9045 3.01157 18.8811 3.01157 18.4196C3.01157 18.2821 3.0662 18.1502 3.16344 18.053C3.26069 17.9558 3.39257 17.9011 3.53009 17.9011C3.66761 17.9011 3.7995 17.9558 3.89674 18.053C3.99398 18.1502 4.04861 18.2821 4.04861 18.4196C4.04861 19.4188 3.26617 19.9415 2.49306 19.9415Z" fill="#303030" fill-opacity="0.5"/>
<path d="M3.52633 19.1394C3.38881 19.1394 3.25692 19.0848 3.15968 18.9875C3.06244 18.8903 3.00781 18.7584 3.00781 18.6209V12.3986C3.00781 12.2611 3.06244 12.1292 3.15968 12.032C3.25692 11.9348 3.38881 11.8801 3.52633 11.8801C3.66385 11.8801 3.79574 11.9348 3.89298 12.032C3.99022 12.1292 4.04485 12.2611 4.04485 12.3986V18.6209C4.04485 18.7584 3.99022 18.8903 3.89298 18.9875C3.79574 19.0848 3.66385 19.1394 3.52633 19.1394ZM9.74855 19.1394C9.61103 19.1394 9.47915 19.0848 9.3819 18.9875C9.28466 18.8903 9.23003 18.7584 9.23003 18.6209V12.3986C9.23003 12.2611 9.28466 12.1292 9.3819 12.032C9.47915 11.9348 9.61103 11.8801 9.74855 11.8801C9.88607 11.8801 10.018 11.9348 10.1152 12.032C10.2124 12.1292 10.2671 12.2611 10.2671 12.3986V18.6209C10.2671 18.7584 10.2124 18.8903 10.1152 18.9875C10.018 19.0848 9.88607 19.1394 9.74855 19.1394Z" fill="#303030" fill-opacity="0.5"/>
<path d="M3.52633 26.9171C3.38881 26.9171 3.25692 26.8625 3.15968 26.7652C3.06244 26.668 3.00781 26.5361 3.00781 26.3986V18.6208C3.00781 18.4833 3.06244 18.3514 3.15968 18.2542C3.25692 18.1569 3.38881 18.1023 3.52633 18.1023C3.66385 18.1023 3.79574 18.1569 3.89298 18.2542C3.99022 18.3514 4.04485 18.4833 4.04485 18.6208V26.3986C4.04485 26.5361 3.99022 26.668 3.89298 26.7652C3.79574 26.8625 3.66385 26.9171 3.52633 26.9171ZM9.74855 26.9171C9.61103 26.9171 9.47915 26.8625 9.3819 26.7652C9.28466 26.668 9.23003 26.5361 9.23003 26.3986V18.6208C9.23003 18.4833 9.28466 18.3514 9.3819 18.2542C9.47915 18.1569 9.61103 18.1023 9.74855 18.1023C9.88607 18.1023 10.018 18.1569 10.1152 18.2542C10.2124 18.3514 10.2671 18.4833 10.2671 18.6208V26.3986C10.2671 26.5361 10.2124 26.668 10.1152 26.7652C10.018 26.8625 9.88607 26.9171 9.74855 26.9171ZM6.63744 26.9171C6.49992 26.9171 6.36803 26.8625 6.27079 26.7652C6.17355 26.668 6.11892 26.5361 6.11892 26.3986V18.6208C6.11892 18.4833 6.17355 18.3514 6.27079 18.2542C6.36803 18.1569 6.49992 18.1023 6.63744 18.1023C6.77496 18.1023 6.90685 18.1569 7.00409 18.2542C7.10133 18.3514 7.15596 18.4833 7.15596 18.6208V26.3986C7.15596 26.5361 7.10133 26.668 7.00409 26.7652C6.90685 26.8625 6.77496 26.9171 6.63744 26.9171Z" fill="#303030" fill-opacity="0.5"/>
<path d="M8.19907 28.4219C7.66759 28.4219 7.16774 28.2435 6.79181 27.92C6.36196 27.5508 6.125 27.0105 6.125 26.3986C6.125 26.2611 6.17963 26.1292 6.27687 26.032C6.37411 25.9348 6.506 25.8801 6.64352 25.8801C6.78104 25.8801 6.91293 25.9348 7.01017 26.032C7.10741 26.1292 7.16204 26.2611 7.16204 26.3986C7.16204 27.1261 7.72048 27.3849 8.19907 27.3849C8.67767 27.3849 9.23611 27.1261 9.23611 26.3986C9.23611 26.2611 9.29074 26.1292 9.38798 26.032C9.48522 25.9348 9.61711 25.8801 9.75463 25.8801C9.89215 25.8801 10.024 25.9348 10.1213 26.032C10.2185 26.1292 10.2731 26.2611 10.2731 26.3986C10.2731 27.7271 9.22989 28.4219 8.19907 28.4219Z" fill="#303030" fill-opacity="0.5"/>
<path d="M5.08189 28.4218C4.55041 28.4218 4.05055 28.2435 3.67463 27.9199C3.24478 27.5507 3.00781 27.0104 3.00781 26.3986C3.00781 26.2611 3.06244 26.1292 3.15968 26.0319C3.25692 25.9347 3.38881 25.8801 3.52633 25.8801C3.66385 25.8801 3.79574 25.9347 3.89298 26.0319C3.99022 26.1292 4.04485 26.2611 4.04485 26.3986C4.04485 27.1261 4.60329 27.3848 5.08189 27.3848C5.56048 27.3848 6.11892 27.1261 6.11892 26.3986C6.11892 26.2611 6.17355 26.1292 6.27079 26.0319C6.36803 25.9347 6.49992 25.8801 6.63744 25.8801C6.77496 25.8801 6.90685 25.9347 7.00409 26.0319C7.10133 26.1292 7.15596 26.2611 7.15596 26.3986C7.15596 27.727 6.1127 28.4218 5.08189 28.4218ZM6.63744 7.73192C4.67018 7.73192 3.00781 6.06954 3.00781 4.10229C3.00781 2.13503 4.67018 0.472656 6.63744 0.472656C8.6047 0.472656 10.2671 2.13503 10.2671 4.10229C10.2671 6.06954 8.6047 7.73192 6.63744 7.73192ZM6.63744 1.50969C5.23226 1.50969 4.04485 2.6971 4.04485 4.10229C4.04485 5.50747 5.23226 6.69488 6.63744 6.69488C8.04263 6.69488 9.23003 5.50747 9.23003 4.10229C9.23003 2.6971 8.04263 1.50969 6.63744 1.50969Z" fill="#303030" fill-opacity="0.5"/>
</svg>
